<svg width="45" height="41" viewBox="0 0 45 41" fill="none" xmlns="http://www.w3.org/2000/svg">
<path d="M44.9473 27.2874C44.9473 32.7362 40.5302 37.1533 35.0814 37.1533L9.86855 37.1533C8.355 37.1533 7.12802 35.9263 7.12802 34.4128L7.12802 5.91134C7.12802 2.88424 9.58197 0.430291 12.6091 0.430291L42.2067 0.430294C43.7203 0.430294 44.9473 1.65727 44.9473 3.17082L44.9473 27.2874Z" fill="url(#paint0_linear_9_13624)"/>
<path d="M32.8451 33.6191C32.8413 33.6106 32.8366 33.6022 32.83 33.5946C32.8262 33.589 32.8224 33.5852 32.8177 33.5786C32.814 33.5729 32.8093 33.5673 32.8027 33.5607C32.7979 33.556 32.7923 33.5503 32.7857 33.5447C32.7687 33.5296 32.7489 33.5154 32.7254 33.5013L11.7369 21.3855C11.5503 21.2781 11.2468 21.2781 11.0602 21.3855L0.139489 27.6739C0.12441 27.6823 0.111215 27.6908 0.0989621 27.6993C0.0942496 27.7031 0.0895373 27.7059 0.0848249 27.7097C0.0603199 27.7304 0.0414698 27.7511 0.0282748 27.7728C0.0245048 27.7775 0.0216775 27.7832 0.01885 27.7898C0.0141375 27.7983 0.0103675 27.8077 0.00848249 27.8162C0.00659749 27.8228 0.00471257 27.8303 0.00377007 27.8369C0.000942583 27.8482 0 27.8595 0 27.8708C0 27.8784 0.00094254 27.8869 0.00188504 27.8944C0.00377003 27.9029 0.005655 27.9123 0.00848249 27.9208C0.01131 27.9293 0.01508 27.9387 0.01885 27.9462C0.0405274 27.9896 0.0801122 28.0292 0.139489 28.064L21.1279 40.1798C21.1854 40.2128 21.2561 40.2355 21.3296 40.2486C21.3739 40.2562 21.4201 40.259 21.4663 40.26C21.5125 40.26 21.5587 40.2562 21.602 40.2496C21.618 40.2477 21.6322 40.2449 21.6463 40.2411C21.6897 40.2317 21.7302 40.2175 21.7688 40.1996C21.782 40.194 21.7934 40.1874 21.8047 40.1798L32.7254 33.8915C32.8536 33.817 32.8931 33.7115 32.8451 33.6172V33.6191Z" fill="#FFC1C4"/>
<path d="M31.5066 30.3781C34.0847 30.3781 36.1748 29.1713 36.1748 27.6826C36.1748 26.1939 34.0847 24.9871 31.5066 24.9871C28.9284 24.9871 26.8384 26.1939 26.8384 27.6826C26.8384 29.1713 28.9284 30.3781 31.5066 30.3781Z" fill="#FFC1C4"/>
<path d="M31.9362 32.2384C31.9324 32.2299 31.9277 32.2214 31.9211 32.2139C31.9174 32.2082 31.9136 32.2045 31.9089 32.1979C31.9051 32.1922 31.9004 32.1866 31.8938 32.18C31.8891 32.1753 31.8834 32.1696 31.8768 32.1639C31.8599 32.1489 31.8401 32.1347 31.8165 32.1206L11.3992 20.3328C11.2126 20.2253 10.9091 20.2253 10.7225 20.3328L0.712243 26.1122C0.697163 26.1207 0.683968 26.1291 0.671716 26.1376C0.667003 26.1414 0.662291 26.1442 0.657579 26.148C0.633074 26.1687 0.614223 26.1895 0.601028 26.2111C0.597258 26.2158 0.594431 26.2215 0.591604 26.2281C0.586891 26.2366 0.583121 26.246 0.581236 26.2545C0.579351 26.2611 0.577466 26.2686 0.576524 26.2752C0.573696 26.2865 0.572754 26.2978 0.572754 26.3092C0.572754 26.3167 0.573696 26.3252 0.574639 26.3327C0.576524 26.3412 0.578409 26.3506 0.581236 26.3591C0.584064 26.3676 0.587834 26.377 0.591604 26.3846C0.613281 26.4279 0.652866 26.4675 0.712243 26.5024L21.1295 38.2902C21.187 38.3232 21.2577 38.3458 21.3312 38.359C21.3755 38.3665 21.4217 38.3693 21.4679 38.3703C21.5141 38.3703 21.5603 38.3665 21.6036 38.3599C21.6196 38.358 21.6338 38.3552 21.6479 38.3514C21.6913 38.342 21.7318 38.3279 21.7704 38.31C21.7836 38.3043 21.795 38.2977 21.8063 38.2902L31.8165 32.5108C31.9447 32.4363 31.9843 32.3308 31.9362 32.2365V32.2384ZM29.7374 31.8199L29.0965 32.1894L20.5678 37.1102C20.5452 37.1224 20.5226 37.1347 20.499 37.1441C20.3586 37.2016 20.2002 37.2016 20.0598 37.1441C20.0363 37.1347 20.0127 37.1224 19.9901 37.1102L3.79704 27.7615L3.01382 27.3101C2.98366 27.2922 2.95916 27.2733 2.94031 27.2526C2.85925 27.164 2.8847 27.05 3.01382 26.9746L12.1787 21.6834C12.2946 21.6165 12.4152 21.5693 12.5349 21.5844C12.5641 21.5882 12.5924 21.5957 12.6216 21.608C12.6367 21.6136 12.6518 21.6202 12.6669 21.6297L29.7364 31.4853C29.8656 31.5598 29.8656 31.7464 29.7364 31.8209L29.7374 31.8199Z" fill="#6A1A1E"/>
<path d="M0.672761 26.1394C0.504054 26.2591 0.373989 26.4994 0.373047 26.7002V27.1469C0.373047 27.3637 0.523846 27.6257 0.711403 27.7341L21.1268 39.521C21.1975 39.5624 21.2842 39.5869 21.3756 39.5964C21.4058 39.6001 21.435 39.602 21.4661 39.602H21.4671V38.3721C21.4209 38.3721 21.3747 38.3683 21.3304 38.3608C21.2569 38.3485 21.1862 38.3249 21.1287 38.292L0.711403 26.5042C0.539868 26.4052 0.525731 26.2478 0.671818 26.1394H0.672761Z" fill="#A3362B"/>
<path d="M26.5273 34.6358C26.1993 34.4473 25.647 34.4473 25.319 34.6358C25.2351 34.6848 25.172 34.7413 25.138 34.8007C25.0297 34.9883 25.2276 35.1306 25.319 35.1833C25.647 35.3718 26.1993 35.3718 26.5273 35.1833C26.6102 35.1343 26.6734 35.0778 26.7082 35.0184C26.8166 34.8309 26.6178 34.6885 26.5273 34.6358Z" fill="#FAA2A6"/>
<path d="M6.53561 23.7622C6.62704 23.7094 6.62704 23.6236 6.53561 23.5708C6.44419 23.5181 6.29622 23.5181 6.2048 23.5708C6.11337 23.6236 6.11337 23.7094 6.2048 23.7622C6.29622 23.8149 6.44419 23.8149 6.53561 23.7622Z" fill="#FAA2A6"/>
<path d="M6.01553 24.6652C6.09658 24.6181 6.09658 24.5427 6.01553 24.4955C5.93447 24.4484 5.80347 24.4484 5.72241 24.4955C5.64136 24.5427 5.64136 24.6181 5.72241 24.6652C5.80347 24.7123 5.93447 24.7123 6.01553 24.6652Z" fill="#FAA2A6"/>
<path d="M6.51423 24.3853L8.15794 23.4362C8.24842 23.3843 8.25219 23.3023 8.16831 23.2533C8.08349 23.2043 7.94211 23.2071 7.85258 23.259L6.20886 24.2081C6.11838 24.2599 6.11461 24.3419 6.19849 24.3909C6.28332 24.4399 6.42469 24.4371 6.51423 24.3853Z" fill="#FAA2A6"/>
<path opacity="0.8" d="M31.8597 32.1528C32.0001 32.2621 31.9851 32.4158 31.8154 32.5128L21.8052 38.2922C21.7118 38.3459 21.5893 38.3723 21.4668 38.3723V39.6023C21.5903 39.6023 21.7109 39.575 21.8042 39.5203L31.8145 33.7428C32.0011 33.6353 32.1528 33.3733 32.1528 33.1566V32.7079C32.1528 32.51 32.0256 32.2734 31.8597 32.1519V32.1528Z" fill="#A3362B"/>
<path d="M5.49001 29.6069C5.58709 29.6626 5.66531 29.7926 5.66531 29.8972C5.66531 29.9481 5.64741 29.983 5.61725 29.999C5.59651 30.0103 5.5164 30.0584 5.49472 30.0707C5.46268 30.0886 5.41838 30.0848 5.36843 30.0565L3.0923 28.7427C2.99522 28.6871 2.91699 28.557 2.91699 28.4524C2.91699 28.4043 2.93396 28.3704 2.96129 28.3525C2.98297 28.3393 3.06591 28.2912 3.08758 28.279C3.11963 28.2611 3.16393 28.2648 3.21388 28.2931L5.49001 29.6069Z" fill="#6A1A1E"/>
<path d="M5.36647 29.6759L3.09034 28.3621C2.99327 28.3065 2.91504 28.3461 2.91504 28.4507C2.91504 28.5553 2.99327 28.6854 3.09034 28.741L5.36647 30.0548C5.46355 30.1104 5.54178 30.0708 5.54178 29.9662C5.54178 29.8616 5.46355 29.7315 5.36647 29.6759Z" fill="#FAA2A6"/>
<path d="M2.44021 27.8498C2.53729 27.9054 2.61552 28.0355 2.61552 28.1401C2.61552 28.191 2.59761 28.2259 2.56745 28.2419C2.54672 28.2532 2.4666 28.3013 2.44493 28.3135C2.41288 28.3314 2.36858 28.3277 2.31863 28.2994L1.24513 27.6802C1.14805 27.6246 1.06982 27.4945 1.06982 27.3899C1.06982 27.3418 1.08679 27.3079 1.11412 27.29C1.1358 27.2768 1.21874 27.2287 1.24042 27.2165C1.27246 27.1986 1.31676 27.2023 1.36671 27.2306L2.44021 27.8498Z" fill="#6A1A1E"/>
<path d="M2.31863 27.9188L1.24513 27.2996C1.14805 27.244 1.06982 27.2836 1.06982 27.3882C1.06982 27.4928 1.14805 27.6229 1.24513 27.6785L2.31863 28.2977C2.41571 28.3533 2.49394 28.3137 2.49394 28.2091C2.49394 28.1045 2.41571 27.9744 2.31863 27.9188Z" fill="#FAA2A6"/>
<path d="M29.7375 31.8084L29.0966 32.1779L20.568 37.0986C20.5454 37.1109 20.5227 37.1231 20.4992 37.1326C20.3588 37.1901 20.2004 37.1901 20.06 37.1326C20.0364 37.1231 20.0129 37.1109 19.9902 37.0986L3.7972 27.75L3.01398 27.2986C2.98382 27.2807 2.95932 27.2618 2.94047 27.2411C2.85941 27.1525 2.88486 27.0384 3.01398 26.963L12.1788 21.6719C12.2947 21.6049 12.4154 21.5578 12.5351 21.5729C12.5643 21.5767 12.5926 21.5842 12.6218 21.5965C12.6369 21.6021 12.652 21.6087 12.667 21.6181L29.7366 31.4738C29.8657 31.5483 29.8657 31.7349 29.7366 31.8093L29.7375 31.8084Z" fill="#FDEEEC"/>
<path d="M4.95296 26.6094C4.95296 26.6094 4.94448 26.6075 4.93977 26.6047L4.89453 26.5783L4.78614 26.6405C4.78049 26.6443 4.77389 26.6443 4.76729 26.6405L4.75127 26.6311C4.75127 26.6311 4.74467 26.6273 4.74373 26.6254C4.74279 26.6236 4.7409 26.6217 4.73996 26.6188L4.69378 26.4596C4.69378 26.4596 4.69284 26.4549 4.69378 26.453C4.69378 26.4511 4.69661 26.4501 4.69943 26.4473L4.71451 26.4388C4.71451 26.4388 4.723 26.4351 4.72771 26.4351C4.73242 26.4351 4.73713 26.4369 4.74185 26.4398L4.89924 26.5303L4.92281 26.5161C4.92281 26.5161 4.93129 26.5123 4.936 26.5123C4.93977 26.5123 4.94448 26.5142 4.94919 26.5171L4.95956 26.5237C4.96427 26.5265 4.9671 26.5293 4.9671 26.5312C4.9671 26.5331 4.96522 26.5359 4.96051 26.5387L4.93694 26.5529L4.98218 26.5793C4.9869 26.5821 4.98972 26.5849 4.98972 26.5868C4.98972 26.5887 4.98784 26.5915 4.98312 26.5943L4.96522 26.6047C4.96522 26.6047 4.95674 26.6085 4.95202 26.6085L4.95296 26.6094ZM4.86343 26.5529L4.75127 26.4878L4.7852 26.5981L4.86343 26.5529Z" fill="#6A1A1E"/>
<path d="M5.05529 26.5183C5.01005 26.5164 4.96481 26.5022 4.91957 26.4768C4.87528 26.4513 4.85077 26.425 4.84795 26.3986C4.84512 26.3722 4.86303 26.3477 4.90167 26.326C4.91675 26.3166 4.93371 26.31 4.95068 26.3043C4.96764 26.2987 4.98461 26.2949 4.99969 26.2939C5.00346 26.2939 5.00628 26.2939 5.00817 26.2949C5.00911 26.2949 5.011 26.2968 5.01194 26.2987L5.02136 26.3156C5.02136 26.3156 5.02136 26.3194 5.02136 26.3203C5.02136 26.3203 5.01854 26.3203 5.01477 26.3222C4.98932 26.325 4.96576 26.3335 4.94408 26.3458C4.91769 26.3609 4.90638 26.3778 4.90827 26.3957C4.91015 26.4146 4.929 26.4334 4.96293 26.4532C4.9978 26.473 5.03079 26.4843 5.06189 26.4853C5.09299 26.4872 5.12127 26.4806 5.14672 26.4655C5.15614 26.4598 5.16368 26.4542 5.17122 26.4485C5.17782 26.4429 5.18253 26.4372 5.18536 26.4325L5.11184 26.3901L5.0666 26.4165C5.0666 26.4165 5.05812 26.4202 5.05341 26.4202C5.04964 26.4202 5.04493 26.4184 5.04021 26.4155L5.02985 26.4099C5.02513 26.407 5.02231 26.4042 5.02231 26.4023C5.02231 26.4004 5.02419 26.3976 5.0289 26.3948L5.10148 26.3533C5.10619 26.3505 5.11184 26.3496 5.11656 26.3496C5.12127 26.3496 5.12692 26.3514 5.13258 26.3552L5.2372 26.4155C5.2372 26.4155 5.24379 26.4193 5.24474 26.4212C5.24568 26.4231 5.24662 26.425 5.24474 26.4268C5.23908 26.4476 5.21835 26.4683 5.18253 26.489C5.14389 26.5117 5.10148 26.522 5.05624 26.5201L5.05529 26.5183Z" fill="#6A1A1E"/>
<path d="M5.9474 25.9785C5.98228 25.9983 5.98228 26.0312 5.9474 26.051C5.91253 26.0708 5.85598 26.0708 5.82205 26.051C5.78718 26.0312 5.78718 25.9983 5.82205 25.9785C5.85693 25.9587 5.91348 25.9587 5.9474 25.9785Z" fill="#6A1A1E"/>
<path d="M5.7195 25.9178C5.65635 25.9545 5.63656 26.0063 5.66107 26.0525C5.66578 26.062 5.6818 26.0676 5.69877 26.0667C5.72044 26.0648 5.73458 26.0525 5.72798 26.0412C5.71008 26.0082 5.72421 25.9715 5.76851 25.946C5.81281 25.9206 5.8769 25.9121 5.93345 25.9225C5.95418 25.9262 5.97492 25.9177 5.97774 25.9055C5.97963 25.8961 5.96926 25.8866 5.95324 25.8838C5.87313 25.8697 5.78265 25.881 5.7195 25.9178Z" fill="#6A1A1E"/>
<path d="M5.61782 25.8607C5.52357 25.9154 5.48964 25.9917 5.51697 26.0614C5.52074 26.0718 5.5377 26.0794 5.55561 26.0775C5.57635 26.0756 5.58954 26.0643 5.58483 26.053C5.56221 25.9955 5.58954 25.9333 5.66683 25.889C5.74411 25.8447 5.8525 25.8287 5.95146 25.8418C5.97125 25.8447 5.99105 25.8362 5.99387 25.8249C5.99576 25.8145 5.9835 25.8051 5.9656 25.8023C5.84402 25.7862 5.71207 25.806 5.61687 25.8607H5.61782Z" fill="#6A1A1E"/>
<path d="M7.47351 24.9525C7.47351 24.9525 7.46597 24.9507 7.46314 24.9488C7.46031 24.9469 7.45937 24.9441 7.46031 24.9422L7.47916 24.8489C7.47916 24.8489 7.48011 24.8442 7.48105 24.8423C7.48105 24.8404 7.48388 24.8385 7.4867 24.8366L7.51875 24.8178C7.51875 24.8178 7.52535 24.8149 7.53006 24.8149C7.53477 24.8149 7.53854 24.8149 7.54137 24.8178L7.80998 24.9733C7.80998 24.9733 7.81469 24.9771 7.81469 24.9799C7.81469 24.9827 7.81281 24.9846 7.80998 24.9865L7.77605 25.0063C7.77605 25.0063 7.76945 25.0091 7.76474 25.0091C7.76003 25.0091 7.75626 25.0091 7.75343 25.0063L7.54797 24.8875L7.53477 24.9478C7.53477 24.9478 7.53194 24.9525 7.52912 24.9535C7.52629 24.9554 7.52158 24.9554 7.51686 24.9554L7.47257 24.9525H7.47351Z" fill="#6A1A1E"/>
<path d="M7.6864 24.8329C7.6864 24.8329 7.67886 24.831 7.67603 24.8291C7.67321 24.8273 7.67226 24.8254 7.6732 24.8226L7.69206 24.7292C7.69206 24.7292 7.693 24.7245 7.69394 24.7226C7.69394 24.7208 7.69677 24.7189 7.6996 24.717L7.73164 24.6981C7.73164 24.6981 7.73824 24.6953 7.74295 24.6953C7.74766 24.6953 7.75143 24.6953 7.75426 24.6981L8.02287 24.8537C8.02287 24.8537 8.02758 24.8574 8.02758 24.8602C8.02758 24.8631 8.0257 24.865 8.02287 24.8668L7.98894 24.8866C7.98894 24.8866 7.98234 24.8895 7.97763 24.8895C7.97292 24.8895 7.96915 24.8895 7.96632 24.8866L7.76086 24.7679L7.74766 24.8282C7.74766 24.8282 7.74484 24.8329 7.74201 24.8339C7.73824 24.8357 7.73447 24.8357 7.72976 24.8357L7.68546 24.8329H7.6864Z" fill="#6A1A1E"/>
<path d="M7.9496 24.6728C7.9496 24.6728 7.9562 24.6699 7.96091 24.6699C7.96563 24.6699 7.9694 24.6699 7.97222 24.6728L8.01275 24.6963C8.01275 24.6963 8.01746 24.7001 8.01746 24.7029C8.01746 24.7057 8.01558 24.7076 8.01275 24.7095L7.97411 24.7321C7.97411 24.7321 7.96751 24.735 7.9628 24.735C7.95809 24.735 7.95432 24.735 7.95149 24.7321L7.91096 24.7086C7.91096 24.7086 7.90625 24.7048 7.90625 24.702C7.90625 24.6991 7.90814 24.6973 7.91096 24.6954L7.9496 24.6728ZM8.09569 24.7566C8.09569 24.7566 8.10229 24.7538 8.107 24.7538C8.11171 24.7538 8.11548 24.7538 8.11831 24.7566L8.15884 24.7802C8.15884 24.7802 8.16355 24.784 8.16355 24.7868C8.16355 24.7896 8.16167 24.7915 8.15884 24.7934L8.1202 24.816C8.1202 24.816 8.1136 24.8188 8.10889 24.8188C8.10417 24.8188 8.1004 24.8188 8.09758 24.816L8.05705 24.7924C8.05705 24.7924 8.05234 24.7887 8.05234 24.7859C8.05234 24.783 8.05422 24.7811 8.05705 24.7793L8.09569 24.7566Z" fill="#6A1A1E"/>
<path d="M8.37926 24.6626C8.37926 24.6626 8.37266 24.6654 8.36795 24.6654C8.36324 24.6654 8.35947 24.6654 8.35664 24.6626L8.30669 24.6333L8.17757 24.7078C8.17757 24.7078 8.17097 24.7106 8.16626 24.7106C8.16154 24.7106 8.15777 24.7106 8.15495 24.7078L8.12573 24.6908C8.12573 24.6908 8.11913 24.6861 8.11819 24.6833C8.11725 24.6805 8.1163 24.6776 8.11536 24.6739L8.08332 24.5089C8.08237 24.5014 8.08332 24.4967 8.08992 24.4929L8.12196 24.475C8.12196 24.475 8.12856 24.4722 8.13327 24.4722C8.13798 24.4722 8.14175 24.4722 8.14458 24.475L8.3114 24.5711L8.34722 24.5504C8.34722 24.5504 8.35381 24.5476 8.35853 24.5476C8.36324 24.5476 8.36701 24.5476 8.36984 24.5504L8.39905 24.5674C8.39905 24.5674 8.40377 24.5711 8.40377 24.574C8.40377 24.5768 8.40188 24.5787 8.39905 24.5806L8.36324 24.6013L8.41319 24.6305C8.41319 24.6305 8.4179 24.6343 8.4179 24.6371C8.4179 24.6399 8.41602 24.6418 8.41319 24.6437L8.37926 24.6635V24.6626ZM8.25391 24.6041L8.16531 24.5523L8.18322 24.6446L8.25485 24.6032L8.25391 24.6041Z" fill="#6A1A1E"/>
<path d="M8.26692 24.4036C8.26692 24.4036 8.26221 24.3999 8.26221 24.397C8.26221 24.3942 8.26409 24.3923 8.26692 24.3904L8.42337 24.2999C8.42337 24.2999 8.42997 24.2971 8.43468 24.2971C8.4394 24.2971 8.44317 24.2971 8.44599 24.2999L8.47521 24.3169C8.47521 24.3169 8.47992 24.3207 8.47992 24.3235C8.47992 24.3263 8.47804 24.3282 8.47521 24.3301L8.35834 24.398L8.40735 24.431C8.41206 24.4253 8.41772 24.4196 8.42432 24.4149C8.43091 24.4102 8.43657 24.4064 8.44128 24.4036C8.45636 24.3951 8.47333 24.3876 8.49029 24.3819C8.5082 24.3763 8.52516 24.3735 8.54307 24.3725C8.56098 24.3725 8.57889 24.3725 8.59585 24.3772C8.61376 24.381 8.62978 24.3876 8.6458 24.3961C8.66371 24.4064 8.67596 24.4168 8.68256 24.4272C8.68916 24.4376 8.69199 24.4479 8.6901 24.4583C8.68822 24.4687 8.68256 24.479 8.67314 24.4884C8.66371 24.4979 8.65146 24.5073 8.63638 24.5158C8.61753 24.5271 8.59868 24.5346 8.58077 24.5403C8.56286 24.5459 8.54496 24.5488 8.52893 24.5497C8.51197 24.5497 8.49689 24.5497 8.48275 24.5459C8.46861 24.5431 8.45542 24.5384 8.44411 24.5327C8.44034 24.5309 8.43845 24.529 8.4394 24.5261C8.4394 24.5233 8.44128 24.5214 8.44411 24.5195L8.47804 24.4998C8.47804 24.4998 8.48369 24.4969 8.48841 24.4969C8.49218 24.4969 8.49595 24.4969 8.50066 24.4988C8.50914 24.5016 8.51668 24.5035 8.52422 24.5035C8.53176 24.5035 8.5393 24.5035 8.5459 24.5016C8.55344 24.5007 8.56004 24.4979 8.56663 24.495C8.57323 24.4922 8.57983 24.4884 8.58643 24.4856C8.60245 24.4762 8.61093 24.4668 8.61187 24.4564C8.61282 24.446 8.60622 24.4366 8.59114 24.4272C8.57889 24.4196 8.56286 24.4168 8.54496 24.4178C8.52705 24.4178 8.51008 24.4234 8.49406 24.4328C8.48558 24.4376 8.47992 24.4423 8.47615 24.4451C8.47238 24.4489 8.4705 24.4517 8.46861 24.4545C8.46767 24.4573 8.46579 24.4592 8.46484 24.4621C8.4639 24.4639 8.46107 24.4668 8.4573 24.4687L8.41866 24.4903C8.41866 24.4903 8.41206 24.4932 8.40735 24.4932C8.40264 24.4932 8.39887 24.4932 8.39604 24.4903L8.26786 24.4017L8.26692 24.4036Z" fill="#6A1A1E"/>
<path d="M3.78935 27.318L3.70264 27.2681L3.81762 27.2012L3.90433 27.2511L3.78935 27.318Z" fill="#6A1A1E"/>
<path d="M3.96248 27.2259L3.78906 27.126L3.90405 27.0591L4.07747 27.159L3.96248 27.2259Z" fill="#6A1A1E"/>
<path d="M4.13806 27.1177L3.87793 26.9669L3.99291 26.9009L4.25304 27.0507L4.13806 27.1177Z" fill="#6A1A1E"/>
<path d="M4.31119 27.0179L3.96436 26.8181L4.07934 26.7512L4.42618 26.952L4.31119 27.0179Z" fill="#6A1A1E"/>
<path d="M12.1455 22.1619C12.1172 22.16 12.0927 22.1629 12.0776 22.1723L11.645 22.4211C11.6168 22.4371 11.6243 22.4664 11.662 22.488L11.8194 22.5795C11.8401 22.5917 11.8675 22.5992 11.8957 22.6021C11.908 22.603 11.9193 22.6021 11.9297 22.6021C11.9438 22.6002 11.9551 22.5974 11.9636 22.5917L12.3962 22.3429C12.4245 22.3269 12.4169 22.2976 12.3792 22.276L12.2218 22.1845C12.2011 22.1723 12.1738 22.1648 12.1455 22.1619ZM11.891 22.5861C11.8807 22.5861 11.8684 22.5813 11.858 22.5757L11.7006 22.4843C11.6733 22.4682 11.6677 22.4447 11.6884 22.4334L12.121 22.1845C12.1257 22.1817 12.1323 22.1798 12.1389 22.1789C12.1427 22.1789 12.1464 22.1789 12.1502 22.1789C12.1606 22.1789 12.1728 22.1836 12.1832 22.1893L12.3406 22.2807C12.3679 22.2967 12.3736 22.3203 12.3529 22.3316L11.9202 22.5804C11.9127 22.5851 11.9023 22.587 11.892 22.5861H11.891Z" fill="#6A1A1E"/>
<path d="M11.7966 22.4094L11.9832 22.5169L11.9153 22.5555C11.9097 22.5593 11.8965 22.5602 11.8927 22.5574L11.7542 22.4773C11.7344 22.466 11.7297 22.4481 11.7447 22.4396L11.7975 22.4094H11.7966Z" fill="#6A1A1E"/>
<path d="M11.8281 22.3926L11.9092 22.3455L12.0958 22.4529L12.0138 22.5L11.8281 22.3926Z" fill="#6A1A1E"/>
<path d="M11.9409 22.3323L12.022 22.2852L12.2086 22.3935L12.1275 22.4397L11.9409 22.3323Z" fill="#6A1A1E"/>
<path d="M12.1475 22.2237L12.2823 22.301C12.3068 22.3151 12.3021 22.3359 12.2681 22.3547L12.2408 22.3708L12.0542 22.2633L12.1192 22.2256C12.1268 22.2209 12.1428 22.22 12.1475 22.2228V22.2237Z" fill="#6A1A1E"/>
<path d="M12.2395 22.172C12.2517 22.1654 12.2875 22.1749 12.3196 22.1928L12.3488 22.2097C12.3808 22.2286 12.3978 22.2493 12.3865 22.2569L12.3657 22.27L12.2178 22.1833C12.2178 22.1833 12.2272 22.1777 12.2395 22.1711V22.172Z" fill="#6A1A1E"/>
<path d="M11.0459 22.8847L11.3814 22.5935L11.5586 22.8452L11.3268 22.782L11.0459 22.8847Z" fill="#6A1A1E"/>
<path d="M28.4241 31.1467C28.5099 31.2127 28.5005 31.307 28.3968 31.3673L20.4252 35.9723C20.3686 36.0053 20.2932 36.0213 20.2188 36.0223V36.5802C20.2932 36.5802 20.3677 36.5642 20.4261 36.5312L28.3959 31.9271C28.5099 31.8611 28.6032 31.7009 28.6023 31.569V31.487C28.6023 31.3663 28.525 31.2212 28.4232 31.1477L28.4241 31.1467Z" fill="#A3362B"/>
<path d="M18.3633 34.8252C18.2644 34.8997 18.188 35.042 18.189 35.1598V35.2427C18.189 35.3737 18.2813 35.534 18.3954 35.5999L20.0118 36.533C20.0693 36.566 20.1437 36.583 20.2182 36.582V36.0241C20.1437 36.0241 20.0683 36.0071 20.0118 35.975L18.3944 35.042C18.2926 34.9826 18.2823 34.8912 18.3633 34.8252Z" fill="#A3362B"/>
<path d="M20.7512 34.2371C20.7644 34.2296 20.7786 34.2258 20.7927 34.2258C20.8068 34.2258 20.8191 34.2277 20.8295 34.2305L21.6777 34.4681C21.6871 34.4699 21.6937 34.4728 21.6966 34.4747C21.7022 34.4784 21.706 34.4822 21.706 34.4869C21.706 34.4916 21.7032 34.4963 21.6966 34.4992L21.5703 34.5717C21.5571 34.5793 21.5448 34.583 21.5335 34.583C21.5222 34.583 21.5128 34.5821 21.5062 34.5793L21.395 34.5472L21.1292 34.7008L21.1838 34.7649C21.1838 34.7649 21.1895 34.7744 21.1895 34.78C21.1895 34.7866 21.1829 34.7932 21.1697 34.8017L21.0434 34.8743C21.0378 34.878 21.0302 34.8799 21.0217 34.8799C21.0133 34.8799 21.0057 34.878 21.0001 34.8743C20.9972 34.8724 20.9935 34.8686 20.9887 34.863L20.5769 34.3729C20.5722 34.3672 20.5693 34.3597 20.5693 34.3521C20.5693 34.3436 20.575 34.3361 20.5891 34.3286L20.7512 34.2353V34.2371ZM21.0264 34.583L21.1886 34.4897L20.8672 34.3983L21.0264 34.584V34.583Z" fill="#6A1A1E"/>
<path d="M21.3918 33.874C21.438 33.8477 21.487 33.8269 21.5388 33.8128C21.5907 33.7987 21.6425 33.7911 21.6953 33.7892C21.7481 33.7873 21.799 33.7921 21.8489 33.8024C21.8989 33.8128 21.9451 33.8298 21.9875 33.8524C22.0025 33.8599 22.0148 33.8675 22.027 33.874C22.0384 33.8806 22.0497 33.8872 22.061 33.8938C22.0713 33.9004 22.0827 33.9061 22.094 33.9127C22.1053 33.9193 22.1175 33.9268 22.1298 33.9344C22.1694 33.9598 22.1986 33.9862 22.2165 34.0145C22.2353 34.0428 22.2438 34.072 22.241 34.1021C22.2382 34.1323 22.2259 34.1615 22.2014 34.1907C22.1778 34.2199 22.143 34.2482 22.0968 34.2746L21.8263 34.4301C21.8188 34.4339 21.8103 34.4367 21.799 34.4367C21.7877 34.4367 21.7792 34.4348 21.7716 34.4301L21.1251 34.0569C21.1175 34.0531 21.1138 34.0475 21.1138 34.0418C21.1138 34.0352 21.1175 34.0305 21.1251 34.0267L21.3899 33.874H21.3918ZM21.798 33.957C21.717 33.9146 21.634 33.9193 21.5473 33.9692L21.4455 34.0277L21.8254 34.2473L21.9319 34.1851C22.0157 34.137 22.0214 34.0889 21.9479 34.0428C21.9347 34.0343 21.9215 34.0267 21.9092 34.0192C21.897 34.0126 21.8847 34.0051 21.8734 33.9985C21.8621 33.9919 21.8499 33.9853 21.8376 33.9777C21.8254 33.9711 21.8122 33.9636 21.798 33.956V33.957Z" fill="#6A1A1E"/>
<path d="M22.1139 33.4541C22.1601 33.4277 22.2091 33.407 22.261 33.3929C22.3128 33.3787 22.3646 33.3712 22.4174 33.3693C22.4702 33.3674 22.5211 33.3721 22.5711 33.3825C22.621 33.3929 22.6672 33.4098 22.7096 33.4324C22.7247 33.44 22.7379 33.4475 22.7492 33.4541C22.7605 33.4607 22.7718 33.4673 22.7822 33.4739C22.7925 33.4805 22.8038 33.4862 22.8152 33.4928C22.8265 33.4994 22.8387 33.5069 22.851 33.5144C22.8906 33.5399 22.9188 33.5663 22.9377 33.5946C22.9565 33.6228 22.9641 33.6521 22.9622 33.6822C22.9603 33.7124 22.9471 33.7416 22.9226 33.7708C22.899 33.8 22.8642 33.8283 22.818 33.8547L22.5475 34.0102C22.5399 34.014 22.5315 34.0168 22.5202 34.0168C22.5088 34.0168 22.5004 34.0149 22.4928 34.0102L21.8463 33.637C21.8387 33.6332 21.835 33.6275 21.835 33.6219C21.835 33.6153 21.8387 33.6106 21.8463 33.6068L22.1111 33.4541H22.1139ZM22.5202 33.5371C22.4391 33.4947 22.3562 33.4994 22.2695 33.5493L22.1677 33.6078L22.5475 33.8274L22.6549 33.7652C22.7388 33.7171 22.7445 33.669 22.671 33.6228C22.6578 33.6143 22.6446 33.6068 22.6323 33.5993C22.6201 33.5927 22.6078 33.5851 22.5965 33.5785C22.5852 33.5719 22.5729 33.5653 22.5607 33.5578C22.5484 33.5512 22.5352 33.5437 22.5211 33.5361L22.5202 33.5371Z" fill="#6A1A1E"/>
<path d="M23.2467 32.8059C23.2543 32.8012 23.2628 32.7993 23.2741 32.7993C23.2844 32.7993 23.2939 32.8012 23.3014 32.8059L23.4079 32.8672C23.4154 32.8719 23.4192 32.8766 23.4192 32.8832C23.4192 32.8898 23.4154 32.8945 23.4079 32.8992L23.2317 33.001L23.7444 33.297C23.7519 33.3007 23.7557 33.3064 23.7557 33.312C23.7557 33.3177 23.7519 33.3233 23.7444 33.3281L23.6134 33.4035C23.6058 33.4082 23.5973 33.4101 23.586 33.4101C23.5747 33.4101 23.5662 33.4082 23.5587 33.4035L23.046 33.1075L22.8697 33.2093C22.8622 33.2131 22.8537 33.2159 22.8424 33.2159C22.8311 33.2159 22.8226 33.214 22.8151 33.2093L22.7086 33.148C22.701 33.1433 22.6973 33.1386 22.6973 33.132C22.6973 33.1264 22.701 33.1207 22.7086 33.1169L23.2458 32.8069L23.2467 32.8059Z" fill="#6A1A1E"/>
<path d="M23.5892 32.9082C23.5543 32.8856 23.527 32.8602 23.5081 32.8328C23.4893 32.8055 23.4808 32.7772 23.4827 32.748C23.4846 32.7188 23.4968 32.6896 23.5204 32.6594C23.5439 32.6293 23.5798 32.6 23.6297 32.5718C23.6787 32.5435 23.7287 32.5227 23.7815 32.5096C23.8333 32.4954 23.8851 32.4888 23.936 32.4869C23.9869 32.486 24.0359 32.4907 24.083 32.5011C24.1302 32.5114 24.1735 32.5275 24.2131 32.5482C24.2433 32.5642 24.2734 32.5812 24.3055 32.5991C24.3366 32.617 24.3658 32.6349 24.3912 32.6509C24.4261 32.6735 24.4535 32.699 24.4723 32.7263C24.4912 32.7537 24.4996 32.7819 24.4977 32.8112C24.4959 32.8404 24.4836 32.8705 24.4591 32.9007C24.4346 32.9308 24.3988 32.9601 24.3498 32.9874C24.3008 33.0157 24.2499 33.0374 24.198 33.0505C24.1462 33.0647 24.0953 33.0713 24.0444 33.0722C23.9935 33.0732 23.9445 33.0685 23.8964 33.0571C23.8493 33.0468 23.806 33.0308 23.7664 33.01C23.7372 32.9949 23.7079 32.9789 23.6759 32.9601C23.6448 32.9422 23.6156 32.9243 23.5882 32.9073L23.5892 32.9082ZM24.2009 32.7546C24.1896 32.7471 24.1773 32.7395 24.1632 32.7301C24.149 32.7216 24.1349 32.7122 24.1189 32.7037C24.1038 32.6952 24.0887 32.6867 24.0736 32.6783C24.0585 32.6707 24.0453 32.6632 24.0331 32.6575C24.0152 32.649 23.9963 32.6415 23.9765 32.6368C23.9568 32.6321 23.937 32.6292 23.9162 32.6292C23.8955 32.6292 23.8748 32.6321 23.8531 32.6377C23.8314 32.6434 23.8107 32.6519 23.7899 32.6641C23.7692 32.6764 23.7541 32.6886 23.7447 32.7009C23.7353 32.7131 23.7306 32.7254 23.7306 32.7376C23.7306 32.7499 23.7343 32.7612 23.7428 32.7725C23.7513 32.7838 23.7626 32.7951 23.7786 32.8055C23.789 32.813 23.8003 32.8206 23.8144 32.8291C23.8286 32.8375 23.8437 32.846 23.8587 32.8555C23.8738 32.8639 23.8889 32.8724 23.904 32.8809C23.9191 32.8894 23.9332 32.896 23.9464 32.9026C23.9822 32.9205 24.0218 32.9299 24.0642 32.9308C24.1066 32.9318 24.1481 32.9205 24.1896 32.896C24.231 32.8724 24.2508 32.8479 24.2489 32.8234C24.247 32.7989 24.231 32.7763 24.2009 32.7555V32.7546Z" fill="#6A1A1E"/>
<path d="M24.7086 32.2638C24.7162 32.2695 24.7284 32.2761 24.7435 32.2855C24.7586 32.2949 24.7746 32.3034 24.7906 32.3128C24.8066 32.3223 24.8236 32.3317 24.8387 32.3402C24.8547 32.3487 24.867 32.3562 24.8764 32.36C24.8933 32.3684 24.9113 32.375 24.9292 32.3807C24.948 32.3864 24.9678 32.3892 24.9885 32.3892C25.0093 32.3892 25.03 32.3873 25.0517 32.3816C25.0734 32.3769 25.096 32.3675 25.1186 32.3543C25.1412 32.3411 25.1572 32.3289 25.1667 32.3176C25.1761 32.3062 25.1818 32.2949 25.1836 32.2855C25.1855 32.2761 25.1836 32.2667 25.1799 32.2582C25.1752 32.2497 25.1704 32.2431 25.1657 32.2365C25.1582 32.228 25.1544 32.2224 25.1544 32.2176C25.1544 32.2129 25.1591 32.2073 25.1704 32.2007L25.3014 32.1253C25.3071 32.1215 25.3146 32.1206 25.3231 32.1206C25.3316 32.1206 25.3391 32.1225 25.3448 32.1253C25.3778 32.1451 25.4014 32.1686 25.4155 32.195C25.4296 32.2214 25.4334 32.2497 25.4277 32.278C25.4221 32.3072 25.4061 32.3355 25.3816 32.3647C25.3571 32.3939 25.3222 32.4212 25.2788 32.4467C25.2308 32.474 25.1808 32.4947 25.129 32.5089C25.0771 32.5221 25.0253 32.5296 24.9735 32.5306C24.9226 32.5315 24.8726 32.5268 24.8255 32.5164C24.7784 32.5061 24.735 32.49 24.6964 32.4702C24.6671 32.4552 24.6379 32.4391 24.6059 32.4203C24.5748 32.4024 24.5456 32.3845 24.5182 32.3675C24.4834 32.3458 24.456 32.3213 24.4381 32.293C24.4193 32.2657 24.4117 32.2374 24.4127 32.2073C24.4146 32.1781 24.4268 32.1479 24.4504 32.1177C24.4739 32.0876 24.5098 32.0584 24.5578 32.031C24.6021 32.0056 24.6492 31.9858 24.7001 31.9717C24.751 31.9575 24.801 31.949 24.8509 31.9453C24.9009 31.9415 24.949 31.9443 24.9951 31.9519C25.0413 31.9603 25.0818 31.9735 25.1158 31.9933C25.1214 31.9971 25.1252 32.0009 25.1243 32.0056C25.1243 32.0103 25.1214 32.015 25.1158 32.0178L24.9848 32.0932C24.9735 32.0998 24.964 32.1027 24.9556 32.1027C24.9471 32.1027 24.9358 32.0998 24.9216 32.0961C24.9113 32.0932 24.8981 32.0904 24.8839 32.0876C24.8698 32.0848 24.8538 32.0838 24.8368 32.0857C24.8198 32.0866 24.801 32.0895 24.7812 32.0951C24.7614 32.1008 24.7397 32.1102 24.7171 32.1225C24.6945 32.1357 24.6785 32.1479 24.67 32.1611C24.6606 32.1734 24.6568 32.1856 24.6577 32.1979C24.6577 32.2101 24.6634 32.2214 24.6728 32.2318C24.6822 32.2422 24.6935 32.2525 24.7077 32.2629L24.7086 32.2638Z" fill="#6A1A1E"/>
<path d="M25.3421 31.5858C25.3553 31.5782 25.3694 31.5745 25.3835 31.5745C25.3977 31.5745 25.4099 31.5763 25.4203 31.5792L26.2685 31.8167C26.278 31.8186 26.2846 31.8214 26.2874 31.8233C26.293 31.8271 26.2968 31.8308 26.2959 31.8355C26.2959 31.8402 26.293 31.845 26.2874 31.8478L26.1611 31.9204C26.1479 31.9279 26.1356 31.9317 26.1243 31.9317C26.113 31.9317 26.1036 31.9307 26.097 31.9279L25.9858 31.8959L25.72 32.0495L25.7747 32.1136C25.7747 32.1136 25.7803 32.123 25.7803 32.1296C25.7803 32.1362 25.7737 32.1437 25.7605 32.1513L25.6342 32.2238C25.6286 32.2276 25.621 32.2286 25.6126 32.2286C25.6041 32.2286 25.5965 32.2267 25.5909 32.2238C25.5871 32.222 25.5833 32.2182 25.5796 32.2125L25.1677 31.7224C25.163 31.7168 25.1602 31.7092 25.1602 31.7017C25.1602 31.6932 25.1668 31.6857 25.1799 31.6781L25.3421 31.5848V31.5858ZM25.6173 31.9317L25.7794 31.8384L25.458 31.7469L25.6173 31.9326V31.9317Z" fill="#6A1A1E"/>
<path d="M25.9897 31.2225C26.034 31.197 26.0774 31.1772 26.1217 31.1622C26.166 31.148 26.2093 31.1386 26.2527 31.1348C26.2961 31.132 26.3385 31.1348 26.3799 31.1443C26.4224 31.1537 26.4619 31.1697 26.5006 31.1914C26.5505 31.2206 26.5816 31.2498 26.5939 31.2809C26.6061 31.312 26.6024 31.3431 26.5816 31.3752L26.9436 31.4411C26.9492 31.4421 26.9539 31.444 26.9577 31.4459C26.9633 31.4496 26.9662 31.4534 26.9662 31.4581C26.9662 31.4628 26.9633 31.4675 26.9577 31.4713L26.822 31.5495C26.8088 31.5571 26.7965 31.5608 26.7843 31.5608C26.773 31.5608 26.7616 31.5599 26.7532 31.558L26.428 31.4986L26.3356 31.5514L26.5496 31.6749C26.5571 31.6796 26.5609 31.6843 26.5609 31.6909C26.5609 31.6975 26.5571 31.7022 26.5496 31.706L26.4186 31.7814C26.411 31.7852 26.4026 31.788 26.3912 31.788C26.3799 31.788 26.3715 31.7861 26.3639 31.7814L25.7174 31.4082C25.7098 31.4044 25.7061 31.3987 25.7061 31.3921C25.7061 31.3865 25.7098 31.3808 25.7174 31.3771L25.9888 31.2206L25.9897 31.2225ZM26.1792 31.4628L26.2923 31.3978C26.3206 31.3818 26.3385 31.3648 26.346 31.3488C26.3536 31.3318 26.3441 31.3158 26.3159 31.2998C26.2876 31.2837 26.2593 31.2781 26.2301 31.2819C26.2009 31.2866 26.1726 31.2969 26.1443 31.313L26.0312 31.378L26.1792 31.4638V31.4628Z" fill="#6A1A1E"/>
<path d="M26.8933 30.6951C26.9008 30.6904 26.9093 30.6885 26.9206 30.6885C26.9319 30.6885 26.9404 30.6904 26.9479 30.6951L27.0544 30.7563C27.062 30.7601 27.0657 30.7658 27.0657 30.7714C27.0657 30.778 27.062 30.7827 27.0544 30.7874L26.8782 30.8892L27.3909 31.1852C27.3984 31.1899 27.4022 31.1946 27.4022 31.2012C27.4022 31.2078 27.3984 31.2125 27.3909 31.2163L27.2599 31.2917C27.2524 31.2954 27.2439 31.2983 27.2326 31.2983C27.2212 31.2983 27.2128 31.2964 27.2052 31.2917L26.6925 30.9957L26.5163 31.0975C26.5087 31.1013 26.5002 31.1041 26.4889 31.1041C26.4776 31.1041 26.4691 31.1022 26.4616 31.0975L26.356 31.0363C26.3485 31.0315 26.3447 31.0268 26.3447 31.0202C26.3447 31.0146 26.3485 31.0089 26.356 31.0052L26.8933 30.6951Z" fill="#6A1A1E"/>
<path d="M19.5034 34.7761C19.2508 34.9222 19.2508 35.1587 19.5034 35.3048C19.756 35.4509 20.166 35.4509 20.4186 35.3048C20.6712 35.1587 20.6712 34.9222 20.4186 34.7761C20.166 34.63 19.756 34.63 19.5034 34.7761ZM20.2546 34.9485L20.0849 35.0466L20.2546 35.1446C20.2857 35.1625 20.2857 35.1917 20.2546 35.2096C20.2235 35.2275 20.1726 35.2275 20.1415 35.2096L19.9718 35.1116L19.8022 35.2096C19.7711 35.2275 19.7202 35.2275 19.6891 35.2096C19.658 35.1917 19.658 35.1625 19.6891 35.1446L19.8587 35.0466L19.6891 34.9485C19.658 34.9306 19.658 34.9014 19.6891 34.8835C19.7202 34.8656 19.7711 34.8656 19.8022 34.8835L19.9718 34.9815L20.1415 34.8835C20.1726 34.8656 20.2235 34.8656 20.2546 34.8835C20.2857 34.9014 20.2857 34.9306 20.2546 34.9485Z" fill="#6A1A1E"/>
<path d="M21.2253 28.5903C21.2281 28.186 20.9472 27.6921 20.5976 27.4876C20.4147 27.3801 20.2498 27.3754 20.1329 27.4518L19.7031 27.693L20.6032 29.2444L21.0292 29.0031C21.1489 28.9381 21.2243 28.7958 21.2253 28.5894V28.5903Z" fill="#37474F"/>
<path d="M20.1518 27.7408C20.5005 27.9453 20.7814 28.4392 20.7795 28.8435C20.7767 29.2479 20.492 29.41 20.1424 29.2055C19.7936 29.0009 19.5128 28.5071 19.5147 28.1027C19.5175 27.6984 19.8021 27.5363 20.1518 27.7408Z" fill="#455A64"/>
<path d="M19.9326 28.3499C19.9336 28.1916 20.0306 28.1199 20.1485 28.1887C20.2663 28.2575 20.3615 28.4423 20.3605 28.6006C20.3596 28.7589 20.2625 28.8306 20.1447 28.7618C20.0269 28.693 19.9317 28.5082 19.9326 28.3499Z" fill="#263238"/>
<path opacity="0.15" d="M20.7805 28.8463C20.7805 28.7097 20.7494 28.5636 20.6947 28.4222L19.6043 27.7898C19.5496 27.8661 19.5175 27.9726 19.5166 28.1065C19.5166 28.1112 19.5166 28.1168 19.5166 28.1216L20.7795 28.8548C20.7795 28.8548 20.7795 28.8501 20.7795 28.8473L20.7805 28.8463Z" fill="black"/>
<path d="M16.7147 32.0379C16.4753 32.0511 16.2322 32.0124 16.0437 31.9172L10.1022 28.4941C9.74306 28.3131 9.33967 27.8438 9.31517 27.3998L9.13232 23.1671L9.46314 23.1482L9.64598 27.381C9.66295 27.6835 9.97963 28.0615 10.2511 28.1981L16.1926 31.6213C16.4678 31.7598 16.9334 31.7325 17.1897 31.5638L21.152 29.2811C21.2472 29.2189 21.3009 29.1444 21.2971 29.0822C21.2934 29.02 21.234 28.9559 21.1341 28.906L14.7732 25.2133C14.415 25.0332 14.0135 24.5629 13.9881 24.1181L13.8995 21.7703L14.2303 21.7515L14.3189 24.0992C14.3358 24.4018 14.6516 24.7806 14.9211 24.9164L21.2821 28.6091C21.4941 28.7156 21.6176 28.8767 21.6279 29.0634C21.6383 29.2481 21.5309 29.4281 21.3339 29.5582L17.3716 31.8409C17.1944 31.9578 16.956 32.0247 16.7147 32.0379Z" fill="#1D2238"/>
<path d="M15.6452 31.934C15.648 31.5297 15.3671 31.0358 15.0175 30.8313C14.8346 30.7239 14.6697 30.7192 14.5528 30.7955L14.123 31.0368L15.0231 32.5881L15.4491 32.3469C15.5688 32.2818 15.6442 32.1395 15.6452 31.9331V31.934Z" fill="#37474F"/>
<path d="M14.5717 31.0846C14.9204 31.2891 15.2013 31.783 15.1994 32.1873C15.1966 32.5916 14.9119 32.7537 14.5623 32.5492C14.2136 32.3447 13.9327 31.8508 13.9346 31.4465C13.9374 31.0422 14.222 30.8801 14.5717 31.0846Z" fill="#455A64"/>
<path d="M14.3525 31.6936C14.3535 31.5353 14.4506 31.4637 14.5684 31.5325C14.6862 31.6013 14.7814 31.786 14.7804 31.9444C14.7795 32.1027 14.6824 32.1743 14.5646 32.1055C14.4468 32.0367 14.3516 31.852 14.3525 31.6936Z" fill="#263238"/>
<path d="M11.2571 29.4097C11.2609 29.0053 10.98 28.5105 10.6322 28.306C10.4494 28.1985 10.2844 28.1929 10.1676 28.2692L9.73779 28.5096L10.6351 30.0628L11.0611 29.8225C11.1808 29.7584 11.2562 29.6161 11.258 29.4097H11.2571Z" fill="#37474F"/>
<path d="M10.185 28.56C10.5337 28.7655 10.8137 29.2594 10.8099 29.6637C10.8071 30.068 10.5215 30.2301 10.1728 30.0247C9.82404 29.8192 9.54412 29.3253 9.54789 28.921C9.55166 28.5167 9.83629 28.3546 10.185 28.56Z" fill="#455A64"/>
<path d="M9.96389 29.1674C9.96484 29.009 10.0619 28.9374 10.1797 29.0072C10.2975 29.0769 10.3927 29.2607 10.3908 29.419C10.3899 29.5774 10.2928 29.649 10.175 29.5793C10.0572 29.5095 9.96201 29.3257 9.96389 29.1674Z" fill="#263238"/>
<path d="M8.42429 18.0393C8.298 17.6293 8.48838 17.1006 8.84747 16.865L12.7975 14.6322C13.1566 14.3966 13.5496 14.5606 13.6759 14.9706L13.9502 15.8593L13.6787 16.0177L13.3856 15.1195C13.3159 14.9017 13.1028 14.8273 12.9125 14.9536L9.06613 17.1289C8.83617 17.2816 8.71176 17.6227 8.78904 17.8866L9.02089 18.7396L8.69762 18.9281L8.42335 18.0393H8.42429Z" fill="#455A64"/>
<path d="M14.5294 22.3345L9.22314 25.3985L16.978 29.8754L22.2843 26.8113L14.5294 22.3345Z" fill="#ED1C25"/>
<path opacity="0.5" d="M14.5294 22.3345L9.22314 25.3985L16.978 29.8754L22.2843 26.8113L14.5294 22.3345Z" fill="black"/>
<path d="M8.69189 18.9328L13.9435 15.864L14.525 22.3267L9.21875 25.3908L8.69189 18.9328Z" fill="#ED1C25"/>
<path opacity="0.35" d="M8.69189 18.9328L13.9435 15.864L14.525 22.3267L9.21875 25.3908L8.69189 18.9328Z" fill="black"/>
<path d="M13.9497 15.865L14.5312 22.3277L22.2861 26.8036L23.5104 21.3833L13.9497 15.864V15.865ZM16.6613 22.0788C16.4473 22.1608 16.1985 22.0327 16.1052 21.7904L14.8234 18.4644C14.7301 18.2231 14.8281 17.9601 15.0421 17.8781C15.256 17.7961 15.5048 17.9243 15.5981 18.1665L16.8799 21.4926C16.9732 21.7339 16.8752 21.9968 16.6613 22.0788ZM19.0825 23.2174C18.8686 23.2994 18.6198 23.1712 18.5265 22.929L17.2447 19.6029C17.1514 19.3616 17.2494 19.0987 17.4633 19.0167C17.6773 18.9347 17.9261 19.0628 18.0194 19.3051L19.3012 22.6311C19.3945 22.8724 19.2965 23.1354 19.0825 23.2174ZM21.5038 24.3569C21.2899 24.4389 21.0411 24.3107 20.9477 24.0684L19.666 20.7424C19.5726 20.5011 19.6707 20.2381 19.8846 20.1561C20.0986 20.0741 20.3474 20.2023 20.4407 20.4445L21.7225 23.7706C21.8158 24.0119 21.7178 24.2749 21.5038 24.3569Z" fill="#ED1C25"/>
<path opacity="0.23" d="M13.9497 15.865L14.5312 22.3277L22.2861 26.8036L23.5104 21.3833L13.9497 15.864V15.865ZM16.6613 22.0788C16.4473 22.1608 16.1985 22.0327 16.1052 21.7904L14.8234 18.4644C14.7301 18.2231 14.8281 17.9601 15.0421 17.8781C15.256 17.7961 15.5048 17.9243 15.5981 18.1665L16.8799 21.4926C16.9732 21.7339 16.8752 21.9968 16.6613 22.0788ZM19.0825 23.2174C18.8686 23.2994 18.6198 23.1712 18.5265 22.929L17.2447 19.6029C17.1514 19.3616 17.2494 19.0987 17.4633 19.0167C17.6773 18.9347 17.9261 19.0628 18.0194 19.3051L19.3012 22.6311C19.3945 22.8724 19.2965 23.1354 19.0825 23.2174ZM21.5038 24.3569C21.2899 24.4389 21.0411 24.3107 20.9477 24.0684L19.666 20.7424C19.5726 20.5011 19.6707 20.2381 19.8846 20.1561C20.0986 20.0741 20.3474 20.2023 20.4407 20.4445L21.7225 23.7706C21.8158 24.0119 21.7178 24.2749 21.5038 24.3569Z" fill="black"/>
<path d="M8.69189 18.9307L9.21875 25.3887L16.9736 29.8665L18.1979 24.4462L8.69189 18.9307ZM11.7531 25.2878C11.5392 25.3698 11.2904 25.2416 11.1971 25.0003L9.91526 21.6743C9.82195 21.433 9.91997 21.17 10.1339 21.088C10.3479 21.006 10.5967 21.1342 10.69 21.3764L11.9718 24.7025C12.0651 24.9438 11.9671 25.2068 11.7531 25.2887V25.2878ZM14.1744 26.4263C13.9605 26.5083 13.7116 26.3802 13.6183 26.1389L12.3365 22.8128C12.2432 22.5715 12.3412 22.3086 12.5552 22.2266C12.7691 22.1446 13.018 22.2728 13.1113 22.515L14.3931 25.8411C14.4864 26.0823 14.3883 26.3453 14.1744 26.4273V26.4263ZM16.5957 27.5658C16.3817 27.6478 16.1329 27.5196 16.0396 27.2774L14.7578 23.9513C14.6645 23.7101 14.7625 23.4471 14.9765 23.3651C15.1904 23.2831 15.4392 23.4113 15.5325 23.6535L16.8143 26.9796C16.9076 27.2209 16.8096 27.4838 16.5957 27.5658Z" fill="#ED1C25"/>
<g opacity="0.15">
<path d="M8.69189 18.9309L9.21875 25.3889L16.9736 29.8667L18.1979 24.4464L8.69189 18.9309ZM11.7531 25.288C11.5392 25.37 11.2904 25.2419 11.1971 25.0006L9.91526 21.6745C9.82195 21.4332 9.91997 21.1703 10.1339 21.0883C10.3479 21.0063 10.5967 21.1345 10.69 21.3767L11.9718 24.7028C12.0651 24.944 11.9671 25.207 11.7531 25.289V25.288ZM14.1744 26.4266C13.9605 26.5086 13.7116 26.3804 13.6183 26.1391L12.3365 22.8131C12.2432 22.5718 12.3412 22.3088 12.5552 22.2268C12.7691 22.1448 13.018 22.273 13.1113 22.5152L14.3931 25.8413C14.4864 26.0826 14.3883 26.3455 14.1744 26.4275V26.4266ZM16.5957 27.5661C16.3817 27.6481 16.1329 27.5199 16.0396 27.2777L14.7578 23.9516C14.6645 23.7103 14.7625 23.4474 14.9765 23.3654C15.1904 23.2834 15.4392 23.4115 15.5325 23.6538L16.8143 26.9798C16.9076 27.2211 16.8096 27.4841 16.5957 27.5661Z" fill="black"/>
</g>
<path d="M18.2004 24.4535L23.5066 21.3894L22.2823 26.8097L16.9761 29.8728L18.2004 24.4535Z" fill="#ED1C25"/>
<path opacity="0.4" d="M18.2004 24.4535L23.5066 21.3894L22.2823 26.8097L16.9761 29.8728L18.2004 24.4535Z" fill="black"/>
<path d="M20.1153 12.7426L19.5026 13.1017L19.5045 11.2459L19.1332 11.032L17.4518 12.0028L17.4489 14.2921L16.4688 14.8472L18.6629 16.2704L20.4866 12.9566L20.1153 12.7426Z" fill="#820D01"/>
<path d="M17.8229 12.2127L17.82 14.502L16.8398 15.0581L18.6626 16.2664L20.4864 12.9526L19.5015 13.5313L19.5043 11.2419L17.8229 12.2127Z" fill="#A90F00"/>
<path d="M17.4525 11.9951L17.8239 12.2091L17.8211 14.4984L17.4497 14.2844L17.4525 11.9951Z" fill="#6A1A1E"/>
<path d="M9.85547 14.2015L15.1693 11.1337L14.7263 4.7417L9.85547 7.55411V14.2015Z" fill="#FFC562"/>
<path d="M9.85547 14.2015L15.1693 11.1337L14.7263 4.7417L9.85547 7.55411V14.2015Z" fill="#FFBA43"/>
<path d="M9.85285 7.54542V7.03365L8.52393 6.77823L13.3947 3.96582L13.8377 4.73301H14.7237L9.85285 7.54542Z" fill="#FFC562"/>
<path opacity="0.3" d="M9.85285 7.54542V7.03365L8.52393 6.77823L13.3947 3.96582L13.8377 4.73301H14.7237L9.85285 7.54542Z" fill="white"/>
<path d="M13.3994 3.96582V5.50021L13.8424 5.24479V4.73301L13.3994 3.96582Z" fill="#FFC562"/>
<path opacity="0.1" d="M13.3994 3.96582V5.50021L13.8424 5.24479V4.73301L13.3994 3.96582Z" fill="black"/>
<path d="M14.7238 4.7417H13.8379V5.25348L14.7238 4.7417Z" fill="#FFC562"/>
<path opacity="0.2" d="M14.7238 4.7417H13.8379V5.25348L14.7238 4.7417Z" fill="black"/>
<path d="M8.52647 6.78003L8.0835 13.172L9.85539 14.1947V7.54722V7.03545L8.52647 6.78003Z" fill="#FFC562"/>
<path opacity="0.1" d="M8.52647 6.78003L8.0835 13.172L9.85539 14.1947V7.54722V7.03545L8.52647 6.78003Z" fill="black"/>
<path d="M9.8547 7.04077L8.96875 13.6882L9.8547 14.2V7.04077Z" fill="#FFC562"/>
<path opacity="0.2" d="M9.8547 7.04077L8.96875 13.6882L9.8547 14.2V7.04077Z" fill="black"/>
<path d="M9.85539 14.2041L9.04296 13.1382L8.0835 13.1815L9.85539 14.2041Z" fill="#FFC562"/>
<path d="M9.96436 6.71782C9.96436 6.80453 10.0256 6.84034 10.101 6.79699C10.1764 6.75363 10.2377 6.64807 10.2377 6.56042C10.2377 6.47277 10.1764 6.43789 10.101 6.48125C10.0256 6.5246 9.96436 6.63016 9.96436 6.71782Z" fill="#530A0D"/>
<path d="M11.7759 5.69438C11.7759 5.78109 11.8371 5.8169 11.9125 5.77355C11.9879 5.73019 12.0492 5.62463 12.0492 5.53698C12.0492 5.44933 11.9879 5.41446 11.9125 5.45781C11.8371 5.50117 11.7759 5.60673 11.7759 5.69438Z" fill="#530A0D"/>
<path d="M10.0989 6.61898C10.0735 6.61898 10.0527 6.59825 10.0527 6.5728V5.45594C10.0527 4.96961 10.4693 4.33249 10.982 4.03654C11.2676 3.8716 11.5381 3.83956 11.7257 3.94795C11.8746 4.03371 11.9566 4.20242 11.9566 4.42108V5.55019C11.9566 5.57564 11.9358 5.59637 11.9104 5.59637C11.8849 5.59637 11.8642 5.57564 11.8642 5.55019V4.42202C11.8642 4.23447 11.8001 4.09875 11.6785 4.02806C11.5202 3.93664 11.2827 3.96868 11.0263 4.11665C10.5391 4.39752 10.1423 4.99883 10.1423 5.45594V6.5728C10.1423 6.59825 10.1215 6.61898 10.0961 6.61898H10.0989Z" fill="#530A0D"/>
<path d="M11.313 7.48027C11.313 7.56698 11.3743 7.60279 11.4497 7.55944C11.5251 7.51608 11.5863 7.41052 11.5863 7.32287C11.5863 7.23522 11.5251 7.20035 11.4497 7.2437C11.3743 7.28706 11.313 7.39261 11.313 7.48027Z" fill="#455A64"/>
<path d="M13.1265 6.45683C13.1265 6.54354 13.1877 6.57935 13.2631 6.536C13.3385 6.49264 13.3998 6.38708 13.3998 6.29943C13.3998 6.21178 13.3385 6.17691 13.2631 6.22026C13.1877 6.26362 13.1265 6.36918 13.1265 6.45683Z" fill="#455A64"/>
<path d="M11.4495 7.38143C11.4241 7.38143 11.4033 7.3607 11.4033 7.33525V6.21839C11.4033 5.73206 11.8199 5.09494 12.3326 4.79899C12.6182 4.63406 12.8887 4.60201 13.0763 4.7104C13.2252 4.79617 13.3072 4.96487 13.3072 5.18353V6.31264C13.3072 6.33809 13.2864 6.35882 13.261 6.35882C13.2355 6.35882 13.2148 6.33809 13.2148 6.31264V5.18353C13.2148 4.99597 13.1507 4.86025 13.0291 4.78957C12.8708 4.69815 12.6333 4.73019 12.3769 4.87816C11.8896 5.15997 11.4929 5.76034 11.4929 6.21745V7.33431C11.4929 7.35976 11.4721 7.38049 11.4467 7.38049L11.4495 7.38143Z" fill="#455A64"/>
<path d="M29.6161 11.0231C29.3419 11.6132 28.8725 12.5896 28.6152 13.1306L27.6086 11.9459H26.7632C26.7632 11.9459 27.7811 14.1164 28.388 14.6207C28.6161 14.8101 28.9027 14.7875 29.0827 14.5792C29.2627 14.3709 29.4908 14.0618 29.7641 13.6405C30.2448 12.8987 30.4597 12.5773 30.4597 12.5773L31.0657 10.0316C30.5351 9.98923 29.9969 10.206 29.6161 11.025V11.0231Z" fill="#FFA8A7"/>
<path d="M31.1636 10.0276C30.8403 10.0154 30.4888 9.97483 30.1796 10.2444C29.977 10.4216 29.7159 10.7006 29.5076 11.1906C29.2993 11.6807 28.9761 12.3019 28.9761 12.3019C28.9761 12.3019 29.2013 12.6515 29.5802 12.9314C29.9591 13.2114 30.3041 13.2359 30.3041 13.2359L31.1627 10.0276H31.1636Z" fill="#27DEBF"/>
<path d="M31.1636 10.0276C30.8403 10.0154 30.4888 9.97483 30.1796 10.2444C29.977 10.4216 29.7159 10.7006 29.5076 11.1906C29.2993 11.6807 28.9761 12.3019 28.9761 12.3019C28.9761 12.3019 29.2013 12.6515 29.5802 12.9314C29.9591 13.2114 30.3041 13.2359 30.3041 13.2359L31.1627 10.0276H31.1636Z" fill="#470701"/>
<path d="M28.6123 13.1336C28.6123 13.1336 28.8564 13.4248 28.9214 13.5558C28.9214 13.5558 28.8131 13.1562 28.666 13.0195L28.6123 13.1336Z" fill="#F28F8F"/>
<path d="M26.5083 10.3749H26.5064L26.5865 10.291C26.6044 10.2741 26.6346 10.2665 26.676 10.2731L27.6506 10.439C27.7411 10.4541 27.8457 10.5342 27.8834 10.6171L28.7599 12.5219C28.7806 12.5662 28.7769 12.602 28.7571 12.6237L28.6741 12.7104C28.6562 12.7274 28.6251 12.7359 28.5846 12.7293L27.6101 12.5634C27.5196 12.5483 27.415 12.4682 27.3773 12.3853C27.2048 12.0111 26.6732 10.8546 26.5007 10.4805C26.4791 10.4333 26.4838 10.3966 26.5073 10.3749H26.5083Z" fill="#455A64"/>
<path d="M28.6773 12.6031L27.8008 10.6983C27.7621 10.6154 27.6584 10.5353 27.568 10.5202L26.5934 10.3543C26.5029 10.3392 26.4605 10.3939 26.4992 10.4778C26.6716 10.8519 27.2032 12.0084 27.3757 12.3826C27.4143 12.4655 27.518 12.5456 27.6085 12.5607L28.583 12.7266C28.6735 12.7417 28.7159 12.687 28.6773 12.6031Z" fill="#263238"/>
<path d="M27.6768 10.5592C27.7305 10.5931 27.7776 10.6431 27.8012 10.693L28.6777 12.5978C28.6965 12.6402 28.6956 12.676 28.6777 12.6977L28.7559 12.6167H28.755C28.7757 12.594 28.7785 12.5582 28.7578 12.5139L27.8813 10.6082C27.8596 10.5611 27.8162 10.5158 27.7663 10.481L27.6768 10.5592Z" fill="#37474F"/>
<path d="M26.9695 12.2517C26.5661 11.7889 26.5774 11.2093 26.7631 11.0415L26.8865 11.3092C26.8865 11.3092 27.5039 11.4468 27.8007 11.4232C28.0976 11.3997 28.3399 11.3299 28.4219 11.3874C28.5943 11.509 28.6433 12.0264 28.1504 12.214C27.731 12.3733 26.9713 12.2507 26.9713 12.2507L26.9695 12.2517Z" fill="#FFA8A7"/>
<path d="M34.0663 27.4604C33.8062 27.5999 33.4886 27.5886 33.1785 27.4604L33.0503 25.7715L34.0672 25.9053V27.4604H34.0663Z" fill="#FFA8A7"/>
<path d="M30.9478 26.454C30.7282 26.93 30.3305 26.798 29.8828 26.4936L29.961 24.7961H31.0402L30.9469 26.454H30.9478Z" fill="#FFA8A7"/>
<path d="M32.1637 29.0555C32.1354 29.0829 32.1439 29.2666 32.175 29.3166C32.2089 29.3694 32.404 29.5362 32.7556 29.5607C33.0921 29.5852 33.3927 29.539 33.5897 29.4137C33.7876 29.2883 33.8828 29.1498 33.9017 28.9584C33.9205 28.7671 33.8988 28.5814 33.9903 28.4344C34.0751 28.2978 34.2089 28.1451 34.2381 28.0706C34.3022 27.9104 34.24 27.6804 34.24 27.6804L32.1628 29.0555H32.1637Z" fill="#263238"/>
<path d="M33.0875 27.3905C33.0818 27.4612 33.0695 27.5319 33.046 27.6035C32.997 27.7525 32.9235 27.892 32.8396 28.0248C32.7972 28.0936 32.7519 28.1606 32.6991 28.2228C32.5974 28.3434 32.4711 28.4433 32.3636 28.5592C32.2562 28.6752 32.1647 28.8165 32.1563 28.9721C32.1421 29.236 32.4286 29.3255 32.6492 29.3651C32.8848 29.4065 33.1355 29.3943 33.3655 29.3293C33.6209 29.2567 33.8056 29.0588 33.848 28.8033C33.8603 28.7298 33.8556 28.6554 33.8641 28.5819C33.8839 28.4141 33.9706 28.2605 34.0695 28.12C34.127 28.039 34.1883 27.9598 34.2269 27.8684C34.2957 27.7053 34.2411 27.5216 34.1968 27.3585C34.1591 27.2181 34.1157 27.0588 34.0667 27.072C34.0667 27.1003 34.0686 27.1304 34.0554 27.1568C34.0394 27.187 34.0271 27.2039 34.0168 27.2397C34.0064 27.2765 33.9941 27.3133 33.9762 27.3481C33.9498 27.4009 33.9112 27.4499 33.8594 27.4773C33.8565 27.3773 33.8528 27.2784 33.8499 27.1785C33.849 27.1474 33.8471 27.1144 33.8273 27.0908C33.8066 27.0673 33.7736 27.0597 33.7434 27.0541C33.5568 27.0192 33.3674 26.9843 33.1789 27.0069C33.1506 27.0107 33.1195 27.0173 33.1035 27.0399C33.0903 27.0588 33.0903 27.0842 33.0912 27.1078C33.0941 27.2039 33.0978 27.2972 33.0903 27.3896L33.0875 27.3905Z" fill="#37474F"/>
<path d="M32.8046 28.0821C32.9027 28.0086 33.1232 28.0076 33.2438 28.0208C33.3946 28.0368 33.5172 28.0896 33.586 28.1405C33.6171 28.1631 33.6595 28.1594 33.6868 28.133C33.7198 28.1009 33.716 28.0482 33.6793 28.0208C33.6058 27.9671 33.4729 27.8908 33.2938 27.8785C32.9979 27.8578 32.9102 27.9087 32.9102 27.9087C32.9102 27.9087 32.7754 27.9954 32.8037 28.083L32.8046 28.0821Z" fill="#F5F5F5"/>
<path d="M32.5776 28.3573C32.7011 28.2848 32.9433 28.2951 33.064 28.3074C33.2148 28.3234 33.3279 28.3828 33.3967 28.4337C33.4278 28.4563 33.4702 28.4525 33.4975 28.4261C33.5305 28.3941 33.5267 28.3413 33.49 28.314C33.4165 28.2602 33.2751 28.1726 33.097 28.1603C32.801 28.1396 32.7237 28.1999 32.7237 28.1999C32.7237 28.1999 32.5984 28.248 32.5786 28.3573H32.5776Z" fill="#F5F5F5"/>
<path d="M33.4117 27.5991C33.2071 27.5784 33.1204 27.601 33.0394 27.6302C32.9875 27.6594 32.9527 27.7424 32.9866 27.7631C33.0526 27.7263 33.1713 27.7113 33.3165 27.7179C33.4145 27.7226 33.537 27.7622 33.6369 27.8055C33.6624 27.8168 33.6925 27.8328 33.7189 27.847C33.7547 27.8668 33.799 27.8526 33.816 27.8168C33.8301 27.7867 33.8198 27.7499 33.7906 27.732C33.7189 27.6886 33.5776 27.6161 33.4117 27.5991Z" fill="#F5F5F5"/>
<path d="M28.1187 27.5391C28.0914 27.5966 28.0989 27.705 28.1319 27.7738C28.1649 27.8426 28.524 28.0453 29.0075 28.0123C29.492 27.9793 29.8247 27.7842 30.0084 27.6626C30.1932 27.5401 30.3854 27.5175 30.6248 27.5043C30.8642 27.4901 31.179 27.3714 31.2318 27.2592C31.2846 27.1471 31.2243 26.9539 31.2243 26.9539L28.1178 27.5401L28.1187 27.5391Z" fill="#263238"/>
<path d="M30.0637 26.049C30.0222 26.0339 29.9798 26.0179 29.9383 26.0028C29.9157 25.9943 29.8893 25.9859 29.8667 25.9943C29.8356 26.0056 29.8233 26.0424 29.8158 26.0744C29.7988 26.1395 29.7922 26.2252 29.763 26.2846C29.7366 26.3393 29.6725 26.3892 29.6273 26.4269C29.5095 26.5259 29.3747 26.6041 29.2399 26.6767C29.0816 26.7615 28.927 26.8275 28.763 26.901C28.5962 26.9764 28.3756 27.0217 28.2446 27.1093C28.0542 27.2375 28.0297 27.5589 28.2465 27.6861C28.4331 27.7954 28.9242 27.9142 29.4397 27.7681C29.7206 27.6889 30.0316 27.3883 30.4001 27.36C30.6348 27.3421 31.0778 27.2761 31.2286 27.098C31.2842 27.0188 31.2097 26.7691 31.1485 26.5532C31.0815 26.3176 31.0561 25.9491 30.9779 25.9698C30.9722 26.0481 30.9044 26.0933 30.8638 26.1593C30.8271 26.2177 30.8073 26.2837 30.7799 26.3468C30.7526 26.41 30.7159 26.4722 30.6574 26.508C30.599 26.5438 30.5151 26.5466 30.468 26.4976C30.3992 26.426 30.4397 26.3016 30.3898 26.2158C30.3558 26.1574 30.288 26.131 30.2248 26.1074C30.1711 26.0876 30.1174 26.0679 30.0637 26.0481V26.049Z" fill="#37474F"/>
<path d="M29.458 26.5465C29.458 26.5465 29.4919 26.457 29.6314 26.4306C29.7379 26.4108 29.9264 26.489 30.0433 26.5861C30.0914 26.6257 30.0848 26.7001 30.031 26.7303C29.999 26.7482 29.9594 26.7435 29.9311 26.719C29.8548 26.6521 29.6823 26.5305 29.459 26.5465H29.458Z" fill="#F5F5F5"/>
<path d="M29.1265 26.7335C29.1265 26.7335 29.1953 26.6261 29.3319 26.628C29.3319 26.628 29.61 26.6355 29.7824 26.7967C29.8267 26.8372 29.823 26.9069 29.7711 26.9361C29.74 26.9531 29.7014 26.9484 29.675 26.9248C29.5977 26.8551 29.4422 26.71 29.1274 26.7335H29.1265Z" fill="#F5F5F5"/>
<path d="M28.7612 26.9031C28.7612 26.9031 28.8376 26.806 28.9742 26.8079C28.9742 26.8079 29.2334 26.8173 29.4059 26.9785C29.4502 27.019 29.4464 27.0888 29.3946 27.118C29.3635 27.1349 29.3248 27.1302 29.2985 27.1067C29.2212 27.0369 29.076 26.8795 28.7622 26.9031H28.7612Z" fill="#F5F5F5"/>
<path d="M33.9369 14.746C33.9982 16.5943 33.9935 21.0655 33.9935 21.0655C34.0133 21.2954 34.1066 21.7676 34.1829 22.6885C34.2828 23.8854 34.066 26.5188 34.066 26.5188C34.066 26.5188 33.6268 26.7431 33.1019 26.5244C33.1019 26.5244 32.5241 22.7714 32.3403 21.5876C32.1792 20.5471 31.8634 18.2106 31.8634 18.2106L31.4996 21.2493C31.4996 21.2493 31.5863 21.9684 31.4619 22.7676C31.3771 23.3124 31.0001 25.5518 31.0001 25.5518C31.0001 25.5518 30.5025 25.7044 29.9304 25.5112C29.9304 25.5112 29.8945 21.631 29.8851 21.1267C29.8738 20.5518 30.1396 14.2917 30.1396 14.2917L33.9369 14.7479V14.746Z" fill="#1D2238"/>
<path d="M31.8636 18.201L31.5903 16.6864C31.5903 16.6864 30.8325 16.6204 30.4141 16.1973C30.4141 16.1973 30.4885 16.611 31.4414 16.8598L31.7147 18.3923L31.4998 21.2396L31.8636 18.201Z" fill="#263238"/>
<path d="M30.2261 11.4593C30.3081 10.8674 30.3854 10.0719 31.3034 10.0361L32.4872 10.0927C32.7784 10.1681 33.9113 10.3029 33.9113 10.3029L33.932 12.8702C33.932 12.8702 34.0046 14.7213 33.982 15.7119C33.1347 16.2491 31.2912 16.4234 30.1328 15.5441C30.0989 14.726 30.1451 12.0455 30.2261 11.4593Z" fill="#FAFAFA"/>
<path d="M30.3827 6.99933C30.2922 7.15955 30.2366 7.34239 30.231 7.53938C30.215 8.02099 30.492 8.44323 30.9011 8.63738L30.6871 8.78347L32.8153 8.97386L32.788 9.48657C32.788 9.48657 32.9388 9.4517 33.0151 9.31504C33.0915 9.17838 33.2988 8.33956 33.2988 8.33956C33.4986 7.8815 33.5966 7.41025 33.4534 7.2538C33.3855 7.17934 33.3063 7.14541 33.2413 7.13127L33.5269 6.9899C33.4722 6.8702 33.3346 6.81931 33.2196 6.8768C33.1951 6.88905 33.1735 6.90602 33.1555 6.92487C33.1621 6.89471 33.1678 6.86455 33.1697 6.83345C33.1753 6.74014 33.1593 6.64306 33.1056 6.56672C33.0679 6.51205 33.0132 6.47058 32.9567 6.43571C32.7173 6.28585 32.4326 6.23025 32.1669 6.136C32.0161 6.08228 31.87 6.0163 31.7211 5.95692C31.6212 5.9164 31.5137 5.8787 31.4082 5.89943C31.3026 5.92017 31.2065 6.02478 31.2338 6.12846C31.0962 6.02007 30.9539 5.99274 30.7936 6.06154C30.6617 6.11903 30.5599 6.26041 30.5788 6.40838C30.4826 6.38859 30.378 6.39047 30.2904 6.43665C30.2027 6.48189 30.1377 6.57897 30.1499 6.67605C30.1641 6.79386 30.2687 6.90885 30.3818 6.99933H30.3827Z" fill="#1D2238"/>
<path d="M31.8813 7.29467C32.0764 7.27111 32.2715 7.24001 32.4657 7.20891C32.4836 7.20608 32.5034 7.20419 32.5166 7.2155C32.5251 7.22304 32.5298 7.23435 32.5335 7.24472C32.6608 7.61701 32.6579 8.02228 32.7588 8.40305C32.7682 8.43698 32.7899 8.49636 32.8314 8.50107C32.9068 8.50955 32.9586 8.44263 32.9906 8.3842C33.0152 8.34084 33.0387 8.29655 33.0632 8.25319C33.0783 8.22586 33.0962 8.20795 33.116 8.18627C33.2074 8.10239 33.477 7.99966 33.6023 8.28618C33.7315 8.58401 33.46 8.96195 33.2423 9.02321C32.8672 9.12783 32.8191 8.88749 32.8191 8.88749L32.7475 10.2249C32.4157 10.5717 31.3253 10.4511 31.5411 10.1504L31.5552 9.74328C31.5552 9.74328 31.2169 9.78381 31.0538 9.7527C30.7824 9.70181 30.6174 9.48032 30.5439 9.18249C30.4261 8.70371 30.4393 8.11747 30.5317 7.38986C30.543 7.2975 30.5684 7.21456 30.5986 7.13916C30.9803 7.34934 31.445 7.34557 31.8794 7.29373L31.8813 7.29467Z" fill="#FFA8A7"/>
<path d="M31.5569 9.7408C31.5569 9.7408 32.1705 9.63806 32.3863 9.53156C32.5315 9.46087 32.653 9.3327 32.6898 9.24976C32.6898 9.24976 32.6436 9.42883 32.5117 9.58811C32.3496 9.78227 31.5513 9.90291 31.5513 9.90291L31.5569 9.7408Z" fill="#F28F8F"/>
<path d="M31.6441 8.22477C31.6413 8.30017 31.6979 8.36237 31.7704 8.36426C31.843 8.36614 31.9033 8.30771 31.9052 8.23231C31.908 8.15691 31.8515 8.0947 31.7789 8.09282C31.7063 8.09093 31.646 8.14937 31.6441 8.22477Z" fill="#263238"/>
<path d="M31.8271 7.6867L32.1014 7.80451C32.1325 7.72628 32.0967 7.6358 32.0204 7.60376C31.945 7.57077 31.8583 7.60847 31.8271 7.6867Z" fill="#263238"/>
<path d="M31.8048 8.94186L31.375 9.087C31.4127 9.21047 31.5399 9.27739 31.6587 9.23686C31.7774 9.19633 31.8425 9.06439 31.8048 8.94092V8.94186Z" fill="#B16668"/>
<path d="M31.6577 9.24151C31.7341 9.21606 31.7869 9.15197 31.8067 9.07751C31.7831 9.06714 31.7567 9.06055 31.7284 9.06055C31.6248 9.06055 31.5409 9.14254 31.5371 9.24622C31.5758 9.25564 31.6172 9.25564 31.6587 9.24151H31.6577Z" fill="#F28F8F"/>
<path d="M30.5561 7.7939L30.8294 7.68928C30.803 7.61482 30.72 7.57713 30.6447 7.60634C30.5693 7.63556 30.5297 7.71944 30.557 7.7939H30.5561Z" fill="#263238"/>
<path d="M30.652 8.22571C30.6491 8.30111 30.7066 8.36426 30.7792 8.36614C30.8518 8.36803 30.913 8.30865 30.9149 8.23325C30.9177 8.15785 30.8602 8.0947 30.7877 8.09282C30.7151 8.09093 30.6538 8.15031 30.652 8.22571Z" fill="#263238"/>
<path d="M31.2899 8.19407L31.2701 8.91697L30.8667 8.8001L31.2428 8.18747C31.2607 8.18559 31.2757 8.18747 31.2899 8.19313V8.19407Z" fill="#F28F8F"/>
<path d="M30.084 12.1918C30.1161 11.4416 30.1745 10.7799 30.4535 10.4284C30.7325 10.0768 30.8833 10.0099 31.5449 10.0203L31.543 10.0655C31.4657 10.0721 31.3988 10.1098 31.3555 10.1739C31.2339 10.3558 30.9869 10.7696 30.8465 11.3049C30.6542 12.0334 30.6213 13.6602 30.6118 14.5367C30.6024 15.4132 30.6118 16.1192 30.6118 16.1192C30.6118 16.1192 30.1689 16.0155 30.0312 15.794C30.0312 15.794 30.052 12.942 30.084 12.1927V12.1918Z" fill="#820D01"/>
<path d="M32.3714 11.0012C32.4656 10.6015 32.6607 10.3386 32.7484 10.135L33.5759 10.2519C33.8803 10.3923 34.2771 10.7278 34.2469 11.0624L34.0302 13.5186L34.0905 15.8437C33.6173 16.5789 32.2074 16.4431 32.2074 16.4431C32.2074 16.4431 32.1668 15.397 32.213 13.3753C32.2385 12.2424 32.2507 11.5101 32.3714 11.0002V11.0012Z" fill="#27DEBF"/>
<path d="M32.3714 11.0012C32.4656 10.6015 32.6607 10.3386 32.7484 10.135L33.5759 10.2519C33.8803 10.3923 34.2771 10.7278 34.2469 11.0624L34.0302 13.5186L34.0905 15.8437C33.6173 16.5789 32.2074 16.4431 32.2074 16.4431C32.2074 16.4431 32.1668 15.397 32.213 13.3753C32.2385 12.2424 32.2507 11.5101 32.3714 11.0002V11.0012Z" fill="#820D01"/>
<path d="M32.334 11.1937C32.3886 10.9373 32.4179 10.4604 32.4631 10.3643C32.5074 10.2681 32.7543 10.0768 32.7638 9.94863L32.7685 9.86475C32.7685 9.86475 32.8684 9.87606 32.9749 9.97125C33.0522 10.0401 33.2812 10.1993 33.2812 10.1993C33.2812 10.1993 33.2586 10.4255 33.1097 10.6404C32.9739 10.8355 32.7854 10.9628 32.7562 10.9147C32.7289 10.8694 32.7317 10.7931 32.6818 10.6791C32.6196 10.5367 32.6045 10.4764 32.5385 10.6169C32.4857 10.729 32.3349 11.1927 32.3349 11.1927L32.334 11.1937Z" fill="#6A1A1E"/>
<path d="M30.9214 11.0542C30.8545 11.27 31.0317 10.3059 31.1457 10.1362C31.2598 9.96658 31.5529 9.89966 31.5529 9.89966L31.5406 10.1079C31.5406 10.1079 31.4454 10.1193 31.354 10.238C31.2805 10.3332 31.0138 10.7583 30.9214 11.0542Z" fill="#6A1A1E"/>
<path d="M32.3039 11.3977C32.8628 11.4505 33.4943 11.5485 34.1917 11.6927L34.1851 11.7625C33.4858 11.6182 32.8534 11.5183 32.2954 11.4665C32.2982 11.4429 32.3001 11.4203 32.3029 11.3977H32.3039Z" fill="#27DEBF"/>
<path d="M30.1433 11.3873C30.3497 11.3628 30.5844 11.3421 30.8417 11.3289C30.836 11.3515 30.8304 11.375 30.8247 11.3995C30.5702 11.4127 30.3384 11.4335 30.1357 11.458C30.1386 11.4344 30.1414 11.4109 30.1442 11.3873H30.1433Z" fill="#27DEBF"/>
<path d="M35.7911 13.5483C34.907 11.3033 34.7128 10.6049 34.0899 10.3466C33.8495 10.2477 33.5762 10.2373 33.5762 10.2373C33.4235 10.5182 33.1973 11.6058 33.9362 12.3617C33.9362 12.3617 34.4716 13.6831 34.7411 14.3061C34.7326 14.9328 34.7779 15.4569 34.5866 16.3051C34.5668 16.3946 34.4574 16.5445 34.3736 16.5907C34.1492 16.7141 34.1125 16.8536 33.9466 17.0129C33.8165 17.1373 33.7034 17.1656 33.7232 17.2071C33.7477 17.2608 33.8467 17.3484 34.0097 17.3079C34.0917 17.2872 34.2265 17.1995 34.3566 17.126C34.3783 17.1515 34.169 17.486 33.9504 17.7302C33.628 18.0892 33.5498 18.3484 34.1945 18.3739C34.5988 18.3899 35.0352 18.0581 35.3094 17.2523C35.3641 17.093 35.4197 16.8621 35.4772 16.6387C35.5187 16.5426 35.8146 15.0308 35.8768 14.569C35.956 13.9847 35.9353 13.914 35.792 13.5492L35.7911 13.5483Z" fill="#FFA8A7"/>
<path d="M33.4642 10.2321C33.4642 10.2321 33.8968 10.1586 34.2465 10.3697C34.5961 10.5808 34.7177 10.7656 35.139 11.7477C35.5613 12.7307 35.6432 12.9192 35.6432 12.9192C35.6432 12.9192 35.4529 13.479 34.3294 13.5431L33.8252 12.3933C33.8252 12.3933 33.4058 11.8721 33.3681 11.2274C33.3304 10.5837 33.4633 10.2312 33.4633 10.2312L33.4642 10.2321Z" fill="#820D01"/>
<path opacity="0.45" d="M33.4642 10.2321C33.4642 10.2321 33.8968 10.1586 34.2465 10.3697C34.5961 10.5808 34.7177 10.7656 35.139 11.7477C35.5613 12.7307 35.6432 12.9192 35.6432 12.9192C35.6432 12.9192 35.4529 13.479 34.3294 13.5431L33.8252 12.3933C33.8252 12.3933 33.4058 11.8721 33.3681 11.2274C33.3304 10.5837 33.4633 10.2312 33.4633 10.2312L33.4642 10.2321Z" fill="black"/>
<defs>
<linearGradient id="paint0_linear_9_13624" x1="26.0376" y1="37.1533" x2="26.0376" y2="0.430292" gradientUnits="userSpaceOnUse">
<stop stop-color="white"/>
<stop offset="1" stop-color="#FFDDDE"/>
</linearGradient>
</defs>
</svg>
