<svg width="30" height="30" viewBox="0 0 30 30" fill="none" xmlns="http://www.w3.org/2000/svg">
<g filter="url(#filter0_b_35_1171)">
<circle cx="15" cy="15" r="15" fill="#A3362B"/>
</g>
<path d="M13.0556 9H8.72222C8.53068 9 8.34698 9.07609 8.21153 9.21153C8.07609 9.34698 8 9.53068 8 9.72222V14.0556C8 14.2471 8.07609 14.4308 8.21153 14.5662C8.34698 14.7017 8.53068 14.7778 8.72222 14.7778H13.0556C13.2471 14.7778 13.4308 14.7017 13.5662 14.5662C13.7017 14.4308 13.7778 14.2471 13.7778 14.0556V9.72222C13.7778 9.53068 13.7017 9.34698 13.5662 9.21153C13.4308 9.07609 13.2471 9 13.0556 9ZM20.2778 9H15.9444C15.7529 9 15.5692 9.07609 15.4338 9.21153C15.2983 9.34698 15.2222 9.53068 15.2222 9.72222V14.0556C15.2222 14.2471 15.2983 14.4308 15.4338 14.5662C15.5692 14.7017 15.7529 14.7778 15.9444 14.7778H20.2778C20.4693 14.7778 20.653 14.7017 20.7885 14.5662C20.9239 14.4308 21 14.2471 21 14.0556V9.72222C21 9.53068 20.9239 9.34698 20.7885 9.21153C20.653 9.07609 20.4693 9 20.2778 9ZM13.0556 16.2222H8.72222C8.53068 16.2222 8.34698 16.2983 8.21153 16.4338C8.07609 16.5692 8 16.7529 8 16.9444V21.2778C8 21.4693 8.07609 21.653 8.21153 21.7885C8.34698 21.9239 8.53068 22 8.72222 22H13.0556C13.2471 22 13.4308 21.9239 13.5662 21.7885C13.7017 21.653 13.7778 21.4693 13.7778 21.2778V16.9444C13.7778 16.7529 13.7017 16.5692 13.5662 16.4338C13.4308 16.2983 13.2471 16.2222 13.0556 16.2222ZM18.1111 16.2222C18.6763 16.2222 19.2291 16.388 19.701 16.6991C20.173 17.0102 20.5432 17.4528 20.7661 17.9723C20.9889 18.4917 21.0544 19.0651 20.9546 19.6215C20.8547 20.1778 20.5939 20.6926 20.2043 21.1021C19.8148 21.5117 19.3136 21.7979 18.763 21.9255C18.2124 22.053 17.6364 22.0162 17.1065 21.8197C16.5765 21.6231 16.1159 21.2754 15.7816 20.8197C15.4473 20.3639 15.2541 19.8201 15.2258 19.2556L15.2222 19.1111L15.2258 18.9667C15.2629 18.2264 15.583 17.5287 16.1201 17.0179C16.6571 16.5071 17.3699 16.2222 18.1111 16.2222Z" fill="white"/>
<defs>
<filter id="filter0_b_35_1171" x="-20" y="-20" width="70" height="70" filterUnits="userSpaceOnUse" color-interpolation-filters="sRGB">
<feFlood flood-opacity="0" result="BackgroundImageFix"/>
<feGaussianBlur in="BackgroundImageFix" stdDeviation="10"/>
<feComposite in2="SourceAlpha" operator="in" result="effect1_backgroundBlur_35_1171"/>
<feBlend mode="normal" in="SourceGraphic" in2="effect1_backgroundBlur_35_1171" result="shape"/>
</filter>
</defs>
</svg>
