<svg width="34" height="34" viewBox="0 0 34 34" fill="none" xmlns="http://www.w3.org/2000/svg">
<path d="M21.25 32.2292H12.75C5.0575 32.2292 1.77083 28.9425 1.77083 21.25V12.75C1.77083 5.0575 5.0575 1.77083 12.75 1.77083H21.25C28.9425 1.77083 32.2292 5.0575 32.2292 12.75V21.25C32.2292 28.9425 28.9425 32.2292 21.25 32.2292ZM12.75 3.89583C6.21916 3.89583 3.89583 6.21917 3.89583 12.75V21.25C3.89583 27.7808 6.21916 30.1042 12.75 30.1042H21.25C27.7808 30.1042 30.1042 27.7808 30.1042 21.25V12.75C30.1042 6.21917 27.7808 3.89583 21.25 3.89583H12.75Z" fill="#DBBEAB"/>
<path d="M12.75 15.2292C10.5967 15.2292 8.85417 13.4867 8.85417 11.3333C8.85417 9.18 10.5967 7.4375 12.75 7.4375C14.9033 7.4375 16.6458 9.18 16.6458 11.3333C16.6458 13.4867 14.9033 15.2292 12.75 15.2292ZM12.75 9.5625C11.7725 9.5625 10.9792 10.3558 10.9792 11.3333C10.9792 12.3108 11.7725 13.1042 12.75 13.1042C13.7275 13.1042 14.5208 12.3108 14.5208 11.3333C14.5208 10.3558 13.7275 9.5625 12.75 9.5625Z" fill="#DBBEAB"/>
<path d="M3.7825 27.9083C3.4425 27.9083 3.1025 27.7383 2.90417 27.4408C2.57834 26.9592 2.70584 26.2933 3.20167 25.9675L10.1858 21.2783C11.7158 20.2442 13.8267 20.3717 15.215 21.5475L15.6825 21.9583C16.3908 22.5675 17.595 22.5675 18.2892 21.9583L24.1825 16.9008C25.6842 15.6117 28.05 15.6117 29.5658 16.9008L31.875 18.8842C32.3142 19.2667 32.3708 19.9325 31.9883 20.3858C31.6058 20.825 30.94 20.8817 30.4867 20.4992L28.1775 18.5158C27.4692 17.9067 26.265 17.9067 25.5567 18.5158L19.6633 23.5733C18.1617 24.8625 15.7958 24.8625 14.28 23.5733L13.8125 23.1625C13.1608 22.61 12.0842 22.5533 11.3617 23.0492L4.3775 27.7383C4.19334 27.8517 3.98084 27.9083 3.7825 27.9083Z" fill="#DBBEAB"/>
</svg>
