<svg width="120" height="147" viewBox="0 0 120 147" fill="none" xmlns="http://www.w3.org/2000/svg">
<path d="M33.8674 134.065C35.0203 134.065 35.8617 134.302 36.3913 134.774C36.9209 135.247 37.1858 135.909 37.1858 136.76C37.1858 137.148 37.1246 137.516 37.0024 137.867C36.8843 138.213 36.6887 138.52 36.4157 138.789C36.1428 139.054 35.7822 139.264 35.3341 139.419C34.89 139.574 34.342 139.651 33.6901 139.651H32.7368V143H31.2701V134.065H33.8674ZM33.7696 135.282H32.7368V138.429H33.5374C33.9977 138.429 34.3889 138.376 34.7107 138.27C35.0326 138.16 35.277 137.987 35.4441 137.75C35.6111 137.514 35.6946 137.203 35.6946 136.815C35.6946 136.298 35.5378 135.913 35.2241 135.66C34.9144 135.408 34.4296 135.282 33.7696 135.282ZM41.4819 134.065C42.2519 134.065 42.8875 134.159 43.3886 134.347C43.8938 134.534 44.2686 134.819 44.5131 135.202C44.7616 135.585 44.8859 136.072 44.8859 136.663C44.8859 137.103 44.8044 137.478 44.6414 137.787C44.4785 138.097 44.2646 138.353 43.9997 138.557C43.7349 138.761 43.4518 138.924 43.1503 139.046L45.6864 143H44.0303L41.873 139.419H40.4369V143H38.9702V134.065H41.4819ZM41.3842 135.288H40.4369V138.209H41.4514C42.1318 138.209 42.6247 138.083 42.9303 137.83C43.2399 137.577 43.3947 137.205 43.3947 136.712C43.3947 136.194 43.2297 135.827 42.8997 135.612C42.5738 135.396 42.0686 135.288 41.3842 135.288ZM46.9637 143V134.065H48.4304V143H46.9637ZM58.0433 138.447C58.0433 139.453 57.8559 140.295 57.4811 140.971C57.1062 141.643 56.5623 142.151 55.8494 142.493C55.1364 142.831 54.2768 143 53.2704 143H50.7893V134.065H53.5393C54.4642 134.065 55.2627 134.232 55.9349 134.567C56.6072 134.897 57.1266 135.387 57.4933 136.039C57.86 136.687 58.0433 137.49 58.0433 138.447ZM56.5155 138.49C56.5155 137.757 56.3994 137.154 56.1672 136.681C55.939 136.208 55.6009 135.858 55.1527 135.63C54.7086 135.398 54.1606 135.282 53.5088 135.282H52.256V141.772H53.2949C54.3745 141.772 55.1812 141.497 55.7149 140.947C56.2486 140.397 56.5155 139.578 56.5155 138.49ZM65.0284 143H59.9683V134.065H65.0284V135.3H61.435V137.726H64.8023V138.954H61.435V141.759H65.0284V143ZM70.2107 143V134.065H71.6774V141.753H75.4725V143H70.2107ZM79.5242 136.107C80.3798 136.107 81.0255 136.296 81.4614 136.675C81.9014 137.054 82.1214 137.645 82.1214 138.447V143H81.1009L80.8259 142.041H80.777C80.5855 142.285 80.3879 142.487 80.1842 142.646C79.9805 142.804 79.7442 142.923 79.4753 143C79.2105 143.081 78.8866 143.122 78.5036 143.122C78.1003 143.122 77.7397 143.049 77.4219 142.902C77.1041 142.751 76.8536 142.523 76.6703 142.218C76.4869 141.912 76.3952 141.525 76.3952 141.057C76.3952 140.36 76.654 139.836 77.1714 139.486C77.6929 139.136 78.4792 138.942 79.5303 138.905L80.7036 138.863V138.508C80.7036 138.04 80.5936 137.706 80.3736 137.506C80.1577 137.306 79.8522 137.207 79.457 137.207C79.1188 137.207 78.7908 137.255 78.4731 137.353C78.1553 137.451 77.8456 137.571 77.5442 137.714L77.0797 136.699C77.4097 136.524 77.7845 136.382 78.2042 136.272C78.6279 136.162 79.0679 136.107 79.5242 136.107ZM80.6975 139.767L79.8236 139.798C79.1066 139.822 78.6034 139.944 78.3142 140.164C78.0249 140.384 77.8803 140.686 77.8803 141.069C77.8803 141.403 77.9801 141.647 78.1797 141.802C78.3794 141.953 78.6421 142.028 78.9681 142.028C79.4651 142.028 79.8766 141.888 80.2025 141.607C80.5325 141.321 80.6975 140.904 80.6975 140.354V139.767ZM85.5682 133.491V135.783C85.5682 136.047 85.56 136.308 85.5437 136.565C85.5315 136.817 85.5193 137.015 85.5071 137.158H85.5682C85.7515 136.864 86.0061 136.618 86.3321 136.418C86.6621 136.215 87.0837 136.113 87.5971 136.113C88.3997 136.113 89.0454 136.408 89.5343 136.999C90.0232 137.585 90.2677 138.455 90.2677 139.608C90.2677 140.374 90.1556 141.018 89.9316 141.539C89.7075 142.061 89.3917 142.456 88.9843 142.725C88.581 142.99 88.1063 143.122 87.5604 143.122C87.0471 143.122 86.6315 143.029 86.3137 142.841C86 142.65 85.7535 142.428 85.5743 142.175H85.4704L85.2076 143H84.132V133.491H85.5682ZM87.2182 137.28C86.8108 137.28 86.4869 137.361 86.2465 137.524C86.0102 137.687 85.8391 137.932 85.7332 138.258C85.6272 138.58 85.5722 138.989 85.5682 139.486V139.614C85.5682 140.368 85.6863 140.945 85.9226 141.344C86.163 141.743 86.5989 141.943 87.2304 141.943C87.7315 141.943 88.1165 141.741 88.3854 141.338C88.6543 140.93 88.7888 140.348 88.7888 139.59C88.7888 138.824 88.6543 138.248 88.3854 137.86C88.1206 137.473 87.7315 137.28 87.2182 137.28Z" fill="black"/>
<g filter="url(#filter0_i_3_12216)">
<rect width="120" height="120" rx="60" fill="#FFCFCF" fill-opacity="0.24"/>
</g>
<path d="M100.063 71.0134C100.063 75.139 96.7181 78.4834 92.5925 78.4834L49.6032 78.4834C48.4572 78.4834 47.5282 77.5544 47.5282 76.4084L47.5282 31.1498C47.5282 28.8578 49.3862 26.9998 51.6782 26.9998L97.9875 26.9998C99.1335 26.9998 100.063 27.9288 100.063 29.0748L100.063 71.0134Z" fill="url(#paint0_linear_3_12216)"/>
<path d="M60.5 102.661C83.4198 102.661 102 101.576 102 100.238C102 98.9002 83.4198 97.8154 60.5 97.8154C37.5802 97.8154 19 98.9002 19 100.238C19 101.576 37.5802 102.661 60.5 102.661Z" fill="#FFE0E1"/>
<path d="M40.8007 70.7197H60.875V68.71H40.8007C40.2463 68.71 39.7969 69.1594 39.7969 69.7138C39.7969 70.2681 40.2463 70.7176 40.8007 70.7176V70.7197Z" fill="#6A1A1E"/>
<path d="M48.5677 99.9277H49.8477L49.8477 70.6885H48.5677V99.9277Z" fill="#6A1A1E"/>
<path opacity="0.7" d="M48.5677 99.9277H49.8477L49.8477 70.6885H48.5677V99.9277Z" fill="white"/>
<path d="M42.2123 99.9277H43.4922L43.4922 70.6885H42.2123V99.9277Z" fill="#6A1A1E"/>
<path opacity="0.7" d="M42.2123 99.9277H43.4922L43.4922 70.6885H42.2123V99.9277Z" fill="white"/>
<path d="M40.7973 70.4023C41.1579 70.4023 41.4501 70.11 41.4501 69.7495C41.4501 69.3889 41.1579 69.0967 40.7973 69.0967C40.4368 69.0967 40.1445 69.3889 40.1445 69.7495C40.1445 70.11 40.4368 70.4023 40.7973 70.4023Z" fill="#407BFF"/>
<path d="M43.0195 69.7495C43.0195 70.1091 43.3106 70.4023 43.6723 70.4023C44.0341 70.4023 44.3251 70.1112 44.3251 69.7495C44.3251 69.3878 44.0341 69.0967 43.6723 69.0967C43.3106 69.0967 43.0195 69.3878 43.0195 69.7495Z" fill="#FAA2A6"/>
<path d="M46.5434 70.4023C46.904 70.4023 47.1962 70.11 47.1962 69.7495C47.1962 69.3889 46.904 69.0967 46.5434 69.0967C46.1829 69.0967 45.8906 69.3889 45.8906 69.7495C45.8906 70.11 46.1829 70.4023 46.5434 70.4023Z" fill="#FAA2A6"/>
<path d="M49.3911 70.4023C49.7516 70.4023 50.0439 70.11 50.0439 69.7495C50.0439 69.3889 49.7516 69.0967 49.3911 69.0967C49.0306 69.0967 48.7383 69.3889 48.7383 69.7495C48.7383 70.11 49.0306 70.4023 49.3911 70.4023Z" fill="#FAA2A6"/>
<path d="M52.2661 70.4023C52.6266 70.4023 52.9189 70.11 52.9189 69.7495C52.9189 69.3889 52.6266 69.0967 52.2661 69.0967C51.9056 69.0967 51.6133 69.3889 51.6133 69.7495C51.6133 70.11 51.9056 70.4023 52.2661 70.4023Z" fill="#FAA2A6"/>
<path d="M55.1411 70.4023C55.5016 70.4023 55.7939 70.11 55.7939 69.7495C55.7939 69.3889 55.5016 69.0967 55.1411 69.0967C54.7806 69.0967 54.4883 69.3889 54.4883 69.7495C54.4883 70.11 54.7806 70.4023 55.1411 70.4023Z" fill="#407BFF"/>
<path d="M58.0083 70.4023C58.3688 70.4023 58.6611 70.11 58.6611 69.7495C58.6611 69.3889 58.3688 69.0967 58.0083 69.0967C57.6477 69.0967 57.3555 69.3889 57.3555 69.7495C57.3555 70.11 57.6477 70.4023 58.0083 70.4023Z" fill="#407BFF"/>
<path d="M60.8794 69.0988V70.4023C60.5198 70.4023 60.2266 70.1112 60.2266 69.7495C60.2266 69.3878 60.5176 69.0967 60.8794 69.0967V69.0988Z" fill="#407BFF"/>
<path d="M70.7081 46.3701H69.3789V46.5842H70.7081V46.3701Z" fill="#F3444C"/>
<path d="M68.1479 46.3701H63.8672V46.5842H68.1479V46.3701Z" fill="#F3444C"/>
<path d="M55.644 47.0938H76.2367C77.2062 47.0938 77.9939 47.8814 77.9939 48.851V99.925H53.8867V48.851C53.8867 47.8814 54.6744 47.0938 55.644 47.0938Z" fill="#6A1A1E"/>
<path opacity="0.2" d="M60.556 62.5941H53.8867V62.3972H60.3591V47.0938H60.556V62.5941Z" fill="white"/>
<path opacity="0.4" d="M72.47 47.0938H76.2328C77.2024 47.0938 77.99 47.8814 77.99 48.851V99.925H70.7148V48.851C70.7148 47.8814 71.5025 47.0938 72.4721 47.0938H72.47Z" fill="#263238"/>
<path d="M73.0315 55.8984H75.6749C76.1457 55.8984 76.5267 56.2816 76.5267 56.7503V72.8371H72.1797V56.7503C72.1797 56.2794 72.5628 55.8984 73.0315 55.8984Z" fill="#F3444C"/>
<path d="M73.0337 55.8984H75.3239C75.7947 55.8984 76.1757 56.2816 76.1757 56.7503V72.8371H72.1797V56.7503C72.1797 56.2794 72.5628 55.8984 73.0315 55.8984H73.0337Z" fill="#181818"/>
<path opacity="0.2" d="M70.7151 97.0691H63.2539V72.9453H70.7151V73.1422H63.4508V96.8722H70.7151V97.0691Z" fill="white"/>
<path opacity="0.2" d="M60.3924 97.0572C59.7032 97.0572 59.1445 96.4964 59.1445 95.8093C59.1445 95.1223 59.7053 94.5615 60.3924 94.5615C61.0794 94.5615 61.6402 95.1223 61.6402 95.8093C61.6402 96.4964 61.0794 97.0572 60.3924 97.0572ZM60.3924 94.7584C59.8123 94.7584 59.3414 95.2293 59.3414 95.8093C59.3414 96.3894 59.8123 96.8602 60.3924 96.8602C60.9724 96.8602 61.4433 96.3894 61.4433 95.8093C61.4433 95.2293 60.9724 94.7584 60.3924 94.7584Z" fill="white"/>
<path opacity="0.2" d="M57.0486 97.0572C56.3594 97.0572 55.8008 96.4964 55.8008 95.8093C55.8008 95.1223 56.3616 94.5615 57.0486 94.5615C57.7357 94.5615 58.2964 95.1223 58.2964 95.8093C58.2964 96.4964 57.7357 97.0572 57.0486 97.0572ZM57.0486 94.7584C56.4686 94.7584 55.9977 95.2293 55.9977 95.8093C55.9977 96.3894 56.4686 96.8602 57.0486 96.8602C57.6286 96.8602 58.0995 96.3894 58.0995 95.8093C58.0995 95.2293 57.6286 94.7584 57.0486 94.7584Z" fill="white"/>
<path d="M98.6016 70.6768H78.5273V68.667H98.6016C99.156 68.667 99.6054 69.1165 99.6054 69.6708C99.6054 70.2252 99.156 70.6746 98.6016 70.6746V70.6768Z" fill="#6A1A1E"/>
<path d="M92.254 70.6768H72.1797V68.667H92.254C92.8083 68.667 93.2578 69.1165 93.2578 69.6708C93.2578 70.2252 92.8083 70.6746 92.254 70.6746V70.6768Z" fill="#6A1A1E"/>
<path d="M90.8346 70.6797H89.5547V99.9189H90.8346V70.6797Z" fill="#6A1A1E"/>
<path opacity="0.7" d="M90.8346 70.6797H89.5547V99.9189H90.8346V70.6797Z" fill="white"/>
<path d="M97.1862 70.6797H95.9062V99.9189H97.1862V70.6797Z" fill="#6A1A1E"/>
<path opacity="0.7" d="M97.1862 70.6797H95.9062V99.9189H97.1862V70.6797Z" fill="white"/>
<path d="M92.2466 70.3808C92.6071 70.3808 92.8994 70.0885 92.8994 69.728C92.8994 69.3675 92.6071 69.0752 92.2466 69.0752C91.886 69.0752 91.5938 69.3675 91.5938 69.728C91.5938 70.0885 91.886 70.3808 92.2466 70.3808Z" fill="#FAA2A6"/>
<path d="M89.3872 70.3808C89.7477 70.3808 90.04 70.0885 90.04 69.728C90.04 69.3675 89.7477 69.0752 89.3872 69.0752C89.0266 69.0752 88.7344 69.3675 88.7344 69.728C88.7344 70.0885 89.0266 70.3808 89.3872 70.3808Z" fill="#FAA2A6"/>
<path d="M86.5239 70.3808C86.8844 70.3808 87.1767 70.0885 87.1767 69.728C87.1767 69.3675 86.8844 69.0752 86.5239 69.0752C86.1634 69.0752 85.8711 69.3675 85.8711 69.728C85.8711 70.0885 86.1634 70.3808 86.5239 70.3808Z" fill="#FAA2A6"/>
<path d="M83.6489 70.3808C84.0094 70.3808 84.3017 70.0885 84.3017 69.728C84.3017 69.3675 84.0094 69.0752 83.6489 69.0752C83.2884 69.0752 82.9961 69.3675 82.9961 69.728C82.9961 70.0885 83.2884 70.3808 83.6489 70.3808Z" fill="#FAA2A6"/>
<path d="M80.7739 70.3808C81.1344 70.3808 81.4267 70.0885 81.4267 69.728C81.4267 69.3675 81.1344 69.0752 80.7739 69.0752C80.4134 69.0752 80.1211 69.3675 80.1211 69.728C80.1211 70.0885 80.4134 70.3808 80.7739 70.3808Z" fill="#FAA2A6"/>
<path d="M77.9184 70.3808C78.279 70.3808 78.5712 70.0885 78.5712 69.728C78.5712 69.3675 78.279 69.0752 77.9184 69.0752C77.5579 69.0752 77.2656 69.3675 77.2656 69.728C77.2656 70.0885 77.5579 70.3808 77.9184 70.3808Z" fill="#FAA2A6"/>
<path d="M75.0356 70.3808C75.3962 70.3808 75.6884 70.0885 75.6884 69.728C75.6884 69.3675 75.3962 69.0752 75.0356 69.0752C74.6751 69.0752 74.3828 69.3675 74.3828 69.728C74.3828 70.0885 74.6751 70.3808 75.0356 70.3808Z" fill="#FAA2A6"/>
<path d="M72.1797 69.0676V70.371C72.5393 70.371 72.8325 70.08 72.8325 69.7182C72.8325 69.3565 72.5414 69.0654 72.1797 69.0654V69.0676Z" fill="#FAA2A6"/>
<path d="M67.9371 52.4033H56.6554C56.2416 52.4033 55.9062 52.7387 55.9062 53.1524V75.4655C55.9062 75.8792 56.2416 76.2146 56.6554 76.2146H67.9371C68.3509 76.2146 68.6862 75.8792 68.6862 75.4655V53.1524C68.6862 52.7387 68.3509 52.4033 67.9371 52.4033Z" fill="white"/>
<path opacity="0.3" d="M66.5084 54.9521H58.0562C57.6152 54.9521 57.2578 55.3096 57.2578 55.7505V61.2533C57.2578 61.6942 57.6152 62.0517 58.0562 62.0517H66.5084C66.9493 62.0517 67.3067 61.6942 67.3067 61.2533V55.7505C67.3067 55.3096 66.9493 54.9521 66.5084 54.9521Z" fill="#FAA2A6"/>
<path opacity="0.3" d="M58.0467 63.0693H66.5824C66.9998 63.0693 67.3401 63.4096 67.3401 63.827V67.2023C67.3401 67.6197 66.9998 67.96 66.5824 67.96H58.0467C57.6294 67.96 57.2891 67.6197 57.2891 67.2023V63.827C57.2891 63.4096 57.6294 63.0693 58.0467 63.0693Z" fill="#FAA2A6"/>
<path d="M60.3226 65.5018L58.6445 64.8918C58.9014 64.1877 59.5734 63.7168 60.3226 63.7168C61.1851 63.7168 61.93 64.3418 62.0798 65.1915L60.3226 65.5018Z" fill="#6A1A1E"/>
<path d="M60.328 65.5299L62.0852 65.2196C62.1024 65.3223 62.1131 65.425 62.1131 65.5299C62.1131 66.5102 61.3062 67.315 60.328 67.315C59.3499 67.315 58.543 66.5081 58.543 65.5299C58.543 65.3223 58.5794 65.1147 58.65 64.9199L60.328 65.5299Z" fill="white"/>
<path d="M65.192 65.3098H64.5156V67.326H65.192V65.3098Z" fill="white"/>
<path d="M64.0513 66.3594H63.375V67.3033H64.0513V66.3594Z" fill="white"/>
<path d="M64.0513 65.7666H63.375V66.3424H64.0513V65.7666Z" fill="#6A1A1E"/>
<path d="M65.192 64.0449H64.5156V65.2735H65.192V64.0449Z" fill="#6A1A1E"/>
<path d="M66.3482 65.5986H65.6719V67.2467H66.3482V65.5986Z" fill="white"/>
<path d="M66.3482 64.8779H65.6719V65.6335H66.3482V64.8779Z" fill="#6A1A1E"/>
<path d="M58.7351 59.9952H65.8368C66.0465 59.9952 66.1878 59.7769 66.0979 59.5864C65.916 59.2054 65.6784 58.5612 65.6014 57.6794C65.4687 56.1769 64.4541 55.8173 64.0218 57.6794C63.5894 59.5415 61.8643 58.5805 61.158 57.6965C60.5031 56.8746 59.4329 57.7843 58.4826 59.5736C58.382 59.7641 58.5211 59.9952 58.7373 59.9952H58.7351Z" fill="#ED1C25"/>
<path d="M58.4457 69.5877C58.9915 69.5877 59.4367 70.0329 59.4367 70.5787C59.4367 71.1245 58.9915 71.5697 58.4457 71.5697C57.8999 71.5697 57.4547 71.1245 57.4547 70.5787C57.4547 70.0329 57.8999 69.5877 58.4457 69.5877ZM58.4457 69.3887C57.7886 69.3887 57.2578 69.9216 57.2578 70.5766C57.2578 71.2315 57.7908 71.7645 58.4457 71.7645C59.1006 71.7645 59.6336 71.2315 59.6336 70.5766C59.6336 69.9216 59.1006 69.3887 58.4457 69.3887Z" fill="#263238"/>
<path d="M61.684 69.5877C62.2298 69.5877 62.675 70.0329 62.675 70.5787C62.675 71.1245 62.2298 71.5697 61.684 71.5697C61.1382 71.5697 60.693 71.1245 60.693 70.5787C60.693 70.0329 61.1382 69.5877 61.684 69.5877ZM61.684 69.3887C61.0269 69.3887 60.4961 69.9216 60.4961 70.5766C60.4961 71.2315 61.029 71.7645 61.684 71.7645C62.3389 71.7645 62.8719 71.2315 62.8719 70.5766C62.8719 69.9216 62.3389 69.3887 61.684 69.3887Z" fill="#820D01"/>
<path d="M67.3203 73.7295C67.3203 74.012 67.0913 74.2432 66.8066 74.2432C66.522 74.2432 66.293 74.0142 66.293 73.7295C66.293 73.4448 66.522 73.2158 66.8066 73.2158C67.0913 73.2158 67.3203 73.4448 67.3203 73.7295Z" fill="#F3444C"/>
<path opacity="0.3" d="M65.0586 73.7295C65.0586 74.012 64.8296 74.2432 64.5449 74.2432C64.2603 74.2432 64.0312 74.0142 64.0312 73.7295C64.0312 73.4448 64.2603 73.2158 64.5449 73.2158C64.8296 73.2158 65.0586 73.4448 65.0586 73.7295Z" fill="#ED1C25"/>
<path d="M62.8125 73.7295C62.8125 74.012 62.5835 74.2432 62.2988 74.2432C62.0142 74.2432 61.7852 74.0142 61.7852 73.7295C61.7852 73.4448 62.0142 73.2158 62.2988 73.2158C62.5835 73.2158 62.8125 73.4448 62.8125 73.7295Z" fill="#F3444C"/>
<path d="M60.5508 73.7295C60.5508 74.012 60.3218 74.2432 60.0371 74.2432C59.7525 74.2432 59.5234 74.0142 59.5234 73.7295C59.5234 73.4448 59.7525 73.2158 60.0371 73.2158C60.3218 73.2158 60.5508 73.4448 60.5508 73.7295Z" fill="#F3444C"/>
<path d="M58.2852 73.7295C58.2852 74.012 58.0562 74.2432 57.7715 74.2432C57.4868 74.2432 57.2578 74.0142 57.2578 73.7295C57.2578 73.4448 57.4868 73.2158 57.7715 73.2158C58.0562 73.2158 58.2852 73.4448 58.2852 73.7295Z" fill="#F3444C"/>
<path d="M92.2591 60.8818H80.9688V68.6705H92.2591V60.8818Z" fill="#ED1C25"/>
<path opacity="0.7" d="M85.8777 60.8818H83.8594V63.7435H85.8777V60.8818Z" fill="white"/>
<path opacity="0.2" d="M92.2552 60.8818H88.7344V68.6705H92.2552V60.8818Z" fill="black"/>
<path opacity="0.7" d="M91.0555 60.8818H89.9297V63.7435H91.0555V60.8818Z" fill="white"/>
<path d="M83.1423 66.486V67.7573H81.8709V66.486H83.1423ZM83.3392 66.2891H81.6719V67.9564H83.3392V66.2891Z" fill="white"/>
<path opacity="0.4" d="M85.7103 66.2891H84.043V67.9564H85.7103V66.2891Z" fill="#263238"/>
<path d="M50.406 62.1787H47.0927C47.0005 62.1787 46.9258 62.2535 46.9258 62.3457V68.512C46.9258 68.6042 47.0005 68.6789 47.0927 68.6789H50.406C50.4982 68.6789 50.5729 68.6042 50.5729 68.512V62.3457C50.5729 62.2535 50.4982 62.1787 50.406 62.1787Z" fill="#263238"/>
<path d="M50.2224 62.1787H46.9091C46.8169 62.1787 46.7422 62.2535 46.7422 62.3457V68.512C46.7422 68.6042 46.8169 68.6789 46.9091 68.6789H50.2224C50.3146 68.6789 50.3893 68.6042 50.3893 68.512V62.3457C50.3893 62.2535 50.3146 62.1787 50.2224 62.1787Z" fill="#6A1A1E"/>
<path d="M50.1875 68.3271V62.5311C50.1875 62.4459 50.1185 62.377 50.0334 62.377H47.0904C47.0053 62.377 46.9363 62.4459 46.9363 62.5311V68.3271C46.9363 68.4122 47.0053 68.4812 47.0904 68.4812H50.0334C50.1185 68.4812 50.1875 68.4122 50.1875 68.3271Z" fill="white"/>
<path opacity="0.2" d="M48.5014 62.377H47.8293L47.3242 68.4791H47.9984L48.5014 62.377Z" fill="#6A1A1E"/>
<path opacity="0.2" d="M49.1757 62.377H48.7413L48.2383 68.4791H48.6728L49.1757 62.377Z" fill="#6A1A1E"/>
<path d="M47.1911 56.0976H41.7803C41.6647 56.0976 41.5876 56.0034 41.609 55.8879L43.0131 48.3924C43.0345 48.2768 43.1458 48.1826 43.2614 48.1826H48.6722C48.7878 48.1826 48.8648 48.2768 48.8434 48.3924L47.4393 55.8879C47.4179 56.0034 47.3066 56.0976 47.1911 56.0976Z" fill="#6A1A1E"/>
<path d="M46.9999 55.7621H41.9059C41.7967 55.7621 41.7261 55.6743 41.7453 55.5651L43.0681 48.5084C43.0895 48.3993 43.1944 48.3115 43.3014 48.3115H48.3954C48.5045 48.3115 48.5752 48.3993 48.5559 48.5084L47.2332 55.5651C47.2118 55.6743 47.1069 55.7621 46.9999 55.7621Z" fill="white"/>
<path d="M35.1591 48.7236L35.112 48.8242L35.0564 48.9526L34.9429 49.2244C34.8702 49.4107 34.7995 49.6011 34.7375 49.7959C34.6112 50.1833 34.4956 50.5814 34.4014 50.9859C34.2045 51.7929 34.0846 52.6254 34.0119 53.4645L33.9862 53.7641C33.9798 53.8048 33.9862 53.8155 33.9669 53.7812C33.9541 53.7513 33.8899 53.6699 33.8321 53.6443C33.7743 53.6143 33.7572 53.6271 33.7829 53.6357C33.8364 53.6571 34.0012 53.655 34.1681 53.6314C34.3415 53.6057 34.5298 53.5629 34.7225 53.5051C35.4951 53.2783 36.3149 52.9272 37.0961 52.5741L37.6141 53.381C36.8821 53.9653 36.133 54.4768 35.2426 54.8899C35.0178 54.9905 34.7824 55.0826 34.5213 55.1596C34.2559 55.2324 33.9734 55.2966 33.5838 55.2688C33.389 55.2495 33.1515 55.2003 32.9075 55.0483C32.6613 54.8985 32.4558 54.6352 32.3681 54.3955C32.2718 54.1537 32.2504 53.9396 32.2461 53.7577V53.3895C32.2525 52.4521 32.336 51.5082 32.5265 50.575C32.6185 50.1084 32.7384 49.6461 32.8882 49.1859C32.9631 48.9569 33.0466 48.7279 33.1365 48.501C33.1836 48.3876 33.2285 48.272 33.2842 48.1564L33.3676 47.983C33.3976 47.921 33.4233 47.8739 33.4704 47.7861L35.1612 48.7236H35.1591Z" fill="#B55B52"/>
<path d="M36.4261 41.0742C36.6466 42.1958 37.141 44.6443 36.3555 45.3934C36.3555 45.3934 36.6615 46.5321 38.7484 46.5321C41.0407 46.5321 39.8442 45.3934 39.8442 45.3934C38.5921 45.0938 38.6242 44.167 38.8425 43.2938L36.4261 41.0742Z" fill="#B55B52"/>
<path d="M35.8948 45.7961C35.8948 45.7961 35.6936 45.1604 35.6187 44.7795C35.5437 44.3985 38.3562 44.5269 39.2872 44.7645C40.2183 45.002 40.5158 46.0936 40.5158 46.0936L35.8948 45.7961Z" fill="#263238"/>
<path d="M41.4349 40.8545C41.4349 40.8545 41.5548 41.5501 41.771 41.9182C41.5355 42.0616 41.2188 41.9075 41.2188 41.9075L41.4371 40.8545H41.4349Z" fill="#A02724"/>
<path d="M41.1068 39.6901C41.094 39.6858 41.0811 39.6794 41.0726 39.6687C41.0383 39.6344 41.0383 39.5766 41.0726 39.5424C41.4257 39.1935 41.8302 39.277 41.8474 39.2813C41.8966 39.292 41.9266 39.3391 41.9159 39.3883C41.9051 39.4375 41.8581 39.4675 41.8088 39.4568C41.796 39.4546 41.4792 39.3926 41.1967 39.6708C41.171 39.6965 41.1368 39.7029 41.1047 39.6922L41.1068 39.6901Z" fill="#263238"/>
<path d="M41.3677 40.5559C41.3377 40.7058 41.3912 40.8427 41.4876 40.862C41.586 40.8813 41.6887 40.7764 41.7208 40.6287C41.7508 40.4789 41.6973 40.3419 41.601 40.3226C41.5025 40.3034 41.3998 40.4061 41.3677 40.5559Z" fill="#263238"/>
<path d="M41.5469 40.32L41.9279 40.29C41.9279 40.29 41.686 40.5319 41.5469 40.32Z" fill="#263238"/>
<path d="M26.793 99.8801H28.685L29.2886 95.501H27.3965L26.793 99.8801Z" fill="#B55B52"/>
<path d="M29.0103 98.6133H26.885C26.8079 98.6133 26.7459 98.6668 26.733 98.7417L26.4912 100.422C26.4655 100.595 26.6153 100.762 26.7951 100.758C27.5356 100.745 27.8931 100.702 28.8263 100.702C29.402 100.702 30.241 100.762 31.0351 100.762C31.8292 100.762 31.872 99.9767 31.5402 99.9061C30.0591 99.5871 29.8237 99.1484 29.325 98.7289C29.2351 98.6539 29.1216 98.6133 29.0082 98.6133H29.0103Z" fill="#263238"/>
<path opacity="0.2" d="M27.4062 95.501H29.2983L28.9858 97.759H27.0938L27.4062 95.501Z" fill="black"/>
<path d="M33.9748 45.8895C33.2086 46.1335 32.6328 49.0251 32.6328 49.0251L35.0621 51.1719C35.0621 51.1719 36.6524 48.3595 36.1901 47.422C35.7063 46.446 34.8802 45.6006 33.9748 45.8895Z" fill="#263238"/>
<path d="M43.2696 47.3591C43.276 48.5748 43.3145 50.8307 42.5226 54.8588C42.3792 55.5887 42.6639 55.914 42.5354 56.6588C42.452 57.1468 42.178 57.0741 42.1395 57.3117H34.4578C34.4663 57.0826 34.1217 56.9606 34.0447 56.4684C33.867 55.3383 34.5199 55.2441 34.5006 54.5313C34.4471 52.7335 34.1838 50.713 33.3983 47.1621C33.2356 46.4302 33.7279 45.711 34.4706 45.6018C35.0228 45.5226 35.6885 45.4456 36.3605 45.4113C37.6533 45.3493 38.7128 45.3086 39.8493 45.4113C40.5299 45.4734 41.2512 45.5783 41.8377 45.6768C42.6617 45.8137 43.2653 46.5222 43.2717 47.3569L43.2696 47.3591Z" fill="#6A1A1E"/>
<path opacity="0.4" d="M42.9845 50.8701C42.9353 51.4095 42.9695 52.0174 42.8839 52.7044C41.6125 52.0516 41.4392 50.4207 41.8287 49.5859C42.2696 49.9134 42.6763 50.4185 42.9845 50.8701Z" fill="black"/>
<path d="M43.5497 47.8867C43.7616 48.7172 43.9949 49.5733 44.2389 50.4059C44.485 51.2406 44.744 52.0711 45.0501 52.8587C45.202 53.2547 45.3669 53.6314 45.5445 53.9867C45.5445 53.9974 45.4782 53.9032 45.3562 53.8604C45.232 53.8155 45.1507 53.8454 45.1571 53.8519C45.1678 53.8711 45.3283 53.8091 45.4696 53.7234C45.7714 53.5436 46.0967 53.2718 46.4113 52.9936C46.726 52.7132 47.0492 52.4071 47.3531 52.1096L48.1322 52.6661C47.9117 53.0899 47.672 53.4816 47.3959 53.869C47.1155 54.2542 46.818 54.6267 46.4049 54.9841C46.3 55.074 46.1845 55.1617 46.0496 55.2452C45.9126 55.3287 45.7564 55.4122 45.5402 55.4742C45.3305 55.532 45.0158 55.5684 44.6841 55.4357C44.3545 55.3052 44.1297 55.0355 44.0249 54.8535C43.7744 54.4255 43.5497 53.9995 43.3614 53.5693C42.974 52.7111 42.6679 51.8464 42.3875 50.9752C42.2484 50.5386 42.1178 50.102 42.0001 49.6632C41.8802 49.2223 41.7647 48.7878 41.6641 48.3298L43.5476 47.891L43.5497 47.8867Z" fill="#B55B52"/>
<path d="M42.9482 46.3202C43.9413 47.4374 44.3608 49.4729 44.3608 49.4729L41.5013 51.3393C41.5013 51.3393 40.0844 48.1309 40.429 47.1421C40.887 45.8279 41.9893 45.2436 42.9482 46.3202Z" fill="#263238"/>
<path d="M48.2611 52.2106C48.3852 51.8274 48.0064 51.8296 48.1348 51.0484C48.1798 50.7722 47.9401 50.6545 47.9144 50.8001C47.7924 51.5385 46.3369 52.6558 47.1139 53.011C47.5848 53.2251 48.259 52.2106 48.259 52.2106H48.2611Z" fill="#B55B52"/>
<path d="M48.847 51.8401C48.832 51.4014 48.5002 50.8684 48.1727 51.5469L48.0015 51.6796C48.0015 51.6796 47.5371 51.7481 46.957 52.5422L47.5777 53.0987L47.7832 53.0644C48.1214 53.0088 48.4403 52.8696 48.71 52.6577L48.7549 52.6235C48.8512 52.5358 48.9005 52.4052 48.8898 52.2746L48.8491 51.8401H48.847Z" fill="#B55B52"/>
<path d="M36.4437 39.0053C36.1762 40.8631 36.0242 41.6444 36.7562 42.7766C37.8563 44.4824 40.1979 44.4033 41.0133 42.661C41.7475 41.0943 42.0621 38.3183 40.4162 37.2181C38.7959 36.133 36.7091 37.1453 36.4437 39.0053Z" fill="#B55B52"/>
<path d="M40.158 40.4024C40.9071 39.9144 41.7012 39.2188 41.6348 38.2749C41.5685 37.331 40.372 36.4385 38.7325 36.4385C36.5387 36.4385 36.6286 37.8661 36.6286 37.8661C36.2005 37.9196 31.9369 41.6909 37.2172 43.1549C42.4974 44.6167 40.1601 40.4045 40.1601 40.4045L40.158 40.4024Z" fill="#263238"/>
<path d="M35.7814 37.9904C35.7814 37.9904 35.5716 38.4613 35.638 38.6753C36.3507 38.8594 38.8442 38.9664 40.1027 38.7331C40.2033 38.4784 40.6507 38.0546 40.6507 38.0546L35.7814 37.9883V37.9904Z" fill="white"/>
<path d="M35.5753 38.2394C35.6887 38.6225 40.025 38.4191 41.4205 38.2501C41.915 38.1901 42.4008 38.0189 42.4008 38.0189V37.8712H41.8058C41.8058 37.8712 41.4205 35.2643 38.7708 35.2686C36.4956 35.2728 35.16 36.8396 35.5753 38.2394Z" fill="#6A1A1E"/>
<path d="M39.3785 35.1311C39.3785 35.1311 38.563 35.069 38.0943 35.1311C37.6791 35.2638 37.3045 35.3237 36.793 36.1157L37.9381 36.152C37.9381 36.152 38.6829 35.3237 39.4256 35.3195C39.4192 35.2082 39.3785 35.1311 39.3785 35.1311Z" fill="#6A1A1E"/>
<path opacity="0.2" d="M37.5801 37.9078C37.5801 37.9078 37.5715 37.9078 37.5673 37.9078C37.5223 37.9014 37.4945 37.8607 37.5009 37.8158C37.7984 35.9044 39.1832 35.2581 39.241 35.2302C39.2817 35.2131 39.3288 35.2302 39.348 35.2709C39.3673 35.3116 39.348 35.3587 39.3074 35.3779C39.2945 35.3843 37.9418 36.0179 37.6593 37.8414C37.6529 37.8821 37.6186 37.9099 37.5801 37.9099V37.9078Z" fill="white"/>
<path d="M40.8844 40.178C41.0085 40.5825 40.955 41.0191 40.8138 41.3402C40.6019 41.8217 40.1503 41.7147 39.9212 41.2888C39.7136 40.9057 39.5745 40.1929 39.9255 39.8483C40.2723 39.5102 40.741 39.7156 40.8823 40.178H40.8844Z" fill="#B55B52"/>
<path d="M40.1068 57.2949C40.1068 57.2949 36.7764 70.2761 34.3792 77.5918C32.4422 83.5013 29.3408 97.3129 29.3408 97.3129H26.7617C26.7617 97.3129 28.1487 83.9144 29.6212 78.0691C33.3476 63.2793 30.9204 62.0764 34.4541 57.2949H40.1068Z" fill="#263238"/>
<path opacity="0.4" d="M36.6286 61.3799C35.5135 65.4508 35.5991 69.8835 36.0764 72.0581C36.7656 69.6908 37.4548 67.2187 38.0626 64.9906C37.8529 63.7878 37.2129 62.3858 36.6286 61.3799Z" fill="black"/>
<path d="M29.7229 97.3947H26.4375L26.5253 96.241L30.0269 96.1233L29.7229 97.3947Z" fill="#263238"/>
<path d="M39.5266 99.8733H41.4187L41.271 95.4941H39.3789L39.5266 99.8733Z" fill="#B55B52"/>
<path d="M41.5611 98.6133H39.4358C39.3587 98.6133 39.2966 98.6668 39.2838 98.7417L39.0419 100.422C39.0163 100.595 39.1661 100.762 39.3459 100.758C40.0864 100.745 40.4439 100.702 41.3771 100.702C41.9528 100.702 42.7918 100.762 43.5859 100.762C44.38 100.762 44.4228 99.9767 44.091 99.9061C42.6099 99.5871 42.3745 99.1484 41.8758 98.7289C41.7859 98.6539 41.6724 98.6133 41.559 98.6133H41.5611Z" fill="#263238"/>
<path opacity="0.2" d="M39.3789 95.4941H41.271L41.3459 97.7522H39.4538L39.3789 95.4941Z" fill="black"/>
<path d="M42.1365 57.2949C42.1365 57.2949 42.1429 70.2761 41.625 77.5918C41.2076 83.5013 41.6571 97.3129 41.6571 97.3129H39.078C39.078 97.3129 37.0211 83.9144 36.9911 78.0691C36.9162 63.2793 34.1787 62.0764 36.4839 57.2949H42.1365Z" fill="#263238"/>
<path d="M42.0135 97.3944H38.7281L38.5547 96.2408L42.0327 96.123L42.0135 97.3944Z" fill="#263238"/>
<path d="M34.3494 56.841L34.0027 57.528C33.9748 57.5816 34.039 57.6351 34.1268 57.6351H42.183C42.2515 57.6351 42.3093 57.6008 42.3136 57.558L42.3821 56.871C42.3864 56.8239 42.3265 56.7832 42.2515 56.7832H34.4735C34.4157 56.7832 34.3665 56.8067 34.3494 56.841Z" fill="white"/>
<path d="M35.3994 57.722H35.1918C35.1512 57.722 35.1191 57.7006 35.1212 57.675L35.2196 56.7824C35.2218 56.7568 35.2582 56.7354 35.301 56.7354H35.5086C35.5493 56.7354 35.5814 56.7568 35.5792 56.7824L35.4808 57.675C35.4786 57.7006 35.4422 57.722 35.3994 57.722Z" fill="#263238"/>
<path d="M40.4424 57.722H40.2348C40.1941 57.722 40.162 57.7006 40.1642 57.675L40.2626 56.7824C40.2648 56.7568 40.3011 56.7354 40.344 56.7354H40.5516C40.5922 56.7354 40.6243 56.7568 40.6222 56.7824L40.5237 57.675C40.5216 57.7006 40.4852 57.722 40.4424 57.722Z" fill="#263238"/>
<defs>
<filter id="filter0_i_3_12216" x="0" y="0" width="124" height="124" filterUnits="userSpaceOnUse" color-interpolation-filters="sRGB">
<feFlood flood-opacity="0" result="BackgroundImageFix"/>
<feBlend mode="normal" in="SourceGraphic" in2="BackgroundImageFix" result="shape"/>
<feColorMatrix in="SourceAlpha" type="matrix" values="0 0 0 0 0 0 0 0 0 0 0 0 0 0 0 0 0 0 127 0" result="hardAlpha"/>
<feOffset dx="5" dy="5"/>
<feGaussianBlur stdDeviation="2"/>
<feComposite in2="hardAlpha" operator="arithmetic" k2="-1" k3="1"/>
<feColorMatrix type="matrix" values="0 0 0 0 0 0 0 0 0 0 0 0 0 0 0 0 0 0 0.05 0"/>
<feBlend mode="normal" in2="shape" result="effect1_innerShadow_3_12216"/>
</filter>
<linearGradient id="paint0_linear_3_12216" x1="73.7954" y1="78.4834" x2="73.7954" y2="26.9998" gradientUnits="userSpaceOnUse">
<stop stop-color="white"/>
<stop offset="1" stop-color="#FFDDDE"/>
</linearGradient>
</defs>
</svg>
