<svg width="148" height="147" viewBox="0 0 148 147" fill="none" xmlns="http://www.w3.org/2000/svg">
<path d="M3.84948 134.065C5.00246 134.065 5.84377 134.302 6.37341 134.774C6.90304 135.247 7.16786 135.909 7.16786 136.76C7.16786 137.148 7.10675 137.516 6.98453 137.867C6.86638 138.213 6.67082 138.52 6.39785 138.789C6.12488 139.054 5.76432 139.264 5.31617 139.419C4.87209 139.574 4.32412 139.651 3.67225 139.651H2.71891V143H1.25222V134.065H3.84948ZM3.7517 135.282H2.71891V138.429H3.51947C3.97985 138.429 4.37097 138.376 4.69282 138.27C5.01468 138.16 5.25913 137.987 5.42617 137.75C5.59321 137.514 5.67673 137.203 5.67673 136.815C5.67673 136.298 5.51987 135.913 5.20617 135.66C4.89653 135.408 4.41171 135.282 3.7517 135.282ZM10.2479 143H8.80567V133.491H10.2479V143ZM14.9535 136.107C15.8091 136.107 16.4549 136.296 16.8908 136.675C17.3308 137.054 17.5508 137.645 17.5508 138.447V143H16.5302L16.2552 142.041H16.2063C16.0149 142.285 15.8173 142.487 15.6135 142.646C15.4098 142.804 15.1735 142.923 14.9046 143C14.6398 143.081 14.3159 143.122 13.933 143.122C13.5296 143.122 13.1691 143.049 12.8513 142.902C12.5335 142.751 12.2829 142.523 12.0996 142.218C11.9163 141.912 11.8246 141.525 11.8246 141.057C11.8246 140.36 12.0833 139.836 12.6007 139.486C13.1222 139.136 13.9085 138.942 14.9597 138.905L16.133 138.863V138.508C16.133 138.04 16.023 137.706 15.803 137.506C15.5871 137.306 15.2815 137.207 14.8863 137.207C14.5482 137.207 14.2202 137.255 13.9024 137.353C13.5846 137.451 13.275 137.571 12.9735 137.714L12.5091 136.699C12.8391 136.524 13.2139 136.382 13.6335 136.272C14.0572 136.162 14.4972 136.107 14.9535 136.107ZM16.1269 139.767L15.253 139.798C14.5359 139.822 14.0328 139.944 13.7435 140.164C13.4543 140.384 13.3096 140.686 13.3096 141.069C13.3096 141.403 13.4094 141.647 13.6091 141.802C13.8087 141.953 14.0715 142.028 14.3974 142.028C14.8945 142.028 15.306 141.888 15.6319 141.607C15.9619 141.321 16.1269 140.904 16.1269 140.354V139.767ZM24.1081 141.069C24.1081 141.513 24.0002 141.888 23.7842 142.193C23.5683 142.499 23.2526 142.731 22.837 142.89C22.4255 143.045 21.9203 143.122 21.3214 143.122C20.8488 143.122 20.4414 143.088 20.0992 143.018C19.761 142.953 19.4412 142.851 19.1397 142.713V141.472C19.4616 141.623 19.8221 141.753 20.2214 141.863C20.6247 141.973 21.0057 142.028 21.3642 142.028C21.8368 142.028 22.177 141.955 22.3848 141.808C22.5925 141.658 22.6964 141.458 22.6964 141.209C22.6964 141.063 22.6537 140.932 22.5681 140.818C22.4866 140.7 22.3318 140.58 22.1036 140.458C21.8796 140.331 21.5496 140.181 21.1136 140.006C20.6858 139.834 20.3253 139.663 20.0319 139.492C19.7386 139.321 19.5166 139.115 19.3658 138.875C19.2151 138.63 19.1397 138.319 19.1397 137.94C19.1397 137.341 19.376 136.887 19.8486 136.577C20.3253 136.263 20.9547 136.107 21.737 136.107C22.1525 136.107 22.5437 136.149 22.9103 136.235C23.2811 136.316 23.6437 136.437 23.9981 136.595L23.5459 137.677C23.2403 137.543 22.9327 137.433 22.6231 137.347C22.3175 137.258 22.0059 137.213 21.6881 137.213C21.3173 137.213 21.0342 137.27 20.8386 137.384C20.6471 137.498 20.5514 137.661 20.5514 137.873C20.5514 138.032 20.5983 138.166 20.692 138.276C20.7857 138.386 20.9466 138.496 21.1747 138.606C21.407 138.716 21.7288 138.853 22.1403 139.015C22.5437 139.17 22.892 139.333 23.1853 139.504C23.4827 139.671 23.7109 139.877 23.8698 140.122C24.0287 140.366 24.1081 140.682 24.1081 141.069ZM28.1782 141.961C28.3656 141.961 28.551 141.945 28.7343 141.912C28.9176 141.876 29.0847 141.833 29.2354 141.784V142.872C29.0765 142.941 28.8708 143 28.6182 143.049C28.3656 143.098 28.1028 143.122 27.8298 143.122C27.4469 143.122 27.1026 143.059 26.7971 142.933C26.4915 142.802 26.2491 142.58 26.0698 142.267C25.8906 141.953 25.8009 141.519 25.8009 140.965V137.329H24.8781V136.687L25.8682 136.18L26.3387 134.732H27.2432V136.235H29.1804V137.329H27.2432V140.947C27.2432 141.289 27.3287 141.543 27.4998 141.711C27.671 141.878 27.8971 141.961 28.1782 141.961ZM32.0466 136.235V143H30.6104V136.235H32.0466ZM31.3377 133.644C31.5577 133.644 31.7471 133.703 31.906 133.821C32.069 133.939 32.1505 134.143 32.1505 134.432C32.1505 134.717 32.069 134.921 31.906 135.043C31.7471 135.161 31.5577 135.22 31.3377 135.22C31.1095 135.22 30.916 135.161 30.7571 135.043C30.6023 134.921 30.5249 134.717 30.5249 134.432C30.5249 134.143 30.6023 133.939 30.7571 133.821C30.916 133.703 31.1095 133.644 31.3377 133.644ZM36.8317 143.122C36.192 143.122 35.6379 142.998 35.1694 142.749C34.7009 142.501 34.3403 142.12 34.0877 141.607C33.8351 141.093 33.7088 140.441 33.7088 139.651C33.7088 138.828 33.8473 138.156 34.1244 137.634C34.4014 137.113 34.7844 136.728 35.2733 136.479C35.7663 136.231 36.3305 136.107 36.9661 136.107C37.3694 136.107 37.7341 136.147 38.06 136.229C38.39 136.306 38.6691 136.402 38.8972 136.516L38.4695 137.665C38.2209 137.563 37.9663 137.478 37.7056 137.408C37.4448 137.339 37.1943 137.304 36.9539 137.304C36.5587 137.304 36.2287 137.392 35.9639 137.567C35.7031 137.742 35.5076 138.003 35.3772 138.349C35.2509 138.696 35.1877 139.125 35.1877 139.639C35.1877 140.136 35.2529 140.556 35.3833 140.898C35.5137 141.236 35.7072 141.493 35.9639 141.668C36.2205 141.839 36.5363 141.924 36.9111 141.924C37.2818 141.924 37.6139 141.88 37.9072 141.79C38.2006 141.7 38.4776 141.584 38.7383 141.442V142.688C38.4817 142.835 38.2067 142.943 37.9133 143.012C37.62 143.086 37.2594 143.122 36.8317 143.122ZM54.2914 134.065L51.9569 143H50.3558L48.8646 137.647C48.828 137.516 48.7872 137.361 48.7424 137.182C48.6976 137.003 48.6528 136.82 48.6079 136.632C48.5672 136.445 48.5305 136.274 48.4979 136.119C48.4694 135.96 48.4491 135.838 48.4368 135.752C48.4287 135.838 48.4104 135.958 48.3818 136.113C48.3533 136.267 48.3187 136.439 48.2779 136.626C48.2413 136.809 48.2005 136.993 48.1557 137.176C48.1109 137.355 48.0702 137.514 48.0335 137.653L46.5668 143H44.9718L42.6434 134.065H44.1162L45.4057 139.303C45.4464 139.47 45.4872 139.651 45.5279 139.847C45.5727 140.038 45.6135 140.232 45.6501 140.427C45.6909 140.623 45.7275 140.814 45.7601 141.002C45.7927 141.185 45.8192 141.352 45.8396 141.503C45.8599 141.348 45.8864 141.177 45.919 140.989C45.9516 140.798 45.9862 140.604 46.0229 140.409C46.0636 140.209 46.1044 140.018 46.1451 139.834C46.1899 139.651 46.2348 139.486 46.2796 139.339L47.734 134.065H49.1641L50.6491 139.358C50.6939 139.508 50.7367 139.678 50.7774 139.865C50.8222 140.052 50.865 140.244 50.9058 140.439C50.9465 140.635 50.9832 140.824 51.0158 141.008C51.0484 141.191 51.0748 141.356 51.0952 141.503C51.1237 141.303 51.1604 141.075 51.2052 140.818C51.25 140.562 51.301 140.301 51.358 140.036C51.415 139.771 51.4721 139.527 51.5291 139.303L52.8125 134.065H54.2914ZM58.062 136.107C58.9175 136.107 59.5633 136.296 59.9992 136.675C60.4392 137.054 60.6592 137.645 60.6592 138.447V143H59.6387L59.3637 142.041H59.3148C59.1233 142.285 58.9257 142.487 58.722 142.646C58.5183 142.804 58.282 142.923 58.0131 143C57.7483 143.081 57.4244 143.122 57.0414 143.122C56.6381 143.122 56.2775 143.049 55.9597 142.902C55.6419 142.751 55.3914 142.523 55.208 142.218C55.0247 141.912 54.933 141.525 54.933 141.057C54.933 140.36 55.1917 139.836 55.7092 139.486C56.2307 139.136 57.017 138.942 58.0681 138.905L59.2414 138.863V138.508C59.2414 138.04 59.1314 137.706 58.9114 137.506C58.6955 137.306 58.3899 137.207 57.9948 137.207C57.6566 137.207 57.3286 137.255 57.0109 137.353C56.6931 137.451 56.3834 137.571 56.0819 137.714L55.6175 136.699C55.9475 136.524 56.3223 136.382 56.742 136.272C57.1657 136.162 57.6057 136.107 58.062 136.107ZM59.2353 139.767L58.3614 139.798C57.6444 139.822 57.1412 139.944 56.852 140.164C56.5627 140.384 56.4181 140.686 56.4181 141.069C56.4181 141.403 56.5179 141.647 56.7175 141.802C56.9171 141.953 57.1799 142.028 57.5059 142.028C58.0029 142.028 58.4144 141.888 58.7403 141.607C59.0703 141.321 59.2353 140.904 59.2353 140.354V139.767ZM67.2166 141.069C67.2166 141.513 67.1086 141.888 66.8927 142.193C66.6767 142.499 66.361 142.731 65.9454 142.89C65.5339 143.045 65.0288 143.122 64.4299 143.122C63.9573 143.122 63.5498 143.088 63.2076 143.018C62.8695 142.953 62.5496 142.851 62.2482 142.713V141.472C62.57 141.623 62.9306 141.753 63.3298 141.863C63.7332 141.973 64.1141 142.028 64.4726 142.028C64.9452 142.028 65.2854 141.955 65.4932 141.808C65.701 141.658 65.8049 141.458 65.8049 141.209C65.8049 141.063 65.7621 140.932 65.6765 140.818C65.5951 140.7 65.4402 140.58 65.2121 140.458C64.988 140.331 64.658 140.181 64.2221 140.006C63.7943 139.834 63.4337 139.663 63.1404 139.492C62.8471 139.321 62.625 139.115 62.4743 138.875C62.3235 138.63 62.2482 138.319 62.2482 137.94C62.2482 137.341 62.4845 136.887 62.9571 136.577C63.4337 136.263 64.0632 136.107 64.8454 136.107C65.261 136.107 65.6521 136.149 66.0188 136.235C66.3895 136.316 66.7521 136.437 67.1066 136.595L66.6543 137.677C66.3488 137.543 66.0412 137.433 65.7315 137.347C65.426 137.258 65.1143 137.213 64.7965 137.213C64.4258 137.213 64.1426 137.27 63.9471 137.384C63.7556 137.498 63.6598 137.661 63.6598 137.873C63.6598 138.032 63.7067 138.166 63.8004 138.276C63.8941 138.386 64.055 138.496 64.2832 138.606C64.5154 138.716 64.8373 138.853 65.2488 139.015C65.6521 139.17 66.0004 139.333 66.2938 139.504C66.5912 139.671 66.8193 139.877 66.9782 140.122C67.1371 140.366 67.2166 140.682 67.2166 141.069ZM71.2866 141.961C71.474 141.961 71.6594 141.945 71.8427 141.912C72.0261 141.876 72.1931 141.833 72.3439 141.784V142.872C72.185 142.941 71.9792 143 71.7266 143.049C71.474 143.098 71.2113 143.122 70.9383 143.122C70.5553 143.122 70.2111 143.059 69.9055 142.933C69.5999 142.802 69.3575 142.58 69.1783 142.267C68.999 141.953 68.9094 141.519 68.9094 140.965V137.329H67.9866V136.687L68.9766 136.18L69.4472 134.732H70.3516V136.235H72.2889V137.329H70.3516V140.947C70.3516 141.289 70.4372 141.543 70.6083 141.711C70.7794 141.878 71.0055 141.961 71.2866 141.961ZM76.4139 136.107C77.0169 136.107 77.5343 136.231 77.9662 136.479C78.398 136.728 78.7301 137.08 78.9623 137.537C79.1945 137.993 79.3106 138.539 79.3106 139.174V139.944H74.7945C74.8108 140.6 74.9859 141.106 75.32 141.46C75.6582 141.814 76.1308 141.992 76.7378 141.992C77.1697 141.992 77.5567 141.951 77.899 141.869C78.2453 141.784 78.6017 141.66 78.9684 141.497V142.664C78.6303 142.823 78.286 142.939 77.9356 143.012C77.5852 143.086 77.1656 143.122 76.6767 143.122C76.0126 143.122 75.428 142.994 74.9228 142.737C74.4217 142.476 74.0285 142.089 73.7433 141.576C73.4622 141.063 73.3217 140.425 73.3217 139.663C73.3217 138.905 73.45 138.262 73.7067 137.732C73.9633 137.203 74.3239 136.799 74.7884 136.522C75.2528 136.245 75.7947 136.107 76.4139 136.107ZM76.4139 137.188C75.9617 137.188 75.595 137.335 75.3139 137.628C75.0369 137.922 74.8739 138.351 74.825 138.918H77.9051C77.901 138.58 77.844 138.28 77.734 138.019C77.628 137.759 77.4651 137.555 77.2451 137.408C77.0291 137.262 76.7521 137.188 76.4139 137.188ZM86.9252 134.065C88.0782 134.065 88.9195 134.302 89.4491 134.774C89.9788 135.247 90.2436 135.909 90.2436 136.76C90.2436 137.148 90.1825 137.516 90.0602 137.867C89.9421 138.213 89.7465 138.52 89.4736 138.789C89.2006 139.054 88.84 139.264 88.3919 139.419C87.9478 139.574 87.3998 139.651 86.748 139.651H85.7946V143H84.3279V134.065H86.9252ZM86.8274 135.282H85.7946V138.429H86.5952C87.0556 138.429 87.4467 138.376 87.7685 138.27C88.0904 138.16 88.3349 137.987 88.5019 137.75C88.6689 137.514 88.7525 137.203 88.7525 136.815C88.7525 136.298 88.5956 135.913 88.2819 135.66C87.9723 135.408 87.4874 135.282 86.8274 135.282ZM95.3098 136.107C95.4239 136.107 95.5481 136.113 95.6826 136.125C95.817 136.137 95.9331 136.153 96.0309 136.174L95.8965 137.518C95.8109 137.494 95.705 137.475 95.5787 137.463C95.4564 137.451 95.3464 137.445 95.2487 137.445C94.992 137.445 94.7475 137.488 94.5153 137.573C94.2831 137.655 94.0773 137.781 93.8981 137.952C93.7188 138.119 93.5783 138.329 93.4764 138.582C93.3746 138.834 93.3236 139.128 93.3236 139.462V143H91.8814V136.235H93.0059L93.2014 137.427H93.2686C93.4031 137.186 93.5701 136.966 93.7698 136.767C93.9694 136.567 94.1975 136.408 94.4542 136.29C94.715 136.168 95.0001 136.107 95.3098 136.107ZM103.273 139.602C103.273 140.164 103.199 140.663 103.053 141.099C102.906 141.535 102.692 141.904 102.411 142.206C102.13 142.503 101.792 142.731 101.397 142.89C101.001 143.045 100.555 143.122 100.058 143.122C99.5937 143.122 99.168 143.045 98.7809 142.89C98.3939 142.731 98.0578 142.503 97.7726 142.206C97.4915 141.904 97.2735 141.535 97.1187 141.099C96.9639 140.663 96.8865 140.164 96.8865 139.602C96.8865 138.857 97.0148 138.225 97.2715 137.708C97.5322 137.186 97.903 136.789 98.3837 136.516C98.8645 136.243 99.4369 136.107 100.101 136.107C100.724 136.107 101.274 136.243 101.751 136.516C102.228 136.789 102.6 137.186 102.869 137.708C103.138 138.229 103.273 138.861 103.273 139.602ZM98.3654 139.602C98.3654 140.095 98.4245 140.517 98.5426 140.867C98.6648 141.218 98.8522 141.486 99.1048 141.674C99.3574 141.857 99.6834 141.949 100.083 141.949C100.482 141.949 100.808 141.857 101.06 141.674C101.313 141.486 101.498 141.218 101.617 140.867C101.735 140.517 101.794 140.095 101.794 139.602C101.794 139.109 101.735 138.692 101.617 138.349C101.498 138.003 101.313 137.74 101.06 137.561C100.808 137.378 100.48 137.286 100.077 137.286C99.4817 137.286 99.0478 137.486 98.7748 137.885C98.5019 138.284 98.3654 138.857 98.3654 139.602ZM107.648 143.122C107.009 143.122 106.455 142.998 105.986 142.749C105.518 142.501 105.157 142.12 104.904 141.607C104.652 141.093 104.525 140.441 104.525 139.651C104.525 138.828 104.664 138.156 104.941 137.634C105.218 137.113 105.601 136.728 106.09 136.479C106.583 136.231 107.147 136.107 107.783 136.107C108.186 136.107 108.551 136.147 108.877 136.229C109.207 136.306 109.486 136.402 109.714 136.516L109.286 137.665C109.038 137.563 108.783 137.478 108.522 137.408C108.261 137.339 108.011 137.304 107.771 137.304C107.375 137.304 107.045 137.392 106.781 137.567C106.52 137.742 106.324 138.003 106.194 138.349C106.068 138.696 106.004 139.125 106.004 139.639C106.004 140.136 106.07 140.556 106.2 140.898C106.33 141.236 106.524 141.493 106.781 141.668C107.037 141.839 107.353 141.924 107.728 141.924C108.098 141.924 108.431 141.88 108.724 141.79C109.017 141.7 109.294 141.584 109.555 141.442V142.688C109.298 142.835 109.023 142.943 108.73 143.012C108.437 143.086 108.076 143.122 107.648 143.122ZM113.839 136.107C114.442 136.107 114.959 136.231 115.391 136.479C115.823 136.728 116.155 137.08 116.387 137.537C116.62 137.993 116.736 138.539 116.736 139.174V139.944H112.219C112.236 140.6 112.411 141.106 112.745 141.46C113.083 141.814 113.556 141.992 114.163 141.992C114.595 141.992 114.982 141.951 115.324 141.869C115.67 141.784 116.027 141.66 116.393 141.497V142.664C116.055 142.823 115.711 142.939 115.361 143.012C115.01 143.086 114.591 143.122 114.102 143.122C113.438 143.122 112.853 142.994 112.348 142.737C111.847 142.476 111.454 142.089 111.168 141.576C110.887 141.063 110.747 140.425 110.747 139.663C110.747 138.905 110.875 138.262 111.132 137.732C111.388 137.203 111.749 136.799 112.213 136.522C112.678 136.245 113.22 136.107 113.839 136.107ZM113.839 137.188C113.387 137.188 113.02 137.335 112.739 137.628C112.462 137.922 112.299 138.351 112.25 138.918H115.33C115.326 138.58 115.269 138.28 115.159 138.019C115.053 137.759 114.89 137.555 114.67 137.408C114.454 137.262 114.177 137.188 113.839 137.188ZM122.902 141.069C122.902 141.513 122.794 141.888 122.578 142.193C122.362 142.499 122.046 142.731 121.631 142.89C121.219 143.045 120.714 143.122 120.115 143.122C119.643 143.122 119.235 143.088 118.893 143.018C118.555 142.953 118.235 142.851 117.933 142.713V141.472C118.255 141.623 118.616 141.753 119.015 141.863C119.418 141.973 119.799 142.028 120.158 142.028C120.631 142.028 120.971 141.955 121.179 141.808C121.386 141.658 121.49 141.458 121.49 141.209C121.49 141.063 121.447 140.932 121.362 140.818C121.28 140.7 121.126 140.58 120.897 140.458C120.673 140.331 120.343 140.181 119.907 140.006C119.48 139.834 119.119 139.663 118.826 139.492C118.532 139.321 118.31 139.115 118.16 138.875C118.009 138.63 117.933 138.319 117.933 137.94C117.933 137.341 118.17 136.887 118.642 136.577C119.119 136.263 119.748 136.107 120.531 136.107C120.946 136.107 121.337 136.149 121.704 136.235C122.075 136.316 122.437 136.437 122.792 136.595L122.34 137.677C122.034 137.543 121.726 137.433 121.417 137.347C121.111 137.258 120.8 137.213 120.482 137.213C120.111 137.213 119.828 137.27 119.632 137.384C119.441 137.498 119.345 137.661 119.345 137.873C119.345 138.032 119.392 138.166 119.486 138.276C119.579 138.386 119.74 138.496 119.968 138.606C120.201 138.716 120.523 138.853 120.934 139.015C121.337 139.17 121.686 139.333 121.979 139.504C122.276 139.671 122.505 139.877 122.664 140.122C122.822 140.366 122.902 140.682 122.902 141.069ZM129.001 141.069C129.001 141.513 128.893 141.888 128.677 142.193C128.461 142.499 128.145 142.731 127.73 142.89C127.318 143.045 126.813 143.122 126.214 143.122C125.742 143.122 125.334 143.088 124.992 143.018C124.654 142.953 124.334 142.851 124.032 142.713V141.472C124.354 141.623 124.715 141.753 125.114 141.863C125.517 141.973 125.898 142.028 126.257 142.028C126.73 142.028 127.07 141.955 127.277 141.808C127.485 141.658 127.589 141.458 127.589 141.209C127.589 141.063 127.546 140.932 127.461 140.818C127.379 140.7 127.225 140.58 126.996 140.458C126.772 140.331 126.442 140.181 126.006 140.006C125.579 139.834 125.218 139.663 124.925 139.492C124.631 139.321 124.409 139.115 124.259 138.875C124.108 138.63 124.032 138.319 124.032 137.94C124.032 137.341 124.269 136.887 124.741 136.577C125.218 136.263 125.847 136.107 126.63 136.107C127.045 136.107 127.436 136.149 127.803 136.235C128.174 136.316 128.536 136.437 128.891 136.595L128.439 137.677C128.133 137.543 127.825 137.433 127.516 137.347C127.21 137.258 126.899 137.213 126.581 137.213C126.21 137.213 125.927 137.27 125.731 137.384C125.54 137.498 125.444 137.661 125.444 137.873C125.444 138.032 125.491 138.166 125.585 138.276C125.678 138.386 125.839 138.496 126.067 138.606C126.3 138.716 126.622 138.853 127.033 139.015C127.436 139.17 127.785 139.333 128.078 139.504C128.375 139.671 128.604 139.877 128.763 140.122C128.921 140.366 129.001 140.682 129.001 141.069ZM131.989 136.235V143H130.553V136.235H131.989ZM131.28 133.644C131.5 133.644 131.69 133.703 131.849 133.821C132.012 133.939 132.093 134.143 132.093 134.432C132.093 134.717 132.012 134.921 131.849 135.043C131.69 135.161 131.5 135.22 131.28 135.22C131.052 135.22 130.859 135.161 130.7 135.043C130.545 134.921 130.468 134.717 130.468 134.432C130.468 134.143 130.545 133.939 130.7 133.821C130.859 133.703 131.052 133.644 131.28 133.644ZM137.575 136.107C138.337 136.107 138.93 136.304 139.353 136.699C139.781 137.09 139.995 137.72 139.995 138.588V143H138.559V138.857C138.559 138.331 138.451 137.938 138.235 137.677C138.019 137.412 137.685 137.28 137.233 137.28C136.577 137.28 136.12 137.482 135.864 137.885C135.611 138.288 135.485 138.873 135.485 139.639V143H134.049V136.235H135.167L135.369 137.152H135.448C135.595 136.915 135.776 136.722 135.992 136.571C136.212 136.416 136.457 136.3 136.725 136.223C136.998 136.145 137.282 136.107 137.575 136.107ZM143.937 146.007C143.02 146.007 142.317 145.842 141.828 145.512C141.339 145.182 141.095 144.719 141.095 144.124C141.095 143.709 141.225 143.356 141.486 143.067C141.747 142.782 142.12 142.584 142.604 142.474C142.421 142.393 142.262 142.267 142.128 142.096C141.997 141.92 141.932 141.727 141.932 141.515C141.932 141.262 142.003 141.046 142.146 140.867C142.289 140.688 142.503 140.515 142.788 140.348C142.433 140.197 142.148 139.953 141.932 139.614C141.72 139.272 141.614 138.871 141.614 138.41C141.614 137.922 141.718 137.506 141.926 137.164C142.134 136.817 142.437 136.555 142.837 136.375C143.236 136.192 143.719 136.1 144.285 136.1C144.407 136.1 144.54 136.109 144.682 136.125C144.829 136.137 144.963 136.153 145.086 136.174C145.212 136.19 145.308 136.208 145.373 136.229H147.713V137.029L146.564 137.243C146.674 137.398 146.762 137.575 146.827 137.775C146.892 137.97 146.925 138.184 146.925 138.417C146.925 139.117 146.683 139.669 146.198 140.073C145.717 140.472 145.053 140.672 144.206 140.672C144.002 140.663 143.804 140.647 143.613 140.623C143.466 140.712 143.354 140.812 143.277 140.922C143.199 141.028 143.161 141.148 143.161 141.283C143.161 141.393 143.199 141.482 143.277 141.552C143.354 141.617 143.468 141.666 143.619 141.698C143.774 141.731 143.961 141.747 144.181 141.747H145.348C146.09 141.747 146.656 141.904 147.047 142.218C147.438 142.531 147.634 142.992 147.634 143.599C147.634 144.369 147.316 144.962 146.681 145.377C146.045 145.797 145.13 146.007 143.937 146.007ZM143.992 144.998C144.493 144.998 144.914 144.949 145.257 144.852C145.599 144.754 145.858 144.613 146.033 144.43C146.208 144.251 146.296 144.037 146.296 143.788C146.296 143.568 146.241 143.399 146.131 143.281C146.021 143.163 145.856 143.081 145.636 143.037C145.416 142.992 145.143 142.969 144.817 142.969H143.753C143.488 142.969 143.254 143.01 143.051 143.092C142.847 143.177 142.688 143.299 142.574 143.458C142.464 143.617 142.409 143.809 142.409 144.033C142.409 144.342 142.545 144.581 142.818 144.748C143.095 144.915 143.486 144.998 143.992 144.998ZM144.273 139.731C144.692 139.731 145.004 139.616 145.208 139.388C145.411 139.156 145.513 138.83 145.513 138.41C145.513 137.954 145.407 137.612 145.196 137.384C144.988 137.156 144.678 137.042 144.267 137.042C143.863 137.042 143.556 137.158 143.344 137.39C143.136 137.622 143.032 137.966 143.032 138.423C143.032 138.834 143.136 139.156 143.344 139.388C143.556 139.616 143.865 139.731 144.273 139.731Z" fill="black"/>
<g filter="url(#filter0_i_3_11904)">
<rect x="14" width="120" height="120" rx="60" fill="#FFCFCF" fill-opacity="0.24"/>
</g>
<path d="M107.654 66.5564C107.654 70.4724 104.48 73.647 100.564 73.647L61.0048 73.647C59.9171 73.647 59.0352 72.7652 59.0352 71.6774L59.0353 29.9395C59.0353 27.7639 60.7989 26.0003 62.9744 26.0003L105.685 26.0003C106.772 26.0003 107.654 26.8821 107.654 27.9699L107.654 66.5564Z" fill="url(#paint0_linear_3_11904)"/>
<g opacity="0.7">
<path d="M54.5015 90.4456C54.3756 90.4456 54.2744 90.5438 54.2744 90.6662C54.2744 90.7885 54.3756 90.8868 54.5015 90.8868C54.6275 90.8868 54.7287 90.7885 54.7287 90.6662C54.7287 90.5438 54.6275 90.4456 54.5015 90.4456Z" fill="#6A1A1E"/>
<path d="M55.5738 90.4456C55.4478 90.4456 55.3467 90.5438 55.3467 90.6662C55.3467 90.7885 55.4478 90.8868 55.5738 90.8868C55.6998 90.8868 55.8009 90.7885 55.8009 90.6662C55.8009 90.5438 55.6998 90.4456 55.5738 90.4456Z" fill="#6A1A1E"/>
<path d="M56.6549 90.4456C56.5289 90.4456 56.4277 90.5438 56.4277 90.6662C56.4277 90.7885 56.5289 90.8868 56.6549 90.8868C56.7808 90.8868 56.882 90.7885 56.882 90.6662C56.882 90.5438 56.7808 90.4456 56.6549 90.4456Z" fill="#6A1A1E"/>
<path d="M57.7183 90.4456C57.5924 90.4456 57.4912 90.5438 57.4912 90.6662C57.4912 90.7885 57.5924 90.8868 57.7183 90.8868C57.8443 90.8868 57.9454 90.7885 57.9454 90.6662C57.9454 90.5438 57.8443 90.4456 57.7183 90.4456Z" fill="#6A1A1E"/>
<path d="M58.8033 90.4456C58.6773 90.4456 58.5762 90.5438 58.5762 90.6662C58.5762 90.7885 58.6773 90.8868 58.8033 90.8868C58.9293 90.8868 59.0304 90.7885 59.0304 90.6662C59.0304 90.5438 58.9293 90.4456 58.8033 90.4456Z" fill="#6A1A1E"/>
<path d="M59.8717 90.4456C59.7457 90.4456 59.6445 90.5438 59.6445 90.6662C59.6445 90.7885 59.7457 90.8868 59.8717 90.8868C59.9976 90.8868 60.0988 90.7885 60.0988 90.6662C60.0988 90.5438 59.9976 90.4456 59.8717 90.4456Z" fill="#6A1A1E"/>
<path d="M60.9527 90.4456C60.8267 90.4456 60.7256 90.5438 60.7256 90.6662C60.7256 90.7885 60.8267 90.8868 60.9527 90.8868C61.0787 90.8868 61.1798 90.7885 61.1798 90.6662C61.1798 90.5438 61.0787 90.4456 60.9527 90.4456Z" fill="#6A1A1E"/>
<path d="M62.0162 90.4456C61.8902 90.4456 61.7891 90.5438 61.7891 90.6662C61.7891 90.7885 61.8902 90.8868 62.0162 90.8868C62.1421 90.8868 62.2433 90.7885 62.2433 90.6662C62.2433 90.5438 62.1421 90.4456 62.0162 90.4456Z" fill="#6A1A1E"/>
<path d="M63.0972 90.4456C62.9713 90.4456 62.8701 90.5438 62.8701 90.6662C62.8701 90.7885 62.9713 90.8868 63.0972 90.8868C63.2232 90.8868 63.3244 90.7885 63.3244 90.6662C63.3244 90.5438 63.2232 90.4456 63.0972 90.4456Z" fill="#6A1A1E"/>
<path d="M64.1695 90.4456C64.0435 90.4456 63.9424 90.5438 63.9424 90.6662C63.9424 90.7885 64.0435 90.8868 64.1695 90.8868C64.2955 90.8868 64.3966 90.7885 64.3966 90.6662C64.3966 90.5438 64.2955 90.4456 64.1695 90.4456Z" fill="#6A1A1E"/>
<path d="M65.2467 90.4456C65.1207 90.4456 65.0195 90.5438 65.0195 90.6662C65.0195 90.7885 65.1207 90.8868 65.2467 90.8868C65.3726 90.8868 65.4738 90.7885 65.4738 90.6662C65.4738 90.5438 65.3726 90.4456 65.2467 90.4456Z" fill="#6A1A1E"/>
<path d="M66.3062 90.4456C66.1803 90.4456 66.0791 90.5438 66.0791 90.6662C66.0791 90.7885 66.1803 90.8868 66.3062 90.8868C66.4322 90.8868 66.5333 90.7885 66.5333 90.6662C66.5333 90.5438 66.4322 90.4456 66.3062 90.4456Z" fill="#6A1A1E"/>
<path d="M67.3912 90.4456C67.2652 90.4456 67.1641 90.5438 67.1641 90.6662C67.1641 90.7885 67.2652 90.8868 67.3912 90.8868C67.5171 90.8868 67.6183 90.7885 67.6183 90.6662C67.6183 90.5438 67.5171 90.4456 67.3912 90.4456Z" fill="#6A1A1E"/>
<path d="M68.4674 90.4456C68.3414 90.4456 68.2402 90.5438 68.2402 90.6662C68.2402 90.7885 68.3414 90.8868 68.4674 90.8868C68.5933 90.8868 68.6945 90.7885 68.6945 90.6662C68.6945 90.5438 68.5933 90.4456 68.4674 90.4456Z" fill="#6A1A1E"/>
<path d="M69.5523 90.4456C69.4264 90.4456 69.3252 90.5438 69.3252 90.6662C69.3252 90.7885 69.4264 90.8868 69.5523 90.8868C69.6783 90.8868 69.7794 90.7885 69.7794 90.6662C69.7794 90.5438 69.6783 90.4456 69.5523 90.4456Z" fill="#6A1A1E"/>
<path d="M70.6168 90.4456C70.4908 90.4456 70.3896 90.5438 70.3896 90.6662C70.3896 90.7885 70.4908 90.8868 70.6168 90.8868C70.7427 90.8868 70.8439 90.7885 70.8439 90.6662C70.8439 90.5438 70.7427 90.4456 70.6168 90.4456Z" fill="#6A1A1E"/>
<path d="M71.689 90.4456C71.5631 90.4456 71.4619 90.5438 71.4619 90.6662C71.4619 90.7885 71.5631 90.8868 71.689 90.8868C71.815 90.8868 71.9162 90.7885 71.9162 90.6662C71.9162 90.5438 71.815 90.4456 71.689 90.4456Z" fill="#6A1A1E"/>
<path d="M72.7691 90.4456C72.6431 90.4456 72.542 90.5438 72.542 90.6662C72.542 90.7885 72.6431 90.8868 72.7691 90.8868C72.8951 90.8868 72.9962 90.7885 72.9962 90.6662C72.9962 90.5438 72.8951 90.4456 72.7691 90.4456Z" fill="#6A1A1E"/>
<path d="M73.8424 90.4456C73.7164 90.4456 73.6152 90.5438 73.6152 90.6662C73.6152 90.7885 73.7164 90.8868 73.8424 90.8868C73.9683 90.8868 74.0695 90.7885 74.0695 90.6662C74.0695 90.5438 73.9683 90.4456 73.8424 90.4456Z" fill="#6A1A1E"/>
<path d="M74.9146 90.4456C74.7887 90.4456 74.6875 90.5438 74.6875 90.6662C74.6875 90.7885 74.7887 90.8868 74.9146 90.8868C75.0406 90.8868 75.1417 90.7885 75.1417 90.6662C75.1417 90.5438 75.0406 90.4456 74.9146 90.4456Z" fill="#6A1A1E"/>
<path d="M75.983 90.4456C75.857 90.4456 75.7559 90.5438 75.7559 90.6662C75.7559 90.7885 75.857 90.8868 75.983 90.8868C76.1089 90.8868 76.2101 90.7885 76.2101 90.6662C76.2101 90.5438 76.1089 90.4456 75.983 90.4456Z" fill="#6A1A1E"/>
<path d="M77.0679 90.4456C76.942 90.4456 76.8408 90.5438 76.8408 90.6662C76.8408 90.7885 76.942 90.8868 77.0679 90.8868C77.1939 90.8868 77.2951 90.7885 77.2951 90.6662C77.2951 90.5438 77.1939 90.4456 77.0679 90.4456Z" fill="#6A1A1E"/>
<path d="M78.1363 90.4456C78.0103 90.4456 77.9092 90.5438 77.9092 90.6662C77.9092 90.7885 78.0103 90.8868 78.1363 90.8868C78.2623 90.8868 78.3634 90.7885 78.3634 90.6662C78.3634 90.5438 78.2623 90.4456 78.1363 90.4456Z" fill="#6A1A1E"/>
<path d="M79.2086 90.4456C79.0826 90.4456 78.9814 90.5438 78.9814 90.6662C78.9814 90.7885 79.0826 90.8868 79.2086 90.8868C79.3345 90.8868 79.4357 90.7885 79.4357 90.6662C79.4357 90.5438 79.3345 90.4456 79.2086 90.4456Z" fill="#6A1A1E"/>
<path d="M80.2847 90.4456C80.1588 90.4456 80.0576 90.5438 80.0576 90.6662C80.0576 90.7885 80.1588 90.8868 80.2847 90.8868C80.4107 90.8868 80.5119 90.7885 80.5119 90.6662C80.5119 90.5438 80.4107 90.4456 80.2847 90.4456Z" fill="#6A1A1E"/>
<path d="M81.357 90.4456C81.231 90.4456 81.1299 90.5438 81.1299 90.6662C81.1299 90.7885 81.231 90.8868 81.357 90.8868C81.483 90.8868 81.5841 90.7885 81.5841 90.6662C81.5841 90.5438 81.483 90.4456 81.357 90.4456Z" fill="#6A1A1E"/>
<path d="M82.4293 90.4456C82.3033 90.4456 82.2021 90.5438 82.2021 90.6662C82.2021 90.7885 82.3033 90.8868 82.4293 90.8868C82.5552 90.8868 82.6564 90.7885 82.6564 90.6662C82.6564 90.5438 82.5552 90.4456 82.4293 90.4456Z" fill="#6A1A1E"/>
<path d="M83.5142 90.4456C83.3883 90.4456 83.2871 90.5438 83.2871 90.6662C83.2871 90.7885 83.3883 90.8868 83.5142 90.8868C83.6402 90.8868 83.7413 90.7885 83.7413 90.6662C83.7413 90.5438 83.6402 90.4456 83.5142 90.4456Z" fill="#6A1A1E"/>
<path d="M84.5787 90.4456C84.4527 90.4456 84.3516 90.5438 84.3516 90.6662C84.3516 90.7885 84.4527 90.8868 84.5787 90.8868C84.7046 90.8868 84.8058 90.7885 84.8058 90.6662C84.8058 90.5438 84.7046 90.4456 84.5787 90.4456Z" fill="#6A1A1E"/>
<path d="M85.6549 90.4456C85.5289 90.4456 85.4277 90.5438 85.4277 90.6662C85.4277 90.7885 85.5289 90.8868 85.6549 90.8868C85.7808 90.8868 85.882 90.7885 85.882 90.6662C85.882 90.5438 85.7808 90.4456 85.6549 90.4456Z" fill="#6A1A1E"/>
<path d="M86.7232 90.4456C86.5972 90.4456 86.4961 90.5438 86.4961 90.6662C86.4961 90.7885 86.5972 90.8868 86.7232 90.8868C86.8492 90.8868 86.9503 90.7885 86.9503 90.6662C86.9503 90.5438 86.8492 90.4456 86.7232 90.4456Z" fill="#6A1A1E"/>
<path d="M87.8004 90.4456C87.6744 90.4456 87.5732 90.5438 87.5732 90.6662C87.5732 90.7885 87.6744 90.8868 87.8004 90.8868C87.9263 90.8868 88.0275 90.7885 88.0275 90.6662C88.0275 90.5438 87.9263 90.4456 87.8004 90.4456Z" fill="#6A1A1E"/>
<path d="M88.8726 90.4456C88.7467 90.4456 88.6455 90.5438 88.6455 90.6662C88.6455 90.7885 88.7467 90.8868 88.8726 90.8868C88.9986 90.8868 89.0997 90.7885 89.0997 90.6662C89.0997 90.5438 88.9986 90.4456 88.8726 90.4456Z" fill="#6A1A1E"/>
<path d="M89.9449 90.4456C89.8189 90.4456 89.7178 90.5438 89.7178 90.6662C89.7178 90.7885 89.8189 90.8868 89.9449 90.8868C90.0709 90.8868 90.172 90.7885 90.172 90.6662C90.172 90.5438 90.0709 90.4456 89.9449 90.4456Z" fill="#6A1A1E"/>
<path d="M91.0259 90.4456C90.9 90.4456 90.7988 90.5438 90.7988 90.6662C90.7988 90.7885 90.9 90.8868 91.0259 90.8868C91.1519 90.8868 91.2531 90.7885 91.2531 90.6662C91.2531 90.5438 91.1519 90.4456 91.0259 90.4456Z" fill="#6A1A1E"/>
<path d="M92.0982 90.4456C91.9722 90.4456 91.8711 90.5438 91.8711 90.6662C91.8711 90.7885 91.9722 90.8868 92.0982 90.8868C92.2242 90.8868 92.3253 90.7885 92.3253 90.6662C92.3253 90.5438 92.2242 90.4456 92.0982 90.4456Z" fill="#6A1A1E"/>
<path d="M93.1705 90.4456C93.0445 90.4456 92.9434 90.5438 92.9434 90.6662C92.9434 90.7885 93.0445 90.8868 93.1705 90.8868C93.2964 90.8868 93.3976 90.7885 93.3976 90.6662C93.3976 90.5438 93.2964 90.4456 93.1705 90.4456Z" fill="#6A1A1E"/>
<path d="M94.2467 90.4456C94.1207 90.4456 94.0195 90.5438 94.0195 90.6662C94.0195 90.7885 94.1207 90.8868 94.2467 90.8868C94.3726 90.8868 94.4738 90.7885 94.4738 90.6662C94.4738 90.5438 94.3726 90.4456 94.2467 90.4456Z" fill="#6A1A1E"/>
<path d="M95.356 90.2971C95.2301 90.2971 95.1289 90.3954 95.1289 90.5177C95.1289 90.6401 95.2301 90.7383 95.356 90.7383C95.482 90.7383 95.5831 90.6401 95.5831 90.5177C95.5831 90.3954 95.482 90.2971 95.356 90.2971Z" fill="#6A1A1E"/>
<path d="M96.2095 90.1209C96.335 90.1209 96.4367 90.0221 96.4367 89.9003C96.4367 89.7785 96.335 89.6797 96.2095 89.6797C96.0841 89.6797 95.9824 89.7785 95.9824 89.9003C95.9824 90.0221 96.0841 90.1209 96.2095 90.1209Z" fill="#6A1A1E"/>
<path d="M96.9117 88.9038C96.7857 88.9038 96.6846 89.0021 96.6846 89.1244C96.6846 89.2468 96.7857 89.345 96.9117 89.345C97.0377 89.345 97.1388 89.2468 97.1388 89.1244C97.1388 89.0021 97.0377 88.9038 96.9117 88.9038Z" fill="#6A1A1E"/>
<path d="M97.5865 88.0945C97.4605 88.0945 97.3594 88.1927 97.3594 88.3151C97.3594 88.4374 97.4605 88.5357 97.5865 88.5357C97.7125 88.5357 97.8136 88.4374 97.8136 88.3151C97.8136 88.1927 97.7125 88.0945 97.5865 88.0945Z" fill="#6A1A1E"/>
<path d="M98.2359 87.2727C98.1099 87.2727 98.0088 87.371 98.0088 87.4933C98.0088 87.6157 98.1099 87.7139 98.2359 87.7139C98.3619 87.7139 98.463 87.6157 98.463 87.4933C98.463 87.371 98.3619 87.2727 98.2359 87.2727Z" fill="#6A1A1E"/>
<path d="M98.8492 86.8711C98.9746 86.8711 99.0763 86.7724 99.0763 86.6505C99.0763 86.5287 98.9746 86.4299 98.8492 86.4299C98.7238 86.4299 98.6221 86.5287 98.6221 86.6505C98.6221 86.7724 98.7238 86.8711 98.8492 86.8711Z" fill="#6A1A1E"/>
<path d="M99.4302 85.5554C99.3043 85.5554 99.2031 85.6537 99.2031 85.776C99.2031 85.8984 99.3043 85.9966 99.4302 85.9966C99.5562 85.9966 99.6574 85.8984 99.6574 85.776C99.6574 85.6537 99.5562 85.5554 99.4302 85.5554Z" fill="#6A1A1E"/>
<path d="M99.9752 84.6658C99.8492 84.6658 99.748 84.764 99.748 84.8864C99.748 85.0087 99.8492 85.107 99.9752 85.107C100.101 85.107 100.202 85.0087 100.202 84.8864C100.202 84.764 100.101 84.6658 99.9752 84.6658Z" fill="#6A1A1E"/>
<path d="M100.495 83.7549C100.369 83.7549 100.268 83.8531 100.268 83.9755C100.268 84.0978 100.369 84.1961 100.495 84.1961C100.621 84.1961 100.722 84.0978 100.722 83.9755C100.722 83.8531 100.621 83.7549 100.495 83.7549Z" fill="#6A1A1E"/>
<path d="M100.982 83.282C101.107 83.282 101.209 83.1833 101.209 83.0614C101.209 82.9396 101.107 82.8408 100.982 82.8408C100.857 82.8408 100.755 82.9396 100.755 83.0614C100.755 83.1833 100.857 83.282 100.982 83.282Z" fill="#6A1A1E"/>
<path d="M101.421 81.8862C101.295 81.8862 101.194 81.9845 101.194 82.1068C101.194 82.2292 101.295 82.3274 101.421 82.3274C101.547 82.3274 101.649 82.2292 101.649 82.1068C101.649 81.9845 101.547 81.8862 101.421 81.8862Z" fill="#6A1A1E"/>
<path d="M101.836 80.9326C101.71 80.9326 101.608 81.0309 101.608 81.1532C101.608 81.2756 101.71 81.3738 101.836 81.3738C101.961 81.3738 102.063 81.2756 102.063 81.1532C102.063 81.0309 101.961 80.9326 101.836 80.9326Z" fill="#6A1A1E"/>
<path d="M102.197 80.3958C102.322 80.3958 102.424 80.297 102.424 80.1752C102.424 80.0534 102.322 79.9546 102.197 79.9546C102.071 79.9546 101.97 80.0534 101.97 80.1752C101.97 80.297 102.071 80.3958 102.197 80.3958Z" fill="#6A1A1E"/>
<path d="M102.546 78.9653C102.42 78.9653 102.319 79.0636 102.319 79.1859C102.319 79.3083 102.42 79.4065 102.546 79.4065C102.672 79.4065 102.774 79.3083 102.774 79.1859C102.774 79.0636 102.672 78.9653 102.546 78.9653Z" fill="#6A1A1E"/>
<path d="M102.835 78.4205C102.96 78.4205 103.062 78.3217 103.062 78.1999C103.062 78.078 102.96 77.9792 102.835 77.9792C102.709 77.9792 102.607 78.078 102.607 78.1999C102.607 78.3217 102.709 78.4205 102.835 78.4205Z" fill="#6A1A1E"/>
<path d="M103.103 76.9717C102.977 76.9717 102.876 77.0699 102.876 77.1923C102.876 77.3146 102.977 77.4129 103.103 77.4129C103.229 77.4129 103.33 77.3146 103.33 77.1923C103.33 77.0699 103.229 76.9717 103.103 76.9717Z" fill="#6A1A1E"/>
<path d="M103.318 75.9541C103.192 75.9541 103.091 76.0524 103.091 76.1747C103.091 76.2971 103.192 76.3953 103.318 76.3953C103.444 76.3953 103.545 76.2971 103.545 76.1747C103.545 76.0524 103.444 75.9541 103.318 75.9541Z" fill="#6A1A1E"/>
<path d="M103.517 75.3848C103.643 75.3848 103.744 75.286 103.744 75.1642C103.744 75.0424 103.643 74.9436 103.517 74.9436C103.392 74.9436 103.29 75.0424 103.29 75.1642C103.29 75.286 103.392 75.3848 103.517 75.3848Z" fill="#6A1A1E"/>
<path d="M103.651 73.9038C103.525 73.9038 103.424 74.0021 103.424 74.1244C103.424 74.2468 103.525 74.345 103.651 74.345C103.777 74.345 103.878 74.2468 103.878 74.1244C103.878 74.0021 103.777 73.9038 103.651 73.9038Z" fill="#6A1A1E"/>
<path d="M103.761 72.876C103.635 72.876 103.534 72.9742 103.534 73.0966C103.534 73.2189 103.635 73.3172 103.761 73.3172C103.887 73.3172 103.988 73.2189 103.988 73.0966C103.988 72.9742 103.887 72.876 103.761 72.876Z" fill="#6A1A1E"/>
<path d="M103.834 71.8523C103.708 71.8523 103.606 71.9505 103.606 72.0729C103.606 72.1953 103.708 72.2935 103.834 72.2935C103.96 72.2935 104.061 72.1953 104.061 72.0729C104.061 71.9505 103.96 71.8523 103.834 71.8523Z" fill="#6A1A1E"/>
<path d="M103.854 70.8022C103.728 70.8022 103.627 70.9005 103.627 71.0229C103.627 71.1452 103.728 71.2435 103.854 71.2435C103.98 71.2435 104.081 71.1452 104.081 71.0229C104.081 70.9005 103.98 70.8022 103.854 70.8022Z" fill="#6A1A1E"/>
<path d="M103.57 68.954C103.57 69.0764 103.671 69.1746 103.797 69.1746C103.923 69.1746 104.025 69.0764 104.025 68.954C104.025 68.8317 103.923 68.7334 103.797 68.7334C103.671 68.7334 103.57 68.8317 103.57 68.954Z" fill="#6A1A1E"/>
<path d="M103.842 69.7622C103.716 69.7622 103.615 69.8605 103.615 69.9828C103.615 70.1052 103.716 70.2034 103.842 70.2034C103.968 70.2034 104.069 70.1052 104.069 69.9828C104.069 69.8605 103.968 69.7622 103.842 69.7622Z" fill="#6A1A1E"/>
<path d="M103.493 67.9203C103.493 68.0427 103.594 68.1409 103.72 68.1409C103.846 68.1409 103.947 68.0427 103.947 67.9203C103.947 67.798 103.846 67.6997 103.72 67.6997C103.594 67.6997 103.493 67.798 103.493 67.9203Z" fill="#6A1A1E"/>
<path d="M103.594 67.1038C103.72 67.1038 103.821 67.005 103.821 66.8832C103.821 66.7614 103.72 66.6626 103.594 66.6626C103.469 66.6626 103.367 66.7614 103.367 66.8832C103.367 67.005 103.469 67.1038 103.594 67.1038Z" fill="#6A1A1E"/>
<path d="M103.209 65.8617C103.209 65.9841 103.31 66.0823 103.436 66.0823C103.562 66.0823 103.663 65.9841 103.663 65.8617C103.663 65.7394 103.562 65.6411 103.436 65.6411C103.31 65.6411 103.209 65.7394 103.209 65.8617Z" fill="#6A1A1E"/>
<path d="M102.993 64.85C102.993 64.9724 103.094 65.0706 103.22 65.0706C103.346 65.0706 103.447 64.9724 103.447 64.85C103.447 64.7276 103.346 64.6294 103.22 64.6294C103.094 64.6294 102.993 64.7276 102.993 64.85Z" fill="#6A1A1E"/>
<path d="M102.758 63.8275C102.758 63.9499 102.859 64.0481 102.985 64.0481C103.111 64.0481 103.212 63.9499 103.212 63.8275C103.212 63.7052 103.111 63.6069 102.985 63.6069C102.859 63.6069 102.758 63.7052 102.758 63.8275Z" fill="#6A1A1E"/>
<path d="M102.466 62.8363C102.466 62.9587 102.567 63.0569 102.693 63.0569C102.819 63.0569 102.92 62.9587 102.92 62.8363C102.92 62.714 102.819 62.6157 102.693 62.6157C102.567 62.6157 102.466 62.714 102.466 62.8363Z" fill="#6A1A1E"/>
<path d="M102.161 61.8451C102.161 61.9675 102.262 62.0657 102.388 62.0657C102.514 62.0657 102.615 61.9675 102.615 61.8451C102.615 61.7228 102.514 61.6245 102.388 61.6245C102.262 61.6245 102.161 61.7228 102.161 61.8451Z" fill="#6A1A1E"/>
<path d="M102.026 61.0694C102.151 61.0694 102.253 60.9706 102.253 60.8488C102.253 60.7269 102.151 60.6282 102.026 60.6282C101.901 60.6282 101.799 60.7269 101.799 60.8488C101.799 60.9706 101.901 61.0694 102.026 61.0694Z" fill="#6A1A1E"/>
<path d="M101.636 60.1065C101.762 60.1065 101.863 60.0077 101.863 59.8859C101.863 59.7641 101.762 59.6653 101.636 59.6653C101.511 59.6653 101.409 59.7641 101.409 59.8859C101.409 60.0077 101.511 60.1065 101.636 60.1065Z" fill="#6A1A1E"/>
<path d="M101.206 59.1561C101.332 59.1561 101.433 59.0578 101.433 58.9355C101.433 58.8131 101.332 58.7148 101.206 58.7148C101.08 58.7148 100.979 58.8131 100.979 58.9355C100.979 59.0578 101.08 59.1561 101.206 59.1561Z" fill="#6A1A1E"/>
<path d="M100.97 58.0082C100.97 57.8859 100.869 57.7876 100.743 57.7876C100.617 57.7876 100.516 57.8859 100.516 58.0082C100.516 58.1306 100.617 58.2288 100.743 58.2288C100.869 58.2288 100.97 58.1306 100.97 58.0082Z" fill="#6A1A1E"/>
<path d="M100.47 57.0758C100.47 56.9535 100.369 56.8552 100.243 56.8552C100.117 56.8552 100.016 56.9535 100.016 57.0758C100.016 57.1982 100.117 57.2964 100.243 57.2964C100.369 57.2964 100.47 57.1982 100.47 57.0758Z" fill="#6A1A1E"/>
<path d="M99.9376 56.1833C99.9376 56.0609 99.8365 55.9626 99.7105 55.9626C99.5846 55.9626 99.4834 56.0609 99.4834 56.1833C99.4834 56.3056 99.5846 56.4039 99.7105 56.4039C99.8365 56.4039 99.9376 56.3056 99.9376 56.1833Z" fill="#6A1A1E"/>
<path d="M99.381 55.2926C99.381 55.1703 99.2798 55.072 99.1539 55.072C99.0279 55.072 98.9268 55.1703 98.9268 55.2926C98.9268 55.415 99.0279 55.5132 99.1539 55.5132C99.2798 55.5132 99.381 55.415 99.381 55.2926Z" fill="#6A1A1E"/>
<path d="M97.9156 53.8121C98.041 53.8121 98.1427 53.7133 98.1427 53.5915C98.1427 53.4696 98.041 53.3708 97.9156 53.3708C97.7902 53.3708 97.6885 53.4696 97.6885 53.5915C97.6885 53.7133 97.7902 53.8121 97.9156 53.8121Z" fill="#6A1A1E"/>
<path d="M98.5494 54.6641C98.6748 54.6641 98.7765 54.5653 98.7765 54.4435C98.7765 54.3217 98.6748 54.2229 98.5494 54.2229C98.424 54.2229 98.3223 54.3217 98.3223 54.4435C98.3223 54.5653 98.424 54.6641 98.5494 54.6641Z" fill="#6A1A1E"/>
<path d="M97.2369 52.9986C97.3623 52.9986 97.464 52.8998 97.464 52.778C97.464 52.6561 97.3623 52.5574 97.2369 52.5574C97.1114 52.5574 97.0098 52.6561 97.0098 52.778C97.0098 52.8998 97.1114 52.9986 97.2369 52.9986Z" fill="#6A1A1E"/>
<path d="M96.5504 52.2186C96.6758 52.2186 96.7775 52.1198 96.7775 51.998C96.7775 51.8761 96.6758 51.7773 96.5504 51.7773C96.4249 51.7773 96.3232 51.8761 96.3232 51.998C96.3232 52.1198 96.4249 52.2186 96.5504 52.2186Z" fill="#6A1A1E"/>
<path d="M95.0924 50.7015C95.2178 50.7015 95.3195 50.6027 95.3195 50.4809C95.3195 50.359 95.2178 50.2603 95.0924 50.2603C94.9669 50.2603 94.8652 50.359 94.8652 50.4809C94.8652 50.6027 94.9669 50.7015 95.0924 50.7015Z" fill="#6A1A1E"/>
<path d="M96.0744 51.2314C96.0744 51.109 95.9732 51.0107 95.8472 51.0107C95.7213 51.0107 95.6201 51.109 95.6201 51.2314C95.6201 51.3537 95.7213 51.452 95.8472 51.452C95.9732 51.452 96.0744 51.3537 96.0744 51.2314Z" fill="#6A1A1E"/>
<path d="M94.316 49.5493C94.19 49.5493 94.0889 49.6476 94.0889 49.7699C94.0889 49.8923 94.19 49.9905 94.316 49.9905C94.442 49.9905 94.5431 49.8923 94.5431 49.7699C94.5431 49.6476 94.442 49.5493 94.316 49.5493Z" fill="#6A1A1E"/>
<path d="M93.5035 48.8647C93.3775 48.8647 93.2764 48.963 93.2764 49.0854C93.2764 49.2077 93.3775 49.306 93.5035 49.306C93.6295 49.306 93.7306 49.2077 93.7306 49.0854C93.7306 48.963 93.6295 48.8647 93.5035 48.8647Z" fill="#6A1A1E"/>
<path d="M92.6744 48.2148C92.5484 48.2148 92.4473 48.3131 92.4473 48.4355C92.4473 48.5578 92.5484 48.6561 92.6744 48.6561C92.8004 48.6561 92.9015 48.5578 92.9015 48.4355C92.9015 48.3131 92.8004 48.2148 92.6744 48.2148Z" fill="#6A1A1E"/>
<path d="M91.8297 48.0294C91.9551 48.0294 92.0568 47.9306 92.0568 47.8087C92.0568 47.6869 91.9551 47.5881 91.8297 47.5881C91.7042 47.5881 91.6025 47.6869 91.6025 47.8087C91.6025 47.9306 91.7042 48.0294 91.8297 48.0294Z" fill="#6A1A1E"/>
<path d="M90.9527 47.4332C91.0787 47.4332 91.1798 47.3349 91.1798 47.2126C91.1798 47.0902 91.0787 46.9919 90.9527 46.9919C90.8267 46.9919 90.7256 47.0902 90.7256 47.2126C90.7256 47.3349 90.8267 47.4332 90.9527 47.4332Z" fill="#6A1A1E"/>
<path d="M90.0631 46.8726C90.1885 46.8726 90.2902 46.7738 90.2902 46.652C90.2902 46.5302 90.1885 46.4314 90.0631 46.4314C89.9376 46.4314 89.8359 46.5302 89.8359 46.652C89.8359 46.7738 89.9376 46.8726 90.0631 46.8726Z" fill="#6A1A1E"/>
<path d="M89.1451 46.3343C89.2705 46.3343 89.3722 46.2355 89.3722 46.1137C89.3722 45.9918 89.2705 45.8931 89.1451 45.8931C89.0197 45.8931 88.918 45.9918 88.918 46.1137C88.918 46.2355 89.0197 46.3343 89.1451 46.3343Z" fill="#6A1A1E"/>
<path d="M88.2105 45.3955C88.0846 45.3955 87.9834 45.4938 87.9834 45.6161C87.9834 45.7385 88.0846 45.8367 88.2105 45.8367C88.3365 45.8367 88.4376 45.7385 88.4376 45.6161C88.4376 45.4938 88.3365 45.3955 88.2105 45.3955Z" fill="#6A1A1E"/>
<path d="M87.2554 44.9395C87.1295 44.9395 87.0283 45.0377 87.0283 45.1601C87.0283 45.2824 87.1295 45.3807 87.2554 45.3807C87.3814 45.3807 87.4826 45.2824 87.4826 45.1601C87.4826 45.0377 87.3814 44.9395 87.2554 44.9395Z" fill="#6A1A1E"/>
<path d="M86.2847 44.9502C86.4102 44.9502 86.5119 44.8515 86.5119 44.7296C86.5119 44.6078 86.4102 44.509 86.2847 44.509C86.1593 44.509 86.0576 44.6078 86.0576 44.7296C86.0576 44.8515 86.1593 44.9502 86.2847 44.9502Z" fill="#6A1A1E"/>
<path d="M85.3101 44.5489C85.4356 44.5489 85.5372 44.4501 85.5372 44.3283C85.5372 44.2064 85.4356 44.1077 85.3101 44.1077C85.1847 44.1077 85.083 44.2064 85.083 44.3283C85.083 44.4501 85.1847 44.5489 85.3101 44.5489Z" fill="#6A1A1E"/>
<path d="M84.5333 43.9718C84.5333 43.8495 84.4322 43.7512 84.3062 43.7512C84.1803 43.7512 84.0791 43.8495 84.0791 43.9718C84.0791 44.0942 84.1803 44.1924 84.3062 44.1924C84.4322 44.1924 84.5333 44.0942 84.5333 43.9718Z" fill="#6A1A1E"/>
<path d="M83.2955 43.8636C83.4209 43.8636 83.5226 43.7648 83.5226 43.643C83.5226 43.5211 83.4209 43.4224 83.2955 43.4224C83.17 43.4224 83.0684 43.5211 83.0684 43.643C83.0684 43.7648 83.17 43.8636 83.2955 43.8636Z" fill="#6A1A1E"/>
<path d="M82.2711 43.5862C82.3965 43.5862 82.4982 43.4875 82.4982 43.3656C82.4982 43.2438 82.3965 43.145 82.2711 43.145C82.1456 43.145 82.0439 43.2438 82.0439 43.3656C82.0439 43.4875 82.1456 43.5862 82.2711 43.5862Z" fill="#6A1A1E"/>
<path d="M81.2232 43.3243C81.3486 43.3243 81.4503 43.2255 81.4503 43.1037C81.4503 42.9818 81.3486 42.8831 81.2232 42.8831C81.0978 42.8831 80.9961 42.9818 80.9961 43.1037C80.9961 43.2255 81.0978 43.3243 81.2232 43.3243Z" fill="#6A1A1E"/>
<path d="M80.4025 42.9015C80.4025 42.7792 80.3013 42.6809 80.1754 42.6809C80.0494 42.6809 79.9482 42.7792 79.9482 42.9015C79.9482 43.0239 80.0494 43.1221 80.1754 43.1221C80.3013 43.1221 80.4025 43.0239 80.4025 42.9015Z" fill="#6A1A1E"/>
<path d="M79.3546 42.7248C79.3546 42.6024 79.2535 42.5042 79.1275 42.5042C79.0015 42.5042 78.9004 42.6024 78.9004 42.7248C78.9004 42.8471 79.0015 42.9454 79.1275 42.9454C79.2535 42.9454 79.3546 42.8471 79.3546 42.7248Z" fill="#6A1A1E"/>
<path d="M78.0787 42.792C78.2046 42.792 78.3058 42.6938 78.3058 42.5714C78.3058 42.4491 78.2046 42.3508 78.0787 42.3508C77.9527 42.3508 77.8516 42.4491 77.8516 42.5714C77.8516 42.6938 77.9527 42.792 78.0787 42.792Z" fill="#6A1A1E"/>
<path d="M77.0103 42.6905C77.1363 42.6905 77.2374 42.5922 77.2374 42.4699C77.2374 42.3475 77.1363 42.2493 77.0103 42.2493C76.8844 42.2493 76.7832 42.3475 76.7832 42.4699C76.7832 42.5922 76.8844 42.6905 77.0103 42.6905Z" fill="#6A1A1E"/>
<path d="M75.942 42.6316C76.0679 42.6316 76.1691 42.5334 76.1691 42.411C76.1691 42.2887 76.0679 42.1904 75.942 42.1904C75.816 42.1904 75.7148 42.2887 75.7148 42.411C75.7148 42.5334 75.816 42.6316 75.942 42.6316Z" fill="#6A1A1E"/>
<path d="M74.8658 42.595C74.9918 42.595 75.0929 42.4968 75.0929 42.3744C75.0929 42.2521 74.9918 42.1538 74.8658 42.1538C74.7398 42.1538 74.6387 42.2521 74.6387 42.3744C74.6387 42.4968 74.7398 42.595 74.8658 42.595Z" fill="#6A1A1E"/>
<path d="M73.8091 42.6143C73.9351 42.6143 74.0363 42.5161 74.0363 42.3937C74.0363 42.2713 73.9351 42.1731 73.8091 42.1731C73.6832 42.1731 73.582 42.2713 73.582 42.3937C73.582 42.5161 73.6832 42.6143 73.8091 42.6143Z" fill="#6A1A1E"/>
<path d="M72.7408 42.659C72.8662 42.659 72.9679 42.5602 72.9679 42.4384C72.9679 42.3165 72.8662 42.2178 72.7408 42.2178C72.6154 42.2178 72.5137 42.3165 72.5137 42.4384C72.5137 42.5602 72.6154 42.659 72.7408 42.659Z" fill="#6A1A1E"/>
<path d="M71.6724 42.7454C71.7979 42.7454 71.8996 42.6466 71.8996 42.5248C71.8996 42.403 71.7979 42.3042 71.6724 42.3042C71.547 42.3042 71.4453 42.403 71.4453 42.5248C71.4453 42.6466 71.547 42.7454 71.6724 42.7454Z" fill="#6A1A1E"/>
<path d="M70.6129 42.8682C70.7388 42.8682 70.84 42.77 70.84 42.6476C70.84 42.5253 70.7388 42.427 70.6129 42.427C70.4869 42.427 70.3857 42.5253 70.3857 42.6476C70.3857 42.77 70.4869 42.8682 70.6129 42.8682Z" fill="#6A1A1E"/>
<path d="M69.5562 42.5967C69.4303 42.5967 69.3291 42.6949 69.3291 42.8173C69.3291 42.9396 69.4303 43.0379 69.5562 43.0379C69.6822 43.0379 69.7833 42.9396 69.7833 42.8173C69.7833 42.6949 69.6822 42.5967 69.5562 42.5967Z" fill="#6A1A1E"/>
<path d="M68.5162 43.2317C68.6416 43.2317 68.7433 43.133 68.7433 43.0111C68.7433 42.8893 68.6416 42.7905 68.5162 42.7905C68.3907 42.7905 68.2891 42.8893 68.2891 43.0111C68.2891 43.133 68.3907 43.2317 68.5162 43.2317Z" fill="#6A1A1E"/>
<path d="M67.4683 43.4634C67.5938 43.4634 67.6955 43.3647 67.6955 43.2428C67.6955 43.121 67.5938 43.0222 67.4683 43.0222C67.3429 43.0222 67.2412 43.121 67.2412 43.2428C67.2412 43.3647 67.3429 43.4634 67.4683 43.4634Z" fill="#6A1A1E"/>
<path d="M66.4527 43.2993C66.3267 43.2993 66.2256 43.3976 66.2256 43.5199C66.2256 43.6423 66.3267 43.7405 66.4527 43.7405C66.5787 43.7405 66.6798 43.6423 66.6798 43.5199C66.6798 43.3976 66.5787 43.2993 66.4527 43.2993Z" fill="#6A1A1E"/>
<path d="M65.4127 43.6091C65.2867 43.6091 65.1855 43.7074 65.1855 43.8297C65.1855 43.9521 65.2867 44.0503 65.4127 44.0503C65.5386 44.0503 65.6398 43.9521 65.6398 43.8297C65.6398 43.7074 65.5386 43.6091 65.4127 43.6091Z" fill="#6A1A1E"/>
<path d="M64.4009 44.4048C64.5264 44.4048 64.6281 44.3061 64.6281 44.1842C64.6281 44.0624 64.5264 43.9636 64.4009 43.9636C64.2755 43.9636 64.1738 44.0624 64.1738 44.1842C64.1738 44.3061 64.2755 44.4048 64.4009 44.4048Z" fill="#6A1A1E"/>
<path d="M63.4185 44.3445C63.2926 44.3445 63.1914 44.4427 63.1914 44.5651C63.1914 44.6874 63.2926 44.7857 63.4185 44.7857C63.5445 44.7857 63.6456 44.6874 63.6456 44.5651C63.6456 44.4427 63.5445 44.3445 63.4185 44.3445Z" fill="#6A1A1E"/>
<path d="M62.4429 45.202C62.5684 45.202 62.6701 45.1032 62.6701 44.9813C62.6701 44.8595 62.5684 44.7607 62.4429 44.7607C62.3175 44.7607 62.2158 44.8595 62.2158 44.9813C62.2158 45.1032 62.3175 45.202 62.4429 45.202Z" fill="#6A1A1E"/>
<path d="M61.4683 45.2097C61.3424 45.2097 61.2412 45.308 61.2412 45.4303C61.2412 45.5527 61.3424 45.6509 61.4683 45.6509C61.5943 45.6509 61.6954 45.5527 61.6954 45.4303C61.6954 45.308 61.5943 45.2097 61.4683 45.2097Z" fill="#6A1A1E"/>
<path d="M60.5181 45.7021C60.3922 45.7021 60.291 45.8004 60.291 45.9228C60.291 46.0451 60.3922 46.1434 60.5181 46.1434C60.6441 46.1434 60.7453 46.0451 60.7453 45.9228C60.7453 45.8004 60.6441 45.7021 60.5181 45.7021Z" fill="#6A1A1E"/>
<path d="M59.8224 46.455C59.8224 46.3326 59.7213 46.2344 59.5953 46.2344C59.4693 46.2344 59.3682 46.3326 59.3682 46.455C59.3682 46.5773 59.4693 46.6756 59.5953 46.6756C59.7213 46.6756 59.8224 46.5773 59.8224 46.455Z" fill="#6A1A1E"/>
<path d="M58.9171 47.0033C58.9171 46.881 58.816 46.7827 58.69 46.7827C58.564 46.7827 58.4629 46.881 58.4629 47.0033C58.4629 47.1257 58.564 47.2239 58.69 47.2239C58.816 47.2239 58.9171 47.1257 58.9171 47.0033Z" fill="#6A1A1E"/>
<path d="M57.8004 47.3577C57.6744 47.3577 57.5732 47.4559 57.5732 47.5783C57.5732 47.7006 57.6744 47.7989 57.8004 47.7989C57.9263 47.7989 58.0275 47.7006 58.0275 47.5783C58.0275 47.4559 57.9263 47.3577 57.8004 47.3577Z" fill="#6A1A1E"/>
<path d="M56.9547 47.9792C56.8287 47.9792 56.7275 48.0775 56.7275 48.1999C56.7275 48.3222 56.8287 48.4205 56.9547 48.4205C57.0806 48.4205 57.1818 48.3222 57.1818 48.1999C57.1818 48.0775 57.0806 47.9792 56.9547 47.9792Z" fill="#6A1A1E"/>
<path d="M56.106 48.625C55.9801 48.625 55.8789 48.7233 55.8789 48.8456C55.8789 48.968 55.9801 49.0662 56.106 49.0662C56.232 49.0662 56.3331 48.968 56.3331 48.8456C56.3331 48.7233 56.232 48.625 56.106 48.625Z" fill="#6A1A1E"/>
<path d="M55.2974 49.7405C55.4229 49.7405 55.5246 49.6418 55.5246 49.5199C55.5246 49.3981 55.4229 49.2993 55.2974 49.2993C55.172 49.2993 55.0703 49.3981 55.0703 49.5199C55.0703 49.6418 55.172 49.7405 55.2974 49.7405Z" fill="#6A1A1E"/>
<path d="M54.5015 50.0012C54.3756 50.0012 54.2744 50.0995 54.2744 50.2218C54.2744 50.3442 54.3756 50.4424 54.5015 50.4424C54.6275 50.4424 54.7287 50.3442 54.7287 50.2218C54.7287 50.0995 54.6275 50.0012 54.5015 50.0012Z" fill="#6A1A1E"/>
<path d="M53.7584 50.7212C53.6324 50.7212 53.5312 50.8194 53.5312 50.9418C53.5312 51.0642 53.6324 51.1624 53.7584 51.1624C53.8843 51.1624 53.9855 51.0642 53.9855 50.9418C53.9855 50.8194 53.8843 50.7212 53.7584 50.7212Z" fill="#6A1A1E"/>
<path d="M53.0103 51.4788C52.8844 51.4788 52.7832 51.577 52.7832 51.6994C52.7832 51.8217 52.8844 51.92 53.0103 51.92C53.1363 51.92 53.2374 51.8217 53.2374 51.6994C53.2374 51.577 53.1363 51.4788 53.0103 51.4788Z" fill="#6A1A1E"/>
<path d="M52.3033 52.7142C52.4287 52.7142 52.5304 52.6154 52.5304 52.4936C52.5304 52.3717 52.4287 52.2729 52.3033 52.2729C52.1779 52.2729 52.0762 52.3717 52.0762 52.4936C52.0762 52.6154 52.1779 52.7142 52.3033 52.7142Z" fill="#6A1A1E"/>
<path d="M51.6412 53.0662C51.5152 53.0662 51.4141 53.1644 51.4141 53.2868C51.4141 53.4091 51.5152 53.5074 51.6412 53.5074C51.7671 53.5074 51.8683 53.4091 51.8683 53.2868C51.8683 53.1644 51.7671 53.0662 51.6412 53.0662Z" fill="#6A1A1E"/>
<path d="M50.9879 53.9041C50.8619 53.9041 50.7607 54.0023 50.7607 54.1247C50.7607 54.247 50.8619 54.3453 50.9879 54.3453C51.1138 54.3453 51.215 54.247 51.215 54.1247C51.215 54.0023 51.1138 53.9041 50.9879 53.9041Z" fill="#6A1A1E"/>
<path d="M50.3785 54.7561C50.2525 54.7561 50.1514 54.8544 50.1514 54.9767C50.1514 55.0991 50.2525 55.1973 50.3785 55.1973C50.5045 55.1973 50.6056 55.0991 50.6056 54.9767C50.6056 54.8544 50.5045 54.7561 50.3785 54.7561Z" fill="#6A1A1E"/>
<path d="M49.8052 56.0584C49.9307 56.0584 50.0324 55.9596 50.0324 55.8378C50.0324 55.716 49.9307 55.6172 49.8052 55.6172C49.6798 55.6172 49.5781 55.716 49.5781 55.8378C49.5781 55.9596 49.6798 56.0584 49.8052 56.0584Z" fill="#6A1A1E"/>
<path d="M49.2613 56.9542C49.3867 56.9542 49.4884 56.8554 49.4884 56.7335C49.4884 56.6117 49.3867 56.5129 49.2613 56.5129C49.1359 56.5129 49.0342 56.6117 49.0342 56.7335C49.0342 56.8554 49.1359 56.9542 49.2613 56.9542Z" fill="#6A1A1E"/>
<path d="M48.7535 57.847C48.8789 57.847 48.9806 57.7482 48.9806 57.6264C48.9806 57.5045 48.8789 57.4058 48.7535 57.4058C48.6281 57.4058 48.5264 57.5045 48.5264 57.6264C48.5264 57.7482 48.6281 57.847 48.7535 57.847Z" fill="#6A1A1E"/>
<path d="M48.2779 58.8016C48.4039 58.8016 48.505 58.7033 48.505 58.581C48.505 58.4586 48.4039 58.3604 48.2779 58.3604C48.1519 58.3604 48.0508 58.4586 48.0508 58.581C48.0508 58.7033 48.1519 58.8016 48.2779 58.8016Z" fill="#6A1A1E"/>
<path d="M47.8394 59.7217C47.9654 59.7217 48.0665 59.6235 48.0665 59.5011C48.0665 59.3788 47.9654 59.2805 47.8394 59.2805C47.7135 59.2805 47.6123 59.3788 47.6123 59.5011C47.6123 59.6235 47.7135 59.7217 47.8394 59.7217Z" fill="#6A1A1E"/>
<path d="M47.4205 60.6844C47.5464 60.6844 47.6476 60.5861 47.6476 60.4638C47.6476 60.3414 47.5464 60.2432 47.4205 60.2432C47.2945 60.2432 47.1934 60.3414 47.1934 60.4638C47.1934 60.5861 47.2945 60.6844 47.4205 60.6844Z" fill="#6A1A1E"/>
<path d="M47.0631 61.6605C47.1885 61.6605 47.2902 61.5617 47.2902 61.4398C47.2902 61.318 47.1885 61.2192 47.0631 61.2192C46.9376 61.2192 46.8359 61.318 46.8359 61.4398C46.8359 61.5617 46.9376 61.6605 47.0631 61.6605Z" fill="#6A1A1E"/>
<path d="M46.7261 62.6475C46.8516 62.6475 46.9533 62.5487 46.9533 62.4269C46.9533 62.3051 46.8516 62.2063 46.7261 62.2063C46.6007 62.2063 46.499 62.3051 46.499 62.4269C46.499 62.5487 46.6007 62.6475 46.7261 62.6475Z" fill="#6A1A1E"/>
<path d="M46.4381 63.6419C46.564 63.6419 46.6652 63.5436 46.6652 63.4213C46.6652 63.2989 46.564 63.2007 46.4381 63.2007C46.3121 63.2007 46.2109 63.2989 46.2109 63.4213C46.2109 63.5436 46.3121 63.6419 46.4381 63.6419Z" fill="#6A1A1E"/>
<path d="M46.1773 64.6534C46.3033 64.6534 46.4044 64.5551 46.4044 64.4328C46.4044 64.3104 46.3033 64.2122 46.1773 64.2122C46.0513 64.2122 45.9502 64.3104 45.9502 64.4328C45.9502 64.5551 46.0513 64.6534 46.1773 64.6534Z" fill="#6A1A1E"/>
<path d="M45.9586 65.67C46.0845 65.67 46.1857 65.5717 46.1857 65.4494C46.1857 65.327 46.0845 65.2288 45.9586 65.2288C45.8326 65.2288 45.7314 65.327 45.7314 65.4494C45.7314 65.5717 45.8326 65.67 45.9586 65.67Z" fill="#6A1A1E"/>
<path d="M45.7877 66.6946C45.9136 66.6946 46.0148 66.5964 46.0148 66.474C46.0148 66.3517 45.9136 66.2534 45.7877 66.2534C45.6617 66.2534 45.5605 66.3517 45.5605 66.474C45.5605 66.5964 45.6617 66.6946 45.7877 66.6946Z" fill="#6A1A1E"/>
<path d="M45.6412 67.7132C45.7666 67.7132 45.8683 67.6144 45.8683 67.4926C45.8683 67.3707 45.7666 67.272 45.6412 67.272C45.5157 67.272 45.4141 67.3707 45.4141 67.4926C45.4141 67.6144 45.5157 67.7132 45.6412 67.7132Z" fill="#6A1A1E"/>
<path d="M45.5445 68.7562C45.6705 68.7562 45.7716 68.6579 45.7716 68.5355C45.7716 68.4132 45.6705 68.3149 45.5445 68.3149C45.4185 68.3149 45.3174 68.4132 45.3174 68.5355C45.3174 68.6579 45.4185 68.7562 45.5445 68.7562Z" fill="#6A1A1E"/>
<path d="M45.4752 69.7911C45.6011 69.7911 45.7023 69.6928 45.7023 69.5705C45.7023 69.4481 45.6011 69.3499 45.4752 69.3499C45.3492 69.3499 45.248 69.4481 45.248 69.5705C45.248 69.6928 45.3492 69.7911 45.4752 69.7911Z" fill="#6A1A1E"/>
<path d="M45.4547 70.8279C45.5801 70.8279 45.6818 70.7292 45.6818 70.6073C45.6818 70.4855 45.5801 70.3867 45.4547 70.3867C45.3292 70.3867 45.2275 70.4855 45.2275 70.6073C45.2275 70.7292 45.3292 70.8279 45.4547 70.8279Z" fill="#6A1A1E"/>
<path d="M45.4586 71.868C45.5845 71.868 45.6857 71.7697 45.6857 71.6474C45.6857 71.525 45.5845 71.4268 45.4586 71.4268C45.3326 71.4268 45.2314 71.525 45.2314 71.6474C45.2314 71.7697 45.3326 71.868 45.4586 71.868Z" fill="#6A1A1E"/>
<path d="M45.7423 72.6874C45.7423 72.5651 45.6412 72.4668 45.5152 72.4668C45.3892 72.4668 45.2881 72.5651 45.2881 72.6874C45.2881 72.8098 45.3892 72.908 45.5152 72.908C45.6412 72.908 45.7423 72.8098 45.7423 72.6874Z" fill="#6A1A1E"/>
<path d="M45.5972 73.9266C45.7227 73.9266 45.8244 73.8278 45.8244 73.706C45.8244 73.5841 45.7227 73.4854 45.5972 73.4854C45.4718 73.4854 45.3701 73.5841 45.3701 73.706C45.3701 73.8278 45.4718 73.9266 45.5972 73.9266Z" fill="#6A1A1E"/>
<path d="M45.7388 74.9666C45.8643 74.9666 45.966 74.8678 45.966 74.746C45.966 74.6242 45.8643 74.5254 45.7388 74.5254C45.6134 74.5254 45.5117 74.6242 45.5117 74.746C45.5117 74.8678 45.6134 74.9666 45.7388 74.9666Z" fill="#6A1A1E"/>
<path d="M46.129 75.7777C46.129 75.6554 46.0279 75.5571 45.9019 75.5571C45.776 75.5571 45.6748 75.6554 45.6748 75.7777C45.6748 75.9001 45.776 75.9983 45.9019 75.9983C46.0279 75.9983 46.129 75.9001 46.129 75.7777Z" fill="#6A1A1E"/>
<path d="M46.34 76.7924C46.34 76.67 46.2388 76.5718 46.1129 76.5718C45.9869 76.5718 45.8857 76.67 45.8857 76.7924C45.8857 76.9147 45.9869 77.013 46.1129 77.013C46.2388 77.013 46.34 76.9147 46.34 76.7924Z" fill="#6A1A1E"/>
<path d="M46.5831 77.8048C46.5831 77.6825 46.482 77.5842 46.356 77.5842C46.2301 77.5842 46.1289 77.6825 46.1289 77.8048C46.1289 77.9272 46.2301 78.0254 46.356 78.0254C46.482 78.0254 46.5831 77.9272 46.5831 77.8048Z" fill="#6A1A1E"/>
<path d="M46.649 79.0318C46.7744 79.0318 46.8761 78.933 46.8761 78.8112C46.8761 78.6893 46.7744 78.5906 46.649 78.5906C46.5236 78.5906 46.4219 78.6893 46.4219 78.8112C46.4219 78.933 46.5236 79.0318 46.649 79.0318Z" fill="#6A1A1E"/>
<path d="M47.1925 79.7934C47.1925 79.671 47.0914 79.5728 46.9654 79.5728C46.8394 79.5728 46.7383 79.671 46.7383 79.7934C46.7383 79.9157 46.8394 80.014 46.9654 80.014C47.0914 80.014 47.1925 79.9157 47.1925 79.7934Z" fill="#6A1A1E"/>
<path d="M47.315 80.9991C47.4404 80.9991 47.5421 80.9003 47.5421 80.7785C47.5421 80.6566 47.4404 80.5579 47.315 80.5579C47.1896 80.5579 47.0879 80.6566 47.0879 80.7785C47.0879 80.9003 47.1896 80.9991 47.315 80.9991Z" fill="#6A1A1E"/>
<path d="M47.7174 81.9588C47.8428 81.9588 47.9445 81.86 47.9445 81.7382C47.9445 81.6163 47.8428 81.5176 47.7174 81.5176C47.5919 81.5176 47.4902 81.6163 47.4902 81.7382C47.4902 81.86 47.5919 81.9588 47.7174 81.9588Z" fill="#6A1A1E"/>
<path d="M48.1558 82.469C48.0299 82.469 47.9287 82.5672 47.9287 82.6896C47.9287 82.812 48.0299 82.9102 48.1558 82.9102C48.2818 82.9102 48.383 82.812 48.383 82.6896C48.383 82.5672 48.2818 82.469 48.1558 82.469Z" fill="#6A1A1E"/>
<path d="M48.6236 83.4094C48.4976 83.4094 48.3965 83.5077 48.3965 83.63C48.3965 83.7524 48.4976 83.8506 48.6236 83.8506C48.7496 83.8506 48.8507 83.7524 48.8507 83.63C48.8507 83.5077 48.7496 83.4094 48.6236 83.4094Z" fill="#6A1A1E"/>
<path d="M49.1265 84.7596C49.252 84.7596 49.3537 84.6608 49.3537 84.539C49.3537 84.4171 49.252 84.3184 49.1265 84.3184C49.0011 84.3184 48.8994 84.4171 48.8994 84.539C48.8994 84.6608 49.0011 84.7596 49.1265 84.7596Z" fill="#6A1A1E"/>
<path d="M49.6676 85.2202C49.5416 85.2202 49.4404 85.3185 49.4404 85.4408C49.4404 85.5632 49.5416 85.6614 49.6676 85.6614C49.7935 85.6614 49.8947 85.5632 49.8947 85.4408C49.8947 85.3185 49.7935 85.2202 49.6676 85.2202Z" fill="#6A1A1E"/>
<path d="M50.2398 86.0906C50.1139 86.0906 50.0127 86.1888 50.0127 86.3112C50.0127 86.4335 50.1139 86.5318 50.2398 86.5318C50.3658 86.5318 50.4669 86.4335 50.4669 86.3112C50.4669 86.1888 50.3658 86.0906 50.2398 86.0906Z" fill="#6A1A1E"/>
<path d="M50.8375 86.9558C50.7115 86.9558 50.6104 87.0541 50.6104 87.1764C50.6104 87.2988 50.7115 87.397 50.8375 87.397C50.9634 87.397 51.0646 87.2988 51.0646 87.1764C51.0646 87.0541 50.9634 86.9558 50.8375 86.9558Z" fill="#6A1A1E"/>
<path d="M51.483 87.7917C51.357 87.7917 51.2559 87.89 51.2559 88.0124C51.2559 88.1347 51.357 88.233 51.483 88.233C51.6089 88.233 51.7101 88.1347 51.7101 88.0124C51.7101 87.89 51.6089 87.7917 51.483 87.7917Z" fill="#6A1A1E"/>
<path d="M52.1412 88.5962C52.0152 88.5962 51.9141 88.6944 51.9141 88.8168C51.9141 88.9392 52.0152 89.0374 52.1412 89.0374C52.2671 89.0374 52.3683 88.9392 52.3683 88.8168C52.3683 88.6944 52.2671 88.5962 52.1412 88.5962Z" fill="#6A1A1E"/>
<path d="M52.8238 89.8255C52.9492 89.8255 53.0509 89.7267 53.0509 89.6049C53.0509 89.483 52.9492 89.3843 52.8238 89.3843C52.6984 89.3843 52.5967 89.483 52.5967 89.6049C52.5967 89.7267 52.6984 89.8255 52.8238 89.8255Z" fill="#6A1A1E"/>
<path d="M53.5592 90.5911C53.6846 90.5911 53.7863 90.4923 53.7863 90.3705C53.7863 90.2487 53.6846 90.1499 53.5592 90.1499C53.4337 90.1499 53.332 90.2487 53.332 90.3705C53.332 90.4923 53.4337 90.5911 53.5592 90.5911Z" fill="#6A1A1E"/>
</g>
<path d="M94.1926 88.3176C98.5942 83.7029 101.286 77.5271 101.286 70.7413C101.286 56.4541 89.3615 44.8701 74.6506 44.8701C59.9397 44.8701 48.0156 56.4523 48.0156 70.7413C48.0156 77.5271 50.707 83.7029 55.1086 88.3176H94.1907H94.1926Z" fill="#FFD0CB"/>
<g style="mix-blend-mode:multiply" opacity="0.5">
<path d="M88.2026 55.1321C90.5257 53.9103 92.6272 55.1191 93.4767 57.9354H93.4786C95.6718 59.0238 96.6128 61.7233 95.6603 64.7046C96.6128 67.6897 95.6737 70.3892 93.4786 71.4775C93.3125 72.0263 93.0987 72.514 92.8448 72.9348L93.5645 73.6116V85.8187H94.5341V87.5949H55.7148V85.8187H56.6845V67.5599H60.0745V63.7405H63.3176H68.5668H69.9182H71.2735H75.9959V67.5599H80.4033C80.3212 66.6736 80.4262 65.7058 80.745 64.7046C79.7925 61.7251 80.7354 59.0256 82.9286 57.9354C83.7819 55.1191 85.8835 53.9103 88.2026 55.1321Z" fill="#FAA2A6"/>
</g>
<path d="M87.0449 71.7353L86.5257 78.3392H89.1216L88.2493 66.863L90.3412 64.3231L90.3183 64.3045L88.2054 66.2382L87.8866 61.8777H87.7587L87.6729 63.0716L86.6441 61.9314L86.6288 61.9407L87.6461 63.4536L87.1403 70.419L83.9451 66.5219L83.9031 66.5497L84.9548 68.2795L83.3954 68.2183L83.3916 68.235L85.1075 68.5409L87.0449 71.7353Z" fill="#6A1A1E"/>
<path d="M82.8086 67.1917H56.3438V85.45H82.8086V67.1917Z" fill="#6A1A1E"/>
<path d="M81.6942 82.8601H57.4531V83.7389H81.6942V82.8601Z" fill="#D8F4FC"/>
<path d="M93.2095 73.2485H76.2773V85.4551H93.2095V73.2485Z" fill="#F3444C"/>
<path d="M84.0805 76.5107H77.6748V80.6804H84.0805V76.5107Z" fill="#CDE8F0"/>
<path d="M91.895 76.5107H85.4912V80.6804H91.895V76.5107Z" fill="#CDE8F0"/>
<path d="M76.2773 69.2808V73.2536H80.5106L76.2773 69.2808Z" fill="#F3444C"/>
<path d="M80.5225 69.2808V73.2536H84.7557L80.5225 69.2808Z" fill="#F3444C"/>
<path d="M84.7559 69.2808V73.2536H88.9891L84.7559 69.2808Z" fill="#F3444C"/>
<path d="M88.9883 69.2808V73.2536H93.2196L88.9883 69.2808Z" fill="#F3444C"/>
<path d="M75.6501 63.3823H59.7314V67.7058H75.6501V63.3823Z" fill="#ED1C25"/>
<path d="M64.4813 64.2639H60.668V66.2457H64.4813V64.2639Z" fill="white"/>
<path d="M69.5995 64.2639H65.7861V66.2457H69.5995V64.2639Z" fill="white"/>
<path d="M74.7303 64.2639H70.917V66.2457H74.7303V64.2639Z" fill="white"/>
<path d="M70.2853 80.4125L69.7031 79.3149C71.1309 78.6011 72.0146 77.1921 72.0146 75.6366C72.0146 74.8468 71.7836 74.0774 71.3465 73.4118L72.4173 72.748C72.9842 73.612 73.2839 74.6095 73.2839 75.6347C73.2839 77.6537 72.1349 79.4836 70.2834 80.4106L70.2853 80.4125Z" fill="white"/>
<path d="M67.7656 80.3803C68.7066 79.7351 69.8288 78.7544 70.4472 77.8665L70.2792 79.7314L71.3786 81.2683C70.3861 80.7937 68.9127 80.4859 67.7656 80.3803Z" fill="white"/>
<path d="M63.9155 72.6875L62.8447 72.0238C63.8678 70.4683 65.6105 69.5413 67.5059 69.5413C68.4889 69.5413 69.4528 69.7953 70.2964 70.2754L69.6532 71.3396C69.0061 70.9707 68.2617 70.7742 67.5059 70.7742C66.0457 70.7742 64.7038 71.4898 63.9155 72.6875Z" fill="white"/>
<path d="M71.6302 72.352C70.5595 71.9293 69.109 71.5382 68.0039 71.5104L69.7121 70.6446L70.4545 68.9187C70.5786 69.9847 71.1034 71.3565 71.6302 72.3539V72.352Z" fill="white"/>
<path d="M67.0892 80.745C64.0409 80.745 61.5596 78.3348 61.5596 75.3739C61.5596 75.2071 61.5672 75.0439 61.5844 74.8789L62.848 74.992C62.8365 75.1181 62.8289 75.246 62.8289 75.3739C62.8289 77.6543 64.7395 79.5102 67.0873 79.5102V80.7431L67.0892 80.745Z" fill="white"/>
<path d="M62.9701 72.8274C63.0293 73.9471 63.2812 75.3894 63.724 76.3738L62.1914 75.2392L60.2676 75.319C61.2085 74.7591 62.2659 73.7135 62.9701 72.8274Z" fill="white"/>
<path opacity="0.5" d="M84.0847 80.0553V76.5107H80.4336L84.0847 80.0553Z" fill="white"/>
<path opacity="0.5" d="M91.9001 80.0553V76.5107H88.249L91.9001 80.0553Z" fill="white"/>
<path d="M94.1923 85.4539H55.373V87.23H94.1923V85.4539Z" fill="white"/>
<g style="mix-blend-mode:multiply" opacity="0.5">
<path d="M98.6182 83.6445L100.46 93.6131C100.603 93.982 100.968 94.236 101.388 94.236H106.951C107.371 94.236 107.736 93.982 107.879 93.6131L109.721 83.6445V83.1885H98.6182V83.6445Z" fill="#808080"/>
<path d="M109.77 80.6426C109.707 80.2626 109.339 80.0067 108.949 80.0679L106.287 80.4869L106.144 79.6267C106.105 79.4042 105.89 79.2522 105.659 79.2893L101.7 79.914C101.471 79.9493 101.315 80.1606 101.351 80.3849L101.494 81.2452L98.8334 81.666C98.444 81.7272 98.1787 82.085 98.2417 82.4632L98.3257 82.9675L109.852 81.1487L109.768 80.6445L109.77 80.6426ZM105.621 80.5926L102.162 81.1376L102.057 80.5091C102.046 80.4424 102.093 80.3794 102.162 80.3682L105.371 79.8621C105.439 79.851 105.504 79.8974 105.516 79.9641L105.621 80.5926Z" fill="#808080"/>
</g>
<path d="M98.293 82.8235V83.2796L100.135 93.2481C100.278 93.6171 100.643 93.871 101.062 93.871H106.626C107.046 93.871 107.411 93.6171 107.554 93.2481L109.396 83.2796V82.8235H98.293Z" fill="#6A1A1E"/>
<path d="M101.063 93.8158C100.683 93.8158 100.338 93.584 100.204 93.2392L98.3662 83.2836V82.9128H109.322V83.2966L107.482 93.2522C107.352 93.5841 107.007 93.8158 106.627 93.8158H101.063Z" fill="#6A1A1E"/>
<path d="M108.63 79.7029L105.969 80.1219L105.826 79.2617C105.788 79.0392 105.572 78.8872 105.341 78.9243L101.383 79.549C101.154 79.5843 100.997 79.7956 101.033 80.0199L101.177 80.8802L98.516 81.301C98.1266 81.3622 97.8613 81.72 97.9243 82.0982L98.0083 82.6025L109.535 80.7838L109.451 80.2795C109.388 79.8994 109.019 79.6436 108.63 79.7048V79.7029ZM101.738 80.1442C101.726 80.0774 101.774 80.0144 101.843 80.0033L105.051 79.4971C105.12 79.486 105.185 79.5324 105.196 79.5991L105.301 80.2276L101.843 80.7726L101.738 80.1442Z" fill="#6A1A1E"/>
<path d="M97.9885 82.0792C97.9618 81.9142 98.0019 81.7492 98.1012 81.6157C98.2004 81.4803 98.3493 81.3914 98.5192 81.3654L101.252 80.9334L101.098 80.0028C101.067 79.8192 101.195 79.645 101.386 79.6153L105.345 78.9905C105.364 78.9887 105.383 78.9868 105.4 78.9868C105.572 78.9868 105.715 79.1055 105.743 79.2705L105.898 80.2011L108.633 79.7692C108.667 79.7636 108.702 79.7618 108.738 79.7618C109.053 79.7618 109.32 79.9824 109.37 80.2864L109.442 80.7202L98.0611 82.5148L97.9885 82.081V82.0792ZM105.064 79.4188C105.052 79.4188 105.043 79.4188 105.031 79.4206L101.823 79.9268C101.714 79.9434 101.64 80.0436 101.657 80.1492L101.773 80.8482L105.377 80.2809L105.261 79.5819C105.245 79.4874 105.161 79.4188 105.064 79.4188Z" fill="#6A1A1E"/>
<path d="M104.142 83.8057H103.563C103.441 83.8057 103.342 83.902 103.342 84.0207V93.0479C103.342 93.1666 103.441 93.2629 103.563 93.2629H104.142C104.264 93.2629 104.363 93.1666 104.363 93.0479V84.0207C104.363 83.902 104.264 83.8057 104.142 83.8057Z" fill="white"/>
<path d="M106.557 93.1032C106.545 93.2219 106.436 93.309 106.314 93.2979L105.742 93.2423C105.682 93.2367 105.629 93.2089 105.591 93.1644C105.553 93.1199 105.535 93.0624 105.541 93.0068L106.452 84.0242C106.463 83.9055 106.572 83.8184 106.694 83.8314L107.267 83.8851C107.326 83.8907 107.379 83.9185 107.417 83.963C107.456 84.0075 107.473 84.065 107.467 84.1206L106.557 93.1032Z" fill="white"/>
<path d="M101.155 93.1032C101.166 93.2219 101.275 93.309 101.397 93.2979L101.97 93.2423C102.029 93.2367 102.082 93.2089 102.121 93.1644C102.159 93.1199 102.176 93.0624 102.17 93.0068L101.26 84.0242C101.248 83.9055 101.139 83.8184 101.017 83.8314L100.445 83.8851C100.385 83.8907 100.332 83.9185 100.294 83.963C100.256 84.0075 100.239 84.065 100.244 84.1206L101.155 93.1032Z" fill="white"/>
<g style="mix-blend-mode:multiply" opacity="0.5">
<path d="M52.8306 80.3192C52.949 80.3192 53.0463 80.2246 53.0463 80.1097V80.0652C53.0463 79.9484 52.949 79.8557 52.8306 79.8557H41.2909C41.1725 79.8557 41.0752 79.9503 41.0752 80.0652V80.1097C41.0752 80.2265 41.1725 80.3192 41.2909 80.3192H41.5543V83.6451L41.7509 84.0827L41.5543 84.5202L41.7509 84.9577L41.5543 85.3952L41.7509 85.8309L41.5543 86.2685L41.7509 86.706L41.5543 87.1435L41.7509 87.581L41.5543 88.0186L41.7509 88.4542L41.5543 88.8918L41.7509 89.3293L41.5543 89.7668L41.7509 90.2043L41.5543 90.6419V93.9678H41.2909C41.1725 93.9678 41.0752 94.0624 41.0752 94.1773V94.2218C41.0752 94.3386 41.1725 94.4313 41.2909 94.4313H52.8306C52.949 94.4313 53.0463 94.3367 53.0463 94.2218V94.1773C53.0463 94.0605 52.949 93.9678 52.8306 93.9678H52.5691V90.6419L52.3726 90.2043L52.5691 89.7668L52.3726 89.3293L52.5691 88.8918L52.3726 88.4542L52.5691 88.0186L52.3726 87.581L52.5691 87.1435L52.3726 86.706L52.5691 86.2685L52.3726 85.8309L52.5691 85.3952L52.3726 84.9577L52.5691 84.5202L52.3726 84.0827L52.5691 83.6451V80.3192H52.8306Z" fill="#6C6C6C"/>
</g>
<path d="M52.2473 79.9565H41.2324V83.2825H52.2473V79.9565Z" fill="#6A1A1E"/>
<path d="M40.9686 79.4924H52.5084C52.6267 79.4924 52.724 79.587 52.724 79.7019V79.7464C52.724 79.8614 52.6267 79.9559 52.5084 79.9559H40.9686C40.8503 79.9559 40.7529 79.8614 40.7529 79.7464V79.7019C40.7529 79.587 40.8503 79.4924 40.9686 79.4924Z" fill="#F3444C"/>
<path d="M42.6823 79.9565H41.915V83.2823H42.6823V79.9565Z" fill="white"/>
<path d="M52.0198 79.9565H50.1895V83.2823H52.0198V79.9565Z" fill="white"/>
<path d="M52.2473 90.2727H41.2324V93.5987H52.2473V90.2727Z" fill="#6A1A1E"/>
<path d="M40.9686 93.5938H52.5084C52.6267 93.5938 52.724 93.6883 52.724 93.8032V93.8477C52.724 93.9627 52.6267 94.0572 52.5084 94.0572H40.9686C40.8503 94.0572 40.7529 93.9627 40.7529 93.8477V93.8032C40.7529 93.6883 40.8503 93.5938 40.9686 93.5938Z" fill="#F3444C"/>
<path d="M42.6823 90.2727H41.915V93.5985H42.6823V90.2727Z" fill="white"/>
<path d="M52.0198 90.2727H50.1895V93.5985H52.0198V90.2727Z" fill="white"/>
<path d="M52.0507 85.4668H41.429L41.2324 85.0293H52.2473L52.0507 85.4668Z" fill="#F3444C"/>
<path d="M52.0507 85.4641H41.429L41.2324 85.8998H52.2473L52.0507 85.4641Z" fill="#FAA2A6"/>
<path d="M41.429 86.3404H52.0507L52.2473 85.9028H41.2324L41.429 86.3404Z" fill="#F3444C"/>
<path d="M41.429 86.3406H52.0507L52.2473 86.7762H41.2324L41.429 86.3406Z" fill="#FAA2A6"/>
<path d="M52.0507 83.7194H41.429L41.2324 83.2837H52.2473L52.0507 83.7194Z" fill="#F3444C"/>
<path d="M52.0507 83.7173H41.429L41.2324 84.1548H52.2473L52.0507 83.7173Z" fill="#FAA2A6"/>
<path d="M41.429 84.6006H52.0507L52.2473 84.1631H41.2324L41.429 84.6006Z" fill="#F3444C"/>
<path d="M41.429 84.5854H52.0507L52.2473 85.0211H41.2324L41.429 84.5854Z" fill="#FAA2A6"/>
<path d="M52.0507 87.2146H41.429L41.2324 86.7771H52.2473L52.0507 87.2146Z" fill="#F3444C"/>
<path d="M52.0507 87.218H41.429L41.2324 87.6555H52.2473L52.0507 87.218Z" fill="#FAA2A6"/>
<path d="M41.429 88.0761H52.0507L52.2473 87.6404H41.2324L41.429 88.0761Z" fill="#F3444C"/>
<path d="M41.429 88.0811H52.0507L52.2473 88.5167H41.2324L41.429 88.0811Z" fill="#FAA2A6"/>
<path d="M52.0507 88.9605H41.429L41.2324 88.5229H52.2473L52.0507 88.9605Z" fill="#F3444C"/>
<path d="M52.0507 88.9646H41.429L41.2324 89.4021H52.2473L52.0507 88.9646Z" fill="#FAA2A6"/>
<path d="M41.429 89.828H52.0507L52.2473 89.3923H41.2324L41.429 89.828Z" fill="#F3444C"/>
<path d="M52.0198 83.7173H50.1895V84.1548H52.0198V83.7173Z" fill="white"/>
<path d="M52.0198 84.5854H50.1895V85.023H52.0198V84.5854Z" fill="white"/>
<path d="M52.0198 85.4641H50.1895V85.9016H52.0198V85.4641Z" fill="white"/>
<path d="M52.0198 86.3406H50.1895V86.7781H52.0198V86.3406Z" fill="white"/>
<path d="M52.0198 87.218H50.1895V87.6555H52.0198V87.218Z" fill="white"/>
<path d="M52.0198 88.0811H50.1895V88.5186H52.0198V88.0811Z" fill="white"/>
<path d="M52.0198 88.9646H50.1895V89.4021H52.0198V88.9646Z" fill="white"/>
<path d="M41.429 89.833H52.0507L52.2473 90.2705H41.2324L41.429 89.833Z" fill="#6A1A1E"/>
<path d="M52.0198 89.833H50.1895V90.2705H52.0198V89.833Z" fill="white"/>
<path d="M42.6823 83.7173H41.915V84.1548H42.6823V83.7173Z" fill="white"/>
<path d="M42.6823 84.5854H41.915V85.023H42.6823V84.5854Z" fill="white"/>
<path d="M42.6823 85.4641H41.915V85.9016H42.6823V85.4641Z" fill="white"/>
<path d="M42.6823 86.3406H41.915V86.7781H42.6823V86.3406Z" fill="white"/>
<path d="M42.6823 87.218H41.915V87.6555H42.6823V87.218Z" fill="white"/>
<path d="M42.6823 88.0811H41.915V88.5186H42.6823V88.0811Z" fill="white"/>
<path d="M42.6823 88.9646H41.915V89.4021H42.6823V88.9646Z" fill="white"/>
<path d="M42.6823 89.833H41.915V90.2705H42.6823V89.833Z" fill="white"/>
<g style="mix-blend-mode:multiply" opacity="0.5">
<path d="M103.386 50.145L103.372 49.472C104.302 50.1766 107.098 50.1005 107.596 47.3585C106.148 46.6762 104.149 47.1638 103.357 48.6396L103.332 47.377C103.332 47.314 103.298 47.2565 103.243 47.2232C103.187 47.1898 103.12 47.1861 103.061 47.212L102.624 47.4123C102.513 47.4605 102.435 47.5958 102.502 47.6941C102.973 48.3726 102.966 48.9733 102.96 50.1469C99.45 50.2581 96.6289 53.0632 96.6289 56.4986C96.6289 59.934 99.5645 62.8559 103.174 62.8559C106.783 62.8559 109.719 60.0045 109.719 56.4986C109.719 52.9928 106.898 50.2563 103.386 50.1469V50.145Z" fill="#808080"/>
</g>
<path d="M102.795 48.8284C103.335 46.9226 105.646 46.2293 107.263 46.9912C106.708 50.0575 103.278 49.7905 102.795 48.8284Z" fill="#FAA2A6"/>
<path d="M102.978 48.7012C102.978 48.7012 107.171 47.0346 107.159 47.092C106.713 49.3704 104.34 49.8209 103.008 49.0293L102.978 48.703V48.7012Z" fill="#6A1A1E"/>
<path d="M102.84 62.4882C99.2304 62.4882 96.2949 59.6368 96.2949 56.131C96.2949 52.6253 99.2304 49.7739 102.84 49.7739C106.449 49.7739 109.385 52.6253 109.385 56.131C109.385 59.6368 106.449 62.4882 102.84 62.4882Z" fill="#00699E"/>
<path d="M109.298 56.1336C109.298 59.6004 106.404 62.411 102.835 62.411C99.2656 62.411 96.3721 59.6004 96.3721 56.1336C96.3721 52.6668 99.2656 49.8562 102.835 49.8562C106.404 49.8562 109.298 52.6668 109.298 56.1336Z" fill="#FAA2A6"/>
<path d="M109.298 56.1336C109.298 59.6004 106.404 62.411 102.835 62.411V49.8562C106.404 49.8562 109.298 52.6668 109.298 56.1336Z" fill="#6A1A1E"/>
<path d="M102.287 47.0429C102.177 47.0911 102.098 47.2265 102.165 47.3247C102.648 48.0181 102.629 48.6261 102.621 49.8497C102.728 49.8552 102.728 49.8534 102.835 49.8534C102.942 49.8534 102.944 49.8552 103.051 49.8497L102.996 47.0077C102.996 46.9447 102.961 46.8872 102.906 46.8538C102.85 46.8205 102.784 46.8168 102.725 46.8427L102.287 47.0429Z" fill="#896336"/>
<path d="M102.833 62.4077C102.753 62.4077 102.671 62.4077 102.59 62.4022V59.2968H102.505C101.531 59.3284 100.569 59.4804 99.6472 59.7511L99.5614 59.777L99.5919 59.8586C99.8935 60.6446 100.289 61.3899 100.766 62.0796C100.502 61.9943 100.245 61.8905 99.9984 61.7737C99.6587 61.2157 99.3686 60.6187 99.1319 60.0032L99.1033 59.9272L99.025 59.955C98.6738 60.081 98.3551 60.2127 98.0516 60.3536C97.939 60.2331 97.8302 60.1089 97.729 59.9828C98.0974 59.8048 98.4811 59.6435 98.8723 59.5045L98.9468 59.4785L98.9239 59.4044C98.6204 58.4459 98.4524 57.4503 98.4219 56.4418V56.3621H96.372C96.3682 56.2842 96.3682 56.2063 96.3682 56.1266C96.3682 56.0469 96.3682 55.969 96.372 55.8912H98.42V55.8115C98.4505 54.8048 98.6204 53.8074 98.9239 52.8489L98.9468 52.7766L98.8723 52.7506C98.4811 52.6116 98.0974 52.4503 97.729 52.2723C97.8302 52.1481 97.9371 52.0239 98.0516 51.9015C98.3551 52.0443 98.6738 52.174 99.025 52.302L99.1033 52.3298L99.1319 52.2538C99.3667 51.6383 99.6587 51.0432 99.9984 50.4833C100.245 50.3665 100.502 50.2645 100.766 50.1774C100.289 50.867 99.8935 51.6123 99.5919 52.3984L99.5614 52.4799L99.6472 52.5059C100.569 52.7766 101.531 52.9286 102.505 52.9583H102.59V49.8548C102.671 49.8511 102.751 49.8511 102.833 49.8511C102.915 49.8511 102.995 49.8511 103.075 49.8548V52.9601H103.161C104.135 52.9286 105.096 52.7766 106.018 52.5059L106.104 52.4799L106.074 52.3984C105.772 51.6123 105.377 50.867 104.9 50.1774C105.163 50.2626 105.421 50.3665 105.667 50.4833C106.007 51.0413 106.297 51.6383 106.534 52.2538L106.562 52.3298L106.641 52.302C106.994 52.1759 107.312 52.0443 107.614 51.9015C107.727 52.022 107.835 52.1462 107.937 52.2723C107.568 52.4503 107.185 52.6116 106.793 52.7506L106.719 52.7766L106.742 52.8507C107.045 53.8092 107.213 54.8048 107.244 55.8133V55.893H109.294C109.296 55.9709 109.297 56.0488 109.297 56.1285C109.297 56.2082 109.297 56.2861 109.294 56.3639H107.246V56.4436C107.213 57.4522 107.045 58.4477 106.742 59.4062L106.719 59.4804L106.793 59.5063C107.185 59.6454 107.568 59.8067 107.937 59.9846C107.835 60.1107 107.729 60.2349 107.614 60.3554C107.311 60.2127 106.992 60.0829 106.641 59.9568L106.562 59.929L106.534 60.005C106.299 60.6224 106.007 61.2175 105.667 61.7755C105.419 61.8923 105.163 61.9962 104.9 62.0814C105.377 61.3918 105.772 60.6446 106.074 59.8604L106.104 59.7789L106.018 59.7529C105.096 59.4822 104.135 59.3302 103.161 59.3005H103.075V62.404C102.995 62.4077 102.915 62.4096 102.833 62.4096V62.4077ZM103.075 58.8278H103.155C104.192 58.8575 105.207 59.0187 106.179 59.3061L106.259 59.3302L106.284 59.2523C106.57 58.3439 106.73 57.4003 106.759 56.4473V56.3639H103.075V58.8278ZM98.9067 56.4473C98.9353 57.4003 99.0956 58.3439 99.3819 59.2523L99.4068 59.3302L99.4869 59.3061C100.458 59.0187 101.476 58.8575 102.51 58.8296H102.592V56.3639H98.9048V56.4473H98.9067ZM106.181 52.9527C105.209 53.2401 104.194 53.4013 103.157 53.4292H103.077V55.8949H106.765V55.8115C106.732 54.8585 106.574 53.9149 106.287 53.0065L106.263 52.9286L106.182 52.9527H106.181ZM99.3819 53.0065C99.0956 53.9149 98.9353 54.8585 98.9067 55.8115V55.8949H102.59V53.431H102.508C101.474 53.4013 100.457 53.2401 99.485 52.9527L99.4048 52.9286L99.38 53.0065H99.3819Z" fill="white"/>
<g style="mix-blend-mode:multiply" opacity="0.5">
<path d="M56.1513 55.7378L55.2408 51.9205H50.9653L50.9825 58.7747H40.5857L50.4347 57.8551L49.5758 49.4658L38.2113 50.5041L37.2283 53.4537L37.3962 55.7323L35.6841 54.3158L35.3291 54.8776L38.404 58.9767V60.7362H39.4958C39.4557 60.8826 39.4328 61.0365 39.4328 61.196C39.4328 62.1841 40.2612 62.9832 41.2805 62.9832C42.2997 62.9832 43.13 62.1823 43.13 61.196C43.13 61.0365 43.1071 60.8826 43.067 60.7362H43.8114C43.7714 60.8826 43.7484 61.0365 43.7484 61.196C43.7484 62.1841 44.5768 62.9832 45.598 62.9832C46.6192 62.9832 47.4475 62.1823 47.4475 61.196C47.4475 61.0365 47.4246 60.8826 47.3846 60.7362H52.5572C52.5171 60.8826 52.4942 61.0365 52.4942 61.196C52.4942 62.1841 53.3207 62.9832 54.3418 62.9832C55.363 62.9832 56.1914 62.1823 56.1914 61.196C56.1914 61.0365 56.1685 60.8826 56.1284 60.7362H57.8481V56.3348L56.1589 55.7397L56.1513 55.7378Z" fill="#808080"/>
</g>
<path d="M50.6357 51.5466L50.6548 58.9979H57.511V55.961L55.8218 55.364L54.9113 51.5466H50.6357Z" fill="#737373"/>
<path d="M49.2466 49.094L50.1056 57.4832L38.0749 58.6068L35 54.5058L35.355 53.944L37.0652 55.3604L36.8992 53.0819L37.8822 50.1322L49.2466 49.094Z" fill="#6A1A1E"/>
<path d="M39.9495 54.1787C40.129 55.9678 41.7743 57.2786 43.6239 57.1062C45.4753 56.9338 46.8286 55.343 46.6492 53.5521C46.4698 51.763 44.8244 50.4522 42.9749 50.6246C41.1253 50.797 39.7701 52.3896 39.9495 54.1787Z" fill="white"/>
<path d="M41.0077 54.3123L41.9104 54.5737L41.7367 54.9964L42.8991 54.887L42.8781 54.6701C42.8781 54.6701 42.8609 54.3716 43.1166 54.5032C43.3724 54.6367 44.069 55.0001 44.069 55.0001C44.069 55.0001 44.2637 55.0613 44.2732 55.1632C44.2828 55.267 44.1053 55.3616 44.1053 55.3616C44.1053 55.3616 43.4926 55.8491 43.2693 56.0271C43.046 56.2051 43.0021 55.9085 43.0021 55.9085L42.9754 55.6378L41.6528 55.7602C40.416 55.7843 41.0096 54.3086 41.0096 54.3086L41.0077 54.3123Z" fill="#DE3129"/>
<path d="M44.1418 52.0822L43.4012 52.6458L43.1436 52.2639L42.5653 53.2446L42.7599 53.3521C42.7599 53.3521 43.0214 53.5115 42.7618 53.6376C42.5023 53.7636 41.7923 54.1029 41.7923 54.1029C41.7923 54.1029 41.6282 54.2215 41.5365 54.1696C41.443 54.1196 41.4659 53.9212 41.4659 53.9212C41.4659 53.9212 41.4068 53.1574 41.3877 52.8775C41.3686 52.5976 41.6415 52.7348 41.6415 52.7348L41.8858 52.8701L42.5443 51.7541C43.2371 50.7623 44.1418 52.0822 44.1418 52.0822Z" fill="#DE3129"/>
<path d="M44.8122 55.6516L44.5946 54.7654L45.0603 54.6987L44.3809 53.7792L44.1996 53.9052C44.1996 53.9052 43.94 54.0684 43.9304 53.7866C43.9209 53.5067 43.8999 52.741 43.8999 52.741C43.8999 52.741 43.8579 52.5482 43.9438 52.4871C44.0316 52.4277 44.2053 52.5297 44.2053 52.5297C44.2053 52.5297 44.9477 52.7985 45.2187 52.8986C45.4898 52.9969 45.2474 53.1822 45.2474 53.1822L45.0183 53.3398L45.7894 54.3854C46.4307 55.4106 44.8122 55.6516 44.8122 55.6516Z" fill="#DE3129"/>
<path d="M55.0054 55.3872H51.3467V52.1467H54.3794L55.0054 55.3872Z" fill="#CDE8F0"/>
<path d="M57.5038 58.4006H38.0674V60.3621H57.5038V58.4006Z" fill="#6A1A1E"/>
<path d="M52.1553 60.8205C52.1553 61.8086 52.9817 62.6076 54.0028 62.6076C55.0239 62.6076 55.8522 61.8067 55.8522 60.8205C55.8522 59.8342 55.0258 59.0315 54.0028 59.0315C52.9798 59.0315 52.1553 59.8324 52.1553 60.8205Z" fill="#6A1A1E"/>
<path d="M52.8008 60.8236C52.8008 61.4632 53.3371 61.9841 54.0013 61.9841C54.6655 61.9841 55.2018 61.465 55.2018 60.8236C55.2018 60.1822 54.6655 59.6631 54.0013 59.6631C53.3371 59.6631 52.8008 60.1822 52.8008 60.8236Z" fill="#D9D9D9"/>
<path d="M39.0947 60.8205C39.0947 61.8086 39.923 62.6076 40.9422 62.6076C41.9614 62.6076 42.7916 61.8067 42.7916 60.8205C42.7916 59.8342 41.9652 59.0315 40.9422 59.0315C39.9192 59.0315 39.0947 59.8324 39.0947 60.8205Z" fill="#6A1A1E"/>
<path d="M39.749 60.8236C39.749 61.4632 40.2872 61.9841 40.9495 61.9841C41.6118 61.9841 42.15 61.465 42.15 60.8236C42.15 60.1822 41.6137 59.6631 40.9495 59.6631C40.2853 59.6631 39.749 60.1822 39.749 60.8236Z" fill="#D9D9D9"/>
<path d="M43.417 60.8205C43.417 61.8086 44.2453 62.6076 45.2664 62.6076C46.2875 62.6076 47.1158 61.8067 47.1158 60.8205C47.1158 59.8342 46.2875 59.0315 45.2664 59.0315C44.2453 59.0315 43.417 59.8324 43.417 60.8205Z" fill="#6A1A1E"/>
<path d="M44.0713 60.8236C44.0713 61.4632 44.6076 61.9841 45.2718 61.9841C45.936 61.9841 46.4723 61.465 46.4723 60.8236C46.4723 60.1822 45.936 59.6631 45.2718 59.6631C44.6076 59.6631 44.0713 60.1822 44.0713 60.8236Z" fill="#D9D9D9"/>
<path opacity="0.5" d="M54.7968 54.3037L54.3807 52.1514H52.4072L54.7968 54.3037Z" fill="white"/>
<g style="mix-blend-mode:color-burn" opacity="0.45">
<path d="M45.1946 67.1074H37.7334V67.6099H38.1132L39.1191 75.1519H43.807L44.8129 67.6099H45.1927V67.1074H45.1946ZM41.3008 68.8613V69.297H40.5984L40.5793 68.8613H41.3008ZM40.5526 68.2421L40.5335 67.8064H41.3008V68.2421H40.5526ZM41.3008 69.9144V70.3501H40.6442L40.6251 69.9144H41.3008ZM41.3008 70.9674V71.4031H40.69L40.6709 70.9674H41.3008ZM41.3008 72.0224V72.4581H40.7339L40.7148 72.0224H41.2989H41.3008ZM41.3008 73.0754V73.5111H40.7797L40.7607 73.0754H41.3008ZM41.6272 73.0754H42.1674L42.1483 73.5111H41.6272V73.0754ZM41.6272 72.4581V72.0224H42.2132L42.1941 72.4581H41.6272ZM41.6272 71.4031V70.9674H42.2571L42.238 71.4031H41.6272ZM41.6272 70.3501V69.9144H42.3029L42.2838 70.3501H41.6272ZM41.6272 69.297V68.8613H42.3487L42.3296 69.297H41.6272ZM41.6272 68.2421V67.8064H42.3945L42.3754 68.2421H41.6272ZM40.209 67.8064L40.2281 68.2421H39.4742L39.436 67.8064H40.209ZM40.2529 68.8613L40.272 69.297H39.5639L39.5257 68.8613H40.2529ZM40.2987 69.9144L40.3178 70.3501H39.6574L39.6192 69.9144H40.2987ZM40.3445 70.9674L40.3636 71.4031H39.749L39.7108 70.9674H40.3445ZM40.3904 72.0224L40.4094 72.4581H39.8406L39.8025 72.0224H40.3904ZM40.4343 73.0754L40.4533 73.5111H39.9323L39.8941 73.0754H40.4343ZM40.4801 74.1285L40.4992 74.5642H40.0239L39.9857 74.1285H40.4801ZM40.8065 74.1285H41.3008V74.5642H40.8255L40.8065 74.1285ZM41.6272 74.1285H42.1216L42.1025 74.5642H41.6272V74.1285ZM42.448 74.1285H42.9423L42.9042 74.5642H42.4289L42.448 74.1285ZM42.4747 73.5111L42.4938 73.0754H43.034L42.9958 73.5111H42.4747ZM42.5205 72.4581L42.5396 72.0224H43.1275L43.0893 72.4581H42.5205ZM42.5663 71.4031L42.5854 70.9674H43.2191L43.1809 71.4031H42.5663ZM42.6102 70.3501L42.6293 69.9144H43.3088L43.2706 70.3501H42.6102ZM42.656 69.297L42.6751 68.8613H43.4023L43.3642 69.297H42.656ZM42.7018 68.2421L42.7209 67.8064H43.494L43.4558 68.2421H42.7018ZM38.4683 67.8064H39.1077L39.1459 68.2421H38.516L38.4664 67.8064H38.4683ZM38.6114 68.8613H39.2012L39.2394 69.297H38.6591L38.6133 68.8613H38.6114ZM38.7546 69.9144H39.2928L39.331 70.3501H38.7985L38.7546 69.9144ZM38.8958 70.9674H39.3825L39.4207 71.4031H38.9378L38.8958 70.9674ZM39.0791 72.4581L39.039 72.0224H39.4742L39.5123 72.4581H39.0771H39.0791ZM39.1821 73.0754H39.5677L39.6059 73.5111H39.2203L39.1821 73.0754ZM39.3253 74.1285H39.6593L39.6975 74.5642H39.3596L39.3253 74.1285ZM43.5684 74.5642H43.2306L43.2687 74.1285H43.6028L43.5684 74.5642ZM43.7096 73.5111H43.3241L43.3623 73.0754H43.7478L43.7096 73.5111ZM43.849 72.4581H43.4138L43.452 72.0224H43.8872L43.8471 72.4581H43.849ZM43.9902 71.4031H43.5073L43.5455 70.9674H44.0322L43.9902 71.4031ZM44.1315 70.3501H43.5989L43.6371 69.9144H44.1754L44.1315 70.3501ZM44.2708 69.297H43.6906L43.7287 68.8613H44.3185L44.2727 69.297H44.2708ZM44.4121 68.2421H43.7822L43.8204 67.8064H44.4598L44.4102 68.2421H44.4121Z" fill="#808080"/>
</g>
<g style="mix-blend-mode:color-burn" opacity="0.45">
<path d="M108.238 67.803L107.41 66.4089C107.389 66.4367 107.37 66.4664 107.351 66.4961L106.053 68.6577L107.301 69.3584L108.238 67.803Z" fill="#FAA2A6"/>
<path d="M110.678 69.7682L110.957 67.8309L110.508 68.083L109.573 66.4943C109.344 66.1087 108.915 65.8677 108.457 65.8677C108.174 65.8677 107.905 65.9585 107.686 66.1179L108.502 67.4916L109.26 68.7819L108.812 69.034L110.678 69.77V69.7682Z" fill="#FAA2A6"/>
<path d="M105.935 72.4507L105.106 73.8448C105.143 73.8485 105.177 73.8503 105.213 73.8503L107.79 73.8615V72.4618L105.935 72.4507Z" fill="#FAA2A6"/>
<path d="M106.458 69.406L104.592 70.142L105.04 70.3941L104.092 71.9754C103.863 72.361 103.863 72.8412 104.092 73.2286C104.233 73.4659 104.449 73.6476 104.701 73.7533L105.517 72.3796L106.288 71.0967L106.737 71.3488L106.458 69.4116V69.406Z" fill="#FAA2A6"/>
<path d="M111.236 72.0532H112.895C112.88 72.0217 112.864 71.9902 112.845 71.9605L111.567 69.7878L110.318 70.4886L111.236 72.0551V72.0532Z" fill="#FAA2A6"/>
<path d="M108.238 73.14L109.828 74.3432V73.8408L111.712 73.8482C112.172 73.8482 112.599 73.609 112.828 73.2216C112.97 72.9843 113.023 72.7118 112.991 72.4485H111.359L109.828 72.4411V71.9387L108.238 73.1419V73.14Z" fill="#FAA2A6"/>
</g>
<defs>
<filter id="filter0_i_3_11904" x="14" y="0" width="124" height="124" filterUnits="userSpaceOnUse" color-interpolation-filters="sRGB">
<feFlood flood-opacity="0" result="BackgroundImageFix"/>
<feBlend mode="normal" in="SourceGraphic" in2="BackgroundImageFix" result="shape"/>
<feColorMatrix in="SourceAlpha" type="matrix" values="0 0 0 0 0 0 0 0 0 0 0 0 0 0 0 0 0 0 127 0" result="hardAlpha"/>
<feOffset dx="5" dy="5"/>
<feGaussianBlur stdDeviation="2"/>
<feComposite in2="hardAlpha" operator="arithmetic" k2="-1" k3="1"/>
<feColorMatrix type="matrix" values="0 0 0 0 0 0 0 0 0 0 0 0 0 0 0 0 0 0 0.05 0"/>
<feBlend mode="normal" in2="shape" result="effect1_innerShadow_3_11904"/>
</filter>
<linearGradient id="paint0_linear_3_11904" x1="83.3448" y1="73.647" x2="83.3448" y2="26.0003" gradientUnits="userSpaceOnUse">
<stop stop-color="white"/>
<stop offset="1" stop-color="#FFDDDE"/>
</linearGradient>
</defs>
</svg>
