<svg width="291" height="237" viewBox="0 0 291 237" fill="none" xmlns="http://www.w3.org/2000/svg">
<path d="M209.892 225.493H203.349V225.681H209.892V225.493Z" fill="#EBEBEB"/>
<path d="M273.561 216.458H259.112V216.646H273.561V216.458Z" fill="#EBEBEB"/>
<path d="M32.5199 217.723H0V217.911H32.5199V217.723Z" fill="#EBEBEB"/>
<path d="M43.9948 217.723H39.2286V217.911H43.9948V217.723Z" fill="#EBEBEB"/>
<path d="M130.027 220.9H59.4905V221.088H130.027V220.9Z" fill="#EBEBEB"/>
<path d="M85.2338 1.54372H31.5862V183.539H85.2338V1.54372Z" fill="#FFF3F3"/>
<path d="M77.2524 1.54372H74.1126L55.4018 183.539H58.5341L77.2524 1.54372Z" fill="#FFE7E7"/>
<path d="M84.2928 2.2514H31.2475V3.85518H84.2928V2.2514Z" fill="#450004"/>
<path d="M84.2928 181.95H31.2475V185.384H84.2928V181.95Z" fill="#EBEBEB"/>
<path d="M83.4115 185.226H33.2877V185.376H83.4115V185.226Z" fill="#EBEBEB"/>
<path d="M33.2879 2.25132H83.4043V185.226H86.4085V0H30.2837V185.226H33.2879V2.25132Z" fill="#840007"/>
<path d="M144.935 1.54372H91.2877V183.539H144.935V1.54372Z" fill="#FFF3F3"/>
<path d="M130.057 1.54372H112.95L94.2393 183.539H111.346L130.057 1.54372Z" fill="#FFE7E7"/>
<path d="M145.492 2.2514H90.9411V3.85518H145.492V2.2514Z" fill="#450004"/>
<path d="M145.492 181.95H90.9411V185.384H145.492V181.95Z" fill="#EBEBEB"/>
<path d="M143.106 185.226H92.9818V185.376H143.106V185.226Z" fill="#EBEBEB"/>
<path d="M92.9819 2.25132H143.106V185.226H146.11V0H89.9851V185.226H92.9819V2.25132Z" fill="#840007"/>
<path d="M203.131 1.54372H150.989V183.539H203.131V1.54372Z" fill="#FFF3F3"/>
<path d="M180.535 1.54372H177.395L158.684 183.539H161.817L180.535 1.54372Z" fill="#FFE7E7"/>
<path d="M203.688 2.2514H150.643V3.85518H203.688V2.2514Z" fill="#450004"/>
<path d="M203.688 181.95H150.643V185.384H203.688V181.95Z" fill="#EBEBEB"/>
<path d="M202.807 185.226H152.683V185.376H202.807V185.226Z" fill="#EBEBEB"/>
<path d="M152.683 2.25132H202.807V185.226H205.804V0H149.679V185.226H152.683V2.25132Z" fill="#840007"/>
<path d="M264.33 1.54372H210.683V183.539H264.33V1.54372Z" fill="#FFF3F3"/>
<path d="M259.09 1.54372H241.983L223.272 183.539H240.371L259.09 1.54372Z" fill="#FFE7E7"/>
<path d="M263.389 2.2514H210.344V3.85518H263.389V2.2514Z" fill="#450004"/>
<path d="M263.389 181.95H210.344V185.384H263.389V181.95Z" fill="#EBEBEB"/>
<path d="M212.384 2.25132H262.501V185.226H265.505V0H209.38V185.226H212.384V2.25132Z" fill="#840007"/>
<path d="M262.509 185.226H212.385V185.376H262.509V185.226Z" fill="#EBEBEB"/>
<path d="M68.6389 141.66H45.3501V181.935H68.6389V141.66Z" fill="#EBEBEB"/>
<path d="M64.1663 136.035V146.133H62.3291H51.6598H49.8226V136.035H64.1663Z" fill="#EBEBEB"/>
<path d="M64.1664 146.14H67.148V143.158H64.1664V146.14Z" fill="#FAFAFA"/>
<path d="M58.3914 146.14H61.3731V143.158H58.3914V146.14Z" fill="#FAFAFA"/>
<path d="M52.6086 146.14H55.5902V143.158H52.6086V146.14Z" fill="#FAFAFA"/>
<path d="M46.8336 146.14H49.8153V143.158H46.8336V146.14Z" fill="#F0F0F0"/>
<path d="M64.1664 151.554H67.148V148.572H64.1664V151.554Z" fill="#F0F0F0"/>
<path d="M58.3914 151.554H61.3731V148.572H58.3914V151.554Z" fill="#F0F0F0"/>
<path d="M52.6086 151.554H55.5902V148.572H52.6086V151.554Z" fill="#FAFAFA"/>
<path d="M46.8336 151.554H49.8153V148.572H46.8336V151.554Z" fill="#FAFAFA"/>
<path d="M64.1664 156.967H67.148V153.986H64.1664V156.967Z" fill="#F0F0F0"/>
<path d="M58.3914 156.967H61.3731V153.986H58.3914V156.967Z" fill="#FAFAFA"/>
<path d="M52.6086 156.967H55.5902V153.986H52.6086V156.967Z" fill="#FAFAFA"/>
<path d="M58.3914 141.449H61.3731V138.467H58.3914V141.449Z" fill="#FAFAFA"/>
<path d="M52.6086 141.449H55.5902V138.467H52.6086V141.449Z" fill="#F0F0F0"/>
<path d="M46.8336 156.967H49.8153V153.986H46.8336V156.967Z" fill="#F0F0F0"/>
<path d="M64.1664 162.389H67.148V159.407H64.1664V162.389Z" fill="#FAFAFA"/>
<path d="M58.3914 162.389H61.3731V159.407H58.3914V162.389Z" fill="#F0F0F0"/>
<path d="M52.6086 162.389H55.5902V159.407H52.6086V162.389Z" fill="#F0F0F0"/>
<path d="M46.8336 162.389H49.8153V159.407H46.8336V162.389Z" fill="#FAFAFA"/>
<path d="M64.1664 167.81H67.148V164.828H64.1664V167.81Z" fill="#F0F0F0"/>
<path d="M58.3914 167.81H61.3731V164.828H58.3914V167.81Z" fill="#FAFAFA"/>
<path d="M52.6086 167.81H55.5902V164.828H52.6086V167.81Z" fill="#FAFAFA"/>
<path d="M46.8336 167.81H49.8153V164.828H46.8336V167.81Z" fill="#F0F0F0"/>
<path d="M64.1664 173.231H67.148V170.249H64.1664V173.231Z" fill="#F0F0F0"/>
<path d="M58.3914 173.231H61.3731V170.249H58.3914V173.231Z" fill="#FAFAFA"/>
<path d="M52.6086 173.231H55.5902V170.249H52.6086V173.231Z" fill="#F0F0F0"/>
<path d="M46.8336 173.231H49.8153V170.249H46.8336V173.231Z" fill="#FAFAFA"/>
<path d="M64.1664 178.645H67.148V175.663H64.1664V178.645Z" fill="#FAFAFA"/>
<path d="M58.3914 178.645H61.3731V175.663H58.3914V178.645Z" fill="#FAFAFA"/>
<path d="M52.6086 178.645H55.5902V175.663H52.6086V178.645Z" fill="#F0F0F0"/>
<path d="M46.8336 178.645H49.8153V175.663H46.8336V178.645Z" fill="#F0F0F0"/>
<path d="M199.946 141.66H176.657V181.935H199.946V141.66Z" fill="#EBEBEB"/>
<path d="M195.473 136.035V146.133H193.636H182.967H181.129V136.035H195.473Z" fill="#EBEBEB"/>
<path d="M195.473 146.14H198.455V143.158H195.473V146.14Z" fill="#FAFAFA"/>
<path d="M189.698 146.14H192.68V143.158H189.698V146.14Z" fill="#FAFAFA"/>
<path d="M183.923 146.14H186.905V143.158H183.923V146.14Z" fill="#FAFAFA"/>
<path d="M178.148 146.14H181.129V143.158H178.148V146.14Z" fill="#F0F0F0"/>
<path d="M195.473 151.554H198.455V148.572H195.473V151.554Z" fill="#F0F0F0"/>
<path d="M189.698 151.554H192.68V148.572H189.698V151.554Z" fill="#F0F0F0"/>
<path d="M183.923 151.554H186.905V148.572H183.923V151.554Z" fill="#FAFAFA"/>
<path d="M178.148 151.554H181.129V148.572H178.148V151.554Z" fill="#FAFAFA"/>
<path d="M195.473 156.967H198.455V153.986H195.473V156.967Z" fill="#F0F0F0"/>
<path d="M189.698 156.967H192.68V153.986H189.698V156.967Z" fill="#FAFAFA"/>
<path d="M183.923 156.967H186.905V153.986H183.923V156.967Z" fill="#FAFAFA"/>
<path d="M189.698 141.449H192.68V138.467H189.698V141.449Z" fill="#FAFAFA"/>
<path d="M183.923 141.449H186.905V138.467H183.923V141.449Z" fill="#F0F0F0"/>
<path d="M178.148 156.967H181.129V153.986H178.148V156.967Z" fill="#F0F0F0"/>
<path d="M195.473 162.389H198.455V159.407H195.473V162.389Z" fill="#FAFAFA"/>
<path d="M189.698 162.389H192.68V159.407H189.698V162.389Z" fill="#F0F0F0"/>
<path d="M183.923 162.389H186.905V159.407H183.923V162.389Z" fill="#F0F0F0"/>
<path d="M178.148 162.389H181.129V159.407H178.148V162.389Z" fill="#FAFAFA"/>
<path d="M195.473 167.81H198.455V164.828H195.473V167.81Z" fill="#F0F0F0"/>
<path d="M189.698 167.81H192.68V164.828H189.698V167.81Z" fill="#FAFAFA"/>
<path d="M183.923 167.81H186.905V164.828H183.923V167.81Z" fill="#FAFAFA"/>
<path d="M178.148 167.81H181.129V164.828H178.148V167.81Z" fill="#F0F0F0"/>
<path d="M195.473 173.231H198.455V170.249H195.473V173.231Z" fill="#F0F0F0"/>
<path d="M189.698 173.231H192.68V170.249H189.698V173.231Z" fill="#FAFAFA"/>
<path d="M183.923 173.231H186.905V170.249H183.923V173.231Z" fill="#F0F0F0"/>
<path d="M178.148 173.231H181.129V170.249H178.148V173.231Z" fill="#FAFAFA"/>
<path d="M195.473 178.645H198.455V175.663H195.473V178.645Z" fill="#FAFAFA"/>
<path d="M189.698 178.645H192.68V175.663H189.698V178.645Z" fill="#FAFAFA"/>
<path d="M183.923 178.645H186.905V175.663H183.923V178.645Z" fill="#F0F0F0"/>
<path d="M178.148 178.645H181.129V175.663H178.148V178.645Z" fill="#F0F0F0"/>
<path d="M236.938 156.335H216.074V181.935H236.938V156.335Z" fill="#F0F0F0"/>
<path d="M217.889 159.173H222.745H224.078H225.418V161.846H224.078H222.745H217.889V159.173Z" fill="#E6E6E6"/>
<path d="M217.889 164.346H222.745H224.078H225.418V167.019H224.078H222.745H217.889V164.346Z" fill="#FAFAFA"/>
<path d="M217.889 169.519H222.745H224.078H225.418V172.192H224.078H222.745H217.889V169.519Z" fill="#E6E6E6"/>
<path d="M217.889 174.699H222.745H224.808H225.418V177.365H224.808H222.745H217.889V174.699Z" fill="#FAFAFA"/>
<path d="M227.594 159.173H232.451H233.783H235.124V161.846H233.783H232.451H227.594V159.173Z" fill="#FAFAFA"/>
<path d="M227.594 164.346H232.451H234.333H235.124V167.019H234.333H232.451H227.594V164.346Z" fill="#FAFAFA"/>
<path d="M227.594 169.519H232.451H233.783H235.124V172.192H233.783H232.451H227.594V169.519Z" fill="#E6E6E6"/>
<path d="M227.594 174.699H232.451H233.783H235.124V177.365H233.783H232.451H227.594V174.699Z" fill="#FAFAFA"/>
<path d="M137.436 166.033H118.477V181.943H137.436V166.033Z" fill="#F0F0F0"/>
<path d="M133.799 170.438H136.224V168.013H133.799V170.438Z" fill="#FAFAFA"/>
<path d="M129.093 170.438H131.518V168.013H129.093V170.438Z" fill="#FAFAFA"/>
<path d="M124.387 170.438H126.812V168.013H124.387V170.438Z" fill="#FAFAFA"/>
<path d="M119.696 170.438H122.121V168.013H119.696V170.438Z" fill="#FAFAFA"/>
<path d="M133.799 174.842H136.224V172.418H133.799V174.842Z" fill="#FAFAFA"/>
<path d="M129.093 174.842H131.518V172.418H129.093V174.842Z" fill="#FAFAFA"/>
<path d="M124.387 174.842H126.812V172.418H124.387V174.842Z" fill="#FAFAFA"/>
<path d="M119.696 174.842H122.121V172.418H119.696V174.842Z" fill="#E6E6E6"/>
<path d="M133.799 179.262H136.224V176.838H133.799V179.262Z" fill="#E6E6E6"/>
<path d="M129.093 179.262H131.518V176.838H129.093V179.262Z" fill="#E6E6E6"/>
<path d="M124.387 179.262H126.812V176.838H124.387V179.262Z" fill="#FAFAFA"/>
<path d="M119.696 179.262H122.121V176.838H119.696V179.262Z" fill="#E6E6E6"/>
<path d="M174.662 166.033H155.702V181.943H174.662V166.033Z" fill="#F0F0F0"/>
<path d="M171.025 170.438H173.449V168.013H171.025V170.438Z" fill="#FAFAFA"/>
<path d="M166.327 170.438H168.751V168.013H166.327V170.438Z" fill="#FAFAFA"/>
<path d="M161.621 170.438H164.045V168.013H161.621V170.438Z" fill="#FAFAFA"/>
<path d="M156.915 170.438H159.339V168.013H156.915V170.438Z" fill="#FAFAFA"/>
<path d="M171.025 174.842H173.449V172.418H171.025V174.842Z" fill="#FAFAFA"/>
<path d="M166.327 174.842H168.751V172.418H166.327V174.842Z" fill="#FAFAFA"/>
<path d="M161.621 174.842H164.045V172.418H161.621V174.842Z" fill="#FAFAFA"/>
<path d="M156.915 174.842H159.339V172.418H156.915V174.842Z" fill="#E6E6E6"/>
<path d="M171.025 179.262H173.449V176.838H171.025V179.262Z" fill="#E6E6E6"/>
<path d="M166.327 179.262H168.751V176.838H166.327V179.262Z" fill="#E6E6E6"/>
<path d="M161.621 179.262H164.045V176.838H161.621V179.262Z" fill="#FAFAFA"/>
<path d="M156.915 179.262H159.339V176.838H156.915V179.262Z" fill="#E6E6E6"/>
<path d="M115.909 154.264H96.9496V181.935H115.909V154.264Z" fill="#F0F0F0"/>
<path d="M114.697 155.477H107.566V162.313H114.697V155.477Z" fill="#FAFAFA"/>
<path d="M105.292 155.477H98.162V162.313H105.292V155.477Z" fill="#FAFAFA"/>
<path d="M114.697 164.301H107.566V171.138H114.697V164.301Z" fill="#FAFAFA"/>
<path d="M105.292 164.301H98.162V171.138H105.292V164.301Z" fill="#FAFAFA"/>
<path d="M114.697 173.118H107.566V179.955H114.697V173.118Z" fill="#FAFAFA"/>
<path d="M105.292 173.118H98.162V179.955H105.292V173.118Z" fill="#FAFAFA"/>
<path d="M259.067 154.264H240.108V181.935H259.067V154.264Z" fill="#F0F0F0"/>
<path d="M257.855 155.477H250.725V162.313H257.855V155.477Z" fill="#FAFAFA"/>
<path d="M248.451 155.477H241.32V162.313H248.451V155.477Z" fill="#FAFAFA"/>
<path d="M257.855 164.301H250.725V171.138H257.855V164.301Z" fill="#FAFAFA"/>
<path d="M248.451 164.301H241.32V171.138H248.451V164.301Z" fill="#FAFAFA"/>
<path d="M257.855 173.118H250.725V179.955H257.855V173.118Z" fill="#FAFAFA"/>
<path d="M248.451 173.118H241.32V179.955H248.451V173.118Z" fill="#FAFAFA"/>
<path d="M109.208 170.927H189.276C189.276 172.345 188.727 173.708 187.745 174.731C186.762 175.754 185.423 176.358 184.006 176.416C175.4 176.8 162.17 178.163 157.969 182.921C150.138 191.799 150.899 222.971 160.273 230.192C163.209 232.45 171.778 236.968 171.778 236.968H126.684C126.684 236.968 134.695 232.383 137.474 230.192C146.795 222.918 147.066 191.791 139.205 182.921C135.17 178.404 122.761 176.898 114.441 176.461C113.026 176.384 111.694 175.767 110.721 174.737C109.747 173.708 109.206 172.344 109.208 170.927Z" fill="#D0000B"/>
<path opacity="0.3" d="M109.208 170.927H189.276C189.276 172.345 188.727 173.708 187.745 174.731C186.762 175.754 185.423 176.358 184.006 176.416C175.4 176.8 162.17 178.163 157.969 182.921C150.138 191.799 150.899 222.971 160.273 230.192C163.209 232.45 171.778 236.968 171.778 236.968H126.684C126.684 236.968 134.695 232.383 137.474 230.192C146.795 222.918 147.066 191.791 139.205 182.921C135.17 178.404 122.761 176.898 114.441 176.461C113.026 176.384 111.694 175.767 110.721 174.737C109.747 173.708 109.206 172.344 109.208 170.927Z" fill="white"/>
<path opacity="0.2" d="M179.36 176.702C171.228 177.357 161.478 178.961 157.992 182.921C156.853 184.287 155.956 185.838 155.341 187.507H141.893C141.257 185.84 140.349 184.291 139.205 182.921C135.697 178.983 125.871 177.365 117.889 176.702H179.36Z" fill="black"/>
<path d="M181.597 149.995L177.388 169.09C177.312 169.395 177.137 169.667 176.89 169.863C176.644 170.059 176.34 170.168 176.025 170.174H148.821C148.677 170.17 148.537 170.132 148.41 170.065C148.283 169.998 148.174 169.902 148.09 169.786C148.006 169.669 147.951 169.535 147.927 169.393C147.904 169.252 147.913 169.107 147.955 168.969L152.156 150.04C152.243 149.751 152.427 149.501 152.676 149.331C152.926 149.161 153.226 149.082 153.527 149.106H180.731C181.348 149.099 181.732 149.377 181.597 149.995Z" fill="#263238"/>
<path opacity="0.6" d="M181.597 149.995L177.388 169.09C177.312 169.395 177.137 169.667 176.89 169.863C176.644 170.059 176.34 170.168 176.025 170.174H148.821C148.677 170.17 148.537 170.132 148.41 170.065C148.283 169.998 148.174 169.902 148.09 169.786C148.006 169.669 147.951 169.535 147.927 169.393C147.904 169.252 147.913 169.107 147.955 168.969L152.156 150.04C152.243 149.751 152.427 149.501 152.676 149.331C152.926 149.161 153.226 149.082 153.527 149.106H180.731C181.348 149.099 181.732 149.377 181.597 149.995Z" fill="white"/>
<path opacity="0.2" d="M180.821 149.995L176.597 169.09C176.52 169.396 176.343 169.668 176.096 169.864C175.848 170.06 175.543 170.169 175.227 170.174H148.821C148.677 170.17 148.537 170.133 148.41 170.065C148.283 169.998 148.174 169.902 148.09 169.786C148.006 169.669 147.951 169.535 147.927 169.393C147.904 169.252 147.913 169.107 147.955 168.969L152.164 150.04C152.248 149.751 152.43 149.5 152.678 149.33C152.927 149.159 153.227 149.081 153.527 149.106H179.948C180.565 149.099 180.957 149.378 180.821 149.995Z" fill="black"/>
<path d="M130.878 168.035V170.159C130.878 170.701 131.518 170.912 132.06 170.912H174.466C175.016 170.912 175.671 170.686 175.671 170.159V168.035H130.878Z" fill="#263238"/>
<path opacity="0.6" d="M130.878 168.035V170.159C130.878 170.701 131.518 170.912 132.06 170.912H174.466C175.016 170.912 175.671 170.686 175.671 170.159V168.035H130.878Z" fill="white"/>
<path opacity="0.2" d="M130.878 168.035V170.159C130.878 170.701 131.518 170.912 132.06 170.912H160.032C160.574 170.912 161.222 170.686 161.222 170.159V168.035H130.878Z" fill="white"/>
<path d="M176.431 166.176H149.242L152.781 150.221H179.978L176.431 166.176Z" fill="#D0000B"/>
<path d="M158.059 164.851H156.124L156.862 161.658H158.797L158.059 164.851Z" fill="#D0000B"/>
<path d="M161.199 164.851H159.264L160.536 159.339H162.471L161.199 164.851Z" fill="#D0000B"/>
<path d="M164.339 164.851H162.396L163.473 160.205H165.408L164.339 164.851Z" fill="#D0000B"/>
<path d="M167.471 164.851H165.536L167.147 157.886H169.082L167.471 164.851Z" fill="#D0000B"/>
<path d="M170.611 164.851H168.676L170.822 155.567H172.757L170.611 164.851Z" fill="#D0000B"/>
<g opacity="0.5">
<path d="M158.059 164.851H156.124L156.862 161.658H158.797L158.059 164.851Z" fill="white"/>
</g>
<g opacity="0.5">
<path d="M161.199 164.851H159.264L160.536 159.339H162.471L161.199 164.851Z" fill="white"/>
</g>
<g opacity="0.5">
<path d="M164.339 164.851H162.396L163.473 160.205H165.408L164.339 164.851Z" fill="white"/>
</g>
<g opacity="0.5">
<path d="M167.471 164.851H165.536L167.147 157.886H169.082L167.471 164.851Z" fill="white"/>
</g>
<g opacity="0.5">
<path d="M170.611 164.851H168.676L170.822 155.567H172.757L170.611 164.851Z" fill="white"/>
</g>
<path d="M173.095 165.295H153.361L153.564 164.406H173.299L173.095 165.295Z" fill="white"/>
<path d="M154.965 162.26L154.49 161.854L162.02 156.945L164.738 158.699L174.737 151.779L175.234 152.171L164.663 159.482L161.922 157.72L154.965 162.26Z" fill="white"/>
<path d="M175.52 151.554L174.187 151.749L175.272 152.525L175.52 151.554Z" fill="white"/>
<path d="M261.055 230.644H171.876V236.502H261.055V230.644Z" fill="#263238"/>
<path opacity="0.4" d="M261.055 230.644H171.876V236.502H261.055V230.644Z" fill="white"/>
<path opacity="0.2" d="M222.436 230.644H171.876V236.502H222.436V230.644Z" fill="white"/>
<path d="M198.997 197.318H264.804L274.834 145.523C275.092 144.192 275.052 142.821 274.717 141.508C274.382 140.195 273.76 138.973 272.896 137.929C272.032 136.885 270.947 136.045 269.72 135.47C268.493 134.896 267.153 134.6 265.798 134.605H218.709C216.573 134.596 214.501 135.334 212.851 136.691C211.201 138.048 210.077 139.939 209.674 142.036L198.997 197.318Z" fill="#D0000B"/>
<path opacity="0.6" d="M198.997 197.318H264.804L274.834 145.523C275.092 144.192 275.052 142.821 274.717 141.508C274.382 140.195 273.76 138.973 272.896 137.929C272.032 136.885 270.947 136.045 269.72 135.47C268.493 134.896 267.153 134.6 265.798 134.605H218.709C216.573 134.596 214.501 135.334 212.851 136.691C211.201 138.048 210.077 139.939 209.674 142.036L198.997 197.318Z" fill="white"/>
<path opacity="0.2" d="M246.116 197.318H264.805L274.834 145.523C275.092 144.192 275.052 142.821 274.717 141.508C274.382 140.195 273.76 138.973 272.896 137.929C272.032 136.885 270.947 136.045 269.72 135.47C268.493 134.896 267.154 134.6 265.798 134.605C263.663 134.598 261.591 135.336 259.942 136.693C258.292 138.049 257.168 139.939 256.763 142.036L246.116 197.318Z" fill="black"/>
<path d="M262.673 196.678H169.443C166.89 196.678 164.82 198.748 164.82 201.301V227.632C164.82 230.185 166.89 232.255 169.443 232.255H262.673C265.227 232.255 267.297 230.185 267.297 227.632V201.301C267.297 198.748 265.227 196.678 262.673 196.678Z" fill="#D0000B"/>
<path opacity="0.6" d="M262.673 196.678H169.443C166.89 196.678 164.82 198.748 164.82 201.301V227.632C164.82 230.185 166.89 232.255 169.443 232.255H262.673C265.227 232.255 267.297 230.185 267.297 227.632V201.301C267.297 198.748 265.227 196.678 262.673 196.678Z" fill="white"/>
<path opacity="0.2" d="M262.674 196.678H222.775C220.222 196.678 218.152 198.748 218.152 201.301V227.632C218.152 230.185 220.222 232.255 222.775 232.255H262.674C265.227 232.255 267.297 230.185 267.297 227.632V201.301C267.297 198.748 265.227 196.678 262.674 196.678Z" fill="black"/>
<path d="M185.94 137.948L179.608 136.269L181.942 130.998C181.942 130.998 186.558 131.548 187.522 135.26L185.94 137.948Z" fill="#E4897B"/>
<path d="M176.137 133.091L178.818 129.59L181.912 131.013L179.578 136.269L176.137 133.091Z" fill="#E4897B"/>
<path d="M211.112 135.734C211.112 135.734 205.999 139.062 198.605 144.664L187.386 134.033L184.879 137.699C184.879 137.699 194.848 151.938 197.528 152.42C200.209 152.902 213.167 143.859 213.167 143.859L211.112 135.734Z" fill="#263238"/>
<path opacity="0.4" d="M213.129 143.859C213.129 143.859 210.291 145.839 207 147.894C203.236 150.236 198.914 152.683 197.491 152.412C194.81 151.93 184.841 137.692 184.841 137.692L187.386 134.048L198.605 144.679C205.999 139.077 211.112 135.749 211.112 135.749L212.444 141.095L213.129 143.859Z" fill="white"/>
<path opacity="0.2" d="M213.129 143.859C213.129 143.859 210.291 145.839 207 147.895C208.379 145.318 210.225 143.02 212.444 141.118L213.129 143.859Z" fill="black"/>
<path d="M187.951 187.786C187.763 188.501 189.864 201.256 191.753 212.385C193.259 221.179 194.615 228.949 194.615 228.949L190.601 229.318C190.601 229.318 187.529 223.212 184.066 215.11C181.497 209.192 179.235 203.145 177.289 196.994C174.827 189.021 173.525 181.709 175.309 177.99C175.645 177.239 176.185 176.597 176.868 176.138C176.893 176.116 176.921 176.098 176.951 176.085L177.229 175.904C179.864 174.398 184.081 173.547 188.907 173.148C197.589 172.441 208.236 173.148 215.14 173.803C219.454 174.21 222.301 174.594 222.301 174.594L227.94 195.601C226.073 195.536 224.246 195.423 222.459 195.262C202.393 193.523 188.252 186.619 187.951 187.786Z" fill="#E4897B"/>
<path opacity="0.2" d="M191.753 212.384C189.261 213.482 186.692 214.396 184.066 215.118C181.497 209.199 179.235 203.153 177.289 197.002C178.923 193.99 186.061 184.149 195.503 180.67C193.72 177.825 191.493 175.283 188.907 173.141C197.589 172.433 208.236 173.141 215.14 173.796L222.459 195.255C202.423 193.508 188.282 186.603 187.981 187.77C187.763 188.501 189.864 201.241 191.753 212.384Z" fill="black"/>
<path d="M212.196 179.202C212.196 179.202 212.708 172.17 212.949 170.739C213.148 169.318 213.439 167.912 213.822 166.53C215.381 161.839 236.268 167.351 236.268 167.351C236.268 167.351 248.624 185.956 239.987 194.735C238.075 196.678 234.325 197.551 230.485 197.521C230.485 197.521 218.777 198.094 197.001 197.077C197.001 197.077 187.296 210.803 160.717 228.957L155.792 228.279C155.792 228.279 188.463 187.575 189.457 186.769C198.138 179.752 212.196 179.202 212.196 179.202Z" fill="#E4897B"/>
<path d="M160.694 236.223H159.618L159.316 234.89L155.747 236.502H146.712C146.712 236.502 145.274 235.056 149.581 233.904C149.791 233.847 149.996 233.769 150.191 233.671C152.487 232.594 155.755 228.957 155.755 228.957H160.717C160.868 229.186 161.004 229.425 161.123 229.672C161.658 230.764 162.599 233.053 160.694 236.223Z" fill="#263238"/>
<path d="M161.116 229.672C160.461 228.919 157.479 232.149 155.295 233.241C153.345 234.212 151.154 234.642 150.183 233.655C152.479 232.579 156.094 227.873 156.094 227.873H160.084C160.084 227.873 160.882 229.205 161.116 229.672Z" fill="#E4897B"/>
<path d="M194.6 236.223H193.523L193.222 234.89L189.653 236.502H180.617C180.617 236.502 179.179 235.056 183.486 233.904C183.697 233.847 183.901 233.769 184.096 233.671C186.393 232.594 189.66 228.957 189.66 228.957H194.622C194.773 229.186 194.909 229.425 195.029 229.672C195.563 230.764 196.505 233.053 194.6 236.223Z" fill="#263238"/>
<path d="M195.021 229.672C194.366 228.919 191.384 232.149 189.201 233.241C187.251 234.212 185.06 234.642 184.088 233.655C186.385 232.579 189.999 227.873 189.999 227.873H193.99C193.99 227.873 194.788 229.205 195.021 229.672Z" fill="#E4897B"/>
<path d="M187.815 173.224C187.815 173.224 203.145 179.481 206.835 184.443C210.524 189.405 208.243 196.377 205.464 197.408C205.464 197.408 209.892 198.048 224.702 198.048C239.513 198.048 243.684 194.773 243.586 186.829C243.488 178.886 236.26 167.358 236.26 167.358L213.084 167.479L210.825 172.87C210.825 172.87 198.997 171.439 187.815 173.224Z" fill="#263238"/>
<path d="M238.105 140.606C236.049 146.803 235.952 160.785 236.682 168.51L213.34 168.359C210.692 158.648 209.905 148.524 211.021 138.52C211.102 137.422 211.482 136.368 212.121 135.471C212.121 135.471 216.887 133.498 221.036 133.528C224.248 133.642 227.448 133.979 230.613 134.537C232.965 134.928 235.293 135.454 237.585 136.111C237.827 136.179 238.053 136.296 238.248 136.454C238.444 136.613 238.605 136.809 238.722 137.032C238.839 137.254 238.909 137.498 238.928 137.749C238.948 138 238.916 138.252 238.835 138.49C238.564 139.22 238.338 139.921 238.105 140.606Z" fill="#D0000B"/>
<path opacity="0.1" d="M213.318 168.36L227.406 168.457L236.682 168.51C236.075 161.314 236.138 154.077 236.87 146.893C237.077 144.765 237.49 142.661 238.105 140.613C238.331 139.928 238.564 139.213 238.813 138.49C238.894 138.253 238.927 138.003 238.909 137.753C238.891 137.504 238.822 137.26 238.708 137.038C238.593 136.816 238.434 136.619 238.242 136.46C238.049 136.3 237.826 136.181 237.586 136.111C235.293 135.454 232.965 134.929 230.613 134.537C227.444 133.975 224.238 133.638 221.021 133.528C216.872 133.528 212.106 135.471 212.106 135.471C211.587 136.426 211.216 137.454 211.006 138.52C210.562 142.127 209.297 152.947 213.318 168.36Z" fill="white"/>
<path d="M213.8 168.164L210.788 172.862C210.788 172.862 211.33 168.458 211.323 165.483C211.315 162.509 208.213 151.704 211.18 135.704C212.826 135.002 214.526 134.431 216.262 133.995C216.819 133.868 217.386 133.793 217.956 133.769C217.956 133.769 214.402 142.511 213.679 156.064C213.466 160.096 213.506 164.137 213.8 168.164Z" fill="#263238"/>
<path opacity="0.4" d="M213.8 168.164L210.788 172.862C210.788 172.862 211.33 168.458 211.323 165.483C211.315 162.509 208.213 151.704 211.18 135.704C212.827 135.004 214.526 134.432 216.262 133.995C216.817 133.861 217.385 133.785 217.956 133.769C217.956 133.769 214.402 142.511 213.679 156.064C213.466 160.096 213.506 164.137 213.8 168.164Z" fill="white"/>
<path d="M238.225 163.096C238.978 170.144 240.311 173.638 240.311 173.638C238.056 172.989 235.977 171.84 234.229 170.275C232.48 168.711 231.108 166.771 230.214 164.602C229.653 163.026 229.363 161.366 229.356 159.693C228.956 150.146 232.932 134.507 232.932 134.507L233.723 134.718C239.054 136.171 240.537 137.73 240.537 137.73C240.537 137.73 237.427 156.064 238.225 163.096Z" fill="#263238"/>
<path opacity="0.4" d="M239.219 169.444C239.486 170.868 239.851 172.271 240.311 173.645C238.056 172.997 235.977 171.847 234.229 170.283C232.48 168.718 231.108 166.779 230.214 164.61C229.955 163.956 229.765 163.278 229.649 162.584C229.483 161.631 229.385 160.668 229.356 159.701C228.956 150.153 232.932 134.514 232.932 134.514L233.723 134.725C239.054 136.178 240.537 137.737 240.537 137.737C240.537 137.737 239.784 142.112 239.129 147.405C238.429 152.924 237.819 159.452 238.225 163.051C238.519 165.694 238.88 167.802 239.219 169.444Z" fill="white"/>
<path opacity="0.2" d="M232.563 143.264L234.174 146.539C234.174 146.539 230.922 154.769 229.356 159.746C228.956 150.198 232.932 134.56 232.932 134.56L233.723 134.771C234.415 136.487 235.522 140.094 235.793 145.989L232.563 143.264Z" fill="white"/>
<path opacity="0.2" d="M217.956 133.769C217.956 133.769 214.402 142.511 213.679 156.064C211.699 151.546 212.475 140.553 212.475 140.553L213.89 138.663L211.323 139.499C212.595 136.487 214.711 135.102 216.262 134.025C216.834 133.995 217.401 133.909 217.956 133.769Z" fill="white"/>
<path opacity="0.2" d="M239.219 169.444C237.951 170.129 236.619 170.691 235.244 171.123C233.003 169.466 231.262 167.223 230.214 164.64C229.955 163.987 229.766 163.308 229.649 162.615L231.75 160.303C231.75 160.303 232.209 152.947 234.935 147.895C235.846 146.208 237.458 146.208 239.129 147.45C238.429 152.969 237.819 159.497 238.226 163.097C238.519 165.694 238.881 167.802 239.219 169.444Z" fill="black"/>
<path d="M226.201 132.429C226.201 132.429 230.048 132.512 231.735 134.537C233.241 136.367 232.209 139.409 232.209 139.409L226.939 140.003L220.004 146.516L219.033 140.327L215.652 139.409C215.652 139.409 217.324 132.429 226.201 132.429Z" fill="#D0000B"/>
<g opacity="0.4">
<path d="M226.201 132.429C226.201 132.429 230.048 132.512 231.735 134.537C233.241 136.367 232.209 139.409 232.209 139.409L226.939 140.003L220.004 146.516L219.033 140.327L215.652 139.409C215.652 139.409 217.324 132.429 226.201 132.429Z" fill="white"/>
</g>
<path d="M230.364 135.32C226.759 138.134 223.442 141.299 220.463 144.77C220.463 144.77 217.971 135.885 222.029 134.439C222.029 134.439 223.166 134.085 223.407 132.278C223.529 131.003 223.364 129.717 222.925 128.514C222.865 128.318 222.797 128.107 222.73 127.904L229.371 123.747C229.371 123.747 227.044 132.173 230.364 135.32Z" fill="#E4897B"/>
<path opacity="0.2" d="M227.872 126.164C227.872 126.164 227.518 130.915 223.407 132.286C223.529 131.011 223.364 129.725 222.925 128.521C225.35 127.241 227.872 126.164 227.872 126.164Z" fill="black"/>
<path d="M232.563 113.703C233.649 112.782 234.968 112.178 236.375 111.959C237.782 111.74 239.222 111.913 240.537 112.461C245.175 114.343 243.684 123.122 239.716 126.827C235.748 130.531 238.911 131.013 238.911 131.013C238.911 131.013 235.673 131.457 236.998 126.729C238.323 122 238.64 117.694 234.265 118.168C229.89 118.642 232.563 113.703 232.563 113.703Z" fill="#263238"/>
<path d="M231.472 109.08C231.472 109.08 223.536 104.562 218.468 108.154C213.401 111.745 215.291 121.76 218.468 124.357C221.646 126.955 229.966 126.285 229.966 126.285C229.966 126.285 234.483 125.532 235.794 118.913C236.885 113.507 234.152 109.479 231.472 109.08Z" fill="#263238"/>
<path d="M226.125 110.277C220.644 109.758 218.596 112.536 217.67 118.145C216.51 125.155 217.602 130.321 224.597 129.44C234.099 128.28 235.229 111.128 226.125 110.277Z" fill="#E4897B"/>
<path d="M221.246 118.168C220.73 118.947 220.121 119.66 219.432 120.291C219.571 120.534 219.775 120.733 220.021 120.866C220.267 120.999 220.546 121.061 220.825 121.044L221.246 118.168Z" fill="#DE5753"/>
<path d="M224.642 118.032C224.589 118.484 224.793 118.876 225.086 118.913C225.38 118.951 225.674 118.612 225.726 118.16C225.779 117.709 225.576 117.317 225.282 117.287C224.988 117.257 224.695 117.588 224.642 118.032Z" fill="#263238"/>
<path d="M225.403 117.325L224.469 116.82C224.469 116.82 224.861 117.701 225.403 117.325Z" fill="#263238"/>
<path d="M219.063 117.287C219.01 117.739 219.213 118.13 219.515 118.16C219.816 118.191 220.094 117.859 220.155 117.408C220.215 116.956 220.004 116.564 219.703 116.527C219.402 116.489 219.116 116.835 219.063 117.287Z" fill="#263238"/>
<path d="M219.823 116.572L218.897 116.075C218.897 116.075 219.281 116.956 219.823 116.572Z" fill="#263238"/>
<path d="M227.353 115.54C227.314 115.54 227.276 115.531 227.242 115.512C227.208 115.494 227.179 115.467 227.157 115.435C226.9 115.13 226.578 114.887 226.214 114.722C225.851 114.558 225.455 114.477 225.057 114.486C224.995 114.486 224.935 114.462 224.891 114.418C224.848 114.374 224.823 114.315 224.823 114.253C224.823 114.191 224.848 114.131 224.891 114.088C224.935 114.044 224.995 114.019 225.057 114.019C225.536 114.005 226.012 114.102 226.447 114.303C226.882 114.504 227.265 114.804 227.564 115.179C227.596 115.231 227.607 115.294 227.594 115.354C227.582 115.414 227.547 115.467 227.496 115.503C227.453 115.529 227.403 115.542 227.353 115.54Z" fill="#263238"/>
<path d="M218.859 114.132C218.817 114.133 218.775 114.121 218.739 114.098C218.702 114.076 218.674 114.043 218.656 114.004C218.626 113.95 218.619 113.887 218.636 113.827C218.653 113.768 218.693 113.718 218.746 113.688C219.107 113.464 219.515 113.325 219.938 113.282C220.36 113.238 220.787 113.292 221.186 113.439C221.217 113.45 221.245 113.467 221.268 113.49C221.292 113.512 221.31 113.539 221.323 113.569C221.335 113.599 221.341 113.631 221.341 113.664C221.34 113.696 221.333 113.728 221.319 113.757C221.305 113.787 221.286 113.813 221.261 113.835C221.237 113.856 221.209 113.872 221.178 113.882C221.147 113.891 221.114 113.895 221.082 113.891C221.049 113.888 221.018 113.877 220.99 113.861C220.657 113.747 220.303 113.71 219.954 113.752C219.605 113.794 219.269 113.913 218.972 114.102C218.937 114.119 218.899 114.129 218.859 114.132Z" fill="#263238"/>
<path d="M231.253 120.073C231.253 120.073 229.107 115.329 229.823 111.888C229.823 111.888 219.372 106.437 217.776 117.415C217.776 117.415 217.633 107.521 227.074 108.184C236.516 108.846 235.191 122.633 229.936 126.255C229.966 126.285 232.571 123.04 231.253 120.073Z" fill="#263238"/>
<path d="M230.244 121.15C230.298 120.834 230.414 120.531 230.585 120.26C230.756 119.989 230.98 119.754 231.242 119.57C231.505 119.386 231.802 119.256 232.115 119.187C232.428 119.118 232.752 119.112 233.068 119.17C234.747 119.516 235.229 123.077 230.922 123.522C230.282 123.612 229.996 122.987 230.244 121.15Z" fill="#E4897B"/>
<path d="M219.974 123.168C220.22 123.777 220.421 124.404 220.576 125.042H220.922C222.489 124.907 223.181 124.327 223.452 123.725C223.584 123.429 223.644 123.107 223.626 122.784C223.619 122.599 223.586 122.417 223.528 122.241C222.6 122.754 221.573 123.059 220.516 123.137C220.185 123.153 219.974 123.168 219.974 123.168Z" fill="#263238"/>
<path d="M220.509 123.107L220.704 123.657C222.21 123.529 223.197 123.235 223.626 122.753C223.619 122.569 223.586 122.386 223.528 122.211C222.598 122.725 221.568 123.03 220.509 123.107Z" fill="white"/>
<path d="M220.922 125.012C222.488 124.877 223.181 124.297 223.452 123.695C222.858 123.76 222.28 123.928 221.743 124.191C221.393 124.375 221.106 124.662 220.922 125.012Z" fill="#DE5753"/>
<path d="M219.447 174.308L212.919 175.159L214.568 180.67C214.568 180.67 219.213 180.723 220.636 177.161L219.447 174.308Z" fill="#E4897B"/>
<path d="M209.101 177.877L211.315 181.694L214.568 180.678L212.919 175.159L209.101 177.877Z" fill="#E4897B"/>
<path d="M239.453 137.24C233.723 135.682 234.265 153.097 232.94 161.018L217.256 173.645L221.133 177.997C221.133 177.997 240.093 168.284 241.282 164.188C242.374 160.326 245.868 138.972 239.453 137.24Z" fill="#263238"/>
<path opacity="0.4" d="M239.453 137.24C233.723 135.682 234.265 153.097 232.94 161.018L217.256 173.645L221.133 177.997C221.133 177.997 240.093 168.284 241.282 164.188C242.374 160.326 245.868 138.972 239.453 137.24Z" fill="white"/>
<path d="M227.594 207.528H247.193L244.889 216.789L230.214 213.341L227.594 207.528Z" fill="#263238"/>
<path d="M228.723 210.261V203.312L247.592 203.808V206.188H249.588L248.451 216.789L228.723 210.261Z" fill="#D0000B"/>
<path opacity="0.2" d="M247.592 206.188H230.711L230.214 210.05L228.723 210.261V203.312L247.592 203.808V206.188Z" fill="black"/>
<path d="M230.214 236.501L227.594 207.528L229.649 209.169H249.587L251.56 232.533L252.599 236.501H230.214Z" fill="#263238"/>
<path opacity="0.2" d="M230.214 236.501L227.594 207.528L229.649 209.169H249.587L251.56 232.533L252.599 236.501H230.214Z" fill="white"/>
<path d="M241.531 216.3C236.773 216.3 235.568 210.171 235.553 210.111C235.535 210.013 235.557 209.912 235.613 209.83C235.67 209.748 235.756 209.692 235.854 209.674C235.902 209.663 235.952 209.662 236 209.671C236.049 209.68 236.095 209.699 236.136 209.726C236.177 209.754 236.211 209.789 236.238 209.831C236.265 209.872 236.283 209.919 236.291 209.968C236.336 210.216 237.488 215.991 242.043 215.524C242.586 215.506 243.117 215.369 243.601 215.123C244.085 214.877 244.509 214.528 244.844 214.101C245.996 212.52 245.492 210.148 245.484 210.118C245.464 210.021 245.483 209.92 245.536 209.837C245.59 209.754 245.674 209.696 245.77 209.674C245.819 209.663 245.869 209.661 245.918 209.67C245.967 209.678 246.014 209.696 246.056 209.723C246.098 209.749 246.134 209.784 246.163 209.825C246.191 209.865 246.211 209.911 246.222 209.96C246.222 210.065 246.802 212.678 245.469 214.538C245.074 215.063 244.567 215.494 243.985 215.799C243.403 216.104 242.76 216.275 242.103 216.3C241.913 216.31 241.722 216.31 241.531 216.3Z" fill="white"/>
<path opacity="0.2" d="M229.649 209.169L231.306 234.8L231.998 236.501H230.214L227.594 207.528L229.649 209.169Z" fill="black"/>
<path d="M35.63 236.501H124.809V230.643H35.63V236.501Z" fill="#263238"/>
<path opacity="0.4" d="M35.63 236.501H124.809V230.643H35.63V236.501Z" fill="white"/>
<path opacity="0.2" d="M74.2409 236.501H124.801V230.643H74.2409V236.501Z" fill="white"/>
<path d="M97.6879 197.318H31.8726L21.8433 145.523C21.5866 144.192 21.6275 142.822 21.9631 141.509C22.2987 140.197 22.9207 138.975 23.7844 137.931C24.6481 136.888 25.7322 136.048 26.9588 135.473C28.1853 134.898 29.524 134.601 30.8787 134.605H77.9606C80.096 134.599 82.1666 135.338 83.8158 136.694C85.465 138.051 86.5896 139.94 86.996 142.036L97.6879 197.318Z" fill="#D0000B"/>
<path opacity="0.6" d="M97.6879 197.318H31.8726L21.8433 145.523C21.5866 144.192 21.6275 142.822 21.9631 141.509C22.2987 140.197 22.9207 138.975 23.7844 137.931C24.6481 136.888 25.7322 136.048 26.9588 135.473C28.1853 134.898 29.524 134.601 30.8787 134.605H77.9606C80.096 134.599 82.1666 135.338 83.8158 136.694C85.465 138.051 86.5896 139.94 86.996 142.036L97.6879 197.318Z" fill="white"/>
<path opacity="0.2" d="M50.5683 197.318H31.8726L21.8433 145.523C21.5866 144.192 21.6275 142.822 21.9631 141.509C22.2987 140.197 22.9207 138.975 23.7844 137.931C24.6481 136.888 25.7322 136.048 26.9588 135.473C28.1853 134.898 29.524 134.601 30.8787 134.605C33.0141 134.599 35.0847 135.338 36.7339 136.694C38.3831 138.051 39.5077 139.94 39.9141 142.036L50.5683 197.318Z" fill="black"/>
<path d="M127.233 196.678H34.0032C31.4499 196.678 29.3801 198.748 29.3801 201.301V227.632C29.3801 230.185 31.4499 232.255 34.0032 232.255H127.233C129.787 232.255 131.856 230.185 131.856 227.632V201.301C131.856 198.748 129.787 196.678 127.233 196.678Z" fill="#D0000B"/>
<path opacity="0.6" d="M127.233 196.678H34.0032C31.4499 196.678 29.3801 198.748 29.3801 201.301V227.632C29.3801 230.185 31.4499 232.255 34.0032 232.255H127.233C129.787 232.255 131.856 230.185 131.856 227.632V201.301C131.856 198.748 129.787 196.678 127.233 196.678Z" fill="white"/>
<path opacity="0.2" d="M73.902 196.678H34.0032C31.4499 196.678 29.3801 198.748 29.3801 201.301V227.632C29.3801 230.185 31.4499 232.255 34.0032 232.255H73.902C76.4552 232.255 78.5251 230.185 78.5251 227.632V201.301C78.5251 198.748 76.4552 196.678 73.902 196.678Z" fill="black"/>
<path d="M94.962 142.654C92.6289 142.525 90.3493 141.905 88.273 140.833C86.1967 139.761 84.3707 138.262 82.9148 136.434C77.3204 129.251 79.2028 123.845 79.2028 123.845H79.2555C80.4022 123.579 81.583 123.49 82.7567 123.581C88.8556 123.928 96.2345 127.655 96.2345 127.655C97.6275 129.884 98.0567 137.94 94.962 142.654Z" fill="#D0000B"/>
<path opacity="0.5" d="M94.962 142.654C92.6289 142.525 90.3493 141.905 88.273 140.833C86.1967 139.761 84.3707 138.262 82.9148 136.434C77.3204 129.251 79.2028 123.845 79.2028 123.845H79.2555C80.4022 123.579 81.583 123.49 82.7567 123.581C88.8556 123.928 96.2345 127.655 96.2345 127.655C97.6275 129.884 98.0567 137.94 94.962 142.654Z" fill="white"/>
<path d="M126.006 221.126L135.561 221.826L135.267 233.12L127.286 232.556L126.006 221.126Z" fill="#B55B52"/>
<path opacity="0.2" d="M126.014 221.133L135.569 221.826L135.403 228.158L126.722 227.534L126.014 221.133Z" fill="black"/>
<path d="M126.15 236.501H128.235L128.792 235.658L129.892 236.509H142.451C142.531 235.519 142.347 234.527 141.916 233.632C141.916 233.632 138.152 233.294 136.706 231.426C136.654 231.354 136.582 231.298 136.499 231.265C136.417 231.232 136.327 231.222 136.239 231.238C134.989 231.502 130.02 232.45 127.286 231.471C127.218 231.445 127.145 231.435 127.072 231.443C127 231.45 126.93 231.476 126.869 231.517C126.808 231.557 126.758 231.612 126.724 231.676C126.689 231.741 126.67 231.813 126.669 231.886C126.613 233.435 126.44 234.978 126.15 236.501Z" fill="#263238"/>
<path d="M73.6538 172.275C73.6538 172.275 59.4306 198.801 76.3042 198.801C97.5374 198.801 117.716 193.455 117.716 193.455C117.716 193.455 116.557 204.749 124.764 226.261L136.231 226.163C136.231 226.163 140.696 180.023 132.143 172.275C125.253 166.04 100.79 168.043 100.79 168.043L73.6538 172.275Z" fill="#263238"/>
<path opacity="0.4" d="M136.262 226.163L124.794 226.254C122.802 221.095 121.145 215.813 119.832 210.442C117.159 199.26 117.747 193.463 117.747 193.463C117.747 193.463 97.5299 198.809 76.2967 198.809C66.034 198.809 67.2613 189.02 69.8289 181.31C70.8712 178.205 72.1499 175.184 73.6539 172.275L90.1435 169.707L100.82 168.043C100.82 168.043 105.218 167.682 110.812 167.742C118.409 167.825 128.205 168.683 132.173 172.26C140.734 180.023 136.262 226.163 136.262 226.163Z" fill="white"/>
<path opacity="0.2" d="M120.269 208.77C120.126 209.327 119.983 209.877 119.832 210.412C117.159 199.23 117.747 193.433 117.747 193.433C117.747 193.433 97.5299 198.779 76.2967 198.779C66.034 198.779 67.2613 188.99 69.8289 181.28C77.0648 176.687 84.6997 172.523 90.1585 169.685L100.835 168.021C100.835 168.021 105.233 167.659 110.827 167.719C119.087 171.439 127.038 181.619 120.269 208.77Z" fill="black"/>
<path d="M87.3573 118.785L86.0848 122.61C83.4118 125.901 79.7826 121.729 79.7826 121.729L76.0179 119.915C75.5818 119.655 75.2517 119.25 75.0863 118.77C74.9209 118.29 74.9308 117.767 75.1143 117.294L75.9802 114.614C76.1312 114.055 76.4913 113.575 76.9859 113.274C77.4806 112.972 78.072 112.873 78.6381 112.995L82.1996 114.275C82.9045 114.489 83.5441 114.878 84.0594 115.404L87.3573 118.785Z" fill="#B55B52"/>
<path d="M100.187 168.412C87.8466 175.234 56.4486 170.287 50.8316 169.331C50.1314 160.039 49.1902 148.248 46.2311 137.255C45.9055 136.076 45.8242 134.842 45.9924 133.63C46.1607 132.418 46.5747 131.253 47.2093 130.207C47.8438 129.16 48.6855 128.255 49.6825 127.545C50.6796 126.836 51.8111 126.338 53.0076 126.081C61.7191 124.374 70.5922 123.631 79.4663 123.868C82.5835 123.981 85.9341 125.494 86.9355 128.453C91.5586 142.081 98.8472 153.157 100.187 168.412Z" fill="#D0000B"/>
<path d="M92.1161 125.599C92.4022 125.547 92.869 125.494 93.2154 125.449C93.5618 125.404 93.9684 125.373 94.3975 125.336C95.1505 125.276 95.9787 125.193 96.7693 125.163L97.9515 125.08L99.111 125.027L101.37 124.899L98.7948 126.247C98.436 126.584 98.1425 126.985 97.9289 127.429C97.5097 128.259 97.3372 129.192 97.4319 130.117C97.4687 130.502 97.5599 130.88 97.703 131.239C97.7465 131.366 97.7994 131.489 97.8611 131.608L98.0117 131.879L98.0945 131.992L98.1472 132.06L98.2602 132.188C98.297 132.226 98.3373 132.262 98.3806 132.293C98.4785 132.331 98.3806 132.142 98.1322 131.947C97.8638 131.7 97.5796 131.471 97.2813 131.262C95.6724 130.171 93.9921 129.19 92.2516 128.325C90.4069 127.361 88.4869 126.435 86.5217 125.501C84.5565 124.568 82.5687 123.649 80.6412 122.701L80.5508 122.655C79.8133 122.296 79.2251 121.689 78.8885 120.941C78.5518 120.193 78.4881 119.35 78.7083 118.56C78.9285 117.769 79.4187 117.081 80.0937 116.615C80.7687 116.148 81.5859 115.933 82.4031 116.007C84.7523 116.21 86.9735 116.556 89.2549 116.963C91.5363 117.37 93.7726 117.897 96.0314 118.522C97.1759 118.845 98.2903 119.207 99.48 119.613C100.707 120.041 101.906 120.544 103.072 121.119C103.756 121.436 104.422 121.79 105.067 122.181C105.885 122.691 106.643 123.292 107.326 123.973C107.521 124.161 107.77 124.455 107.988 124.726C108.207 124.997 108.222 125.035 108.335 125.193L108.508 125.434L108.696 125.727C108.82 125.932 108.933 126.143 109.035 126.36C109.155 126.608 109.261 126.857 109.366 127.113C109.593 127.737 109.742 128.387 109.81 129.048C109.95 130.524 109.659 132.009 108.975 133.325C108.488 134.252 107.84 135.086 107.062 135.787C106.656 136.169 106.18 136.47 105.662 136.675L104.48 137.135C103.516 137.503 102.56 137.887 101.611 138.128C100.676 138.429 99.7258 138.68 98.7647 138.881C97.8235 139.1 96.8747 139.243 95.926 139.371C95.4517 139.424 94.9773 139.491 94.4954 139.514C94.0135 139.536 93.5618 139.574 92.9895 139.574C91.2535 139.58 89.5774 138.939 88.2878 137.777C86.9982 136.615 86.1875 135.014 86.0137 133.287C85.8398 131.559 86.3152 129.829 87.3473 128.433C88.3793 127.037 89.8941 126.075 91.5966 125.735L92.1161 125.599Z" fill="#B65B52"/>
<path opacity="0.7" d="M100.187 168.412C87.8466 175.234 56.4486 170.287 50.8316 169.331C50.6434 166.884 50.4401 164.256 50.1916 161.515C49.8001 157.246 49.2956 152.698 48.5351 148.105C47.9403 144.476 47.1873 140.824 46.2311 137.255C45.9055 136.076 45.8242 134.842 45.9924 133.63C46.1607 132.418 46.5747 131.253 47.2093 130.207C47.8438 129.16 48.6855 128.255 49.6825 127.545C50.6796 126.836 51.8111 126.338 53.0076 126.081C61.7191 124.374 70.5922 123.631 79.4663 123.868C82.5835 123.981 85.9341 125.494 86.9355 128.453C91.5586 142.081 98.8472 153.157 100.187 168.412Z" fill="white"/>
<path d="M75.4234 125.69C74.7634 124.606 73.7583 123.776 72.5697 123.333C72.0623 122.243 71.9479 121.012 72.2459 119.847L58.8811 116.564C60.2289 120.818 61.2905 124.176 59.8223 126.352C62.5028 127.753 67.4045 130.253 72.532 129.756C77.6596 129.259 76.3796 127.452 75.4234 125.69Z" fill="#B55B52"/>
<path opacity="0.2" d="M72.1705 120.254L62.3143 120.344C65.6047 123.416 70.3408 124.335 72.3738 122.859C72.0855 122.022 72.0155 121.125 72.1705 120.254Z" fill="black"/>
<path d="M72.8406 129.756L70.5818 128.129L67.826 129.756C67.826 129.756 69.7761 131.344 72.8406 129.756Z" fill="#D0000B"/>
<path opacity="0.5" d="M72.8406 129.756L70.5818 128.129L67.826 129.756C67.826 129.756 69.7761 131.344 72.8406 129.756Z" fill="white"/>
<path d="M60.5222 123.408C60.5222 123.408 65.085 128.242 70.5966 128.129C67.502 129.861 67.2008 133.49 67.2008 133.49C67.2008 133.49 60.2059 131.864 58.4214 124.658C58.6465 124.297 58.9546 123.996 59.3201 123.778C59.6855 123.561 60.0977 123.434 60.5222 123.408Z" fill="#D0000B"/>
<path d="M72.8408 129.756L75.0996 127.437L78.2244 128.144C78.2244 128.144 76.086 130.915 72.8408 129.756Z" fill="#D0000B"/>
<path opacity="0.5" d="M72.8408 129.756L75.0996 127.437L78.2244 128.144C78.2244 128.144 76.086 130.915 72.8408 129.756Z" fill="white"/>
<path d="M72.5696 123.333C72.5696 123.333 74.8736 125.66 75.0995 127.437C77.7198 127.994 79.2106 131.676 79.2106 131.676C79.2106 131.676 79.316 126.262 75.0845 123.627C74.2947 123.279 73.4184 123.176 72.5696 123.333Z" fill="#D0000B"/>
<path opacity="0.8" d="M60.5222 123.408C60.5222 123.408 65.085 128.242 70.5966 128.129C67.502 129.861 67.2008 133.49 67.2008 133.49C67.2008 133.49 60.2059 131.864 58.4214 124.658C58.6465 124.297 58.9546 123.996 59.3201 123.778C59.6855 123.561 60.0977 123.434 60.5222 123.408Z" fill="white"/>
<path opacity="0.8" d="M72.5696 123.333C72.5696 123.333 74.8736 125.66 75.0995 127.437C77.7198 127.994 79.2106 131.676 79.2106 131.676C79.2106 131.676 79.316 126.262 75.0845 123.627C74.2947 123.279 73.4184 123.176 72.5696 123.333Z" fill="white"/>
<path d="M62.8416 102.785C62.7286 98.7567 66.4783 96.6635 69.9795 98.5459C73.4807 100.428 74.2412 106.828 71.9598 110.397C69.6783 113.966 62.8416 102.785 62.8416 102.785Z" fill="#263238"/>
<path d="M55.8843 110.134C57.8269 115.66 59.2726 119.372 63.459 120.908C71.7414 123.958 75.1297 119.9 75.0168 113.936C74.9114 108.575 71.7565 100.443 65.1833 99.6301C58.61 98.817 53.9417 104.592 55.8843 110.134Z" fill="#B55B52"/>
<path d="M60.1607 106.881C62.013 108.387 63.1725 115.691 60.5598 115.751C58.7598 115.764 56.961 115.653 55.1762 115.42C55.1762 115.42 51.7427 114.381 53.2336 109.238C54.7244 104.095 60.1607 106.881 60.1607 106.881Z" fill="#263238"/>
<path d="M55.1691 116.79C56.3216 117.867 57.854 118.444 59.4308 118.394C61.524 118.303 61.9381 116.27 60.8312 114.629C59.8373 113.123 57.5409 111.414 55.6961 112.302C53.8514 113.191 53.7761 115.45 55.1691 116.79Z" fill="#B55B52"/>
<path d="M66.8096 108.628C66.9376 109.125 67.299 109.456 67.6227 109.381C67.9465 109.306 68.1046 108.824 67.9766 108.327C67.8486 107.83 67.4872 107.506 67.1634 107.574C66.8397 107.642 66.6665 108.131 66.8096 108.628Z" fill="#263238"/>
<path d="M71.9371 107.438C72.0651 107.935 72.4265 108.266 72.7503 108.191C73.0741 108.116 73.2322 107.626 73.1042 107.137C72.9762 106.648 72.6148 106.309 72.291 106.384C71.9672 106.459 71.8317 106.941 71.9371 107.438Z" fill="#263238"/>
<path d="M70.3557 108.274L71.3947 112.445C71.9104 112.421 72.4189 112.315 72.9006 112.129C72.9941 112.088 73.0746 112.023 73.1334 111.939C73.1922 111.856 73.227 111.758 73.2339 111.657C73.2409 111.555 73.2199 111.453 73.173 111.362C73.1262 111.272 73.0554 111.196 72.9684 111.143C71.9191 110.366 71.0315 109.391 70.3557 108.274Z" fill="#A02724"/>
<path d="M63.8125 107.875C63.763 107.887 63.7115 107.887 63.6619 107.875C63.5881 107.845 63.5293 107.787 63.4982 107.713C63.4672 107.64 63.4665 107.557 63.4963 107.483C63.6679 107.036 63.944 106.635 64.3015 106.316C64.659 105.996 65.0877 105.767 65.5518 105.646C65.5909 105.639 65.6311 105.639 65.6701 105.647C65.7091 105.655 65.7461 105.671 65.7791 105.693C65.812 105.715 65.8401 105.744 65.8618 105.777C65.8836 105.811 65.8985 105.848 65.9057 105.887C65.9191 105.966 65.9015 106.047 65.8566 106.113C65.8116 106.179 65.7429 106.225 65.6648 106.241C65.2986 106.34 64.9614 106.524 64.6811 106.78C64.4008 107.035 64.1856 107.354 64.0535 107.709C64.0313 107.756 63.9974 107.795 63.9551 107.824C63.9128 107.853 63.8637 107.871 63.8125 107.875Z" fill="#263238"/>
<path d="M73.5861 105.616C73.5388 105.628 73.4894 105.627 73.4422 105.616C73.395 105.604 73.3514 105.581 73.315 105.548C73.0478 105.284 72.721 105.087 72.3621 104.974C72.0032 104.861 71.6225 104.836 71.2519 104.901C71.1751 104.919 71.0941 104.906 71.0265 104.866C70.9589 104.825 70.9101 104.759 70.8905 104.682C70.8723 104.606 70.8849 104.525 70.9258 104.457C70.9666 104.389 71.0324 104.341 71.1089 104.321C71.5728 104.226 72.0529 104.245 72.5079 104.376C72.963 104.507 73.3794 104.747 73.7216 105.074C73.7773 105.132 73.8084 105.209 73.8084 105.289C73.8084 105.369 73.7773 105.446 73.7216 105.503C73.6929 105.557 73.6443 105.598 73.5861 105.616Z" fill="#263238"/>
<path d="M72.3511 114.704C72.3092 114.715 72.265 114.715 72.2231 114.704C70.3257 113.763 67.7054 114.328 67.6527 114.328C67.5799 114.344 67.5037 114.331 67.4404 114.291C67.3772 114.252 67.3318 114.189 67.3139 114.117C67.2982 114.043 67.3123 113.966 67.3532 113.903C67.3941 113.839 67.4585 113.794 67.5322 113.778C67.6451 113.778 70.401 113.176 72.4716 114.2C72.5315 114.225 72.5805 114.271 72.6102 114.329C72.6399 114.387 72.6483 114.454 72.634 114.517C72.6196 114.581 72.5835 114.637 72.5318 114.677C72.4801 114.717 72.4162 114.737 72.3511 114.734V114.704Z" fill="#263238"/>
<path d="M52.8571 112.807C51.4641 110.428 49.3032 102.311 56.2303 98.1394C63.1574 93.968 70.2954 95.9784 70.3406 98.8095C70.3857 101.641 63.3005 107.491 58.8807 107.28C54.4609 107.069 52.8571 113.183 52.8571 113.183" fill="#263238"/>
<path d="M94.962 142.654C92.6289 142.525 90.3493 141.905 88.273 140.833C86.1967 139.761 84.3707 138.262 82.9148 136.434C77.3204 129.251 79.2028 123.845 79.2028 123.845H79.2555C80.2315 123.628 81.2301 123.53 82.2297 123.551L82.5308 123.717C83.6452 124.319 87.8918 126.337 91.2876 127.625C90.6438 130.241 90.6416 132.973 91.2814 135.59C91.9212 138.207 93.1839 140.63 94.962 142.654Z" fill="#D0000B"/>
<path opacity="0.7" d="M94.962 142.654C92.6289 142.525 90.3493 141.905 88.273 140.833C86.1967 139.761 84.3707 138.262 82.9148 136.434C77.3204 129.251 79.2028 123.845 79.2028 123.845H79.2555C80.2315 123.628 81.2301 123.53 82.2297 123.551L82.5308 123.717C83.6452 124.319 87.8918 126.337 91.2876 127.625C90.6438 130.241 90.6416 132.973 91.2814 135.59C91.9212 138.207 93.1839 140.63 94.962 142.654Z" fill="white"/>
<path d="M107.702 222.029L117.227 221.043L118.921 232.217L110.962 233.06L107.702 222.029Z" fill="#B55B52"/>
<path opacity="0.2" d="M107.702 222.037L117.235 221.043L118.176 227.308L109.524 228.211L107.702 222.037Z" fill="black"/>
<path d="M109.584 236.501H111.662L112.227 235.658L113.319 236.509H125.886C125.961 235.519 125.774 234.527 125.343 233.632C125.343 233.632 121.579 233.294 120.141 231.426C120.088 231.354 120.017 231.298 119.934 231.265C119.852 231.232 119.761 231.222 119.674 231.238C118.424 231.502 113.454 232.45 110.714 231.471C110.646 231.446 110.573 231.437 110.502 231.446C110.43 231.455 110.361 231.48 110.302 231.521C110.242 231.561 110.193 231.616 110.158 231.679C110.124 231.743 110.105 231.813 110.104 231.886C110.048 233.435 109.874 234.978 109.584 236.501Z" fill="#263238"/>
<path d="M51.0504 172.275C51.0504 172.275 45.1096 191.889 61.0948 197.288C77.0799 202.686 92.8767 193.162 92.8767 193.162C92.8767 193.162 92.8767 197.288 107.115 227.632L118.921 225.373C118.921 225.373 114.757 179.962 109.577 172.245C104.397 164.527 78.2244 168.013 78.2244 168.013L51.0504 172.275Z" fill="#263238"/>
<path opacity="0.4" d="M51.0504 172.275C51.0504 172.275 45.1096 191.889 61.0948 197.288C77.0799 202.686 92.8767 193.162 92.8767 193.162C92.8767 193.162 92.8767 197.288 107.115 227.632L118.921 225.373C118.921 225.373 114.757 179.962 109.577 172.245C104.397 164.527 78.2244 168.013 78.2244 168.013L51.0504 172.275Z" fill="white"/>
<path opacity="0.2" d="M50.1917 161.515C49.8002 157.246 49.2957 152.698 48.5352 148.105C52.8271 145.281 56.9909 143.151 56.9909 143.151C56.9909 143.151 62.6907 160.107 50.1917 161.515Z" fill="black"/>
<path d="M56.4187 140.681L55.8238 143.474L55.2516 146.411C54.8751 148.361 54.5664 150.326 54.2878 152.254C54.0092 154.181 53.8361 156.109 53.7231 157.969C53.6263 159.725 53.6515 161.486 53.7984 163.239L52.7367 160.739C52.5993 160.545 52.4285 160.377 52.2323 160.243C52.172 160.205 52.1269 160.243 52.1796 160.243C52.3591 160.407 52.5561 160.55 52.7669 160.672C53.4913 161.086 54.2465 161.443 55.0257 161.741C56.7726 162.426 58.7377 163.089 60.7331 163.668C62.7284 164.248 64.799 164.851 66.8696 165.423C68.9402 165.995 71.0635 166.552 73.1116 167.155H73.2094C73.9941 167.386 74.6735 167.884 75.1306 168.563C75.5877 169.241 75.7939 170.058 75.7136 170.872C75.6333 171.686 75.2717 172.447 74.6909 173.023C74.1101 173.6 73.3466 173.955 72.5318 174.029C70.2052 174.232 67.9689 174.285 65.6875 174.285C63.406 174.285 61.1246 174.172 58.8131 173.984C56.4214 173.787 54.0447 173.438 51.6977 172.937C50.3639 172.646 49.0528 172.258 47.7748 171.778C46.9704 171.479 46.1943 171.108 45.4557 170.671C44.972 170.382 44.509 170.06 44.0703 169.707C43.4625 169.209 42.9165 168.641 42.4439 168.013C41.9888 167.412 41.6655 166.722 41.4952 165.988L41.3823 165.513C40.8098 163.041 40.4745 160.52 40.3808 157.984C40.3281 156.764 40.3131 155.559 40.3281 154.362C40.3432 153.165 40.426 151.99 40.5088 150.816C40.6745 148.474 40.9832 146.177 41.3672 143.904C41.5705 142.767 41.7738 141.645 42.0298 140.5C42.1578 139.936 42.2858 139.371 42.4289 138.806L42.9108 137.022C43.4231 135.313 44.5702 133.865 46.1165 132.976C47.6628 132.087 49.4908 131.823 51.2254 132.239C52.9599 132.656 54.4692 133.72 55.4434 135.214C56.4176 136.709 56.7827 138.519 56.4638 140.274L56.4187 140.681Z" fill="#B65B52"/>
<path d="M71.5756 167.591L70.4687 171.469C70.8226 175.693 76.1686 174.3 76.1686 174.3L79.0147 174.662C79.5206 174.696 80.0222 174.549 80.4293 174.247C80.8364 173.944 81.1224 173.507 81.2359 173.013L82.0265 170.31C82.2158 169.763 82.1887 169.166 81.9505 168.639C81.7124 168.112 81.2815 167.697 80.7465 167.478L78.3521 166.726C77.6565 166.512 76.9183 166.479 76.2062 166.628L71.5756 167.591Z" fill="#B55B52"/>
<path d="M51.3891 126.578C43.3251 128.34 39.1989 140.252 38.2276 151.9C38.2276 151.9 45.3279 154.663 55.9068 153.639C55.9068 153.639 57.7365 141.042 57.0137 134.62C56.2908 128.197 51.3891 126.578 51.3891 126.578Z" fill="#D0000B"/>
<path opacity="0.7" d="M51.3891 126.578C43.3251 128.34 39.1989 140.252 38.2276 151.9C38.2276 151.9 45.3279 154.663 55.9068 153.639C55.9068 153.639 57.7365 141.042 57.0137 134.62C56.2908 128.197 51.3891 126.578 51.3891 126.578Z" fill="white"/>
<path opacity="0.2" d="M92.5001 142.337C92.5001 142.337 88.9989 138.128 87.2822 136.856C87.2822 136.856 92.5829 137.993 92.5001 142.337Z" fill="black"/>
<path d="M120.065 66.8694H87.8918C86.1245 66.8694 84.4296 67.5715 83.1799 68.8211C81.9302 70.0708 81.2282 71.7657 81.2282 73.533V92.3567C81.2282 94.124 81.9302 95.8189 83.1799 97.0686C84.4296 98.3183 86.1245 99.0203 87.8918 99.0203H94.2015L88.9309 109.486L98.7192 99.0203H120.103C121.87 99.0203 123.565 98.3183 124.815 97.0686C126.065 95.8189 126.767 94.124 126.767 92.3567V73.533C126.767 72.6547 126.593 71.7852 126.256 70.9742C125.919 70.1633 125.424 69.427 124.802 68.8078C124.179 68.1885 123.44 67.6984 122.627 67.3658C121.814 67.0331 120.944 66.8644 120.065 66.8694Z" fill="#D0000B"/>
<path opacity="0.7" d="M120.065 66.8694H87.8918C86.1245 66.8694 84.4296 67.5715 83.1799 68.8211C81.9302 70.0708 81.2282 71.7657 81.2282 73.533V92.3567C81.2282 94.124 81.9302 95.8189 83.1799 97.0686C84.4296 98.3183 86.1245 99.0203 87.8918 99.0203H94.2015L88.9309 109.486L98.7192 99.0203H120.103C121.87 99.0203 123.565 98.3183 124.815 97.0686C126.065 95.8189 126.767 94.124 126.767 92.3567V73.533C126.767 72.6547 126.593 71.7852 126.256 70.9742C125.919 70.1633 125.424 69.427 124.802 68.8078C124.179 68.1885 123.44 67.6984 122.627 67.3658C121.814 67.0331 120.944 66.8644 120.065 66.8694Z" fill="white"/>
<path d="M118.108 70.9805L119.508 70.5815L118.996 67.8181L117.55 67.9461C117.197 67.075 116.686 66.2762 116.044 65.5894L116.752 64.3169L114.411 62.6981L113.469 63.82C112.599 63.4509 111.666 63.2491 110.721 63.2252L110.33 61.8322L107.566 62.3367L107.694 63.7899C106.82 64.1383 106.021 64.6493 105.337 65.2958L104.057 64.588L102.469 66.9071L103.583 67.8407C103.217 68.7118 103.017 69.6442 102.996 70.589L101.595 70.9881L102.107 73.7514L103.553 73.6234C103.908 74.4936 104.419 75.2921 105.059 75.9801L104.351 77.2526L106.663 78.8413L107.604 77.727C108.474 78.0973 109.407 78.2967 110.352 78.3143L110.744 79.7147L113.515 79.2027L113.379 77.7571C114.254 77.4109 115.054 76.8997 115.736 76.2512L117.016 76.9665L118.604 74.6474L117.49 73.7137C117.865 72.8493 118.075 71.9222 118.108 70.9805ZM111.241 74.5495C110.501 74.6842 109.739 74.5968 109.049 74.2983C108.359 73.9999 107.773 73.5037 107.366 72.8726C106.958 72.2414 106.746 71.5035 106.757 70.7521C106.768 70.0007 107.002 69.2694 107.428 68.6507C107.855 68.0319 108.455 67.5535 109.153 67.2757C109.852 66.9978 110.617 66.9332 111.352 67.0898C112.087 67.2465 112.759 67.6174 113.283 68.1557C113.807 68.6941 114.16 69.3758 114.298 70.1146C114.392 70.606 114.387 71.1113 114.284 71.6009C114.181 72.0905 113.981 72.5546 113.697 72.9661C113.412 73.3776 113.048 73.7283 112.627 73.9976C112.205 74.2668 111.734 74.4494 111.241 74.5345V74.5495Z" fill="#D0000B"/>
<path opacity="0.6" d="M96.9424 82.2747C97.5712 82.0147 98.1459 81.6393 98.6365 81.1679L99.5476 81.6799L100.692 80.0158L99.8864 79.3457C100.154 78.7215 100.3 78.0519 100.316 77.373L101.317 77.0869L100.948 75.0991L99.909 75.1894C99.6518 74.5609 99.2789 73.9863 98.8097 73.4953L99.3217 72.5842L97.6577 71.4398L96.98 72.2454C96.3563 71.9766 95.6864 71.8308 95.0073 71.8162L94.7212 70.8148L92.7334 71.1838L92.8313 72.2228C92.2019 72.4783 91.6269 72.8514 91.1372 73.3221L90.2186 72.8101L89.0741 74.4741L89.8797 75.1443C89.6174 75.7724 89.4745 76.444 89.4581 77.1245L88.4491 77.4106L88.8181 79.3909L89.8571 79.3005C90.1155 79.9285 90.4882 80.5029 90.9564 80.9947L90.452 81.9133L92.116 83.0578L92.7861 82.2521C93.4117 82.5143 94.0807 82.6573 94.7588 82.6738L95.045 83.6827L97.0328 83.3138L96.9424 82.2747ZM95.3838 79.933C94.8522 80.0312 94.3035 79.9696 93.807 79.7559C93.3105 79.5423 92.8884 79.1862 92.5943 78.7327C92.3001 78.2792 92.147 77.7487 92.1543 77.2082C92.1617 76.6677 92.3291 76.1415 92.6355 75.6962C92.9418 75.2508 93.3734 74.9063 93.8755 74.7062C94.3777 74.5061 94.9279 74.4594 95.4566 74.572C95.9853 74.6846 96.4687 74.9514 96.8457 75.3388C97.2228 75.7261 97.4765 76.2165 97.5749 76.7481C97.6456 77.1033 97.6449 77.4691 97.5726 77.8241C97.5003 78.1791 97.3581 78.5161 97.1541 78.8154C96.9501 79.1148 96.6884 79.3704 96.3845 79.5675C96.0805 79.7646 95.7403 79.8991 95.3838 79.9631V79.933Z" fill="#D0000B"/>
<path opacity="0.5" d="M113.5 87.5454L113.063 85.1811L111.843 85.2866C111.536 84.538 111.092 83.8535 110.533 83.2687L111.143 82.1844L109.133 80.7689L108.334 81.7251C107.591 81.4089 106.793 81.2377 105.985 81.2206L105.646 80.0234L103.282 80.4601L103.388 81.695C102.64 82.0097 101.958 82.4618 101.377 83.0277L100.285 82.4253L98.9226 84.4056L99.8789 85.2037C99.5634 85.9478 99.3922 86.745 99.3744 87.5529L98.1772 87.8993L98.6139 90.2635L99.8563 90.1506C100.163 90.8992 100.607 91.5836 101.166 92.1685L100.557 93.2528L102.537 94.6156L103.335 93.6593C104.082 93.9749 104.881 94.1461 105.692 94.1638L106.03 95.361L108.395 94.9243L108.282 93.6895C109.033 93.3836 109.718 92.9363 110.3 92.3718L111.391 92.9817L112.754 91.0014L111.798 90.2033C112.111 89.4558 112.282 88.6566 112.303 87.8466L113.5 87.5454ZM106.43 90.9412C105.796 91.0596 105.141 90.9871 104.549 90.7329C103.957 90.4786 103.453 90.0541 103.102 89.5131C102.752 88.9722 102.57 88.3393 102.579 87.6947C102.589 87.0501 102.79 86.423 103.157 85.8929C103.524 85.3628 104.04 84.9537 104.64 84.7174C105.24 84.4812 105.896 84.4285 106.526 84.566C107.156 84.7035 107.73 85.0251 108.177 85.4899C108.624 85.9547 108.922 86.5417 109.035 87.1765C109.174 88.0158 108.979 88.8762 108.492 89.5739C108.005 90.2717 107.265 90.7516 106.43 90.9111V90.9412Z" fill="#D0000B"/>
<path d="M273.08 217.173C273.08 217.173 272.734 197.755 281.874 189.028C291.015 180.301 275.399 187.658 271.996 196.821C271.996 196.821 272.899 179.443 282.176 168.887C291.452 158.33 276.506 165.581 273.035 177.636C273.035 177.636 273.788 162.125 278.652 154.294C283.516 146.464 276.86 150.808 273.69 155.71C270.52 160.612 270.799 174.323 270.799 174.323C270.799 174.323 269.895 148.896 264.225 149.814C258.556 150.733 268.698 169.233 268.931 177.884C268.931 177.884 264.835 165.513 259.655 166.921C254.475 168.329 266.318 171.816 268.638 189.51L269.067 197.687C269.067 197.687 265.453 185.557 261.025 188.313C256.598 191.068 270.332 199.938 270.573 217.309L273.08 217.173Z" fill="#D0000B"/>
<path opacity="0.2" d="M273.08 217.173C273.08 217.173 272.734 197.755 281.874 189.028C291.015 180.301 275.399 187.658 271.996 196.821C271.996 196.821 272.899 179.443 282.176 168.887C291.452 158.33 276.506 165.581 273.035 177.636C273.035 177.636 273.788 162.125 278.652 154.294C283.516 146.464 276.86 150.808 273.69 155.71C270.52 160.612 270.799 174.323 270.799 174.323C270.799 174.323 269.895 148.896 264.225 149.814C258.556 150.733 268.698 169.233 268.931 177.884C268.931 177.884 264.835 165.513 259.655 166.921C254.475 168.329 266.318 171.816 268.638 189.51L269.067 197.687C269.067 197.687 265.453 185.557 261.025 188.313C256.598 191.068 270.332 199.938 270.573 217.309L273.08 217.173Z" fill="black"/>
<path d="M261.718 236.502H284.992L288.086 213.868H258.623L261.718 236.502Z" fill="#263238"/>
<path opacity="0.2" d="M261.718 236.502H284.992L288.086 213.868H258.623L261.718 236.502Z" fill="white"/>
<path d="M272.395 216.3C272.395 216.3 274.834 200.751 268.464 192.74C262.094 184.729 273.81 192.356 275.527 200.081C275.527 200.081 276.724 186.039 270.46 176.536C264.195 167.034 275.369 174.511 276.822 184.57C276.822 184.57 277.921 172.041 274.902 165.19C271.883 158.338 276.724 162.592 278.727 166.876C280.73 171.16 278.99 182.138 278.99 182.138C278.99 182.138 282.529 161.809 286.972 163.194C291.414 164.58 281.242 178.253 280.09 185.203C280.09 185.203 284.751 175.723 288.756 177.432C292.762 179.142 282.861 180.625 279.036 194.585L277.778 201.105C277.778 201.105 282.032 191.769 285.308 194.472C288.583 197.175 276.543 202.754 274.428 216.684L272.395 216.3Z" fill="#D0000B"/>
<path d="M291 212.031V214.184C291.001 214.526 290.934 214.866 290.804 215.182C290.673 215.499 290.481 215.786 290.239 216.028C289.997 216.27 289.71 216.462 289.393 216.593C289.077 216.723 288.737 216.79 288.395 216.789H258.021C257.678 216.79 257.339 216.724 257.022 216.593C256.705 216.463 256.417 216.271 256.174 216.029C255.931 215.787 255.739 215.499 255.607 215.183C255.476 214.866 255.408 214.527 255.408 214.184V212.031H291Z" fill="#263238"/>
<path d="M26.0596 212.821H25.3443C25.3443 211.767 26.2252 186.882 30.5547 182.703C35.0046 178.374 40.2376 182.636 40.2828 182.703L39.831 183.253C39.6352 183.087 35.0422 179.353 31.0516 183.253C26.9254 187.176 26.0671 212.535 26.0596 212.821Z" fill="#D0000B"/>
<path d="M25.7056 217.806L24.9903 217.738C24.9903 217.437 27.7913 187.53 16.9564 175.099L17.491 174.632C28.5292 187.304 25.7282 217.512 25.7056 217.806Z" fill="#D0000B"/>
<path d="M26.0446 214.621C25.9542 213.213 23.8685 179.985 32.1962 172.313L32.678 172.832C24.5989 180.264 26.7297 214.244 26.7523 214.576L26.0446 214.621Z" fill="#D0000B"/>
<path d="M24.9903 214.598C24.9903 214.372 24.7343 192.01 18.8086 188.644C18.3042 188.313 17.7277 188.108 17.1275 188.047C16.5274 187.985 15.9212 188.069 15.3601 188.29C11.889 189.728 10.0443 196.354 10.0217 196.422L9.33651 196.234C9.41933 195.948 11.2942 189.201 15.089 187.635C15.7499 187.37 16.4647 187.268 17.1734 187.336C17.8821 187.404 18.5641 187.641 19.1625 188.027C25.4346 191.618 25.6981 213.627 25.7056 214.598H24.9903Z" fill="#D0000B"/>
<path d="M27.43 214.621C27.3849 213.868 26.4738 196.964 31.2701 190.7C32.5501 189.036 33.9656 188.245 35.5016 188.35C38.9125 188.591 41.5252 193.214 41.6683 193.41L41.0509 193.756C41.0509 193.711 38.4758 189.239 35.4489 189.058C34.1765 188.968 32.9567 189.668 31.8348 191.129C27.1966 197.19 28.1303 214.402 28.1378 214.576L27.43 214.621Z" fill="#D0000B"/>
<path d="M26.4737 216.963L25.7659 216.91C25.7659 216.503 28.7777 176.153 23.8082 169.429L24.3805 169C29.5156 175.942 26.6017 215.291 26.4737 216.963Z" fill="#D0000B"/>
<path d="M13.7111 191.648C13.7111 191.648 16.7832 192.778 15.8721 195.458C14.961 198.139 5.23293 202.536 5.23293 202.536C5.23293 202.536 1.15947 198.771 4.90163 192.748C8.64379 186.724 13.6283 189.736 13.7111 191.648Z" fill="#D0000B"/>
<path opacity="0.2" d="M13.7111 191.648C13.7111 191.648 16.7832 192.778 15.8721 195.458C14.961 198.139 5.23293 202.536 5.23293 202.536C5.23293 202.536 1.15947 198.771 4.90163 192.748C8.64379 186.724 13.6283 189.736 13.7111 191.648Z" fill="black"/>
<path d="M27.0762 186.551C27.0762 186.551 23.8008 186.415 23.6126 189.239C23.4244 192.063 30.7054 199.863 30.7054 199.863C30.7054 199.863 35.9007 197.988 34.7864 190.948C33.672 183.908 27.8894 184.819 27.0762 186.551Z" fill="#D0000B"/>
<path opacity="0.2" d="M27.0762 186.551C27.0762 186.551 23.8008 186.415 23.6126 189.239C23.4244 192.063 30.7054 199.863 30.7054 199.863C30.7054 199.863 35.9007 197.988 34.7864 190.948C33.672 183.908 27.8894 184.819 27.0762 186.551Z" fill="black"/>
<path d="M29.8466 173.05C29.8466 173.05 27.6631 172.817 27.8362 171.484C28.0094 170.152 36.322 166.733 41.2237 172.237C41.2237 172.237 38.0839 177.628 33.5511 177.696C29.0184 177.764 29.8466 173.05 29.8466 173.05Z" fill="#D0000B"/>
<path opacity="0.2" d="M29.8466 173.05C29.8466 173.05 27.6631 172.817 27.8362 171.484C28.0094 170.152 36.322 166.733 41.2237 172.237C41.2237 172.237 38.0839 177.628 33.5511 177.696C29.0184 177.764 29.8466 173.05 29.8466 173.05Z" fill="black"/>
<path d="M25.7807 169.82C25.7807 169.82 27.7534 170.777 28.3106 169.557C28.8678 168.337 23.6197 161.033 16.5345 163.134C16.5345 163.134 16.3462 169.376 20.1637 171.831C23.9812 174.285 25.7807 169.82 25.7807 169.82Z" fill="#D0000B"/>
<path opacity="0.2" d="M25.7807 169.82C25.7807 169.82 27.7534 170.777 28.3106 169.557C28.8678 168.337 23.6197 161.033 16.5345 163.134C16.5345 163.134 16.3462 169.376 20.1637 171.831C23.9812 174.285 25.7807 169.82 25.7807 169.82Z" fill="black"/>
<path d="M36.1113 190.572C36.1113 190.572 34.6054 189.359 36.2318 188.765C37.8581 188.17 45.8319 188.335 45.9147 196.241C45.9147 196.241 36.6308 197.785 35.4788 194.773C34.3268 191.761 36.1113 190.572 36.1113 190.572Z" fill="#D0000B"/>
<path opacity="0.2" d="M36.1113 190.572C36.1113 190.572 34.6054 189.359 36.2318 188.765C37.8581 188.17 45.8319 188.335 45.9147 196.241C45.9147 196.241 36.6308 197.785 35.4788 194.773C34.3268 191.761 36.1113 190.572 36.1113 190.572Z" fill="black"/>
<path d="M17.1673 172.847C17.1673 172.847 18.6732 171.635 17.0468 171.04C15.4204 170.445 7.44669 170.618 7.36387 178.517C7.36387 178.517 16.6553 180.06 17.8073 177.049C18.9593 174.037 17.1673 172.847 17.1673 172.847Z" fill="#D0000B"/>
<path opacity="0.2" d="M17.1673 172.847C17.1673 172.847 18.6732 171.635 17.0468 171.04C15.4204 170.445 7.44669 170.618 7.36387 178.517C7.36387 178.517 16.6553 180.06 17.8073 177.049C18.9593 174.037 17.1673 172.847 17.1673 172.847Z" fill="black"/>
<path d="M22.0762 179.217C22.0762 179.217 22.2117 177.711 21.0221 178.314C19.8324 178.916 15.6686 183.381 19.9755 187.643C19.9755 187.643 25.7807 183.343 24.7341 181.107C23.6875 178.871 22.0762 179.217 22.0762 179.217Z" fill="#D0000B"/>
<path opacity="0.2" d="M22.0762 179.217C22.0762 179.217 22.2117 177.711 21.0221 178.314C19.8324 178.916 15.6686 183.381 19.9755 187.643C19.9755 187.643 25.7807 183.343 24.7341 181.107C23.6875 178.871 22.0762 179.217 22.0762 179.217Z" fill="black"/>
<path d="M37.4589 181.325C37.4589 181.325 36.5554 180.143 37.8806 179.993C39.2058 179.842 45.1089 181.431 43.731 187.326C43.731 187.326 36.5328 186.784 36.2015 184.315C35.8702 181.845 37.4589 181.325 37.4589 181.325Z" fill="#D0000B"/>
<path opacity="0.2" d="M37.4589 181.325C37.4589 181.325 36.5554 180.143 37.8806 179.993C39.2058 179.842 45.1089 181.431 43.731 187.326C43.731 187.326 36.5328 186.784 36.2015 184.315C35.8702 181.845 37.4589 181.325 37.4589 181.325Z" fill="black"/>
<path d="M14.2457 236.502H37.5269L40.6215 213.868H11.151L14.2457 236.502Z" fill="#263238"/>
<path opacity="0.2" d="M14.2457 236.502H37.5269L40.6215 213.868H11.151L14.2457 236.502Z" fill="white"/>
<path d="M43.5355 212.031V214.184C43.5355 214.875 43.261 215.538 42.7725 216.026C42.2839 216.515 41.6213 216.789 40.9303 216.789H10.5488C10.2061 216.79 9.86648 216.724 9.54953 216.593C9.23258 216.463 8.9445 216.271 8.70179 216.029C8.45907 215.787 8.2665 215.499 8.13511 215.183C8.00371 214.866 7.93608 214.527 7.93608 214.184V212.031H43.5355Z" fill="#263238"/>
</svg>
