<svg width="11" height="11" viewBox="0 0 11 11" fill="none" xmlns="http://www.w3.org/2000/svg">
<path d="M7.79045 0.690245C7.67268 0.571842 7.5127 0.505061 7.3457 0.504589C7.1787 0.504116 7.01835 0.569991 6.89992 0.687726C6.83744 0.75142 6.78914 0.827615 6.75821 0.911304C6.23422 2.00463 5.65733 2.6212 4.92928 2.98522C4.11244 3.38829 3.17467 3.66855 1.66316 3.66855C1.53883 3.66914 1.41742 3.70629 1.31405 3.77539C1.21069 3.84449 1.12994 3.94247 1.08186 4.05713C1.03427 4.17226 1.02185 4.2989 1.04617 4.42108C1.07049 4.54326 1.13047 4.65549 1.21853 4.74361L3.26095 6.78604L0.40357 10.5963L4.21384 7.73892L6.25563 9.78072C6.31413 9.83969 6.38397 9.88619 6.46095 9.91739C6.53778 9.94951 6.61966 9.96651 6.70153 9.96651C6.7834 9.96651 6.86528 9.94951 6.94211 9.91739C7.05728 9.87014 7.15579 9.7897 7.2251 9.68629C7.29441 9.58289 7.33139 9.4612 7.33133 9.33671C7.33133 7.8252 7.61096 6.88744 8.0134 6.08319C8.37679 5.35514 8.99336 4.77825 10.0873 4.25426C10.171 4.22362 10.247 4.17528 10.3103 4.11256C10.428 3.99412 10.4939 3.83377 10.4934 3.66677C10.4929 3.49977 10.4261 3.3398 10.3077 3.22203L7.79045 0.690245Z" stroke="black"/>
</svg>
