<svg width="10" height="10" viewBox="0 0 10 10" fill="none" xmlns="http://www.w3.org/2000/svg">
<path d="M7.31974 0.183972C7.20304 0.0666444 7.04452 0.000470624 6.87904 2.50056e-06C6.71356 -0.000465623 6.55466 0.0648104 6.4373 0.181475C6.37539 0.24459 6.32754 0.320093 6.29689 0.403021C5.77766 1.48641 5.20601 2.09738 4.48458 2.45809C3.67516 2.8575 2.74592 3.13521 1.24814 3.13521C1.12494 3.13579 1.00463 3.17261 0.902208 3.24108C0.799781 3.30955 0.719765 3.40664 0.672126 3.52026C0.624964 3.63434 0.612657 3.75983 0.636759 3.8809C0.660862 4.00197 0.720293 4.11318 0.807549 4.2005L2.83141 6.22436L0 10L3.77564 7.16859L5.79888 9.19183C5.85684 9.25026 5.92605 9.29633 6.00232 9.32725C6.07846 9.35908 6.15959 9.37593 6.24072 9.37593C6.32185 9.37593 6.40298 9.35908 6.47912 9.32725C6.59324 9.28044 6.69086 9.20072 6.75954 9.09826C6.82822 8.99579 6.86486 8.87521 6.86479 8.75186C6.86479 7.25408 7.14188 6.32484 7.54066 5.5279C7.90075 4.80647 8.51172 4.23482 9.59573 3.7156C9.67862 3.68523 9.75397 3.63733 9.81665 3.57518C9.93332 3.45782 9.99859 3.29892 9.99813 3.13344C9.99766 2.96796 9.93148 2.80944 9.81416 2.69274L7.31974 0.183972Z" fill="#ED1C25"/>
</svg>
