<svg width="20" height="19" viewBox="0 0 20 19" fill="none" xmlns="http://www.w3.org/2000/svg">
<g clip-path="url(#clip0_1_985)">
<path d="M3 6H17" stroke="white" stroke-width="1.3" stroke-linecap="round" stroke-linejoin="round"/>
<path d="M8 9V14" stroke="white" stroke-width="1.3" stroke-linecap="round" stroke-linejoin="round"/>
<path d="M12 9V14" stroke="white" stroke-width="1.3" stroke-linecap="round" stroke-linejoin="round"/>
<path d="M4 6L4.85714 15.4286C4.85714 15.8453 5.03775 16.245 5.35925 16.5397C5.68074 16.8344 6.11677 17 6.57143 17H13.4286C13.8832 17 14.3193 16.8344 14.6408 16.5397C14.9622 16.245 15.1429 15.8453 15.1429 15.4286L16 6" stroke="white" stroke-width="1.3" stroke-linecap="round" stroke-linejoin="round"/>
<path d="M8 6V3.75C8 3.55109 8.0878 3.36032 8.24408 3.21967C8.40036 3.07902 8.61232 3 8.83333 3H12.1667C12.3877 3 12.5996 3.07902 12.7559 3.21967C12.9122 3.36032 13 3.55109 13 3.75V6" stroke="white" stroke-width="1.3" stroke-linecap="round" stroke-linejoin="round"/>
</g>
<defs>
<clipPath id="clip0_1_985">
<rect width="20" height="19" fill="white"/>
</clipPath>
</defs>
</svg>
