<svg width="354" height="43" viewBox="0 0 354 43" fill="none" xmlns="http://www.w3.org/2000/svg">
<g clip-path="url(#clip0_1_1162)">
<rect width="354" height="43" rx="8" fill="white"/>
<path d="M21.2 21.5C21.9426 21.5 22.6548 21.2103 23.1799 20.6945C23.705 20.1788 24 19.4793 24 18.75C24 18.0207 23.705 17.3212 23.1799 16.8055C22.6548 16.2897 21.9426 16 21.2 16H17V27H21.2C21.9426 27 22.6548 26.7103 23.1799 26.1945C23.705 25.6788 24 24.9793 24 24.25C24 23.5207 23.705 22.8212 23.1799 22.3055C22.6548 21.7897 21.9426 21.5 21.2 21.5ZM21.2 21.5H17" stroke="black" stroke-linecap="round" stroke-linejoin="round"/>
<path d="M64.8 16.5H69M62 26.5H66.2M66.9 16.5L64.1 26.5" stroke="black" stroke-linecap="round" stroke-linejoin="round"/>
<path d="M126.18 22.6199H108.68C108.525 22.6199 108.377 22.5585 108.268 22.4491C108.158 22.3397 108.097 22.1913 108.097 22.0366C108.097 21.8819 108.158 21.7335 108.268 21.6241C108.377 21.5147 108.525 21.4532 108.68 21.4532H126.18C126.335 21.4532 126.483 21.5147 126.592 21.6241C126.702 21.7335 126.763 21.8819 126.763 22.0366C126.763 22.1913 126.702 22.3397 126.592 22.4491C126.483 22.5585 126.335 22.6199 126.18 22.6199Z" fill="black"/>
<path d="M111.241 20.2518C111.486 20.1372 111.737 20.036 111.993 19.9485C112.336 19.8242 112.697 19.7572 113.061 19.7501C113.361 19.7196 113.663 19.7626 113.943 19.8754C114.223 19.9883 114.47 20.1675 114.665 20.3976C115.005 20.8601 115.181 21.4223 115.167 21.996V22.2818C114.361 22.0067 113.516 21.861 112.664 21.8501C112.144 21.845 111.628 21.9525 111.153 22.1651C110.874 22.2912 110.616 22.4605 110.389 22.6668H116.263V21.996C116.308 21.1442 116.021 20.3083 115.464 19.6626C115.16 19.3597 114.794 19.1254 114.392 18.9755C113.989 18.8256 113.559 18.7635 113.131 18.7935C112.344 18.8089 111.568 18.9835 110.85 19.3068C110.787 19.3338 110.73 19.3734 110.682 19.4231C110.635 19.4728 110.598 19.5317 110.574 19.596C110.55 19.6604 110.54 19.7289 110.543 19.7975C110.546 19.8661 110.563 19.9334 110.593 19.9951C110.619 20.0547 110.656 20.1087 110.702 20.1539C110.748 20.1991 110.803 20.2347 110.864 20.2585C110.924 20.2824 110.988 20.2941 111.053 20.293C111.118 20.2918 111.182 20.2778 111.241 20.2518Z" fill="black"/>
<path d="M119.25 22.6664C119.263 22.2006 119.371 21.7423 119.565 21.3189C119.765 20.8831 120.085 20.513 120.487 20.2514C120.887 19.9965 121.351 19.8611 121.825 19.8611C122.3 19.8611 122.764 19.9965 123.164 20.2514C123.562 20.5166 123.878 20.8859 124.08 21.3189C124.278 21.742 124.391 22.1998 124.413 22.6664H125.579C125.563 22.0207 125.407 21.3861 125.124 20.8056C124.841 20.2203 124.401 19.7255 123.853 19.3764C123.311 19.0361 122.684 18.858 122.044 18.8631C121.471 18.8535 120.906 19.0008 120.411 19.2889C119.924 19.5786 119.522 19.9909 119.244 20.4848V16.8331C119.243 16.7005 119.189 16.5738 119.096 16.48C119.002 16.3863 118.875 16.3329 118.743 16.3314H118.667C118.534 16.3329 118.407 16.3863 118.314 16.48C118.22 16.5738 118.167 16.7005 118.165 16.8331V22.6664H119.25Z" fill="black"/>
<path d="M124.307 23.8334C124.259 24.048 124.188 24.2571 124.097 24.4575C123.897 24.8948 123.581 25.2683 123.182 25.5367C122.78 25.7883 122.316 25.9217 121.843 25.9217C121.369 25.9217 120.905 25.7883 120.504 25.5367C120.1 25.272 119.781 24.8976 119.582 24.4575C119.49 24.2573 119.417 24.0481 119.367 23.8334H118.136V26.2425C118.136 26.3112 118.15 26.3792 118.176 26.4423C118.203 26.5054 118.243 26.5625 118.293 26.6099C118.342 26.6574 118.401 26.6942 118.465 26.7183C118.529 26.7424 118.598 26.7532 118.667 26.75H118.783C118.916 26.7485 119.043 26.6952 119.136 26.6014C119.23 26.5077 119.283 26.381 119.285 26.2484V25.2975C119.562 25.793 119.965 26.2073 120.452 26.4992C120.949 26.7829 121.513 26.9279 122.085 26.9192C122.725 26.9269 123.353 26.7486 123.893 26.4059C124.43 26.0618 124.86 25.575 125.136 25C125.317 24.6318 125.443 24.2386 125.509 23.8334H124.307Z" fill="black"/>
<path d="M115.167 23.8332V24.2765C115.094 24.5238 114.973 24.7543 114.811 24.9545C114.649 25.1548 114.449 25.3209 114.222 25.4432C113.745 25.7195 113.203 25.8644 112.652 25.8632C112.161 25.8845 111.676 25.7407 111.276 25.4548C111.1 25.3297 110.958 25.163 110.862 24.9696C110.767 24.7762 110.72 24.5622 110.727 24.3465C110.73 24.1634 110.769 23.9828 110.844 23.8157H109.695C109.645 24.0061 109.62 24.2021 109.619 24.399C109.607 24.7367 109.671 25.0728 109.808 25.382C109.944 25.6912 110.149 25.9654 110.407 26.184C110.975 26.6518 111.695 26.8947 112.431 26.8665C112.975 26.8677 113.513 26.7419 114 26.499C114.48 26.2819 114.885 25.929 115.167 25.484V26.1665C115.167 26.2996 115.22 26.4272 115.314 26.5212C115.408 26.6153 115.535 26.6682 115.668 26.6682H115.75C115.883 26.6682 116.011 26.6153 116.105 26.5212C116.199 26.4272 116.252 26.2996 116.252 26.1665V23.8332H115.167Z" fill="black"/>
<path d="M166 16.5V26.5M172.333 16.5V26.5M166 21.5H172.333M175.409 21.5L177 19.9428V26.5" stroke="black" stroke-linecap="round" stroke-linejoin="round"/>
<path d="M217.749 17.8949C218.332 17.8949 218.805 17.4223 218.805 16.8394C218.805 16.2564 218.332 15.7838 217.749 15.7838C217.166 15.7838 216.694 16.2564 216.694 16.8394C216.694 17.4223 217.166 17.8949 217.749 17.8949Z" fill="black"/>
<path d="M217.749 22.1175C218.332 22.1175 218.805 21.6449 218.805 21.0619C218.805 20.4789 218.332 20.0063 217.749 20.0063C217.166 20.0063 216.694 20.4789 216.694 21.0619C216.694 21.6449 217.166 22.1175 217.749 22.1175Z" fill="black"/>
<path d="M217.749 26.34C218.332 26.34 218.805 25.8674 218.805 25.2844C218.805 24.7015 218.332 24.2289 217.749 24.2289C217.166 24.2289 216.694 24.7015 216.694 25.2844C216.694 25.8674 217.166 26.34 217.749 26.34Z" fill="black"/>
<path d="M232.11 16.7503C232.11 16.6103 232.055 16.4761 231.956 16.3771C231.857 16.2781 231.723 16.2225 231.583 16.2225H220.278V17.2781H231.583C231.723 17.2781 231.857 17.2225 231.956 17.1235C232.055 17.0245 232.11 16.8903 232.11 16.7503Z" fill="black"/>
<path d="M231.583 20.4451H220.278V21.5006H231.583C231.723 21.5006 231.857 21.445 231.956 21.346C232.055 21.2471 232.11 21.1128 232.11 20.9728C232.11 20.8329 232.055 20.6986 231.956 20.5997C231.857 20.5007 231.723 20.4451 231.583 20.4451Z" fill="black"/>
<path d="M231.583 24.6663H220.278V25.7218H231.583C231.723 25.7218 231.857 25.6662 231.956 25.5672C232.055 25.4683 232.11 25.334 232.11 25.194C232.11 25.0541 232.055 24.9198 231.956 24.8208C231.857 24.7219 231.723 24.6663 231.583 24.6663Z" fill="black"/>
<path d="M285 21.761C285 21.8994 284.943 22.0321 284.842 22.13C284.74 22.2278 284.602 22.2828 284.459 22.2828H276.883C276.739 22.2828 276.602 22.2278 276.5 22.13C276.399 22.0321 276.342 21.8994 276.342 21.761C276.342 21.6227 276.399 21.49 276.5 21.3921C276.602 21.2943 276.739 21.2393 276.883 21.2393H284.459C284.602 21.2393 284.74 21.2943 284.842 21.3921C284.943 21.49 285 21.6227 285 21.761ZM276.883 18.109H284.459C284.602 18.109 284.74 18.054 284.842 17.9562C284.943 17.8583 285 17.7256 285 17.5873C285 17.4489 284.943 17.3162 284.842 17.2184C284.74 17.1205 284.602 17.0655 284.459 17.0655H276.883C276.739 17.0655 276.602 17.1205 276.5 17.2184C276.399 17.3162 276.342 17.4489 276.342 17.5873C276.342 17.7256 276.399 17.8583 276.5 17.9562C276.602 18.054 276.739 18.109 276.883 18.109ZM284.459 25.4131H276.883C276.739 25.4131 276.602 25.4681 276.5 25.5659C276.399 25.6638 276.342 25.7965 276.342 25.9348C276.342 26.0732 276.399 26.2059 276.5 26.3037C276.602 26.4016 276.739 26.4566 276.883 26.4566H284.459C284.602 26.4566 284.74 26.4016 284.842 26.3037C284.943 26.2059 285 26.0732 285 25.9348C285 25.7965 284.943 25.6638 284.842 25.5659C284.74 25.4681 284.602 25.4131 284.459 25.4131ZM272.796 17.0108L273.095 16.866V20.1959C273.095 20.3342 273.152 20.467 273.253 20.5648C273.355 20.6626 273.493 20.7176 273.636 20.7176C273.78 20.7176 273.917 20.6626 274.019 20.5648C274.12 20.467 274.177 20.3342 274.177 20.1959V16.0221C274.177 15.9331 274.154 15.8456 274.109 15.7679C274.064 15.6901 273.999 15.6248 273.921 15.578C273.842 15.5312 273.753 15.5045 273.66 15.5005C273.568 15.4965 273.476 15.5153 273.394 15.5552L272.312 16.0769C272.183 16.1388 272.086 16.2474 272.04 16.3787C272.018 16.4438 272.009 16.5124 272.014 16.5808C272.019 16.6492 272.038 16.716 272.07 16.7773C272.101 16.8386 272.145 16.8933 272.199 16.9382C272.253 16.9831 272.315 17.0174 272.383 17.0391C272.519 17.0829 272.668 17.0727 272.796 17.0108ZM275.244 23.634C275.214 23.4274 275.141 23.2287 275.03 23.05C274.918 22.8712 274.77 22.7161 274.595 22.5938C274.243 22.3479 273.807 22.2425 273.377 22.2996C272.947 22.3568 272.557 22.572 272.287 22.9004C272.184 23.0277 272.103 23.1699 272.046 23.3217C272.016 23.387 272 23.4575 272 23.5289C272 23.6002 272.014 23.6709 272.043 23.7366C272.072 23.8022 272.115 23.8614 272.169 23.9105C272.223 23.9596 272.286 23.9975 272.356 24.022C272.425 24.0464 272.499 24.0569 272.573 24.0526C272.647 24.0484 272.719 24.0296 272.785 23.9974C272.851 23.9652 272.91 23.9203 272.957 23.8654C273.005 23.8105 273.04 23.7469 273.06 23.6784C273.079 23.6284 273.106 23.5815 273.14 23.5395C273.236 23.4248 273.373 23.35 273.525 23.3307C273.676 23.3114 273.829 23.349 273.952 23.4358C274.011 23.4762 274.061 23.5278 274.099 23.5874C274.137 23.647 274.162 23.7135 274.173 23.7827C274.182 23.8492 274.178 23.9169 274.159 23.9816C274.141 24.0464 274.109 24.107 274.066 24.1597C274.064 24.1619 274.063 24.1643 274.061 24.1668L272.12 26.6659C272.06 26.7435 272.024 26.8356 272.015 26.9321C272.006 27.0285 272.025 27.1255 272.07 27.212C272.115 27.2986 272.184 27.3714 272.269 27.4223C272.355 27.4731 272.453 27.5 272.554 27.5H274.718C274.862 27.5 275 27.445 275.101 27.3472C275.203 27.2493 275.26 27.1166 275.26 26.9783C275.26 26.8399 275.203 26.7072 275.101 26.6094C275 26.5115 274.862 26.4566 274.718 26.4566H273.636L274.927 24.7916C275.058 24.6291 275.153 24.4429 275.208 24.244C275.262 24.0451 275.274 23.8376 275.244 23.634Z" fill="black"/>
<path d="M328.624 23.4926L333.632 19.5074M327.382 20.647L325.504 22.1415C324.84 22.6699 324.4 23.4241 324.281 24.238C324.161 25.0519 324.373 25.8589 324.868 26.4815C325.363 27.104 326.102 27.4912 326.922 27.5577C327.742 27.6243 328.576 27.3648 329.24 26.8363L331.118 25.3419M331.138 17.6581L333.016 16.1637C333.68 15.6352 334.513 15.3757 335.333 15.4423C336.153 15.5088 336.892 15.896 337.388 16.5186C337.883 17.1411 338.094 17.9481 337.975 18.762C337.856 19.576 337.416 20.3301 336.752 20.8586L334.874 22.353" stroke="black" stroke-width="1.2" stroke-linecap="round" stroke-linejoin="round"/>
</g>
<rect x="0.5" y="0.5" width="353" height="42" rx="7.5" stroke="#EAEAEA"/>
<defs>
<clipPath id="clip0_1_1162">
<rect width="354" height="43" rx="8" fill="white"/>
</clipPath>
</defs>
</svg>
