<?xml version="1.0" encoding="UTF-8"?>
<!DOCTYPE svg PUBLIC "-//W3C//DTD SVG 1.1//EN" "http://www.w3.org/Graphics/SVG/1.1/DTD/svg11.dtd">
<svg xmlns="http://www.w3.org/2000/svg" version="1.1" width="19989px" height="6059px" style="shape-rendering:geometricPrecision; text-rendering:geometricPrecision; image-rendering:optimizeQuality; fill-rule:evenodd; clip-rule:evenodd" xmlns:xlink="http://www.w3.org/1999/xlink">
<g><path style="opacity:1" fill="#d56664" d="M 3886.5,1911.5 C 3875.17,1918.17 3863.51,1924.33 3851.5,1930C 3837.63,1939.1 3823.29,1947.44 3808.5,1955C 3793.93,1964.45 3778.93,1973.12 3763.5,1981C 3715.99,2009.26 3668.32,2037.26 3620.5,2065C 3603.54,2074.15 3586.87,2083.81 3570.5,2094C 3566.7,2094.96 3563.03,2096.29 3559.5,2098C 3513.46,2126.02 3466.79,2153.02 3419.5,2179C 3413.25,2184.23 3406.25,2188.23 3398.5,2191C 3383.96,2200.44 3368.96,2209.1 3353.5,2217C 3339.63,2226.1 3325.29,2234.44 3310.5,2242C 3260.5,2271.33 3210.5,2300.67 3160.5,2330C 3145.71,2337.56 3131.37,2345.9 3117.5,2355C 3113.08,2356.81 3108.75,2358.81 3104.5,2361C 3067.17,2383 3029.83,2405 2992.5,2427C 2979.91,2432.96 2967.91,2439.96 2956.5,2448C 2952.32,2450.26 2947.98,2452.26 2943.5,2454C 2918.4,2468.72 2893.4,2483.72 2868.5,2499C 2866.5,2499.67 2864.5,2500.33 2862.5,2501C 2824.84,2522.5 2787.5,2544.5 2750.5,2567C 2746.37,2569.48 2742.03,2571.48 2737.5,2573C 2712.63,2588.26 2687.63,2603.26 2662.5,2618C 2658.7,2618.96 2655.03,2620.29 2651.5,2622C 2566.49,2671.84 2481.16,2721.17 2395.5,2770C 2247.4,2856.38 2099.07,2942.21 1950.5,3027.5C 1937.82,3020.99 1925.48,3013.83 1913.5,3006C 1842.77,2966.13 1772.44,2925.47 1702.5,2884C 1577.01,2812.42 1452.01,2740.09 1327.5,2667C 1325.5,2666.33 1323.5,2665.67 1321.5,2665C 1296.63,2649.74 1271.63,2634.74 1246.5,2620C 1244.5,2619.67 1242.5,2619.33 1240.5,2619C 1155.32,2568.58 1069.66,2518.91 983.5,2470C 948.665,2449.08 913.665,2428.41 878.5,2408C 863.707,2400.44 849.374,2392.1 835.5,2383C 820.707,2375.44 806.374,2367.1 792.5,2358C 787.975,2356.49 783.641,2354.49 779.5,2352C 662.167,2283.67 544.833,2215.33 427.5,2147C 423.365,2144.52 419.032,2142.52 414.5,2141C 389.633,2125.74 364.633,2110.74 339.5,2096C 335.533,2095.52 331.866,2094.18 328.5,2092C 287.997,2067.5 246.997,2043.84 205.5,2021C 143.056,1983.6 80.0562,1946.94 16.5,1911C 17.056,1910.62 17.3893,1910.12 17.5,1909.5C 113.239,1854.29 208.905,1798.79 304.5,1743C 319.25,1735.46 333.583,1727.12 347.5,1718C 362.958,1710.1 377.958,1701.44 392.5,1692C 396.167,1690.33 399.833,1688.67 403.5,1687C 453.161,1657.17 503.161,1627.83 553.5,1599C 568.25,1591.46 582.583,1583.12 596.5,1574C 600.833,1572.33 605.167,1570.67 609.5,1569C 621.696,1560.79 634.363,1553.46 647.5,1547C 733.999,1495.91 820.999,1445.58 908.5,1396C 941.146,1376.7 973.813,1357.37 1006.5,1338C 1076.66,1298.5 1146.33,1258.16 1215.5,1217C 1230.29,1209.44 1244.63,1201.1 1258.5,1192C 1273.29,1184.44 1287.63,1176.1 1301.5,1167C 1303.39,1166.03 1305.39,1165.36 1307.5,1165C 1348.85,1139.66 1390.85,1115.32 1433.5,1092C 1448.38,1082.39 1463.71,1073.56 1479.5,1065.5C 1488,1059.75 1496.66,1054.25 1505.5,1049C 1508.5,1048 1511.5,1047 1514.5,1046C 1585.59,1003.46 1657.25,961.958 1729.5,921.5C 1743.04,912.563 1757.04,904.396 1771.5,897C 1792.17,884.667 1812.83,872.333 1833.5,860C 1847.63,852.77 1861.29,844.77 1874.5,836C 1879.38,833.393 1884.38,831.06 1889.5,829C 1909.16,816.007 1929.33,803.84 1950,792.5C 2071.09,863.298 2192.59,933.465 2314.5,1003C 2337.33,1016.92 2360.33,1030.59 2383.5,1044C 2396.07,1049.62 2408.07,1056.29 2419.5,1064C 2464.29,1088.9 2508.63,1114.56 2552.5,1141C 2650,1196.25 2747,1252.25 2843.5,1309C 2995.05,1395.78 3146.39,1483.12 3297.5,1571C 3299.17,1571.33 3300.83,1571.67 3302.5,1572C 3325.61,1586.37 3348.94,1600.37 3372.5,1614C 3376.05,1615.94 3379.71,1617.61 3383.5,1619C 3424.71,1643.77 3466.38,1667.77 3508.5,1691C 3523.04,1700.44 3538.04,1709.1 3553.5,1717C 3577.97,1731.4 3602.3,1746.07 3626.5,1761C 3631.03,1762.51 3635.36,1764.51 3639.5,1767C 3676.55,1789.52 3713.88,1811.52 3751.5,1833C 3762.25,1838.21 3772.58,1844.21 3782.5,1851C 3798.64,1859.14 3814.31,1868.14 3829.5,1878C 3846.8,1887.65 3864.13,1897.32 3881.5,1907C 3883.69,1908.07 3885.36,1909.57 3886.5,1911.5 Z"/></g>
<g><path style="opacity:1" fill="#fefffe" d="M 1945.5,1041.5 C 1960.33,1048.59 1974.67,1056.76 1988.5,1066C 2113.68,1137.86 2238.35,1210.53 2362.5,1284C 2374.31,1289.81 2385.65,1296.47 2396.5,1304C 2411.25,1311.54 2425.58,1319.88 2439.5,1329C 2443.05,1330.94 2446.71,1332.61 2450.5,1334C 2490.5,1358.67 2531.17,1382.34 2572.5,1405C 2585.71,1413.77 2599.37,1421.77 2613.5,1429C 2666.41,1460.52 2719.41,1491.85 2772.5,1523C 2774.5,1523.67 2776.5,1524.33 2778.5,1525C 2803.83,1540.33 2829.17,1555.67 2854.5,1571C 2858.47,1571.48 2862.13,1572.82 2865.5,1575C 2898.48,1594.63 2931.48,1614.3 2964.5,1634C 3009.49,1659.5 3054.16,1685.5 3098.5,1712C 3194.29,1767.4 3289.95,1823.06 3385.5,1879C 3317.8,1918.51 3250.47,1958.51 3183.5,1999C 3144.19,2020.97 3105.36,2043.8 3067,2067.5C 2943.94,1995.38 2820.44,1923.88 2696.5,1853C 2660.5,1831.67 2624.5,1810.33 2588.5,1789C 2464.31,1718.08 2340.64,1646.41 2217.5,1574C 2214.28,1572.36 2210.95,1571.03 2207.5,1570C 2128.3,1523.48 2048.96,1477.15 1969.5,1431C 1960.95,1426.29 1952.29,1421.79 1943.5,1417.5C 1902.43,1441.87 1861.77,1467.04 1821.5,1493C 1800.17,1505.67 1778.83,1518.33 1757.5,1531C 1736.33,1544.08 1715.33,1557.42 1694.5,1571C 1692.05,1571.29 1689.71,1571.96 1687.5,1573C 1675,1581.75 1662,1589.75 1648.5,1597C 1627.67,1610.58 1606.67,1623.92 1585.5,1637C 1581.78,1639.53 1577.78,1641.53 1573.5,1643C 1549.46,1658.34 1525.46,1673.67 1501.5,1689C 1498.38,1690.06 1495.38,1691.39 1492.5,1693C 1452.5,1719 1411.84,1744 1370.5,1768C 1349.33,1781.08 1328.33,1794.42 1307.5,1808C 1270.68,1829.48 1234.35,1851.81 1198.5,1875C 1183.99,1882.84 1169.99,1891.51 1156.5,1901C 1141.99,1908.84 1127.99,1917.51 1114.5,1927C 1112.05,1927.72 1109.72,1928.72 1107.5,1930C 1066.83,1956.34 1025.5,1981.67 983.5,2006C 950.946,2026.73 918.279,2047.23 885.5,2067.5C 810.837,2026.66 735.837,1986.5 660.5,1947C 647.946,1939.22 634.946,1932.22 621.5,1926C 604.454,1916.14 587.12,1906.81 569.5,1898C 557.759,1890.8 545.759,1884.13 533.5,1878C 704.654,1776.59 875.654,1674.92 1046.5,1573C 1049.95,1571.97 1053.28,1570.64 1056.5,1569C 1177.33,1496.17 1298.66,1424.17 1420.5,1353C 1515.04,1295.9 1610.04,1239.56 1705.5,1184C 1785.2,1135.77 1865.2,1088.27 1945.5,1041.5 Z"/></g>
<g><path style="opacity:1" fill="#020100" d="M 5306.5,1442.5 C 5340.41,1442.17 5374.24,1442.5 5408,1443.5C 5480.22,1642 5552.72,1840.34 5625.5,2038.5C 5588.5,2038.61 5551.5,2038.61 5514.5,2038.5C 5499.64,1993.77 5485.31,1948.94 5471.5,1904C 5398.5,1903.33 5325.5,1903.33 5252.5,1904C 5238.07,1949.11 5223.74,1994.28 5209.5,2039.5C 5176.83,2040.43 5144.17,2040.27 5111.5,2039C 5107.13,2038.83 5102.8,2038.33 5098.5,2037.5C 5167.44,1839 5236.78,1640.67 5306.5,1442.5 Z M 5359.5,1598.5 C 5363.56,1606.96 5367.39,1615.63 5371,1624.5C 5394.53,1688.4 5418.86,1752.07 5444,1815.5C 5446,1823.66 5448.5,1831.66 5451.5,1839.5C 5391.84,1840.5 5332.17,1840.83 5272.5,1840.5C 5278.15,1822.22 5283.65,1803.89 5289,1785.5C 5313.08,1723.34 5336.58,1661.01 5359.5,1598.5 Z"/></g>
<g><path style="opacity:1" fill="#060201" d="M 7748.5,1529.5 C 7767.08,1527.41 7781.58,1534.08 7792,1549.5C 7802.98,1583.23 7791.14,1603.23 7756.5,1609.5C 7728.08,1605.92 7714.91,1589.92 7717,1561.5C 7721.68,1544.98 7732.18,1534.32 7748.5,1529.5 Z"/></g>
<g><path style="opacity:1" fill="#020000" d="M 7187.5,1537.5 C 7208.17,1537.5 7228.83,1537.5 7249.5,1537.5C 7249.33,1594.83 7249.5,1652.17 7250,1709.5C 7290.73,1665.7 7340.9,1648.53 7400.5,1658C 7437.39,1664.89 7460.89,1686.39 7471,1722.5C 7472.3,1728.01 7473.47,1733.51 7474.5,1739C 7474.49,1825.29 7474.49,1911.79 7474.5,1998.5C 7453.83,1998.5 7433.17,1998.5 7412.5,1998.5C 7412.67,1926.17 7412.5,1853.83 7412,1781.5C 7412.71,1734.38 7389.55,1711.05 7342.5,1711.5C 7307.88,1712.56 7279.05,1725.9 7256,1751.5C 7254,1754.17 7252,1756.83 7250,1759.5C 7249.5,1839.17 7249.33,1918.83 7249.5,1998.5C 7228.83,1998.5 7208.17,1998.5 7187.5,1998.5C 7187.5,1844.83 7187.5,1691.17 7187.5,1537.5 Z"/></g>
<g><path style="opacity:1" fill="#030100" d="M 6836.5,1571.5 C 6857.5,1571.5 6878.5,1571.5 6899.5,1571.5C 6899.5,1602.5 6899.5,1633.5 6899.5,1664.5C 6922.17,1664.5 6944.83,1664.5 6967.5,1664.5C 6967.5,1682.5 6967.5,1700.5 6967.5,1718.5C 6944.83,1718.5 6922.17,1718.5 6899.5,1718.5C 6899.33,1784.5 6899.5,1850.5 6900,1916.5C 6903.89,1946.54 6920.39,1957.04 6949.5,1948C 6955.49,1945.67 6960.65,1942.17 6965,1937.5C 6970.71,1953.06 6976.21,1968.73 6981.5,1984.5C 6976.19,1990.64 6969.85,1995.48 6962.5,1999C 6933.89,2009.24 6905.22,2009.58 6876.5,2000C 6853.08,1987.2 6839.91,1967.36 6837,1940.5C 6836.5,1866.5 6836.33,1792.5 6836.5,1718.5C 6818.17,1718.5 6799.83,1718.5 6781.5,1718.5C 6781.5,1700.5 6781.5,1682.5 6781.5,1664.5C 6799.83,1664.5 6818.17,1664.5 6836.5,1664.5C 6836.5,1633.5 6836.5,1602.5 6836.5,1571.5 Z"/></g>
<g><path style="opacity:1" fill="#020100" d="M 5970.5,1654.5 C 5993.28,1654.45 6014.95,1659.28 6035.5,1669C 6044.55,1675.12 6052.72,1682.28 6060,1690.5C 6070.91,1707.55 6077.24,1726.22 6079,1746.5C 6079.5,1830.5 6079.67,1914.5 6079.5,1998.5C 6058.5,1998.5 6037.5,1998.5 6016.5,1998.5C 6016.49,1924.51 6016.49,1850.68 6016.5,1777C 6016.81,1754.62 6008.47,1736.29 5991.5,1722C 5986.7,1719.29 5981.7,1716.95 5976.5,1715C 5942.6,1707.18 5911.26,1712.85 5882.5,1732C 5874.61,1737.89 5867.11,1744.39 5860,1751.5C 5857.91,1753.92 5856.24,1756.59 5855,1759.5C 5854.5,1839.17 5854.33,1918.83 5854.5,1998.5C 5833.5,1998.5 5812.5,1998.5 5791.5,1998.5C 5791.5,1887.17 5791.5,1775.83 5791.5,1664.5C 5812.5,1664.5 5833.5,1664.5 5854.5,1664.5C 5854.33,1679.5 5854.5,1694.5 5855,1709.5C 5855.67,1708.17 5856.33,1706.83 5857,1705.5C 5879.69,1682.4 5906.86,1666.9 5938.5,1659C 5949.2,1656.68 5959.87,1655.18 5970.5,1654.5 Z"/></g>
<g><path style="opacity:1" fill="#030100" d="M 8217.5,1654.5 C 8242.39,1654.39 8265.73,1660.22 8287.5,1672C 8304.58,1684.08 8315.75,1700.25 8321,1720.5C 8323.31,1729.04 8324.98,1737.71 8326,1746.5C 8326.5,1830.5 8326.67,1914.5 8326.5,1998.5C 8305.83,1998.5 8285.17,1998.5 8264.5,1998.5C 8264.67,1926.5 8264.5,1854.5 8264,1782.5C 8264.3,1734.96 8240.8,1711.3 8193.5,1711.5C 8183.76,1712.06 8174.1,1713.22 8164.5,1715C 8155.15,1718.18 8146.15,1722.18 8137.5,1727C 8130.48,1732.03 8123.48,1737.03 8116.5,1742C 8111.29,1747.54 8106.46,1753.38 8102,1759.5C 8101.5,1839.17 8101.33,1918.83 8101.5,1998.5C 8080.83,1998.5 8060.17,1998.5 8039.5,1998.5C 8039.5,1887.17 8039.5,1775.83 8039.5,1664.5C 8060.17,1664.5 8080.83,1664.5 8101.5,1664.5C 8101.33,1679.5 8101.5,1694.5 8102,1709.5C 8124.23,1683.62 8152.07,1666.79 8185.5,1659C 8196.21,1656.71 8206.88,1655.21 8217.5,1654.5 Z"/></g>
<g><path style="opacity:1" fill="#040101" d="M 8702.5,1654.5 C 8749.13,1655.4 8786.3,1674.4 8814,1711.5C 8814.5,1695.84 8814.67,1680.17 8814.5,1664.5C 8835.17,1664.5 8855.83,1664.5 8876.5,1664.5C 8876.67,1777.17 8876.5,1889.83 8876,2002.5C 8873.82,2038.48 8860.32,2069.32 8835.5,2095C 8828.68,2098.58 8822.35,2102.91 8816.5,2108C 8793.77,2120.58 8769.43,2128.58 8743.5,2132C 8700.8,2137.66 8659.46,2132.66 8619.5,2117C 8605.91,2109.39 8592.91,2101.05 8580.5,2092C 8577.98,2089.65 8575.65,2087.15 8573.5,2084.5C 8581.18,2073.13 8588.35,2061.47 8595,2049.5C 8598.02,2045.98 8600.86,2042.31 8603.5,2038.5C 8608.66,2044.49 8614.32,2049.99 8620.5,2055C 8639.05,2069.24 8660.05,2077.91 8683.5,2081C 8712.48,2085.53 8740.48,2082.19 8767.5,2071C 8798.35,2052.82 8813.85,2025.66 8814,1989.5C 8814.67,1974.83 8814.67,1960.17 8814,1945.5C 8804.11,1955.72 8793.94,1965.56 8783.5,1975C 8768.78,1985.14 8752.78,1992.81 8735.5,1998C 8678.51,2009.11 8630.67,1993.28 8592,1950.5C 8584.48,1938.8 8577.48,1926.8 8571,1914.5C 8550.7,1857.95 8550.37,1801.28 8570,1744.5C 8595.66,1687.25 8639.82,1657.25 8702.5,1654.5 Z M 8712.5,1711.5 C 8749.44,1710.2 8780.61,1722.86 8806,1749.5C 8808.91,1752.99 8811.58,1756.66 8814,1760.5C 8814.99,1806.25 8814.66,1851.92 8813,1897.5C 8789.67,1927.58 8758.84,1943.58 8720.5,1945.5C 8684.12,1944.07 8656.29,1928.07 8637,1897.5C 8617.67,1855.83 8616,1813.5 8632,1770.5C 8647.59,1735.31 8674.42,1715.64 8712.5,1711.5 Z"/></g>
<g><path style="opacity:1" fill="#040101" d="M 6322.5,2076.5 C 6323.17,2075.5 6323.83,2074.5 6324.5,2073.5C 6343.89,2080.83 6362.89,2080 6381.5,2071C 6388.87,2064.3 6394.71,2056.46 6399,2047.5C 6404.8,2031.87 6411.3,2016.53 6418.5,2001.5C 6412.12,1988.2 6406.62,1974.53 6402,1960.5C 6361.2,1862.27 6321.04,1763.93 6281.5,1665.5C 6303.83,1664.17 6326.17,1664.17 6348.5,1665.5C 6383.43,1751.64 6417.77,1837.97 6451.5,1924.5C 6486.28,1838.34 6520.78,1752.01 6555,1665.5C 6577.76,1664.34 6600.59,1664.17 6623.5,1665C 6570.35,1792.15 6517.85,1919.65 6466,2047.5C 6459.39,2063.39 6451.72,2078.72 6443,2093.5C 6435.47,2100.69 6427.97,2107.86 6420.5,2115C 6386.35,2134.69 6350.35,2139.03 6312.5,2128C 6315.88,2110.86 6319.22,2093.7 6322.5,2076.5 Z"/></g>
<g><path style="opacity:1" fill="#020000" d="M 7725.5,1664.5 C 7746.5,1664.5 7767.5,1664.5 7788.5,1664.5C 7788.5,1775.83 7788.5,1887.17 7788.5,1998.5C 7767.5,1998.5 7746.5,1998.5 7725.5,1998.5C 7725.5,1887.17 7725.5,1775.83 7725.5,1664.5 Z"/></g>
<g><path style="opacity:1" fill="#a4372a" d="M 17.5,1909.5 C 17.3893,1910.12 17.056,1910.62 16.5,1911C 80.0562,1946.94 143.056,1983.6 205.5,2021C 246.997,2043.84 287.997,2067.5 328.5,2092C 331.866,2094.18 335.533,2095.52 339.5,2096C 364.633,2110.74 389.633,2125.74 414.5,2141C 419.032,2142.52 423.365,2144.52 427.5,2147C 544.833,2215.33 662.167,2283.67 779.5,2352C 783.641,2354.49 787.975,2356.49 792.5,2358C 806.374,2367.1 820.707,2375.44 835.5,2383C 849.374,2392.1 863.707,2400.44 878.5,2408C 913.665,2428.41 948.665,2449.08 983.5,2470C 1069.66,2518.91 1155.32,2568.58 1240.5,2619C 1242.5,2619.33 1244.5,2619.67 1246.5,2620C 1271.63,2634.74 1296.63,2649.74 1321.5,2665C 1323.5,2665.67 1325.5,2666.33 1327.5,2667C 1452.01,2740.09 1577.01,2812.42 1702.5,2884C 1772.44,2925.47 1842.77,2966.13 1913.5,3006C 1925.48,3013.83 1937.82,3020.99 1950.5,3027.5C 1950.17,3772.17 1949.83,4516.83 1949.5,5261.5C 1946.74,5260.62 1944.07,5259.45 1941.5,5258C 1932.67,5252.08 1923.67,5246.42 1914.5,5241C 1911.5,5240 1908.5,5239 1905.5,5238C 1811.19,5183.04 1716.86,5128.04 1622.5,5073C 1612.42,5068.12 1602.75,5062.45 1593.5,5056C 1521.58,5015.7 1450.24,4974.37 1379.5,4932C 1375.38,4930.44 1371.38,4928.61 1367.5,4926.5C 1353.25,4917.21 1338.58,4908.71 1323.5,4901C 1272.37,4871.27 1221.37,4841.27 1170.5,4811C 1164.01,4808.26 1158.01,4804.76 1152.5,4800.5C 1155.52,4635.58 1158.86,4470.08 1162.5,4304C 1162.22,4275.88 1162.22,4246.55 1162.5,4216C 1164.41,4153.25 1166.08,4090.58 1167.5,4028C 1167.4,4024.74 1167.07,4021.41 1166.5,4018C 1167.75,3988.09 1168.75,3958.09 1169.5,3928C 1169.4,3924.74 1169.07,3921.41 1168.5,3918C 1170.71,3855.13 1172.38,3792.13 1173.5,3729C 1173.4,3725.74 1173.07,3722.41 1172.5,3719C 1173.17,3706 1173.83,3693 1174.5,3680C 1174.4,3676.74 1174.07,3673.41 1173.5,3670C 1174.17,3657 1174.83,3644 1175.5,3631C 1175.4,3627.74 1175.07,3624.41 1174.5,3621C 1176.48,3541.33 1178.48,3461.67 1180.5,3382C 1180.5,3362 1180.5,3342 1180.5,3322C 1181.17,3308.67 1181.83,3295.33 1182.5,3282C 1182.4,3278.74 1182.07,3275.41 1181.5,3272C 1182.17,3259 1182.83,3246 1183.5,3233C 1183.83,3199.17 1183.83,3166.5 1183.5,3135C 1184.64,3085 1185.97,3035 1187.5,2985C 1187.39,2971.36 1187.23,2956.86 1187,2941.5C 1048.11,2860.3 908.945,2779.47 769.5,2699C 760.313,2693.8 751.147,2688.63 742,2683.5C 741.796,2690.22 741.296,2696.88 740.5,2703.5C 740.494,2725.3 740.494,2747.14 740.5,2769C 739.136,2819.96 737.803,2870.96 736.5,2922C 736.859,2925.65 737.192,2929.32 737.5,2933C 736.825,2947.14 736.159,2961.3 735.5,2975.5C 735.479,2997.28 735.479,3019.11 735.5,3041C 733.477,3127.45 731.477,3213.95 729.5,3300.5C 729.187,3337.71 729.187,3373.21 729.5,3407C 728.821,3425.96 728.155,3444.96 727.5,3464C 727.859,3467.65 728.192,3471.32 728.5,3475C 727.825,3489.14 727.159,3503.3 726.5,3517.5C 726.716,3520.96 727.049,3524.46 727.5,3528C 726.191,3578.47 724.858,3628.97 723.5,3679.5C 723.716,3682.96 724.049,3686.46 724.5,3690C 723.305,3722.79 722.305,3755.29 721.5,3787.5C 721.716,3790.96 722.049,3794.46 722.5,3798C 721.826,3812.8 721.159,3827.64 720.5,3842.5C 720.716,3845.96 721.049,3849.46 721.5,3853C 720.825,3867.47 720.159,3881.97 719.5,3896.5C 719.716,3899.96 720.049,3903.46 720.5,3907C 719.826,3921.8 719.159,3936.64 718.5,3951.5C 718.716,3954.96 719.049,3958.46 719.5,3962C 718.818,3976.62 718.151,3991.29 717.5,4006C 717.859,4009.65 718.192,4013.32 718.5,4017C 717.825,4031.14 717.159,4045.3 716.5,4059.5C 716.716,4062.96 717.049,4066.46 717.5,4070C 716.826,4084.8 716.159,4099.64 715.5,4114.5C 715.716,4117.96 716.049,4121.46 716.5,4125C 715.825,4139.47 715.159,4153.97 714.5,4168.5C 714.716,4171.96 715.049,4175.46 715.5,4179C 714.825,4193.14 714.159,4207.3 713.5,4221.5C 713.716,4224.96 714.049,4228.46 714.5,4232C 713.826,4246.8 713.159,4261.64 712.5,4276.5C 712.716,4279.96 713.049,4283.46 713.5,4287C 712.825,4301.47 712.159,4315.97 711.5,4330.5C 711.716,4333.96 712.049,4337.46 712.5,4341C 711.825,4355.47 711.159,4369.97 710.5,4384.5C 710.716,4387.96 711.049,4391.46 711.5,4395C 709.859,4445.09 708.859,4495.26 708.5,4545.5C 578.067,4469.44 447.401,4393.61 316.5,4318C 310.112,4314.14 303.446,4310.81 296.5,4308C 282.626,4298.9 268.293,4290.56 253.5,4283C 239.626,4273.9 225.293,4265.56 210.5,4258C 173.199,4236.01 135.866,4214.01 98.5,4192C 96.5,4191.67 94.5,4191.33 92.5,4191C 67.1196,4175.93 41.7863,4160.76 16.5,4145.5C 16.1667,3772.83 15.8333,3400.17 15.5,3027.5C 15.5,2654.5 16.1667,2281.83 17.5,1909.5 Z"/></g>
<g><path style="opacity:1" fill="#b84943" d="M 3886.5,1911.5 C 3886.17,2656.07 3886.5,3400.57 3887.5,4145C 3862.63,4159.93 3837.63,4174.6 3812.5,4189C 3799.12,4194.72 3786.45,4201.72 3774.5,4210C 3761.34,4216.5 3748.67,4223.84 3736.5,4232C 3719.54,4241.15 3702.87,4250.81 3686.5,4261C 3684.5,4261.67 3682.5,4262.33 3680.5,4263C 3641.11,4286.7 3601.45,4310.03 3561.5,4333C 3547.41,4340.22 3533.74,4348.22 3520.5,4357C 3517.76,4357.8 3515.09,4358.8 3512.5,4360C 3487.5,4375 3462.5,4390 3437.5,4405C 3435.5,4405.67 3433.5,4406.33 3431.5,4407C 3396.34,4427.41 3361.34,4448.08 3326.5,4469C 3320.11,4472.86 3313.45,4476.19 3306.5,4479C 3292.63,4488.1 3278.29,4496.44 3263.5,4504C 3252.08,4512.04 3240.08,4519.04 3227.5,4525C 3140.32,4576.42 3052.66,4627.09 2964.5,4677C 2944.5,4689 2924.5,4701 2904.5,4713C 2890.65,4719.26 2877.31,4726.6 2864.5,4735C 2850.37,4742.23 2836.71,4750.23 2823.5,4759C 2808.04,4766.9 2793.04,4775.56 2778.5,4785C 2773.97,4786.52 2769.63,4788.52 2765.5,4791C 2745.48,4803.03 2725.48,4815.03 2705.5,4827C 2658.5,4853.83 2611.5,4880.66 2564.5,4907.5C 2564.17,4740.83 2564.5,4574.17 2565.5,4407.5C 2632.56,4369.13 2699.23,4329.96 2765.5,4290C 2778.96,4283.1 2791.96,4275.44 2804.5,4267C 2846.67,4243.5 2888.33,4219.16 2929.5,4194C 2932.25,4192.25 2935.25,4191.25 2938.5,4191C 2963.07,4175.81 2987.74,4160.81 3012.5,4146C 3026.63,4138.77 3040.29,4130.77 3053.5,4122C 3094.99,4098.76 3135.99,4074.76 3176.5,4050C 3355.91,3945.55 3535.08,3840.71 3714,3735.5C 3714.27,3650.68 3713.43,3560.18 3711.5,3464C 3712.12,3457.91 3712.46,3451.75 3712.5,3445.5C 3711.85,3422.28 3711.18,3399.12 3710.5,3376C 3711.12,3369.91 3711.46,3363.75 3711.5,3357.5C 3710.85,3334.28 3710.18,3311.12 3709.5,3288C 3710.12,3281.91 3710.46,3275.75 3710.5,3269.5C 3709.85,3246.28 3709.18,3223.12 3708.5,3200C 3709.12,3193.91 3709.46,3187.75 3709.5,3181.5C 3708.85,3158.95 3708.18,3136.45 3707.5,3114C 3708.12,3107.91 3708.46,3101.75 3708.5,3095.5C 3707.85,3072.28 3707.18,3049.12 3706.5,3026C 3707.23,3019.76 3707.56,3013.43 3707.5,3007C 3706.85,2983.95 3706.19,2960.95 3705.5,2938C 3706.23,2931.76 3706.56,2925.43 3706.5,2919C 3705.85,2895.95 3705.19,2872.95 3704.5,2850C 3705.12,2843.91 3705.46,2837.75 3705.5,2831.5C 3704.85,2808.28 3704.18,2785.12 3703.5,2762C 3704.23,2755.76 3704.56,2749.43 3704.5,2743C 3703.85,2719.95 3703.19,2696.95 3702.5,2674C 3703.23,2667.76 3703.56,2661.43 3703.5,2655C 3701.74,2552.57 3700.24,2451.07 3699,2350.5C 3567.95,2426.95 3436.45,2502.78 3304.5,2578C 3296.34,2583.58 3288,2588.92 3279.5,2594C 3264.54,2601.81 3249.87,2610.15 3235.5,2619C 3233.83,2619.33 3232.17,2619.67 3230.5,2620C 3205.04,2634.82 3179.7,2649.82 3154.5,2665C 3152.5,2665.67 3150.5,2666.33 3148.5,2667C 3134.63,2676.1 3120.29,2684.44 3105.5,2692C 3089.13,2702.19 3072.46,2711.85 3055.5,2721C 2904.26,2809.45 2752.59,2897.12 2600.5,2984C 2567.43,3004.07 2534.09,3023.73 2500.5,3043C 2496.37,3045.48 2492.03,3047.48 2487.5,3049C 2462.63,3064.26 2437.63,3079.26 2412.5,3094C 2385.51,3108.83 2358.84,3124.16 2332.5,3140C 2328.72,3142.22 2324.72,3143.89 2320.5,3145C 2277.46,3170.52 2234.13,3195.52 2190.5,3220C 2187.67,3222.25 2184.67,3224.25 2181.5,3226C 2180.94,3226.72 2180.61,3227.56 2180.5,3228.5C 2181.43,3862.13 2181.76,4495.47 2181.5,5128.5C 2171.35,5135.41 2160.69,5141.58 2149.5,5147C 2135.63,5156.1 2121.29,5164.44 2106.5,5172C 2086.07,5184.76 2065.41,5197.1 2044.5,5209C 2029.71,5216.56 2015.37,5224.9 2001.5,5234C 1983.89,5242.56 1966.72,5252.06 1950,5262.5C 1949.6,5262.27 1949.43,5261.94 1949.5,5261.5C 1949.83,4516.83 1950.17,3772.17 1950.5,3027.5C 2099.07,2942.21 2247.4,2856.38 2395.5,2770C 2481.16,2721.17 2566.49,2671.84 2651.5,2622C 2655.03,2620.29 2658.7,2618.96 2662.5,2618C 2687.63,2603.26 2712.63,2588.26 2737.5,2573C 2742.03,2571.48 2746.37,2569.48 2750.5,2567C 2787.5,2544.5 2824.84,2522.5 2862.5,2501C 2864.5,2500.33 2866.5,2499.67 2868.5,2499C 2893.4,2483.72 2918.4,2468.72 2943.5,2454C 2947.98,2452.26 2952.32,2450.26 2956.5,2448C 2967.91,2439.96 2979.91,2432.96 2992.5,2427C 3029.83,2405 3067.17,2383 3104.5,2361C 3108.75,2358.81 3113.08,2356.81 3117.5,2355C 3131.37,2345.9 3145.71,2337.56 3160.5,2330C 3210.5,2300.67 3260.5,2271.33 3310.5,2242C 3325.29,2234.44 3339.63,2226.1 3353.5,2217C 3368.96,2209.1 3383.96,2200.44 3398.5,2191C 3406.25,2188.23 3413.25,2184.23 3419.5,2179C 3466.79,2153.02 3513.46,2126.02 3559.5,2098C 3563.03,2096.29 3566.7,2094.96 3570.5,2094C 3586.87,2083.81 3603.54,2074.15 3620.5,2065C 3668.32,2037.26 3715.99,2009.26 3763.5,1981C 3778.93,1973.12 3793.93,1964.45 3808.5,1955C 3823.29,1947.44 3837.63,1939.1 3851.5,1930C 3863.51,1924.33 3875.17,1918.17 3886.5,1911.5 Z"/></g>
<g><path style="opacity:1" fill="#060201" d="M 9156.5,1918.5 C 9179.07,1919.92 9193.9,1931.25 9201,1952.5C 9203.88,1971.58 9197.71,1987.08 9182.5,1999C 9158.12,2011.28 9137.62,2006.78 9121,1985.5C 9110.34,1964.35 9113.18,1945.51 9129.5,1929C 9137.57,1922.82 9146.57,1919.32 9156.5,1918.5 Z"/></g>
<g><path style="opacity:1" fill="#050201" d="M 9473.5,1918.5 C 9496.07,1919.92 9510.9,1931.25 9518,1952.5C 9520.88,1971.58 9514.71,1987.08 9499.5,1999C 9475.12,2011.28 9454.62,2006.78 9438,1985.5C 9432.34,1973.35 9431.01,1960.68 9434,1947.5C 9438.41,1935.42 9446.58,1926.92 9458.5,1922C 9463.55,1920.43 9468.55,1919.26 9473.5,1918.5 Z"/></g>
<g><path style="opacity:1" fill="#050201" d="M 9789.5,1918.5 C 9812.47,1919.38 9827.3,1930.71 9834,1952.5C 9835.89,1963.47 9834.22,1973.81 9829,1983.5C 9822.7,1995.41 9812.87,2002.58 9799.5,2005C 9773.12,2007.91 9756.29,1996.74 9749,1971.5C 9745.69,1940.74 9759.19,1923.07 9789.5,1918.5 Z"/></g>
<g><path style="opacity:0.651" fill="#9d3a2e" d="M 6324.5,2073.5 C 6323.83,2074.5 6323.17,2075.5 6322.5,2076.5C 6322.24,2075.02 6322.57,2073.69 6323.5,2072.5C 6324.11,2072.62 6324.44,2072.96 6324.5,2073.5 Z"/></g>
<g><path style="opacity:1" fill="#fefefe" d="M 2564.5,4907.5 C 2437.08,4981.58 2309.41,5055.25 2181.5,5128.5C 2181.76,4495.47 2181.43,3862.13 2180.5,3228.5C 2180.61,3227.56 2180.94,3226.72 2181.5,3226C 2184.67,3224.25 2187.67,3222.25 2190.5,3220C 2234.13,3195.52 2277.46,3170.52 2320.5,3145C 2324.72,3143.89 2328.72,3142.22 2332.5,3140C 2358.84,3124.16 2385.51,3108.83 2412.5,3094C 2437.63,3079.26 2462.63,3064.26 2487.5,3049C 2492.03,3047.48 2496.37,3045.48 2500.5,3043C 2534.09,3023.73 2567.43,3004.07 2600.5,2984C 2752.59,2897.12 2904.26,2809.45 3055.5,2721C 3072.46,2711.85 3089.13,2702.19 3105.5,2692C 3120.29,2684.44 3134.63,2676.1 3148.5,2667C 3150.5,2666.33 3152.5,2665.67 3154.5,2665C 3179.7,2649.82 3205.04,2634.82 3230.5,2620C 3232.17,2619.67 3233.83,2619.33 3235.5,2619C 3249.87,2610.15 3264.54,2601.81 3279.5,2594C 3288,2588.92 3296.34,2583.58 3304.5,2578C 3436.45,2502.78 3567.95,2426.95 3699,2350.5C 3700.24,2451.07 3701.74,2552.57 3703.5,2655C 3703.56,2661.43 3703.23,2667.76 3702.5,2674C 3703.19,2696.95 3703.85,2719.95 3704.5,2743C 3704.56,2749.43 3704.23,2755.76 3703.5,2762C 3704.18,2785.12 3704.85,2808.28 3705.5,2831.5C 3705.46,2837.75 3705.12,2843.91 3704.5,2850C 3705.19,2872.95 3705.85,2895.95 3706.5,2919C 3706.56,2925.43 3706.23,2931.76 3705.5,2938C 3706.19,2960.95 3706.85,2983.95 3707.5,3007C 3707.56,3013.43 3707.23,3019.76 3706.5,3026C 3707.18,3049.12 3707.85,3072.28 3708.5,3095.5C 3708.46,3101.75 3708.12,3107.91 3707.5,3114C 3708.18,3136.45 3708.85,3158.95 3709.5,3181.5C 3709.46,3187.75 3709.12,3193.91 3708.5,3200C 3709.18,3223.12 3709.85,3246.28 3710.5,3269.5C 3710.46,3275.75 3710.12,3281.91 3709.5,3288C 3710.18,3311.12 3710.85,3334.28 3711.5,3357.5C 3711.46,3363.75 3711.12,3369.91 3710.5,3376C 3711.18,3399.12 3711.85,3422.28 3712.5,3445.5C 3712.46,3451.75 3712.12,3457.91 3711.5,3464C 3713.43,3560.18 3714.27,3650.68 3714,3735.5C 3535.08,3840.71 3355.91,3945.55 3176.5,4050C 3135.99,4074.76 3094.99,4098.76 3053.5,4122C 3040.29,4130.77 3026.63,4138.77 3012.5,4146C 2987.74,4160.81 2963.07,4175.81 2938.5,4191C 2935.25,4191.25 2932.25,4192.25 2929.5,4194C 2888.33,4219.16 2846.67,4243.5 2804.5,4267C 2791.96,4275.44 2778.96,4283.1 2765.5,4290C 2699.23,4329.96 2632.56,4369.13 2565.5,4407.5C 2564.5,4574.17 2564.17,4740.83 2564.5,4907.5 Z"/></g>
<g><path style="opacity:1" fill="#a3372a" d="M 5100.5,2418.5 C 5228.5,2418.5 5356.5,2418.5 5484.5,2418.5C 5484.83,3048.33 5484.5,3678 5483.5,4307.5C 5355.33,4307.83 5227.33,4307.5 5099.5,4306.5C 5099.17,3677.1 5099.5,3047.76 5100.5,2418.5 Z"/></g>
<g><path style="opacity:1" fill="#a3372a" d="M 7069.5,2418.5 C 7335.51,2418.03 7601.51,2418.53 7867.5,2420C 7905.59,2421.9 7943.59,2424.9 7981.5,2429C 8048.64,2438.16 8113.97,2454.16 8177.5,2477C 8214.01,2491.42 8249.01,2508.76 8282.5,2529C 8340.4,2565.98 8389.24,2612.48 8429,2668.5C 8466.91,2727.2 8492.91,2790.86 8507,2859.5C 8519.07,2915.29 8524.57,2971.46 8523.5,3028C 8525.3,3125.72 8507.47,3219.55 8470,3309.5C 8447.86,3356.66 8419.19,3399.33 8384,3437.5C 8338.17,3484.24 8285.33,3521.08 8225.5,3548C 8179.82,3567.12 8132.82,3582.45 8084.5,3594C 8010.92,3608.99 7936.58,3617.32 7861.5,3619C 7725.83,3619.5 7590.17,3619.67 7454.5,3619.5C 7454.5,3849.17 7454.5,4078.83 7454.5,4308.5C 7326.17,4308.5 7197.83,4308.5 7069.5,4308.5C 7069.5,3678.5 7069.5,3048.5 7069.5,2418.5 Z M 7454.5,2739.5 C 7574.84,2739.04 7695.18,2739.54 7815.5,2741C 7870.63,2743.07 7923.96,2753.74 7975.5,2773C 8044.13,2801.97 8089.3,2852.14 8111,2923.5C 8129,2995.17 8129,3066.84 8111,3138.5C 8087.69,3210.48 8040.19,3258.65 7968.5,3283C 7925.71,3295.4 7882.05,3302.4 7837.5,3304C 7709.84,3305.44 7582.17,3305.94 7454.5,3305.5C 7454.5,3116.83 7454.5,2928.17 7454.5,2739.5 Z"/></g>
<g><path style="opacity:1" fill="#a3372a" d="M 12734.5,4306.5 C 12591.3,4307.5 12448,4307.83 12304.5,4307.5C 12280.8,4270.58 12257.6,4233.25 12235,4195.5C 12233.2,4192.96 12231.2,4190.62 12229,4188.5C 12194.8,4132.86 12160.2,4077.53 12125,4022.5C 12115.6,4007.43 12106.6,3992.09 12098,3976.5C 12089.2,3964.37 12081.2,3951.7 12074,3938.5C 12026.9,3864.68 11980.6,3790.35 11935,3715.5C 11933.3,3713.98 11931.8,3712.32 11930.5,3710.5C 11889.3,3748.9 11848.4,3787.9 11808,3827.5C 11807.5,3987.83 11807.3,4148.17 11807.5,4308.5C 11680.2,4308.5 11552.8,4308.5 11425.5,4308.5C 11425.5,3678.5 11425.5,3048.5 11425.5,2418.5C 11552.8,2418.5 11680.2,2418.5 11807.5,2418.5C 11807.3,2745.83 11807.5,3073.17 11808,3400.5C 11935.1,3269.04 12062.5,3138.04 12190,3007.5C 12201.1,2995.39 12212.6,2983.56 12224.5,2972C 12380.6,2971 12536.6,2971.34 12692.5,2973C 12633.4,3028.8 12575,3085.13 12517.5,3142C 12509.9,3147.56 12502.9,3153.89 12496.5,3161C 12431.5,3222.69 12367.1,3285.02 12303.5,3348C 12299.2,3351.64 12294.9,3355.3 12290.5,3359C 12250.4,3399.06 12209.8,3438.39 12168.5,3477C 12212.1,3539.24 12254.9,3602.07 12297,3665.5C 12298.2,3666.74 12299.5,3667.74 12301,3668.5C 12310.4,3683.19 12319.7,3697.85 12329,3712.5C 12337.4,3723.01 12345.1,3734.01 12352,3745.5C 12373.3,3776.17 12394.7,3806.83 12416,3837.5C 12425.7,3851.86 12435,3866.52 12444,3881.5C 12452.4,3891.94 12460.1,3902.94 12467,3914.5C 12508.8,3974.31 12549.8,4034.64 12590,4095.5C 12595,4100.81 12599,4106.81 12602,4113.5C 12617,4134.83 12632,4156.17 12647,4177.5C 12650.8,4185.38 12655.8,4192.38 12662,4198.5C 12672.4,4214.19 12682.7,4229.85 12693,4245.5C 12707.3,4265.54 12721.2,4285.88 12734.5,4306.5 Z"/></g>
<g><path style="opacity:1" fill="#a3372a" d="M 15740.5,2505.5 C 15868.8,2505.33 15997.2,2505.5 16125.5,2506C 16126.5,2596.76 16126.8,2687.6 16126.5,2778.5C 15997.8,2778.5 15869.2,2778.5 15740.5,2778.5C 15740.5,2687.5 15740.5,2596.5 15740.5,2505.5 Z"/></g>
<g><path style="opacity:1" fill="#fefefe" d="M 1152.5,4800.5 C 1126.26,4785.71 1099.93,4770.88 1073.5,4756C 1052.87,4743.68 1032.2,4731.35 1011.5,4719C 996.448,4712.28 982.114,4704.28 968.5,4695C 964.833,4693.33 961.167,4691.67 957.5,4690C 943.626,4680.9 929.293,4672.56 914.5,4665C 846.262,4624.38 777.595,4584.55 708.5,4545.5C 708.859,4495.26 709.859,4445.09 711.5,4395C 711.049,4391.46 710.716,4387.96 710.5,4384.5C 711.159,4369.97 711.825,4355.47 712.5,4341C 712.049,4337.46 711.716,4333.96 711.5,4330.5C 712.159,4315.97 712.825,4301.47 713.5,4287C 713.049,4283.46 712.716,4279.96 712.5,4276.5C 713.159,4261.64 713.826,4246.8 714.5,4232C 714.049,4228.46 713.716,4224.96 713.5,4221.5C 714.159,4207.3 714.825,4193.14 715.5,4179C 715.049,4175.46 714.716,4171.96 714.5,4168.5C 715.159,4153.97 715.825,4139.47 716.5,4125C 716.049,4121.46 715.716,4117.96 715.5,4114.5C 716.159,4099.64 716.826,4084.8 717.5,4070C 717.049,4066.46 716.716,4062.96 716.5,4059.5C 717.159,4045.3 717.825,4031.14 718.5,4017C 718.192,4013.32 717.859,4009.65 717.5,4006C 718.151,3991.29 718.818,3976.62 719.5,3962C 719.049,3958.46 718.716,3954.96 718.5,3951.5C 719.159,3936.64 719.826,3921.8 720.5,3907C 720.049,3903.46 719.716,3899.96 719.5,3896.5C 720.159,3881.97 720.825,3867.47 721.5,3853C 721.049,3849.46 720.716,3845.96 720.5,3842.5C 721.159,3827.64 721.826,3812.8 722.5,3798C 722.049,3794.46 721.716,3790.96 721.5,3787.5C 722.305,3755.29 723.305,3722.79 724.5,3690C 724.049,3686.46 723.716,3682.96 723.5,3679.5C 724.858,3628.97 726.191,3578.47 727.5,3528C 727.049,3524.46 726.716,3520.96 726.5,3517.5C 727.159,3503.3 727.825,3489.14 728.5,3475C 728.192,3471.32 727.859,3467.65 727.5,3464C 728.155,3444.96 728.821,3425.96 729.5,3407C 729.187,3373.21 729.187,3337.71 729.5,3300.5C 731.477,3213.95 733.477,3127.45 735.5,3041C 735.479,3019.11 735.479,2997.28 735.5,2975.5C 736.159,2961.3 736.825,2947.14 737.5,2933C 737.192,2929.32 736.859,2925.65 736.5,2922C 737.803,2870.96 739.136,2819.96 740.5,2769C 740.494,2747.14 740.494,2725.3 740.5,2703.5C 741.296,2696.88 741.796,2690.22 742,2683.5C 751.147,2688.63 760.313,2693.8 769.5,2699C 908.945,2779.47 1048.11,2860.3 1187,2941.5C 1187.23,2956.86 1187.39,2971.36 1187.5,2985C 1185.97,3035 1184.64,3085 1183.5,3135C 1183.83,3166.5 1183.83,3199.17 1183.5,3233C 1182.83,3246 1182.17,3259 1181.5,3272C 1182.07,3275.41 1182.4,3278.74 1182.5,3282C 1181.83,3295.33 1181.17,3308.67 1180.5,3322C 1180.5,3342 1180.5,3362 1180.5,3382C 1178.48,3461.67 1176.48,3541.33 1174.5,3621C 1175.07,3624.41 1175.4,3627.74 1175.5,3631C 1174.83,3644 1174.17,3657 1173.5,3670C 1174.07,3673.41 1174.4,3676.74 1174.5,3680C 1173.83,3693 1173.17,3706 1172.5,3719C 1173.07,3722.41 1173.4,3725.74 1173.5,3729C 1172.38,3792.13 1170.71,3855.13 1168.5,3918C 1169.07,3921.41 1169.4,3924.74 1169.5,3928C 1168.75,3958.09 1167.75,3988.09 1166.5,4018C 1167.07,4021.41 1167.4,4024.74 1167.5,4028C 1166.08,4090.58 1164.41,4153.25 1162.5,4216C 1162.22,4246.55 1162.22,4275.88 1162.5,4304C 1158.86,4470.08 1155.52,4635.58 1152.5,4800.5 Z"/></g>
<g><path style="opacity:1" fill="#0c0503" d="M 19662.5,2839.5 C 19662.5,2851.17 19662.5,2862.83 19662.5,2874.5C 19630.3,2874.17 19598.3,2874.5 19566.5,2875.5C 19566.7,2958.83 19566.5,3042.17 19566,3125.5C 19559.6,3126.16 19553.1,3126.49 19546.5,3126.5C 19539.9,3126.49 19533.4,3126.16 19527,3125.5C 19526.5,3042.17 19526.3,2958.83 19526.5,2875.5C 19494.2,2875.5 19461.8,2875.5 19429.5,2875.5C 19429.5,2863.17 19429.5,2850.83 19429.5,2838.5C 19507.3,2838.17 19585,2838.5 19662.5,2839.5 Z"/></g>
<g><path style="opacity:1" fill="#060201" d="M 19988.5,2838.5 C 19988.5,2934.5 19988.5,3030.5 19988.5,3126.5C 19975.5,3126.5 19962.5,3126.5 19949.5,3126.5C 19949.7,3059.83 19949.5,2993.17 19949,2926.5C 19920.7,2973.17 19892.3,3019.83 19864,3066.5C 19854.3,3067.83 19844.7,3067.83 19835,3066.5C 19806.3,3020.1 19777.9,2973.43 19750,2926.5C 19749.8,2993 19749.3,3059.33 19748.5,3125.5C 19735.4,3125.81 19722.4,3125.48 19709.5,3124.5C 19709.5,3029.17 19709.5,2933.83 19709.5,2838.5C 19719.1,2838.18 19728.6,2838.51 19738,2839.5C 19775,2900.5 19812,2961.5 19849,3022.5C 19886.1,2961.08 19923.6,2899.92 19961.5,2839C 19970.5,2838.5 19979.5,2838.33 19988.5,2838.5 Z"/></g>
<g><path style="opacity:0.651" fill="#9c3529" d="M 19662.5,2839.5 C 19663.5,2851.32 19663.8,2863.32 19663.5,2875.5C 19631.2,2875.5 19598.8,2875.5 19566.5,2875.5C 19598.3,2874.5 19630.3,2874.17 19662.5,2874.5C 19662.5,2862.83 19662.5,2851.17 19662.5,2839.5 Z"/></g>
<g><path style="opacity:1" fill="#a3372a" d="M 6404.5,2926.5 C 6481.64,2922.06 6556.98,2931.56 6630.5,2955C 6664.6,2967.24 6696.93,2982.91 6727.5,3002C 6782.72,3039.22 6826.88,3086.72 6860,3144.5C 6885.54,3190.09 6904.2,3238.43 6916,3289.5C 6927.2,3340.24 6934.2,3391.57 6937,3443.5C 6938.65,3731.49 6938.98,4019.49 6938,4307.5C 6813,4308.83 6688,4308.83 6563,4307.5C 6562.83,4056.26 6562.33,3805.1 6561.5,3554C 6561,3496.21 6550.84,3440.04 6531,3385.5C 6525.26,3373.01 6519.26,3360.68 6513,3348.5C 6504.66,3336.47 6496.32,3324.47 6488,3312.5C 6478.84,3304.34 6470,3295.84 6461.5,3287C 6449.68,3278.25 6437.34,3270.25 6424.5,3263C 6368.18,3238.82 6309.85,3232.48 6249.5,3244C 6187.17,3256.44 6136.01,3286.94 6096,3335.5C 6084.94,3350.89 6074.28,3366.56 6064,3382.5C 6036.77,3435.38 6019.11,3491.38 6011,3550.5C 6007.48,3573.71 6005.15,3597.05 6004,3620.5C 6003.67,3849.5 6003.33,4078.5 6003,4307.5C 5877.57,4308.5 5752.07,4308.83 5626.5,4308.5C 5626.5,3862.83 5626.5,3417.17 5626.5,2971.5C 5742.17,2971.5 5857.83,2971.5 5973.5,2971.5C 5973.5,3026.83 5973.5,3082.17 5973.5,3137.5C 5977.18,3137.67 5980.85,3137.5 5984.5,3137C 6014.88,3100.62 6048.54,3067.62 6085.5,3038C 6171.95,2972.55 6269.45,2936.05 6378,2928.5C 6386.93,2927.85 6395.77,2927.18 6404.5,2926.5 Z"/></g>
<g><path style="opacity:1" fill="#a3372a" d="M 9184.5,2926.5 C 9285.18,2921.67 9384.51,2930.83 9482.5,2954C 9528.37,2966.06 9572.03,2983.39 9613.5,3006C 9624.83,3013.33 9636.17,3020.67 9647.5,3028C 9707.61,3071.97 9750.44,3129.14 9776,3199.5C 9786,3229.17 9793.33,3259.5 9798,3290.5C 9800.84,3314.43 9802.84,3338.43 9804,3362.5C 9804.5,3677.83 9804.67,3993.17 9804.5,4308.5C 9695.83,4308.5 9587.17,4308.5 9478.5,4308.5C 9478.5,4257.83 9478.5,4207.17 9478.5,4156.5C 9475.81,4156.34 9473.15,4156.5 9470.5,4157C 9455.12,4176.04 9438.12,4193.38 9419.5,4209C 9400.84,4223.99 9381.51,4237.99 9361.5,4251C 9291.57,4290.87 9216.57,4316.2 9136.5,4327C 9030.58,4342.02 8925.91,4336.02 8822.5,4309C 8767.38,4292.48 8717.38,4266.48 8672.5,4231C 8621.75,4187.72 8586.92,4133.89 8568,4069.5C 8542.71,3974.77 8545.04,3880.77 8575,3787.5C 8592.19,3742.7 8617.02,3702.86 8649.5,3668C 8650.5,3667.67 8651.5,3667.33 8652.5,3667C 8662.23,3656.6 8672.56,3646.93 8683.5,3638C 8701.31,3624.59 8719.64,3611.93 8738.5,3600C 8754.5,3591.67 8770.5,3583.33 8786.5,3575C 8806.5,3567 8826.5,3559 8846.5,3551C 8912.6,3530.03 8979.94,3514.03 9048.5,3503C 9145.86,3489.3 9243.53,3478.3 9341.5,3470C 9374.58,3466.41 9407.58,3462.24 9440.5,3457.5C 9440.67,3426.5 9440.5,3395.5 9440,3364.5C 9439.42,3340.66 9437.09,3316.99 9433,3293.5C 9422.65,3248.18 9397.48,3214.02 9357.5,3191C 9324.37,3174.97 9289.37,3165.97 9252.5,3164C 9208.39,3160.08 9164.39,3161.08 9120.5,3167C 9087.26,3172.74 9056.59,3184.74 9028.5,3203C 9019.24,3210.24 9010.4,3218.07 9002,3226.5C 8996.33,3234.17 8990.67,3241.83 8985,3249.5C 8963.27,3290.61 8953.1,3334.44 8954.5,3381C 8842.17,3381.5 8729.83,3381.67 8617.5,3381.5C 8616.53,3305.83 8632.7,3234.17 8666,3166.5C 8680.08,3142.1 8696.08,3119.1 8714,3097.5C 8722.11,3089.72 8729.95,3081.55 8737.5,3073C 8744.43,3068.07 8750.76,3062.41 8756.5,3056C 8770.19,3045.31 8784.19,3034.98 8798.5,3025C 8812.14,3016.51 8826.14,3008.51 8840.5,3001C 8882.97,2981.06 8926.97,2965.06 8972.5,2953C 9042.39,2936.76 9113.06,2927.93 9184.5,2926.5 Z M 9433.5,3690.5 C 9435.83,3690.5 9438.17,3690.5 9440.5,3690.5C 9440.67,3721.17 9440.5,3751.84 9440,3782.5C 9438.1,3820.62 9430.77,3857.62 9418,3893.5C 9413.55,3903.63 9409.55,3913.96 9406,3924.5C 9399.65,3935.87 9393.32,3947.2 9387,3958.5C 9379.55,3969.08 9371.89,3979.42 9364,3989.5C 9354.56,3997.94 9345.39,4006.78 9336.5,4016C 9288.98,4052.74 9234.98,4073.41 9174.5,4078C 9131.48,4082.25 9088.81,4079.92 9046.5,4071C 9012.17,4062.26 8982,4046.09 8956,4022.5C 8927.85,3990.31 8915.18,3952.64 8918,3909.5C 8919.73,3883.66 8927.06,3859.66 8940,3837.5C 8945.72,3830.78 8951.05,3823.78 8956,3816.5C 8965.85,3807.65 8976.02,3799.15 8986.5,3791C 9015.11,3772.9 9045.78,3759.23 9078.5,3750C 9128.85,3736.4 9179.85,3725.73 9231.5,3718C 9299.1,3709.79 9366.43,3700.63 9433.5,3690.5 Z"/></g>
<g><path style="opacity:1" fill="#a3372a" d="M 10602.5,2926.5 C 10696.9,2922.07 10789.9,2931.24 10881.5,2954C 10906.3,2961.61 10931,2969.61 10955.5,2978C 10972,2985.15 10988.3,2992.48 11004.5,3000C 11019.9,3008.7 11035.2,3017.37 11050.5,3026C 11063.2,3035.02 11075.9,3044.02 11088.5,3053C 11097.5,3061.14 11106.8,3068.81 11116.5,3076C 11124,3084.32 11132,3092.16 11140.5,3099.5C 11148.2,3108.92 11156.4,3117.92 11165,3126.5C 11169.5,3134.54 11175.2,3141.54 11182,3147.5C 11234,3221.06 11266.7,3302.73 11280,3392.5C 11282.5,3412.45 11284.3,3432.45 11285.5,3452.5C 11166.2,3452.67 11046.8,3452.5 10927.5,3452C 10923.6,3420.64 10917.1,3389.81 10908,3359.5C 10874.6,3264.12 10807.8,3208.62 10707.5,3193C 10659.8,3186.76 10612.1,3187.09 10564.5,3194C 10539.8,3198.92 10515.8,3206.25 10492.5,3216C 10464.9,3229.89 10440.4,3248.06 10419,3270.5C 10398.9,3294.31 10382.6,3320.65 10370,3349.5C 10360.1,3374.23 10352.1,3399.56 10346,3425.5C 10329,3512.39 10323,3600.06 10328,3688.5C 10330.2,3752.45 10340.2,3815.11 10358,3876.5C 10370.9,3917.01 10390.6,3953.68 10417,3986.5C 10450.3,4023.26 10491.2,4047.93 10539.5,4060.5C 10572.1,4069.06 10605.3,4073.06 10639,4072.5C 10694.4,4073.89 10746.9,4062.39 10796.5,4038C 10838.3,4013.54 10869.8,3979.38 10891,3935.5C 10900.3,3914.8 10908,3893.47 10914,3871.5C 10919.7,3844.35 10924.2,3817.02 10927.5,3789.5C 11046.8,3788.5 11166.2,3788.17 11285.5,3788.5C 11282.1,3879.33 11260.3,3965.33 11220,4046.5C 11215.2,4053.73 11211.2,4061.39 11208,4069.5C 11197.3,4085.5 11186.7,4101.5 11176,4117.5C 11164.3,4132.32 11152.2,4146.66 11139.5,4160.5C 11129.7,4169.18 11120.3,4178.34 11111.5,4188C 11103,4192.83 11095.3,4198.83 11088.5,4206C 11049,4235.74 11006.4,4260.41 10960.5,4280C 10857.7,4318.32 10751.4,4336.48 10641.5,4334.5C 10532,4336.23 10425.6,4318.4 10322.5,4281C 10307.6,4274.06 10292.6,4267.39 10277.5,4261C 10262.1,4252.65 10246.8,4244.32 10231.5,4236C 10219.5,4228 10207.5,4220 10195.5,4212C 10188.2,4206 10180.8,4200 10173.5,4194C 10171.5,4192.25 10169.2,4191.25 10166.5,4191C 10108,4140.51 10061.2,4081.01 10026,4012.5C 9999.8,3959.59 9980.14,3904.25 9967,3846.5C 9935.69,3701.83 9935.69,3557.16 9967,3412.5C 9980.92,3352.73 10001.6,3295.39 10029,3240.5C 10092.9,3122.89 10186.4,3037.72 10309.5,2985C 10404.1,2948.19 10501.7,2928.69 10602.5,2926.5 Z"/></g>
<g><path style="opacity:1" fill="#a3372a" d="M 13148.5,3377.5 C 13146.8,3378.01 13146.4,3378.84 13147.5,3380C 13035.5,3380.5 12923.5,3380.67 12811.5,3380.5C 12809.9,3306.11 12825.4,3235.45 12858,3168.5C 12871.4,3145.93 12886.1,3124.26 12902,3103.5C 12909.1,3097.1 12915.4,3090.1 12921,3082.5C 12955.2,3049.5 12993.3,3022 13035.5,3000C 13095.9,2971.3 13159.3,2951.64 13225.5,2941C 13304.3,2928.17 13383.7,2923.5 13463.5,2927C 13550.2,2927.57 13634.9,2940.9 13717.5,2967C 13729.4,2971.53 13741.4,2975.86 13753.5,2980C 13768.9,2987.35 13784.2,2994.69 13799.5,3002C 13878.8,3046.33 13935,3110.83 13968,3195.5C 13978.3,3225.82 13986,3256.82 13991,3288.5C 13993.7,3311.44 13995.7,3334.44 13997,3357.5C 13997.5,3674.5 13997.7,3991.5 13997.5,4308.5C 13888.8,4308.5 13780.2,4308.5 13671.5,4308.5C 13671.5,4257.83 13671.5,4207.17 13671.5,4156.5C 13668.8,4156.34 13666.1,4156.5 13663.5,4157C 13636.5,4190.29 13604.9,4218.29 13568.5,4241C 13558,4248.75 13547,4255.75 13535.5,4262C 13476.5,4292.64 13414.2,4313.31 13348.5,4324C 13276.8,4335.19 13204.8,4337.53 13132.5,4331C 13069.8,4324.56 13009.4,4309.23 12951.5,4285C 12893.4,4257.85 12845.2,4218.68 12807,4167.5C 12782,4129.51 12764.7,4088.18 12755,4043.5C 12736.7,3957.32 12741.1,3872.32 12768,3788.5C 12784.3,3744.72 12808.2,3705.72 12839.5,3671.5C 12881.2,3630.63 12928.8,3598.13 12982.5,3574C 13028.9,3554.38 13076.6,3538.38 13125.5,3526C 13168.3,3516.48 13211.3,3508.15 13254.5,3501C 13353.6,3487.63 13452.9,3476.63 13552.5,3468C 13579.6,3464.91 13606.6,3461.41 13633.5,3457.5C 13633.7,3424.17 13633.5,3390.83 13633,3357.5C 13632.3,3330.72 13628.7,3304.39 13622,3278.5C 13607,3232.81 13577.1,3200.98 13532.5,3183C 13500.7,3170.31 13467.7,3163.65 13433.5,3163C 13393.4,3160.27 13353.4,3161.61 13313.5,3167C 13284.7,3171.94 13257.7,3181.6 13232.5,3196C 13219.7,3205.11 13207.6,3214.94 13196,3225.5C 13190.3,3233.17 13184.7,3240.83 13179,3248.5C 13157.1,3288.63 13146.9,3331.63 13148.5,3377.5 Z M 13626.5,3690.5 C 13628.8,3690.5 13631.2,3690.5 13633.5,3690.5C 13633.7,3722.17 13633.5,3753.84 13633,3785.5C 13629.7,3844.33 13613.7,3899.33 13585,3950.5C 13580.2,3958.81 13574.8,3966.81 13569,3974.5C 13561.9,3982.31 13555.1,3990.31 13548.5,3998.5C 13540.1,4005.9 13531.7,4013.4 13523.5,4021C 13477.2,4054.78 13425.2,4073.78 13367.5,4078C 13324.5,4082.25 13281.8,4079.92 13239.5,4071C 13211.3,4063.71 13185.6,4051.38 13162.5,4034C 13143.1,4018 13128.9,3998.17 13120,3974.5C 13104.9,3927.74 13108.9,3882.74 13132,3839.5C 13149.1,3815.09 13170.6,3795.59 13196.5,3781C 13228.1,3765 13261.1,3752.34 13295.5,3743C 13338.2,3733.06 13381.2,3724.72 13424.5,3718C 13492.1,3709.64 13559.4,3700.47 13626.5,3690.5 Z"/></g>
<g><path style="opacity:1" fill="#a3372a" d="M 14728.5,2926.5 C 14828.8,2921.27 14924.8,2938.77 15016.5,2979C 15039.2,2991.01 15061.5,3003.51 15083.5,3016.5C 15122.3,3041.77 15157,3071.94 15187.5,3107C 15190.5,3107.5 15193.5,3107.66 15196.5,3107.5C 15196.5,3062.17 15196.5,3016.83 15196.5,2971.5C 15305.2,2971.5 15413.8,2971.5 15522.5,2971.5C 15523,3424.84 15522.5,3878.17 15521,4331.5C 15518.8,4412.11 15502.2,4489.44 15471,4563.5C 15450.2,4607.24 15423.6,4646.91 15391,4682.5C 15379.7,4693.01 15368.5,4703.68 15357.5,4714.5C 15348.1,4720.04 15339.5,4726.54 15331.5,4734C 15317.8,4743.39 15303.8,4752.39 15289.5,4761C 15274.2,4769 15258.8,4777 15243.5,4785C 15226.9,4791.65 15210.2,4798.32 15193.5,4805C 15159.6,4816.05 15125.3,4825.38 15090.5,4833C 14941.5,4860.25 14792.5,4860.25 14643.5,4833C 14607.8,4825.33 14572.8,4815.33 14538.5,4803C 14524.5,4796.99 14510.5,4790.99 14496.5,4785C 14469.5,4771.01 14443.8,4755.01 14419.5,4737C 14411.2,4730.71 14403.5,4723.71 14396.5,4716C 14395.1,4715.6 14393.8,4715.1 14392.5,4714.5C 14370.2,4693.07 14350.7,4669.4 14334,4643.5C 14305.1,4594.86 14286.1,4542.52 14277,4486.5C 14272.3,4461.44 14269.8,4436.28 14269.5,4411C 14387.2,4410.5 14504.8,4410.33 14622.5,4410.5C 14625.2,4430.31 14628.7,4449.98 14633,4469.5C 14642,4498.66 14656.5,4524.49 14676.5,4547C 14684.5,4553.33 14692.5,4559.67 14700.5,4566C 14735.4,4586.14 14773,4597.14 14813.5,4599C 14863.6,4603.09 14913.2,4600.42 14962.5,4591C 14986,4584.84 15008.6,4576.51 15030.5,4566C 15068.7,4544.46 15097.2,4513.96 15116,4474.5C 15127.6,4448.72 15135.3,4421.72 15139,4393.5C 15141.4,4377.58 15143.1,4361.58 15144,4345.5C 15145.4,4278.18 15145.9,4210.84 15145.5,4143.5C 15141.7,4143.16 15138,4143.66 15134.5,4145C 15126.2,4152.81 15117.5,4160.14 15108.5,4167C 15065.5,4196.69 15019.1,4220.35 14969.5,4238C 14937.8,4248.02 14905.4,4255.68 14872.5,4261C 14799,4270.39 14725.7,4269.39 14652.5,4258C 14569.9,4243.06 14493.9,4212.73 14424.5,4167C 14415.2,4160.05 14406.2,4152.71 14397.5,4145C 14395.8,4144.53 14394.1,4143.86 14392.5,4143C 14381.6,4132.28 14370.3,4122.11 14358.5,4112.5C 14351.9,4104.04 14344.4,4096.38 14336,4089.5C 14323.5,4075.2 14311.5,4060.53 14300,4045.5C 14243.6,3966.64 14205.6,3879.31 14186,3783.5C 14160.8,3657.37 14161.5,3531.37 14188,3405.5C 14208.1,3312.62 14245.1,3227.28 14299,3149.5C 14301,3146.17 14303.7,3143.5 14307,3141.5C 14309.1,3137.66 14311.4,3134 14314,3130.5C 14391.5,3033.78 14491,2970.94 14612.5,2942C 14650.8,2932.88 14689.5,2927.71 14728.5,2926.5 Z M 14845.5,3196.5 C 14893.8,3193.15 14940.8,3199.31 14986.5,3215C 15036.5,3235.39 15076.7,3267.89 15107,3312.5C 15115,3326.23 15122.7,3340.23 15130,3354.5C 15134.1,3365.27 15138.5,3375.94 15143,3386.5C 15165.2,3456 15176.1,3527.34 15175.5,3600.5C 15175.6,3663.29 15167.4,3724.96 15151,3785.5C 15107.9,3918.18 15016.2,3984.18 14876,3983.5C 14814.2,3985.34 14756.7,3970.84 14703.5,3940C 14696.5,3934.49 14689.1,3929.49 14681.5,3925C 14673.5,3917.35 14665.2,3910.02 14656.5,3903C 14618.5,3862.16 14592,3814.66 14577,3760.5C 14564.9,3718.7 14558.3,3676.03 14557,3632.5C 14554.5,3580.55 14557.2,3528.89 14565,3477.5C 14574,3427.38 14590.7,3380.05 14615,3335.5C 14655.8,3267.33 14714.9,3223.83 14792.5,3205C 14810.1,3201.08 14827.8,3198.24 14845.5,3196.5 Z"/></g>
<g><path style="opacity:1" fill="#a3372a" d="M 17119.5,2926.5 C 17193.4,2922.32 17265.7,2930.82 17336.5,2952C 17361.7,2960.97 17386.4,2971.3 17410.5,2983C 17474.3,3018.18 17525.8,3066.35 17565,3127.5C 17573.8,3141.81 17582.2,3156.48 17590,3171.5C 17620.2,3238.35 17639.2,3308.35 17647,3381.5C 17650,3407.42 17652,3433.42 17653,3459.5C 17653.7,3742.17 17653.7,4024.83 17653,4307.5C 17528.2,4308.5 17403.4,4308.83 17278.5,4308.5C 17278.7,4066.83 17278.5,3825.17 17278,3583.5C 17279.6,3514.35 17268.6,3447.35 17245,3382.5C 17239.2,3369.51 17232.8,3356.85 17226,3344.5C 17212.7,3324.08 17197.2,3305.58 17179.5,3289C 17167.8,3281.33 17156.2,3273.67 17144.5,3266C 17091,3240.84 17035,3232.84 16976.5,3242C 16907.4,3252.79 16851.2,3285.29 16808,3339.5C 16776,3382.47 16753.4,3430.14 16740,3482.5C 16727.8,3530.04 16720.8,3578.38 16719,3627.5C 16718.5,3854.5 16718.3,4081.5 16718.5,4308.5C 16592.5,4308.5 16466.5,4308.5 16340.5,4308.5C 16340.5,3862.83 16340.5,3417.17 16340.5,2971.5C 16456.5,2971.5 16572.5,2971.5 16688.5,2971.5C 16688.5,3026.83 16688.5,3082.17 16688.5,3137.5C 16692.2,3137.67 16695.8,3137.5 16699.5,3137C 16743.2,3083.26 16794.5,3038.26 16853.5,3002C 16935.9,2955.06 17024.6,2929.9 17119.5,2926.5 Z"/></g>
<g><path style="opacity:1" fill="#a3372a" d="M 19148.5,2973.5 C 19147.8,3411.19 19147.2,3849.03 19146.5,4287C 19147.8,4288.33 19147.8,4289.67 19146.5,4291C 19146.8,4292.46 19147.5,4293.63 19148.5,4294.5C 19146.8,4328.26 19144.3,4362.92 19141,4398.5C 19132.6,4465.64 19113.3,4529.31 19083,4589.5C 19057.2,4637.63 19023.3,4679.47 18981.5,4715C 18978.9,4715.9 18976.6,4717.23 18974.5,4719C 18948.6,4740.31 18920.6,4758.64 18890.5,4774C 18851.6,4793.07 18811.3,4808.41 18769.5,4820C 18696,4838.69 18621.3,4849.36 18545.5,4852C 18449,4856.5 18353.3,4849.5 18258.5,4831C 18210.6,4819.82 18164.2,4804.16 18119.5,4784C 18104.8,4775.65 18090.1,4767.32 18075.5,4759C 18064.3,4751.24 18053.3,4743.24 18042.5,4735C 17995,4697.45 17958.8,4650.95 17934,4595.5C 17931.2,4586.91 17927.9,4578.57 17924,4570.5C 17906.6,4519.06 17896.5,4466.23 17893.5,4412C 18011.4,4410.34 18129.4,4410 18247.5,4411C 18250.3,4430.27 18253.8,4449.44 18258,4468.5C 18263.5,4484.98 18270.2,4500.98 18278,4516.5C 18299.3,4549.75 18328.8,4572.58 18366.5,4585C 18375.4,4588.13 18384.4,4590.8 18393.5,4593C 18451.7,4602.25 18510,4602.92 18568.5,4595C 18611,4587.74 18649.7,4571.74 18684.5,4547C 18715.4,4521.34 18737.6,4489.51 18751,4451.5C 18761,4418.57 18767,4384.91 18769,4350.5C 18770.4,4281.51 18770.9,4212.51 18770.5,4143.5C 18766.7,4143.16 18763,4143.66 18759.5,4145C 18753.9,4150.8 18747.9,4156.14 18741.5,4161C 18727.3,4171.25 18713,4181.25 18698.5,4191C 18694.5,4191.48 18690.9,4192.82 18687.5,4195C 18677.3,4201.25 18667,4207.25 18656.5,4213C 18611.3,4233.62 18564.3,4248.62 18515.5,4258C 18429.3,4271.69 18343.3,4270.36 18257.5,4254C 18199.1,4242.19 18144.1,4221.52 18092.5,4192C 18090,4191.71 18087.7,4191.04 18085.5,4190C 18018.1,4149.21 17961.6,4096.71 17916,4032.5C 17877.3,3976.2 17848,3915.2 17828,3849.5C 17799.5,3753.89 17788.2,3656.22 17794,3556.5C 17797.5,3464.5 17815.5,3375.5 17848,3289.5C 17855.2,3273.55 17862.2,3257.55 17869,3241.5C 17877.7,3225.5 17886.3,3209.5 17895,3193.5C 17922.2,3149.66 17954.4,3109.5 17991.5,3073C 18081.2,2990.72 18187,2942.89 18309,2929.5C 18406.5,2918.57 18501.7,2928.74 18594.5,2960C 18609.4,2966.26 18624.4,2972.26 18639.5,2978C 18706,3009.28 18764,3052.28 18813.5,3107C 18816.1,3107.5 18818.8,3107.66 18821.5,3107.5C 18821.5,3062.17 18821.5,3016.83 18821.5,2971.5C 18930.2,2971.33 19038.8,2971.5 19147.5,2972C 19148.1,2972.38 19148.4,2972.88 19148.5,2973.5 Z M 18470.5,3196.5 C 18628.1,3188.47 18729.9,3259.47 18776,3409.5C 18796.7,3487.53 18804.3,3566.86 18799,3647.5C 18796.3,3702.7 18786,3756.36 18768,3808.5C 18727.4,3913.56 18650.9,3971.39 18538.5,3982C 18487.9,3986.64 18438.3,3981.97 18389.5,3968C 18357.1,3956.95 18327.4,3940.95 18300.5,3920C 18293,3911.98 18285,3904.48 18276.5,3897.5C 18269.2,3888.35 18261.7,3879.35 18254,3870.5C 18235.3,3842.4 18220,3812.4 18208,3780.5C 18195.5,3741.19 18187.3,3701.02 18183.5,3660C 18180.5,3611.35 18181,3562.51 18185,3513.5C 18190.8,3462.79 18203.8,3414.12 18224,3367.5C 18272.8,3262.97 18354.9,3205.97 18470.5,3196.5 Z"/></g>
<g><path style="opacity:1" fill="#a3372a" d="M 15741.5,2971.5 C 15869.7,2971.17 15997.9,2971.5 16126,2972.5C 16126.8,3417.74 16126.7,3862.9 16125.5,4308C 15997.3,4308.83 15869.1,4308.67 15741,4307.5C 15740.2,3862.1 15740.3,3416.76 15741.5,2971.5 Z"/></g>
<g><path style="opacity:1" fill="#b84943" d="M 3368.5,3001.5 C 3369.67,3180.33 3369.83,3359.33 3369,3538.5C 3351.28,3548.94 3333.78,3559.78 3316.5,3571C 3313.38,3572.06 3310.38,3573.39 3307.5,3575C 3297.83,3581.33 3288.17,3587.67 3278.5,3594C 3275.58,3595.53 3272.58,3596.86 3269.5,3598C 3243.8,3614.18 3217.8,3629.85 3191.5,3645C 3181,3651.42 3170.66,3658.08 3160.5,3665C 3157.75,3666.75 3154.75,3667.75 3151.5,3668C 3029.32,3742.86 2906.65,3816.86 2783.5,3890C 2724.8,3925.68 2666.13,3961.35 2607.5,3997C 2593.09,4005.07 2578.92,4013.57 2565,4022.5C 2564.33,3843.5 2564.33,3664.5 2565,3485.5C 2752.07,3373.05 2938.91,3260.21 3125.5,3147C 3140.53,3139.98 3154.86,3131.65 3168.5,3122C 3171.42,3120.47 3174.42,3119.14 3177.5,3118C 3199.23,3103.94 3221.23,3090.27 3243.5,3077C 3259.34,3068.49 3274.67,3059.16 3289.5,3049C 3293.54,3048.1 3297.2,3046.43 3300.5,3044C 3323.37,3030.07 3346.03,3015.9 3368.5,3001.5 Z"/></g>
<g><path style="opacity:0.651" fill="#9d392d" d="M 5100.5,2418.5 C 5099.5,3047.76 5099.17,3677.1 5099.5,4306.5C 5099.17,4306.5 5098.83,4306.5 5098.5,4306.5C 5097.83,3676.83 5098.5,3047.5 5100.5,2418.5 Z"/></g>
<g><path style="opacity:0.282" fill="#9f4238" d="M 19709.5,3124.5 C 19722.4,3125.48 19735.4,3125.81 19748.5,3125.5C 19742.2,3126.17 19735.7,3126.5 19729,3126.5C 19722.1,3126.5 19715.6,3125.83 19709.5,3124.5 Z"/></g>
<g><path style="opacity:0.282" fill="#a04339" d="M 13148.5,3377.5 C 13148.5,3378.83 13148.5,3380.17 13148.5,3381.5C 13036,3381.83 12923.7,3381.5 12811.5,3380.5C 12923.5,3380.67 13035.5,3380.5 13147.5,3380C 13146.4,3378.84 13146.8,3378.01 13148.5,3377.5 Z"/></g>
<g><path style="opacity:0.651" fill="#9d392d" d="M 19148.5,2973.5 C 19148.5,3413.83 19148.5,3854.17 19148.5,4294.5C 19147.5,4293.63 19146.8,4292.46 19146.5,4291C 19147.8,4289.67 19147.8,4288.33 19146.5,4287C 19147.2,3849.03 19147.8,3411.19 19148.5,2973.5 Z"/></g>
<g><path style="opacity:0.282" fill="#9f4338" d="M 5098.5,4306.5 C 5098.83,4306.5 5099.17,4306.5 5099.5,4306.5C 5227.33,4307.5 5355.33,4307.83 5483.5,4307.5C 5419.5,4308.17 5355.33,4308.5 5291,4308.5C 5226.5,4308.5 5162.33,4307.83 5098.5,4306.5 Z"/></g>
<g><path style="opacity:0.282" fill="#9f4338" d="M 12734.5,4306.5 C 12735,4306.56 12735.4,4306.89 12735.5,4307.5C 12591.7,4308.83 12448,4308.83 12304.5,4307.5C 12448,4307.83 12591.3,4307.5 12734.5,4306.5 Z"/></g>
</svg>
