<svg width="22" height="24" viewBox="0 0 22 24" fill="none" xmlns="http://www.w3.org/2000/svg">
<path d="M20.795 19.6689H5.10303C4.91008 19.6689 4.82741 19.4154 4.97851 19.2989L7.16291 17.6201H19.6441C20.5315 17.6201 21.2675 16.8906 21.2847 16.0046L21.4245 8.80631C21.4405 7.98571 20.8396 7.27319 20.0268 7.15169C19.6358 7.0932 19.2696 7.36205 19.211 7.75363C19.1524 8.14521 19.4226 8.50959 19.8145 8.56819C19.9164 8.5834 19.9917 8.67191 19.9897 8.77445L19.8498 15.9767C19.8477 16.0875 19.7554 16.1859 19.6441 16.1859H7.48893L5.22458 6.39588L6.37386 6.56343C6.76569 6.62182 7.13105 6.34989 7.1897 5.95831C7.24829 5.56673 6.97811 5.20076 6.58612 5.14216L4.86465 4.88437L4.20657 2.32627C4.12518 2.00917 3.83917 1.79297 3.51151 1.79297H0.717597C0.321305 1.79297 0 2.11412 0 2.51005C0 2.90599 0.321254 3.22714 0.717597 3.22714H2.95475L6.1154 16.6017L4.10198 18.1528C2.88729 19.0888 3.57047 21.103 5.10298 21.103H6.98676C6.90338 21.3079 6.85758 21.5691 6.85758 21.8256C6.85758 23.0118 7.82949 23.9728 9.02415 23.9728C10.2188 23.9728 11.1907 23.0138 11.1907 21.8276C11.1907 21.5711 11.1449 21.3079 11.0615 21.103H14.9807C14.8973 21.3079 14.8515 21.5691 14.8515 21.8256C14.8515 23.0118 15.8234 23.9728 17.0181 23.9728C18.2127 23.9728 19.1847 23.0138 19.1847 21.8276C19.1847 21.5711 19.1389 21.3079 19.0555 21.103H20.7951C21.1914 21.103 21.5127 20.7819 21.5127 20.386C21.5127 19.99 21.1913 19.6689 20.795 19.6689ZM9.02415 22.5349C8.62084 22.5349 8.29278 22.2131 8.29278 21.8176C8.29278 21.4221 8.6209 21.1003 9.02415 21.1003C9.42746 21.1003 9.75558 21.4221 9.75558 21.8176C9.75558 22.2131 9.42746 22.5349 9.02415 22.5349ZM17.018 22.5349C16.6147 22.5349 16.2866 22.2131 16.2866 21.8176C16.2866 21.4221 16.6147 21.1003 17.018 21.1003C17.4214 21.1003 17.7494 21.4221 17.7494 21.8176C17.7494 22.2131 17.4213 22.5349 17.018 22.5349Z" fill="#656565"/>
<path d="M13.1234 10.3937C10.2496 10.3937 7.91162 8.06244 7.91162 5.19687C7.91162 2.33129 10.2496 0 13.1234 0C15.9972 0 18.3352 2.33129 18.3352 5.19687C18.3352 8.06244 15.9972 10.3937 13.1234 10.3937ZM13.1234 1.43386C11.041 1.43386 9.34682 3.12193 9.34682 5.19687C9.34682 7.2718 11.041 8.95987 13.1234 8.95987C15.2058 8.95987 16.9 7.2718 16.9 5.19687C16.9 3.12193 15.2058 1.43386 13.1234 1.43386Z" fill="#656565"/>
<path d="M11.8525 7.0222L10.6999 5.65436C10.4447 5.3515 10.4835 4.89922 10.7867 4.64419C11.0898 4.38917 11.5424 4.42794 11.7978 4.73091L12.4311 5.48247L14.4014 3.38889C14.6729 3.10047 15.1271 3.08648 15.4158 3.35769C15.7045 3.62891 15.7185 4.08267 15.447 4.37109L12.9243 7.0516C12.6989 7.2888 12.1223 7.33577 11.8525 7.0222Z" fill="#656565"/>
</svg>
