<svg width="19" height="22" viewBox="0 0 19 22" fill="none" xmlns="http://www.w3.org/2000/svg">
<path fill-rule="evenodd" clip-rule="evenodd" d="M4.68247 5.66472H3.33238C2.39947 5.66472 1.62509 6.38575 1.55853 7.31663L0.687611 19.5116C0.65255 20.0039 0.823272 20.4887 1.15965 20.85C1.49653 21.2112 1.96757 21.4165 2.46146 21.4165H16.5385C17.0324 21.4165 17.5034 21.2112 17.8403 20.85C18.1767 20.4887 18.3474 20.0039 18.3123 19.5116L17.4414 7.31663C17.3748 6.38575 16.6005 5.66472 15.6676 5.66472H14.3271V5.41066C14.3271 2.74454 12.1661 0.583496 9.49997 0.583496C6.93141 0.583496 4.55746 2.6292 4.67281 5.41066C4.67636 5.495 4.67942 5.57986 4.68247 5.66472ZM14.3271 7.18908V11C14.3271 11.4207 13.9857 11.7622 13.5649 11.7622C13.1442 11.7622 12.8028 11.4207 12.8028 11V7.18908H6.19717V11C6.19717 11.4207 5.85572 11.7622 5.43499 11.7622C5.01427 11.7622 4.67281 11.4207 4.67281 11C4.67281 11 4.73887 9.21903 4.71702 7.18908H3.33238C3.19925 7.18908 3.08849 7.29223 3.07934 7.42485L2.2079 19.6198C2.20282 19.6904 2.22722 19.7595 2.27549 19.8113C2.32376 19.8627 2.39084 19.8921 2.46146 19.8921H16.5385C16.6091 19.8921 16.6762 19.8627 16.7244 19.8113C16.7727 19.7595 16.7971 19.6904 16.792 19.6198L15.9206 7.42485C15.9114 7.29223 15.8007 7.18908 15.6676 7.18908H14.3271ZM12.8028 5.66472V5.41066C12.8028 3.5865 11.3241 2.10786 9.49997 2.10786C7.67581 2.10786 6.19717 3.5865 6.19717 5.41066V5.66472H12.8028Z" fill="#656565"/>
</svg>
