<svg width="20" height="32" viewBox="0 0 20 32" fill="none" xmlns="http://www.w3.org/2000/svg">
<path fill-rule="evenodd" clip-rule="evenodd" d="M6.68818 0.666748H13.3118C14.2968 0.666748 15.0918 0.666748 15.735 0.722331C16.3977 0.779831 16.9795 0.901539 17.5182 1.19287C18.3748 1.65697 19.0702 2.39499 19.5045 3.3012C19.7791 3.87284 19.8932 4.49096 19.9473 5.1939C20 5.87719 20 6.721 20 7.76702V26.0424C20 27.0419 20 27.8594 19.9464 28.4899C19.8932 29.1119 19.7768 29.7525 19.3986 30.2518C19.1415 30.5923 18.8143 30.8666 18.4417 31.054C18.0691 31.2414 17.661 31.3369 17.2482 31.3333C16.6441 31.3276 16.1036 31.0171 15.6164 30.6668C15.1227 30.3113 14.5273 29.7938 13.7982 29.1603L11.2673 26.96C10.9286 26.6653 10.7123 26.4784 10.5364 26.3476C10.37 26.223 10.2918 26.1904 10.2464 26.177C10.0855 26.1291 9.91455 26.1291 9.75364 26.177C9.70818 26.1904 9.63 26.2235 9.46364 26.3476C9.28773 26.4784 9.07182 26.6653 8.73318 26.96L6.20136 29.1603C5.47273 29.7938 4.87727 30.3113 4.38318 30.6668C3.89636 31.0171 3.35591 31.3276 2.75182 31.3328C2.33914 31.3364 1.93109 31.2409 1.5586 31.0536C1.1861 30.8663 0.858913 30.5922 0.601818 30.2518C0.223182 29.7525 0.106819 29.1119 0.0540912 28.4899C-0.000454225 27.8594 1.21998e-07 27.0419 1.21998e-07 26.0419V7.76654C1.21998e-07 6.721 2.03198e-07 5.87719 0.0527275 5.1939C0.106818 4.49096 0.220909 3.87284 0.495455 3.3012C0.929838 2.39499 1.62516 1.65697 2.48182 1.19287C3.02045 0.901539 3.60227 0.779831 4.265 0.722331C4.90864 0.666748 5.70318 0.666748 6.68818 0.666748ZM4.41364 2.64618C3.86364 2.6941 3.54727 2.78274 3.30773 2.91259C2.79371 3.19101 2.3765 3.63384 2.11591 4.17759C1.99409 4.43155 1.91 4.76696 1.865 5.35155C1.81955 5.94667 1.81864 6.71142 1.81864 7.80822V25.993C1.81864 27.0539 1.81955 27.7827 1.865 28.3155C1.91227 28.8675 1.99682 29.0127 2.01955 29.0429C2.19364 29.2729 2.45773 29.4061 2.73591 29.4032C2.77227 29.4032 2.93136 29.3802 3.36318 29.0693C3.78091 28.7688 4.31273 28.3079 5.08591 27.6361L7.60545 25.4458C7.91318 25.178 8.18182 24.9446 8.41909 24.7678C8.67273 24.579 8.94182 24.4146 9.26136 24.3188C9.74457 24.1744 10.2563 24.1744 10.7395 24.3188C11.0595 24.4146 11.3282 24.579 11.5814 24.7678C11.8191 24.9451 12.0877 25.178 12.3955 25.4458L14.9155 27.6356C15.6882 28.3079 16.22 28.7688 16.6373 29.0693C17.0695 29.3802 17.2286 29.4028 17.2645 29.4032C17.4022 29.4045 17.5383 29.3727 17.6626 29.3103C17.7869 29.2479 17.896 29.1564 17.9818 29.0429C18.0045 29.0127 18.0886 28.8675 18.1359 28.3155C18.1814 27.7827 18.1823 27.0539 18.1823 25.993V7.80822C18.1823 6.71094 18.1814 5.94667 18.1359 5.35107C18.0905 4.76744 18.0068 4.43155 17.885 4.17759C17.6244 3.63384 17.2072 3.19101 16.6932 2.91259C16.4536 2.78322 16.1377 2.6941 15.5873 2.64618C15.0268 2.59778 14.3064 2.59682 13.2732 2.59682H6.72727C5.69409 2.59682 4.97364 2.59778 4.41273 2.64618H4.41364Z" fill="#A3362B"/>
<path fill-rule="evenodd" clip-rule="evenodd" d="M15.1626 8.57988C15.341 8.75082 15.4477 8.98945 15.4592 9.2433C15.4707 9.49716 15.3861 9.74543 15.224 9.93352L10.1117 15.8617C9.94132 16.0594 9.7336 16.2173 9.5019 16.3254C9.2702 16.4334 9.01964 16.4893 8.76628 16.4893C8.51291 16.4893 8.26235 16.4334 8.03065 16.3254C7.79895 16.2173 7.59123 16.0594 7.42082 15.8617L4.78764 12.8085C4.70567 12.7157 4.64199 12.6066 4.6003 12.4877C4.5586 12.3687 4.53972 12.2422 4.54474 12.1155C4.54976 11.9888 4.57859 11.8644 4.62955 11.7495C4.68051 11.6347 4.7526 11.5316 4.84163 11.4463C4.93066 11.361 5.03486 11.2952 5.1482 11.2527C5.26153 11.2102 5.38175 11.1918 5.50187 11.1986C5.622 11.2054 5.73965 11.2373 5.848 11.2924C5.95636 11.3475 6.05326 11.4247 6.13309 11.5196L8.76628 14.5728L13.8785 8.64457C14.0407 8.4565 14.2671 8.34403 14.5079 8.3319C14.7487 8.31977 14.9842 8.40897 15.1626 8.57988Z" fill="#A3362B"/>
</svg>
