<svg width="40" height="41" viewBox="0 0 40 41" fill="none" xmlns="http://www.w3.org/2000/svg">
<circle cx="18.5" cy="19" r="18.5" fill="#FFE8E9"/>
<path d="M13.0361 22.0593H24.3178C25.0681 22.0593 25.7161 21.5503 25.8937 20.8214L27.5359 14.0839C27.57 13.9441 27.538 13.7964 27.4491 13.6833C27.3603 13.5701 27.2244 13.5041 27.0805 13.5041H23.5194C23.0138 11.803 21.4362 10.5587 19.5732 10.5587C17.7101 10.5587 16.1325 11.803 15.627 13.5041H11.9683L11.3166 10.7671C11.2663 10.556 11.0777 10.407 10.8606 10.407H8.91943C8.66057 10.407 8.45068 10.6169 8.45068 10.8757C8.45068 11.1346 8.66057 11.3445 8.91943 11.3445H10.4904L12.8218 21.1351C11.9321 21.2414 11.2398 22.0002 11.2398 22.9181C11.2398 23.9085 12.0456 24.7143 13.036 24.7143H13.1803C12.4653 25.0268 11.9642 25.7405 11.9642 26.5693C11.9642 27.6851 12.872 28.5929 13.9878 28.5929C15.1037 28.5929 16.0115 27.6851 16.0115 26.5693C16.0115 25.7405 15.5104 25.0268 14.7954 24.7143H23.6368C22.9218 25.0268 22.4208 25.7405 22.4208 26.5693C22.4208 27.6851 23.3285 28.5929 24.4444 28.5929C25.5602 28.5929 26.468 27.6851 26.468 26.5693C26.468 25.7405 25.9669 25.0268 25.252 24.7143H25.8913C26.1502 24.7143 26.3601 24.5044 26.3601 24.2456C26.3601 23.9867 26.1502 23.7768 25.8913 23.7768H13.0361C12.5626 23.7768 12.1774 23.3916 12.1774 22.9181C12.1774 22.4446 12.5626 22.0593 13.0361 22.0593ZM19.5732 11.4962C21.3259 11.4962 22.7518 12.9221 22.7518 14.6748C22.7518 16.4274 21.3259 17.8533 19.5732 17.8533C17.8206 17.8533 16.3946 16.4274 16.3946 14.6748C16.3946 12.9221 17.8206 11.4962 19.5732 11.4962ZM15.4639 14.4416C15.4595 14.5188 15.4571 14.5965 15.4571 14.6748C15.4571 16.9444 17.3036 18.7908 19.5732 18.7908C21.8428 18.7908 23.6893 16.9444 23.6893 14.6748C23.6893 14.5965 23.6869 14.5188 23.6825 14.4416H26.4838L24.9829 20.5994C24.9067 20.9119 24.6395 21.1218 24.3179 21.1218H13.7824L12.1916 14.4416H15.4639ZM13.9879 27.6553C13.389 27.6553 12.9018 27.1681 12.9018 26.5693C12.9018 25.9704 13.389 25.4832 13.9879 25.4832C14.5868 25.4832 15.074 25.9704 15.074 26.5693C15.074 27.1681 14.5868 27.6553 13.9879 27.6553ZM24.4444 27.6553C23.8455 27.6553 23.3583 27.1681 23.3583 26.5693C23.3583 25.9704 23.8455 25.4832 24.4444 25.4832C25.0433 25.4832 25.5305 25.9704 25.5305 26.5693C25.5305 27.1681 25.0433 27.6553 24.4444 27.6553ZM17.3871 14.6748C17.3871 14.4159 17.597 14.206 17.8558 14.206H19.1045V12.9573C19.1045 12.6985 19.3144 12.4886 19.5732 12.4886C19.8321 12.4886 20.042 12.6985 20.042 12.9573V14.206H21.2906C21.5495 14.206 21.7594 14.4159 21.7594 14.6747C21.7594 14.9336 21.5495 15.1435 21.2906 15.1435H20.042V16.3921C20.042 16.651 19.8321 16.8608 19.5732 16.8608C19.3144 16.8608 19.1045 16.651 19.1045 16.3921V15.1435H17.8558C17.5969 15.1435 17.3871 14.9336 17.3871 14.6748Z" fill="#A3362B"/>
</svg>
