<svg width="23" height="26" viewBox="0 0 23 26" fill="none" xmlns="http://www.w3.org/2000/svg">
<path d="M22.4713 6.93754L11.8787 1.23384C11.8197 1.20245 11.754 1.18604 11.6872 1.18604C11.6204 1.18604 11.5546 1.20245 11.4957 1.23384L0.903105 6.93754C0.837291 6.97164 0.782024 7.02304 0.743258 7.08621C0.704491 7.14939 0.683694 7.22194 0.683105 7.29606V18.7035C0.683302 18.7772 0.703488 18.8494 0.741513 18.9126C0.779538 18.9757 0.833977 19.0273 0.899031 19.062L11.4916 24.7657C11.5506 24.7971 11.6163 24.8135 11.6831 24.8135C11.7499 24.8135 11.8156 24.7971 11.8746 24.7657L22.4672 19.062C22.5322 19.0273 22.5867 18.9757 22.6247 18.9126C22.6627 18.8494 22.6829 18.7772 22.6831 18.7035V7.29606C22.6833 7.22277 22.6637 7.15079 22.6264 7.08769C22.5892 7.02459 22.5355 6.97272 22.4713 6.93754ZM11.6831 2.0568L21.4201 7.29606L18.5683 8.83199L9.1694 3.40939L11.6831 2.0568ZM1.94607 7.29606L5.01385 5.66643L14.4087 11.0687L11.6831 12.5353L1.94607 7.29606ZM8.32607 3.86162L17.725 9.28421L15.252 10.6164L5.85718 5.18976L8.32607 3.86162ZM15.7938 11.2479L18.0101 10.0583V13.0975L17.1546 12.2501C17.107 12.2029 17.0486 12.1681 16.9844 12.1489C16.9202 12.1297 16.8523 12.1266 16.7866 12.1399C16.7209 12.1532 16.6596 12.1824 16.6079 12.2251C16.5563 12.2678 16.5159 12.3226 16.4905 12.3846L15.7938 14.0631V11.2479ZM1.49792 7.97643L11.2757 13.2442V23.7268L1.49792 18.459V7.97643ZM12.0905 23.7268V13.2442L14.979 11.6879V16.1124C14.9838 16.2036 15.019 16.2906 15.0791 16.3594C15.1392 16.4282 15.2207 16.4747 15.3104 16.4917C15.4002 16.5086 15.493 16.4948 15.5741 16.4527C15.6551 16.4105 15.7196 16.3423 15.7572 16.259L17.0038 13.2483L18.1201 14.3564C18.1771 14.4139 18.2499 14.4531 18.3293 14.469C18.4086 14.4849 18.4909 14.4768 18.5656 14.4458C18.6404 14.4148 18.7042 14.3622 18.7489 14.2948C18.7936 14.2273 18.8173 14.1481 18.8168 14.0672V9.61828L21.8642 7.98865V18.459L12.0905 23.7268Z" fill="#656565" stroke="#656565" stroke-width="0.5"/>
</svg>
