<svg width="47" height="48" viewBox="0 0 47 48" fill="none" xmlns="http://www.w3.org/2000/svg">
<path d="M47 24C47 36.9787 36.4787 47.5 23.5 47.5C10.5213 47.5 0 36.9787 0 24C0 11.0213 10.5213 0.5 23.5 0.5C36.4787 0.5 47 11.0213 47 24Z" fill="#FFE8E9"/>
<path fill-rule="evenodd" clip-rule="evenodd" d="M21.0161 12H25.9839C26.7226 12 27.3189 12 27.8013 12.0417C28.2983 12.0848 28.7347 12.1761 29.1386 12.3946C29.7811 12.7427 30.3026 13.2962 30.6284 13.9758C30.8343 14.4046 30.9199 14.8682 30.9605 15.3954C31 15.9078 31 16.5407 31 17.3252V31.0317C31 31.7814 31 32.3945 30.9598 32.8674C30.9199 33.3339 30.8326 33.8144 30.549 34.1888C30.3562 34.4442 30.1107 34.6499 29.8313 34.7904C29.5518 34.931 29.2457 35.0026 28.9361 34.9999C28.4831 34.9956 28.0777 34.7627 27.7123 34.5C27.342 34.2334 26.8955 33.8453 26.3486 33.3702L24.4505 31.7199C24.1965 31.4989 24.0342 31.3587 23.9023 31.2606C23.7775 31.1672 23.7189 31.1428 23.6848 31.1327C23.5641 31.0968 23.4359 31.0968 23.3152 31.1327C23.2811 31.1428 23.2225 31.1676 23.0977 31.2606C22.9658 31.3587 22.8039 31.4989 22.5499 31.7199L20.651 33.3702C20.1045 33.8453 19.658 34.2334 19.2874 34.5C18.9223 34.7627 18.5169 34.9956 18.0639 34.9996C17.7544 35.0022 17.4483 34.9306 17.1689 34.7902C16.8896 34.6497 16.6442 34.4441 16.4514 34.1888C16.1674 33.8144 16.0801 33.3339 16.0406 32.8674C15.9997 32.3945 16 31.7814 16 31.0314V17.3248C16 16.5407 16 15.9078 16.0395 15.3954C16.0801 14.8682 16.1657 14.4046 16.3716 13.9758C16.6974 13.2962 17.2189 12.7427 17.8614 12.3946C18.2653 12.1761 18.7017 12.0848 19.1987 12.0417C19.6815 12 20.2774 12 21.0161 12ZM19.3102 13.4846C18.8977 13.5205 18.6605 13.587 18.4808 13.6844C18.0953 13.8932 17.7824 14.2253 17.5869 14.6331C17.4956 14.8236 17.4325 15.0752 17.3988 15.5136C17.3647 15.9599 17.364 16.5335 17.364 17.3561V30.9947C17.364 31.7904 17.3647 32.337 17.3988 32.7366C17.4342 33.1506 17.4976 33.2595 17.5147 33.2821C17.6452 33.4546 17.8433 33.5545 18.0519 33.5524C18.0792 33.5524 18.1985 33.5351 18.5224 33.3019C18.8357 33.0766 19.2345 32.7308 19.8144 32.227L21.7041 30.5843C21.9349 30.3834 22.1364 30.2084 22.3143 30.0758C22.5045 29.9342 22.7064 29.8109 22.946 29.7391C23.3084 29.6307 23.6923 29.6307 24.0547 29.7391C24.2947 29.8109 24.4961 29.9342 24.686 30.0758C24.8643 30.2088 25.0658 30.3834 25.2966 30.5843L27.1866 32.2266C27.7661 32.7308 28.165 33.0766 28.478 33.3019C28.8022 33.5351 28.9215 33.552 28.9484 33.5524C29.0517 33.5533 29.1538 33.5295 29.247 33.4827C29.3402 33.4358 29.422 33.3673 29.4864 33.2821C29.5034 33.2595 29.5665 33.1506 29.6019 32.7366C29.636 32.337 29.6367 31.7904 29.6367 30.9947V17.3561C29.6367 16.5331 29.636 15.9599 29.6019 15.5132C29.5678 15.0755 29.5051 14.8236 29.4137 14.6331C29.2183 14.2253 28.9054 13.8932 28.5199 13.6844C28.3402 13.5874 28.1033 13.5205 27.6905 13.4846C27.2701 13.4483 26.7298 13.4476 25.9549 13.4476H21.0455C20.2706 13.4476 19.7302 13.4483 19.3095 13.4846H19.3102Z" fill="#A3362B"/>
<path fill-rule="evenodd" clip-rule="evenodd" d="M27.3703 17.9373C27.5041 18.0655 27.5841 18.2445 27.5927 18.4349C27.6013 18.6252 27.5379 18.8115 27.4163 18.9525L23.5821 23.3987C23.4543 23.5469 23.2985 23.6654 23.1247 23.7464C22.9509 23.8275 22.763 23.8693 22.573 23.8693C22.383 23.8693 22.1951 23.8275 22.0213 23.7464C21.8475 23.6654 21.6917 23.5469 21.5639 23.3987L19.589 21.1088C19.5275 21.0391 19.4798 20.9574 19.4485 20.8681C19.4172 20.7789 19.4031 20.6841 19.4068 20.589C19.4106 20.494 19.4322 20.4007 19.4705 20.3145C19.5087 20.2284 19.5627 20.1511 19.6295 20.0871C19.6963 20.0231 19.7744 19.9738 19.8594 19.9419C19.9444 19.91 20.0346 19.8962 20.1247 19.9013C20.2148 19.9064 20.303 19.9303 20.3843 19.9717C20.4656 20.013 20.5382 20.0709 20.5981 20.142L22.573 22.432L26.4072 17.9858C26.5288 17.8448 26.6986 17.7604 26.8792 17.7513C27.0598 17.7422 27.2365 17.8091 27.3703 17.9373Z" fill="#A3362B"/>
</svg>
