<svg width="30" height="30" viewBox="0 0 30 30" fill="none" xmlns="http://www.w3.org/2000/svg">
<g filter="url(#filter0_b_35_1534)">
<circle cx="15" cy="15" r="15" fill="#A3362B"/>
</g>
<path d="M15.5 24C16.5312 24 17.375 23.1692 17.375 22.1538H13.625C13.625 23.1692 14.4688 24 15.5 24ZM21.125 18.4615V13.8462C21.125 11.0123 19.5969 8.64 16.9062 8.01231V7.38462C16.9062 6.61846 16.2781 6 15.5 6C14.7219 6 14.0938 6.61846 14.0938 7.38462V8.01231C11.4125 8.64 9.875 11.0031 9.875 13.8462V18.4615L8 20.3077V21.2308H23V20.3077L21.125 18.4615ZM19.25 19.3846H11.75V13.8462C11.75 11.5569 13.1656 9.69231 15.5 9.69231C17.8344 9.69231 19.25 11.5569 19.25 13.8462V19.3846Z" fill="white"/>
<defs>
<filter id="filter0_b_35_1534" x="-20" y="-20" width="70" height="70" filterUnits="userSpaceOnUse" color-interpolation-filters="sRGB">
<feFlood flood-opacity="0" result="BackgroundImageFix"/>
<feGaussianBlur in="BackgroundImageFix" stdDeviation="10"/>
<feComposite in2="SourceAlpha" operator="in" result="effect1_backgroundBlur_35_1534"/>
<feBlend mode="normal" in="SourceGraphic" in2="effect1_backgroundBlur_35_1534" result="shape"/>
</filter>
</defs>
</svg>
