<svg width="49" height="40" viewBox="0 0 49 40" fill="none" xmlns="http://www.w3.org/2000/svg">
<path d="M48.9901 10.4694C48.847 10.2653 48.8419 10.0625 48.9901 9.8584V10.4694Z" fill="#A3362B"/>
<path d="M48.9901 11.2773C48.8419 11.0732 48.847 10.8704 48.9901 10.6663V11.2773Z" fill="#A3362B"/>
<path d="M29.943 25.7434C30.1475 25.7556 30.3162 25.8196 30.4427 25.9488C30.7738 26.2874 31.1137 26.622 31.4115 26.9919C31.6901 27.34 31.6403 27.7807 31.3412 28.0826C31.0588 28.3682 30.6166 28.3913 30.3085 28.0962C29.9788 27.7807 29.6695 27.4407 29.3679 27.0939C29.1404 26.8314 29.1353 26.5186 29.2771 26.2017C29.4152 25.893 29.6669 25.7788 29.9417 25.7434H29.943Z" fill="#A3362B"/>
<path d="M33.1 25.4641C33.1 25.2452 33.086 25.0235 33.1026 24.8059C33.1384 24.3544 33.44 24.0402 33.8336 24.0225C34.2235 24.0062 34.6043 24.3516 34.6299 24.7991C34.6567 25.2697 34.6606 25.7457 34.6286 26.2162C34.5979 26.6813 34.2439 26.9751 33.817 26.9547C33.4119 26.9357 33.132 26.6392 33.1013 26.1713C33.086 25.9361 33.0987 25.6994 33.0987 25.4628H33.1V25.4641Z" fill="#A3362B"/>
<path d="M28.9153 31.5431C28.7095 31.5431 28.5012 31.5595 28.2967 31.5404C27.8634 31.5009 27.5925 31.1907 27.5861 30.7538C27.5784 30.3183 27.8481 29.9509 28.2571 29.9223C28.7146 29.8897 29.1786 29.8924 29.6361 29.921C30.0298 29.9455 30.3442 30.3415 30.3416 30.7402C30.3391 31.1539 30.0426 31.4996 29.6272 31.539C29.3907 31.5608 29.1517 31.5431 28.914 31.5431H28.9153Z" fill="#A3362B"/>
<path d="M48.9987 9.44983C48.8326 9.06359 48.8594 8.63519 48.7674 8.23263C47.6376 3.26726 43.71 0.00597443 38.8201 0.00325443C29.2895 -0.00218558 19.7589 0.000534421 10.2296 0.00189442C9.36814 0.00189442 8.51566 0.0970946 7.67341 0.294295C2.66335 1.46526 -0.81174 7.04535 0.16471 12.3534C1.12071 17.5514 5.07252 21.101 10.0289 21.1146C19.6873 21.1418 29.3445 21.1391 39.0029 21.1146C43.604 21.1037 47.4267 17.9879 48.6498 13.3394C48.784 12.8281 48.8837 12.3058 49 11.789V11.2804C48.922 11.0764 48.922 10.8738 49 10.6698V10.4658C48.922 10.2618 48.922 10.0591 49 9.85511V9.44847L48.9987 9.44983ZM40.3602 19.3493C39.8835 19.4282 39.4093 19.4431 38.9326 19.4431C29.3215 19.4458 19.7116 19.4132 10.1005 19.4608C6.02852 19.4812 2.6723 16.4715 1.79937 12.6146C0.679775 7.67231 3.83407 2.59134 8.55528 1.79574C9.15853 1.69374 9.7605 1.67878 10.365 1.67742C15.099 1.67198 19.8317 1.6747 24.5657 1.6747C29.3151 1.6747 34.0657 1.7155 38.8137 1.66246C42.8665 1.61622 45.7882 4.30766 46.9014 7.37583C48.816 12.6486 45.6335 18.4775 40.3602 19.3493Z" fill="#A3362B"/>
<path d="M41.0914 34.9945C40.6007 34.4628 40.1022 33.9391 39.6063 33.4128C39.1411 32.9178 39.1385 32.4128 39.5987 31.8978C39.7073 31.7754 39.8134 31.6448 39.8926 31.5007C40.3885 30.6058 39.9527 29.394 39.0261 29.1139C38.7692 29.0363 38.4931 29.0187 38.2247 28.9901C36.723 28.8269 35.2136 28.7127 33.7195 28.4964C32.5104 28.321 31.6426 29.2526 31.7679 30.3923C31.9698 32.2405 32.0938 34.0969 32.2829 35.9465C32.3468 36.5776 32.7009 37.04 33.276 37.2576C33.8626 37.4806 34.4084 37.3718 34.8659 36.9162C35.1318 36.651 35.3669 36.3504 35.6353 36.0431C36.4073 36.8672 37.1332 37.6506 37.8694 38.4231C38.6388 39.2309 39.4926 39.2336 40.2581 38.438C40.5432 38.1429 40.8256 37.8437 41.1029 37.5404C41.8493 36.7285 41.8468 35.8119 41.0914 34.9931V34.9945ZM39.2855 37.1515C39.0989 37.3704 38.998 37.3052 38.8382 37.1324C38.0228 36.2512 37.201 35.3753 36.3753 34.5036C35.8334 33.931 35.4922 33.9283 34.9631 34.4954C34.6052 34.8789 34.2627 35.2774 33.8332 35.7588C33.7463 34.898 33.6697 34.1717 33.6006 33.4441C33.5086 32.4676 33.4319 31.4898 33.3271 30.5147C33.2965 30.225 33.331 30.1407 33.6339 30.1747C35.1203 30.3419 36.6105 30.4779 38.0982 30.6289C38.2183 30.6411 38.3513 30.6343 38.4816 30.769C38.1877 31.0777 37.8937 31.3837 37.6036 31.6924C36.8009 32.5465 36.7984 32.76 37.5882 33.5951C38.4228 34.4777 39.2612 35.3576 40.1521 36.2947C39.844 36.5952 39.5424 36.8496 39.2868 37.1488L39.2855 37.1515Z" fill="#A3362B"/>
<path d="M30.8064 10.5445C30.8064 9.47687 30.8026 8.41062 30.8064 7.34302C30.8089 6.5651 31.0569 6.30126 31.7701 6.29854C32.6775 6.29718 33.5849 6.29446 34.4924 6.29854C35.0253 6.30126 35.3947 6.64942 35.3883 7.12678C35.3819 7.59326 35.0394 7.92238 34.523 7.9319C33.9019 7.94278 33.2807 7.94822 32.6609 7.92918C32.404 7.92102 32.3299 8.01078 32.3426 8.27326C32.3669 8.74382 32.1982 9.35991 32.418 9.64959C32.6494 9.95423 33.2513 9.72167 33.691 9.74479C33.9926 9.75975 34.2955 9.73935 34.5984 9.75159C35.0624 9.77063 35.4011 10.1337 35.3883 10.5812C35.3755 11.0109 35.0432 11.3659 34.6087 11.3754C33.9722 11.389 33.3357 11.3904 32.6992 11.3754C32.45 11.3686 32.3209 11.4094 32.3439 11.7236C32.3771 12.1928 32.2072 12.8116 32.4283 13.0972C32.6622 13.3978 33.2641 13.1679 33.7038 13.1897C34.022 13.2046 34.3415 13.1815 34.6585 13.2033C35.079 13.2332 35.3806 13.5705 35.3908 13.988C35.4011 14.3824 35.0879 14.8108 34.6943 14.8203C33.6284 14.8475 32.5612 14.8502 31.4953 14.8203C31.0646 14.8094 30.8141 14.4572 30.8102 13.9458C30.8 12.8116 30.8077 11.676 30.8064 10.5417V10.5445Z" fill="#A3362B"/>
<path d="M10.9441 6.29639C8.72795 6.29231 6.93353 8.18544 6.9297 10.5328C6.92459 12.8992 8.69216 14.8182 10.8905 14.8331C13.1041 14.8481 14.9483 12.9087 14.9496 10.5641C14.9496 8.23168 13.1386 6.30047 10.9441 6.29639ZM10.8713 13.1834C9.5063 13.1263 8.42377 11.9227 8.46083 10.5002C8.4979 9.07216 9.66606 7.88488 10.985 7.9352C12.3513 7.98688 13.4172 9.18096 13.3801 10.6198C13.3431 12.071 12.2005 13.2378 10.8713 13.1834Z" fill="#A3362B"/>
<path d="M20.5957 11.4874C20.4538 11.2086 20.45 11.0671 20.7248 10.855C21.5888 10.1872 21.8993 9.05161 21.5606 8.01256C21.2207 6.96808 20.3337 6.3044 19.2652 6.29896C18.5968 6.29488 17.9283 6.29624 17.2599 6.29896C16.5953 6.30168 16.3129 6.6036 16.3103 7.3244C16.3065 8.40832 16.3103 9.49225 16.3103 10.5762C16.3103 11.6601 16.3065 12.744 16.3116 13.8279C16.3141 14.4399 16.6285 14.8343 17.0938 14.8343C17.5641 14.8343 17.8593 14.4603 17.8683 13.8252C17.8772 13.1819 17.858 12.5373 17.8785 11.8954C17.8836 11.7267 17.7277 11.403 18.0204 11.403C18.3386 11.403 18.745 11.165 18.97 11.6778C19.3457 12.5332 19.7509 13.3751 20.1522 14.2169C20.4231 14.7867 20.8347 14.9731 21.2654 14.7391C21.6948 14.5066 21.8009 14.0387 21.5402 13.4743C21.2334 12.8093 20.9293 12.1402 20.5982 11.4887L20.5957 11.4874ZM19.4109 9.72617C19.1783 9.76289 18.9367 9.73297 18.7003 9.73297C18.1448 9.74294 17.867 9.44782 17.867 8.84761C17.867 8.24739 18.1584 7.94366 18.7412 7.9364C18.9623 7.9364 19.1872 7.92144 19.4045 7.95544C19.8391 8.0248 20.1202 8.37432 20.1305 8.81225C20.142 9.27465 19.8595 9.65409 19.4096 9.72617H19.4109Z" fill="#A3362B"/>
<path d="M41.022 11.462C40.8852 11.1914 40.8954 11.0595 41.1498 10.8636C42.0125 10.204 42.3371 9.06569 42.0086 8.02393C41.684 6.99441 40.7702 6.30625 39.7132 6.29945C39.0282 6.29537 38.3431 6.29537 37.6581 6.29945C37.0344 6.30353 36.766 6.59321 36.7634 7.26233C36.7596 8.36393 36.7634 9.46553 36.7634 10.5671C36.7634 11.6864 36.7596 12.8043 36.7647 13.9236C36.7673 14.4731 37.0727 14.8307 37.5226 14.8348C37.9725 14.8389 38.2869 14.4799 38.2907 13.9345C38.2971 13.2055 38.2907 12.4766 38.2946 11.7476C38.2946 11.6347 38.2473 11.5028 38.3418 11.4103C38.508 11.2485 39.2748 11.4362 39.3835 11.6647C39.7899 12.5228 40.1874 13.3851 40.5964 14.2405C40.8558 14.7831 41.252 14.9627 41.6763 14.7464C42.125 14.5179 42.2425 14.061 41.9831 13.4966C41.6687 12.8139 41.3581 12.1284 41.0207 11.4607L41.022 11.462ZM39.6723 9.74705C39.4985 9.75657 39.3234 9.74977 39.1496 9.74977C38.5787 9.74977 38.2933 9.44468 38.2933 8.83449C38.2933 8.2243 38.5693 7.9251 39.1215 7.93689C39.3119 7.93689 39.5023 7.92737 39.6915 7.93961C40.2219 7.97361 40.5925 8.35713 40.5861 8.85217C40.5798 9.34993 40.2091 9.71713 39.6723 9.74705Z" fill="#A3362B"/>
<path d="M29.3173 9.52276C28.8124 7.4542 27.2736 6.2982 25.0268 6.2982C24.8044 6.2982 24.5807 6.29412 24.3583 6.2982C23.7819 6.30908 23.4841 6.62052 23.4828 7.24612C23.4777 9.467 23.4765 11.6865 23.4828 13.9074C23.4841 14.4936 23.7934 14.8213 24.3353 14.8349C24.7814 14.8458 25.2287 14.8513 25.6735 14.8281C28.1593 14.6948 29.9448 12.0904 29.3173 9.52412V9.52276ZM25.3207 13.2002C25.0344 13.1907 25.0242 13.0465 25.0268 12.8208C25.0331 12.0592 25.0293 11.2962 25.0293 10.5346C25.0293 9.78932 25.0408 9.04404 25.0229 8.29876C25.0165 8.00636 25.1073 7.93156 25.3757 7.9302C26.7969 7.92612 27.9075 9.11612 27.8858 10.642C27.8654 12.0809 26.6857 13.2437 25.3207 13.2002Z" fill="#A3362B"/>
</svg>
