<svg width="176" height="176" viewBox="0 0 176 176" fill="none" xmlns="http://www.w3.org/2000/svg">
<rect x="0.5" y="0.5" width="175" height="175" rx="9.5" fill="#FFCFCF" fill-opacity="0.24" stroke="#A3362B"/>
<path d="M51.9465 140.604C53.0995 140.604 53.9408 140.841 54.4705 141.313C55.0001 141.786 55.2649 142.448 55.2649 143.3C55.2649 143.687 55.2038 144.055 55.0816 144.406C54.9634 144.752 54.7679 145.06 54.4949 145.328C54.2219 145.593 53.8614 145.803 53.4132 145.958C52.9691 146.113 52.4212 146.19 51.7693 146.19H50.816V149.539H49.3493V140.604H51.9465ZM51.8487 141.821H50.816V144.968H51.6165C52.0769 144.968 52.468 144.915 52.7899 144.809C53.1117 144.699 53.3562 144.526 53.5232 144.29C53.6903 144.053 53.7738 143.742 53.7738 143.355C53.7738 142.837 53.6169 142.452 53.3032 142.2C52.9936 141.947 52.5088 141.821 51.8487 141.821ZM58.345 149.539H56.9027V140.03H58.345V149.539ZM63.0506 142.646C63.9062 142.646 64.5519 142.835 64.9878 143.214C65.4278 143.593 65.6479 144.184 65.6479 144.986V149.539H64.6273L64.3523 148.58H64.3034C64.1119 148.824 63.9143 149.026 63.7106 149.185C63.5069 149.344 63.2706 149.462 63.0017 149.539C62.7369 149.621 62.413 149.661 62.03 149.661C61.6267 149.661 61.2661 149.588 60.9483 149.441C60.6306 149.291 60.38 149.062 60.1967 148.757C60.0133 148.451 59.9217 148.064 59.9217 147.596C59.9217 146.899 60.1804 146.375 60.6978 146.025C61.2193 145.675 62.0056 145.481 63.0567 145.445L64.2301 145.402V145.047C64.2301 144.579 64.12 144.245 63.9 144.045C63.6841 143.845 63.3786 143.746 62.9834 143.746C62.6452 143.746 62.3172 143.795 61.9995 143.892C61.6817 143.99 61.372 144.11 61.0706 144.253L60.6061 143.238C60.9361 143.063 61.3109 142.921 61.7306 142.811C62.1543 142.701 62.5943 142.646 63.0506 142.646ZM64.2239 146.306L63.35 146.337C62.633 146.361 62.1298 146.483 61.8406 146.703C61.5513 146.923 61.4067 147.225 61.4067 147.608C61.4067 147.942 61.5065 148.186 61.7061 148.341C61.9058 148.492 62.1685 148.567 62.4945 148.567C62.9915 148.567 63.403 148.427 63.7289 148.146C64.0589 147.861 64.2239 147.443 64.2239 146.893V146.306ZM72.2052 147.608C72.2052 148.052 72.0972 148.427 71.8813 148.732C71.6653 149.038 71.3496 149.27 70.934 149.429C70.5226 149.584 70.0174 149.661 69.4185 149.661C68.9459 149.661 68.5384 149.627 68.1962 149.557C67.8581 149.492 67.5382 149.39 67.2368 149.252V148.011C67.5586 148.162 67.9192 148.292 68.3184 148.402C68.7218 148.512 69.1027 148.567 69.4612 148.567C69.9338 148.567 70.274 148.494 70.4818 148.347C70.6896 148.197 70.7935 147.997 70.7935 147.748C70.7935 147.602 70.7507 147.471 70.6651 147.357C70.5837 147.239 70.4288 147.119 70.2007 146.997C69.9766 146.871 69.6466 146.72 69.2107 146.545C68.7829 146.373 68.4223 146.202 68.129 146.031C67.8357 145.86 67.6136 145.654 67.4629 145.414C67.3121 145.17 67.2368 144.858 67.2368 144.479C67.2368 143.88 67.4731 143.426 67.9457 143.116C68.4223 142.802 69.0518 142.646 69.834 142.646C70.2496 142.646 70.6407 142.688 71.0074 142.774C71.3781 142.855 71.7407 142.976 72.0952 143.135L71.6429 144.216C71.3374 144.082 71.0298 143.972 70.7201 143.886C70.4146 143.797 70.1029 143.752 69.7851 143.752C69.4144 143.752 69.1312 143.809 68.9357 143.923C68.7442 144.037 68.6484 144.2 68.6484 144.412C68.6484 144.571 68.6953 144.705 68.789 144.815C68.8827 144.925 69.0436 145.035 69.2718 145.145C69.504 145.255 69.8259 145.392 70.2374 145.555C70.6407 145.709 70.989 145.872 71.2824 146.043C71.5798 146.21 71.8079 146.416 71.9668 146.661C72.1257 146.905 72.2052 147.221 72.2052 147.608ZM76.2752 148.5C76.4626 148.5 76.648 148.484 76.8314 148.451C77.0147 148.415 77.1817 148.372 77.3325 148.323V149.411C77.1736 149.48 76.9678 149.539 76.7152 149.588C76.4626 149.637 76.1999 149.661 75.9269 149.661C75.5439 149.661 75.1997 149.598 74.8941 149.472C74.5885 149.341 74.3461 149.119 74.1669 148.806C73.9876 148.492 73.898 148.058 73.898 147.504V143.868H72.9752V143.226L73.9652 142.719L74.4358 141.271H75.3402V142.774H77.2775V143.868H75.3402V147.486C75.3402 147.828 75.4258 148.083 75.5969 148.25C75.768 148.417 75.9941 148.5 76.2752 148.5ZM80.1436 142.774V149.539H78.7075V142.774H80.1436ZM79.4347 140.183C79.6547 140.183 79.8442 140.242 80.0031 140.36C80.166 140.478 80.2475 140.682 80.2475 140.971C80.2475 141.256 80.166 141.46 80.0031 141.582C79.8442 141.7 79.6547 141.759 79.4347 141.759C79.2066 141.759 79.0131 141.7 78.8542 141.582C78.6993 141.46 78.6219 141.256 78.6219 140.971C78.6219 140.682 78.6993 140.478 78.8542 140.36C79.0131 140.242 79.2066 140.183 79.4347 140.183ZM84.9287 149.661C84.2891 149.661 83.735 149.537 83.2665 149.289C82.7979 149.04 82.4374 148.659 82.1848 148.146C81.9322 147.632 81.8059 146.981 81.8059 146.19C81.8059 145.367 81.9444 144.695 82.2214 144.173C82.4985 143.652 82.8814 143.267 83.3703 143.018C83.8633 142.77 84.4276 142.646 85.0631 142.646C85.4665 142.646 85.8311 142.686 86.1571 142.768C86.4871 142.845 86.7661 142.941 86.9943 143.055L86.5665 144.204C86.318 144.102 86.0633 144.017 85.8026 143.947C85.5419 143.878 85.2913 143.843 85.0509 143.843C84.6557 143.843 84.3257 143.931 84.0609 144.106C83.8002 144.281 83.6046 144.542 83.4742 144.888C83.3479 145.235 83.2848 145.665 83.2848 146.178C83.2848 146.675 83.35 147.095 83.4803 147.437C83.6107 147.775 83.8042 148.032 84.0609 148.207C84.3176 148.378 84.6333 148.463 85.0081 148.463C85.3789 148.463 85.7109 148.419 86.0043 148.329C86.2976 148.239 86.5747 148.123 86.8354 147.981V149.227C86.5787 149.374 86.3037 149.482 86.0104 149.551C85.717 149.625 85.3565 149.661 84.9287 149.661ZM102.388 140.604L100.054 149.539H98.4528L96.9617 144.186C96.925 144.055 96.8843 143.9 96.8394 143.721C96.7946 143.542 96.7498 143.359 96.705 143.171C96.6643 142.984 96.6276 142.813 96.595 142.658C96.5665 142.499 96.5461 142.377 96.5339 142.291C96.5257 142.377 96.5074 142.497 96.4789 142.652C96.4504 142.807 96.4157 142.978 96.375 143.165C96.3383 143.348 96.2976 143.532 96.2528 143.715C96.2079 143.894 96.1672 144.053 96.1305 144.192L94.6639 149.539H93.0688L90.7405 140.604H92.2133L93.5027 145.842C93.5435 146.009 93.5842 146.19 93.6249 146.386C93.6698 146.577 93.7105 146.771 93.7472 146.966C93.7879 147.162 93.8246 147.353 93.8572 147.541C93.8898 147.724 93.9162 147.891 93.9366 148.042C93.957 147.887 93.9835 147.716 94.0161 147.528C94.0487 147.337 94.0833 147.143 94.12 146.948C94.1607 146.748 94.2014 146.557 94.2422 146.373C94.287 146.19 94.3318 146.025 94.3766 145.878L95.8311 140.604H97.2611L98.7461 145.897C98.791 146.048 98.8337 146.217 98.8745 146.404C98.9193 146.591 98.9621 146.783 99.0028 146.978C99.0435 147.174 99.0802 147.363 99.1128 147.547C99.1454 147.73 99.1719 147.895 99.1923 148.042C99.2208 147.842 99.2574 147.614 99.3023 147.357C99.3471 147.101 99.398 146.84 99.455 146.575C99.5121 146.31 99.5691 146.066 99.6261 145.842L100.91 140.604H102.388ZM106.159 142.646C107.015 142.646 107.66 142.835 108.096 143.214C108.536 143.593 108.756 144.184 108.756 144.986V149.539H107.736L107.461 148.58H107.412C107.22 148.824 107.023 149.026 106.819 149.185C106.615 149.344 106.379 149.462 106.11 149.539C105.845 149.621 105.521 149.661 105.138 149.661C104.735 149.661 104.375 149.588 104.057 149.441C103.739 149.291 103.488 149.062 103.305 148.757C103.122 148.451 103.03 148.064 103.03 147.596C103.03 146.899 103.289 146.375 103.806 146.025C104.328 145.675 105.114 145.481 106.165 145.445L107.338 145.402V145.047C107.338 144.579 107.228 144.245 107.008 144.045C106.793 143.845 106.487 143.746 106.092 143.746C105.754 143.746 105.426 143.795 105.108 143.892C104.79 143.99 104.48 144.11 104.179 144.253L103.715 143.238C104.045 143.063 104.419 142.921 104.839 142.811C105.263 142.701 105.703 142.646 106.159 142.646ZM107.332 146.306L106.458 146.337C105.741 146.361 105.238 146.483 104.949 146.703C104.66 146.923 104.515 147.225 104.515 147.608C104.515 147.942 104.615 148.186 104.815 148.341C105.014 148.492 105.277 148.567 105.603 148.567C106.1 148.567 106.511 148.427 106.837 148.146C107.167 147.861 107.332 147.443 107.332 146.893V146.306ZM115.314 147.608C115.314 148.052 115.206 148.427 114.99 148.732C114.774 149.038 114.458 149.27 114.042 149.429C113.631 149.584 113.126 149.661 112.527 149.661C112.054 149.661 111.647 149.627 111.305 149.557C110.967 149.492 110.647 149.39 110.345 149.252V148.011C110.667 148.162 111.028 148.292 111.427 148.402C111.83 148.512 112.211 148.567 112.57 148.567C113.042 148.567 113.382 148.494 113.59 148.347C113.798 148.197 113.902 147.997 113.902 147.748C113.902 147.602 113.859 147.471 113.774 147.357C113.692 147.239 113.537 147.119 113.309 146.997C113.085 146.871 112.755 146.72 112.319 146.545C111.891 146.373 111.531 146.202 111.237 146.031C110.944 145.86 110.722 145.654 110.571 145.414C110.421 145.17 110.345 144.858 110.345 144.479C110.345 143.88 110.582 143.426 111.054 143.116C111.531 142.802 112.16 142.646 112.942 142.646C113.358 142.646 113.749 142.688 114.116 142.774C114.487 142.855 114.849 142.976 115.204 143.135L114.751 144.216C114.446 144.082 114.138 143.972 113.829 143.886C113.523 143.797 113.211 143.752 112.894 143.752C112.523 143.752 112.24 143.809 112.044 143.923C111.853 144.037 111.757 144.2 111.757 144.412C111.757 144.571 111.804 144.705 111.897 144.815C111.991 144.925 112.152 145.035 112.38 145.145C112.612 145.255 112.934 145.392 113.346 145.555C113.749 145.709 114.097 145.872 114.391 146.043C114.688 146.21 114.916 146.416 115.075 146.661C115.234 146.905 115.314 147.221 115.314 147.608ZM119.384 148.5C119.571 148.5 119.756 148.484 119.94 148.451C120.123 148.415 120.29 148.372 120.441 148.323V149.411C120.282 149.48 120.076 149.539 119.824 149.588C119.571 149.637 119.308 149.661 119.035 149.661C118.652 149.661 118.308 149.598 118.003 149.472C117.697 149.341 117.455 149.119 117.275 148.806C117.096 148.492 117.006 148.058 117.006 147.504V143.868H116.084V143.226L117.074 142.719L117.544 141.271H118.449V142.774H120.386V143.868H118.449V147.486C118.449 147.828 118.534 148.083 118.705 148.25C118.876 148.417 119.103 148.5 119.384 148.5ZM124.511 142.646C125.114 142.646 125.631 142.77 126.063 143.018C126.495 143.267 126.827 143.619 127.059 144.076C127.292 144.532 127.408 145.078 127.408 145.713V146.483H122.892C122.908 147.139 123.083 147.645 123.417 147.999C123.755 148.353 124.228 148.531 124.835 148.531C125.267 148.531 125.654 148.49 125.996 148.408C126.342 148.323 126.699 148.199 127.065 148.036V149.203C126.727 149.362 126.383 149.478 126.033 149.551C125.682 149.625 125.263 149.661 124.774 149.661C124.11 149.661 123.525 149.533 123.02 149.276C122.519 149.016 122.126 148.628 121.84 148.115C121.559 147.602 121.419 146.964 121.419 146.202C121.419 145.445 121.547 144.801 121.804 144.271C122.06 143.742 122.421 143.338 122.885 143.061C123.35 142.784 123.892 142.646 124.511 142.646ZM124.511 143.727C124.059 143.727 123.692 143.874 123.411 144.167C123.134 144.461 122.971 144.89 122.922 145.457H126.002C125.998 145.119 125.941 144.819 125.831 144.558C125.725 144.298 125.562 144.094 125.342 143.947C125.126 143.801 124.849 143.727 124.511 143.727ZM59.4755 157.604C60.6285 157.604 61.4698 157.841 61.9995 158.313C62.5291 158.786 62.7939 159.448 62.7939 160.3C62.7939 160.687 62.7328 161.055 62.6106 161.406C62.4924 161.752 62.2969 162.06 62.0239 162.328C61.7509 162.593 61.3904 162.803 60.9422 162.958C60.4981 163.113 59.9502 163.19 59.2983 163.19H58.345V166.539H56.8783V157.604H59.4755ZM59.3778 158.821H58.345V161.968H59.1455C59.6059 161.968 59.997 161.915 60.3189 161.809C60.6407 161.699 60.8852 161.526 61.0522 161.29C61.2193 161.053 61.3028 160.742 61.3028 160.355C61.3028 159.837 61.1459 159.452 60.8322 159.2C60.5226 158.947 60.0378 158.821 59.3778 158.821ZM67.8601 159.646C67.9742 159.646 68.0984 159.652 68.2329 159.664C68.3673 159.676 68.4835 159.692 68.5812 159.713L68.4468 161.057C68.3612 161.033 68.2553 161.015 68.129 161.002C68.0068 160.99 67.8968 160.984 67.799 160.984C67.5423 160.984 67.2979 161.027 67.0657 161.112C66.8334 161.194 66.6277 161.32 66.4484 161.491C66.2692 161.658 66.1286 161.868 66.0267 162.121C65.9249 162.373 65.874 162.667 65.874 163.001V166.539H64.4317V159.774H65.5562L65.7517 160.966H65.819C65.9534 160.725 66.1205 160.505 66.3201 160.306C66.5197 160.106 66.7479 159.947 67.0045 159.829C67.2653 159.707 67.5505 159.646 67.8601 159.646ZM75.823 163.141C75.823 163.703 75.7497 164.203 75.603 164.638C75.4563 165.074 75.2424 165.443 74.9613 165.745C74.6802 166.042 74.3421 166.27 73.9469 166.429C73.5517 166.584 73.1056 166.661 72.6085 166.661C72.1441 166.661 71.7183 166.584 71.3313 166.429C70.9442 166.27 70.6081 166.042 70.3229 165.745C70.0418 165.443 69.8238 165.074 69.669 164.638C69.5142 164.203 69.4368 163.703 69.4368 163.141C69.4368 162.396 69.5651 161.764 69.8218 161.247C70.0826 160.725 70.4533 160.328 70.934 160.055C71.4148 159.782 71.9872 159.646 72.6513 159.646C73.2746 159.646 73.8246 159.782 74.3013 160.055C74.778 160.328 75.1508 160.725 75.4197 161.247C75.6886 161.768 75.823 162.4 75.823 163.141ZM70.9157 163.141C70.9157 163.634 70.9748 164.056 71.0929 164.406C71.2152 164.757 71.4026 165.026 71.6552 165.213C71.9078 165.396 72.2337 165.488 72.633 165.488C73.0322 165.488 73.3582 165.396 73.6108 165.213C73.8634 165.026 74.0487 164.757 74.1669 164.406C74.285 164.056 74.3441 163.634 74.3441 163.141C74.3441 162.648 74.285 162.231 74.1669 161.888C74.0487 161.542 73.8634 161.279 73.6108 161.1C73.3582 160.917 73.0302 160.825 72.6268 160.825C72.032 160.825 71.5981 161.025 71.3252 161.424C71.0522 161.823 70.9157 162.396 70.9157 163.141ZM80.1986 166.661C79.559 166.661 79.0049 166.537 78.5364 166.289C78.0679 166.04 77.7073 165.659 77.4547 165.146C77.2021 164.632 77.0758 163.981 77.0758 163.19C77.0758 162.367 77.2143 161.695 77.4914 161.173C77.7684 160.652 78.1514 160.267 78.6403 160.018C79.1332 159.77 79.6975 159.646 80.3331 159.646C80.7364 159.646 81.1011 159.686 81.427 159.768C81.757 159.845 82.0361 159.941 82.2642 160.055L81.8364 161.204C81.5879 161.102 81.3333 161.017 81.0725 160.947C80.8118 160.878 80.5612 160.843 80.3209 160.843C79.9257 160.843 79.5957 160.931 79.3308 161.106C79.0701 161.281 78.8745 161.542 78.7442 161.888C78.6179 162.235 78.5547 162.665 78.5547 163.178C78.5547 163.675 78.6199 164.095 78.7503 164.437C78.8806 164.775 79.0742 165.032 79.3308 165.207C79.5875 165.378 79.9033 165.463 80.2781 165.463C80.6488 165.463 80.9809 165.419 81.2742 165.329C81.5675 165.239 81.8446 165.123 82.1053 164.981V166.227C81.8487 166.374 81.5737 166.482 81.2803 166.551C80.987 166.625 80.6264 166.661 80.1986 166.661ZM86.3893 159.646C86.9923 159.646 87.5097 159.77 87.9415 160.018C88.3734 160.267 88.7054 160.619 88.9377 161.076C89.1699 161.532 89.286 162.078 89.286 162.713V163.483H84.7698C84.7861 164.139 84.9613 164.645 85.2954 164.999C85.6335 165.353 86.1061 165.531 86.7132 165.531C87.145 165.531 87.5321 165.49 87.8743 165.408C88.2206 165.323 88.5771 165.199 88.9438 165.036V166.203C88.6056 166.362 88.2613 166.478 87.911 166.551C87.5606 166.625 87.141 166.661 86.6521 166.661C85.988 166.661 85.4033 166.533 84.8981 166.276C84.397 166.016 84.0039 165.628 83.7187 165.115C83.4376 164.602 83.297 163.964 83.297 163.202C83.297 162.445 83.4253 161.801 83.682 161.271C83.9387 160.742 84.2992 160.338 84.7637 160.061C85.2282 159.784 85.77 159.646 86.3893 159.646ZM86.3893 160.727C85.9371 160.727 85.5704 160.874 85.2893 161.167C85.0122 161.461 84.8493 161.89 84.8004 162.457H87.8804C87.8763 162.119 87.8193 161.819 87.7093 161.558C87.6034 161.298 87.4404 161.094 87.2204 160.947C87.0045 160.801 86.7274 160.727 86.3893 160.727ZM95.4522 164.608C95.4522 165.052 95.3442 165.427 95.1283 165.732C94.9124 166.038 94.5966 166.27 94.1811 166.429C93.7696 166.584 93.2644 166.661 92.6655 166.661C92.1929 166.661 91.7855 166.627 91.4433 166.557C91.1051 166.492 90.7853 166.39 90.4838 166.252V165.011C90.8057 165.162 91.1662 165.292 91.5655 165.402C91.9688 165.512 92.3497 165.567 92.7083 165.567C93.1809 165.567 93.5211 165.494 93.7288 165.347C93.9366 165.197 94.0405 164.997 94.0405 164.748C94.0405 164.602 93.9977 164.471 93.9122 164.357C93.8307 164.239 93.6759 164.119 93.4477 163.997C93.2237 163.871 92.8936 163.72 92.4577 163.545C92.0299 163.373 91.6694 163.202 91.376 163.031C91.0827 162.86 90.8607 162.654 90.7099 162.414C90.5592 162.17 90.4838 161.858 90.4838 161.479C90.4838 160.88 90.7201 160.426 91.1927 160.116C91.6694 159.802 92.2988 159.646 93.0811 159.646C93.4966 159.646 93.8877 159.688 94.2544 159.774C94.6252 159.855 94.9878 159.976 95.3422 160.135L94.89 161.216C94.5844 161.082 94.2768 160.972 93.9672 160.886C93.6616 160.797 93.3499 160.752 93.0322 160.752C92.6614 160.752 92.3783 160.809 92.1827 160.923C91.9912 161.037 91.8955 161.2 91.8955 161.412C91.8955 161.571 91.9423 161.705 92.036 161.815C92.1297 161.925 92.2907 162.035 92.5188 162.145C92.7511 162.255 93.0729 162.392 93.4844 162.555C93.8877 162.709 94.2361 162.872 94.5294 163.043C94.8268 163.21 95.055 163.416 95.2139 163.661C95.3728 163.905 95.4522 164.221 95.4522 164.608ZM101.551 164.608C101.551 165.052 101.443 165.427 101.227 165.732C101.011 166.038 100.696 166.27 100.28 166.429C99.8686 166.584 99.3634 166.661 98.7645 166.661C98.2919 166.661 97.8845 166.627 97.5422 166.557C97.2041 166.492 96.8843 166.39 96.5828 166.252V165.011C96.9046 165.162 97.2652 165.292 97.6645 165.402C98.0678 165.512 98.4487 165.567 98.8073 165.567C99.2799 165.567 99.62 165.494 99.8278 165.347C100.036 165.197 100.139 164.997 100.139 164.748C100.139 164.602 100.097 164.471 100.011 164.357C99.9297 164.239 99.7749 164.119 99.5467 163.997C99.3226 163.871 98.9926 163.72 98.5567 163.545C98.1289 163.373 97.7684 163.202 97.475 163.031C97.1817 162.86 96.9596 162.654 96.8089 162.414C96.6581 162.17 96.5828 161.858 96.5828 161.479C96.5828 160.88 96.8191 160.426 97.2917 160.116C97.7684 159.802 98.3978 159.646 99.18 159.646C99.5956 159.646 99.9867 159.688 100.353 159.774C100.724 159.855 101.087 159.976 101.441 160.135L100.989 161.216C100.683 161.082 100.376 160.972 100.066 160.886C99.7606 160.797 99.4489 160.752 99.1311 160.752C98.7604 160.752 98.4773 160.809 98.2817 160.923C98.0902 161.037 97.9945 161.2 97.9945 161.412C97.9945 161.571 98.0413 161.705 98.135 161.815C98.2287 161.925 98.3897 162.035 98.6178 162.145C98.85 162.255 99.1719 162.392 99.5834 162.555C99.9867 162.709 100.335 162.872 100.628 163.043C100.926 163.21 101.154 163.416 101.313 163.661C101.472 163.905 101.551 164.221 101.551 164.608ZM104.54 159.774V166.539H103.103V159.774H104.54ZM103.831 157.183C104.051 157.183 104.24 157.242 104.399 157.36C104.562 157.478 104.643 157.682 104.643 157.971C104.643 158.256 104.562 158.46 104.399 158.582C104.24 158.7 104.051 158.759 103.831 158.759C103.603 158.759 103.409 158.7 103.25 158.582C103.095 158.46 103.018 158.256 103.018 157.971C103.018 157.682 103.095 157.478 103.25 157.36C103.409 157.242 103.603 157.183 103.831 157.183ZM110.125 159.646C110.887 159.646 111.48 159.843 111.904 160.238C112.331 160.63 112.545 161.259 112.545 162.127V166.539H111.109V162.396C111.109 161.87 111.001 161.477 110.785 161.216C110.569 160.951 110.235 160.819 109.783 160.819C109.127 160.819 108.671 161.021 108.414 161.424C108.161 161.827 108.035 162.412 108.035 163.178V166.539H106.599V159.774H107.717L107.919 160.691H107.999C108.145 160.454 108.326 160.261 108.542 160.11C108.762 159.955 109.007 159.839 109.276 159.762C109.549 159.684 109.832 159.646 110.125 159.646ZM116.487 169.546C115.57 169.546 114.867 169.381 114.379 169.051C113.89 168.721 113.645 168.258 113.645 167.664C113.645 167.248 113.776 166.896 114.036 166.606C114.297 166.321 114.67 166.124 115.155 166.013C114.971 165.932 114.812 165.806 114.678 165.635C114.548 165.459 114.482 165.266 114.482 165.054C114.482 164.801 114.554 164.586 114.696 164.406C114.839 164.227 115.053 164.054 115.338 163.887C114.984 163.736 114.698 163.492 114.482 163.153C114.271 162.811 114.165 162.41 114.165 161.95C114.165 161.461 114.269 161.045 114.476 160.703C114.684 160.357 114.988 160.094 115.387 159.915C115.786 159.731 116.269 159.64 116.835 159.64C116.958 159.64 117.09 159.648 117.233 159.664C117.379 159.676 117.514 159.692 117.636 159.713C117.762 159.729 117.858 159.747 117.923 159.768H120.264V160.568L119.115 160.782C119.225 160.937 119.312 161.114 119.378 161.314C119.443 161.51 119.475 161.723 119.475 161.956C119.475 162.656 119.233 163.208 118.748 163.612C118.267 164.011 117.603 164.211 116.756 164.211C116.552 164.203 116.355 164.186 116.163 164.162C116.016 164.251 115.904 164.351 115.827 164.461C115.75 164.567 115.711 164.687 115.711 164.822C115.711 164.932 115.75 165.021 115.827 165.091C115.904 165.156 116.018 165.205 116.169 165.237C116.324 165.27 116.511 165.286 116.731 165.286H117.899C118.64 165.286 119.206 165.443 119.598 165.757C119.989 166.071 120.184 166.531 120.184 167.138C120.184 167.908 119.866 168.501 119.231 168.916C118.595 169.336 117.681 169.546 116.487 169.546ZM116.542 168.537C117.043 168.537 117.465 168.489 117.807 168.391C118.149 168.293 118.408 168.152 118.583 167.969C118.758 167.79 118.846 167.576 118.846 167.327C118.846 167.107 118.791 166.938 118.681 166.82C118.571 166.702 118.406 166.621 118.186 166.576C117.966 166.531 117.693 166.509 117.367 166.509H116.304C116.039 166.509 115.805 166.549 115.601 166.631C115.397 166.716 115.238 166.839 115.124 166.997C115.014 167.156 114.959 167.348 114.959 167.572C114.959 167.881 115.096 168.12 115.369 168.287C115.646 168.454 116.037 168.537 116.542 168.537ZM116.823 163.27C117.243 163.27 117.554 163.155 117.758 162.927C117.962 162.695 118.064 162.369 118.064 161.95C118.064 161.493 117.958 161.151 117.746 160.923C117.538 160.695 117.228 160.581 116.817 160.581C116.414 160.581 116.106 160.697 115.894 160.929C115.686 161.161 115.583 161.505 115.583 161.962C115.583 162.373 115.686 162.695 115.894 162.927C116.106 163.155 116.416 163.27 116.823 163.27Z" fill="black"/>
<path d="M138.996 71.4282C138.996 77.6492 133.953 82.6924 127.732 82.6924L64.8879 82.6924C63.1598 82.6924 61.7589 81.2915 61.7589 79.5634L61.7589 13.2578C61.7589 9.80168 64.5607 6.99993 68.0168 6.99993L135.867 6.99994C137.595 6.99994 138.996 8.40081 138.996 10.1289L138.996 71.4282Z" fill="url(#paint0_linear_3_22705)"/>
<g opacity="0.7">
<path d="M54.5581 109.372C54.358 109.372 54.1973 109.528 54.1973 109.723C54.1973 109.917 54.358 110.073 54.5581 110.073C54.7582 110.073 54.9189 109.917 54.9189 109.723C54.9189 109.528 54.7582 109.372 54.5581 109.372Z" fill="#6A1A1E"/>
<path d="M56.2612 109.372C56.0611 109.372 55.9004 109.528 55.9004 109.723C55.9004 109.917 56.0611 110.073 56.2612 110.073C56.4613 110.073 56.622 109.917 56.622 109.723C56.622 109.528 56.4613 109.372 56.2612 109.372Z" fill="#6A1A1E"/>
<path d="M57.976 109.372C57.7759 109.372 57.6152 109.528 57.6152 109.723C57.6152 109.917 57.7759 110.073 57.976 110.073C58.1762 110.073 58.3369 109.917 58.3369 109.723C58.3369 109.528 58.1762 109.372 57.976 109.372Z" fill="#6A1A1E"/>
<path d="M59.6714 109.372C59.4712 109.372 59.3105 109.528 59.3105 109.723C59.3105 109.917 59.4712 110.073 59.6714 110.073C59.8715 110.073 60.0322 109.917 60.0322 109.723C60.0322 109.528 59.8715 109.372 59.6714 109.372Z" fill="#6A1A1E"/>
<path d="M61.394 109.372C61.1939 109.372 61.0332 109.528 61.0332 109.723C61.0332 109.917 61.1939 110.073 61.394 110.073C61.5941 110.073 61.7548 109.917 61.7548 109.723C61.7548 109.528 61.5941 109.372 61.394 109.372Z" fill="#6A1A1E"/>
<path d="M63.0893 109.372C62.8892 109.372 62.7285 109.528 62.7285 109.723C62.7285 109.917 62.8892 110.073 63.0893 110.073C63.2894 110.073 63.4501 109.917 63.4501 109.723C63.4501 109.528 63.2894 109.372 63.0893 109.372Z" fill="#6A1A1E"/>
<path d="M64.8003 109.372C64.6001 109.372 64.4395 109.528 64.4395 109.723C64.4395 109.917 64.6001 110.073 64.8003 110.073C65.0004 110.073 65.1611 109.917 65.1611 109.723C65.1611 109.528 65.0004 109.372 64.8003 109.372Z" fill="#6A1A1E"/>
<path d="M66.4936 109.372C66.2935 109.372 66.1328 109.528 66.1328 109.723C66.1328 109.917 66.2935 110.073 66.4936 110.073C66.6937 110.073 66.8544 109.917 66.8544 109.723C66.8544 109.528 66.6937 109.372 66.4936 109.372Z" fill="#6A1A1E"/>
<path d="M68.2085 109.372C68.0083 109.372 67.8477 109.528 67.8477 109.723C67.8477 109.917 68.0083 110.073 68.2085 110.073C68.4086 110.073 68.5693 109.917 68.5693 109.723C68.5693 109.528 68.4086 109.372 68.2085 109.372Z" fill="#6A1A1E"/>
<path d="M69.9116 109.372C69.7115 109.372 69.5508 109.528 69.5508 109.723C69.5508 109.917 69.7115 110.073 69.9116 110.073C70.1117 110.073 70.2724 109.917 70.2724 109.723C70.2724 109.528 70.1117 109.372 69.9116 109.372Z" fill="#6A1A1E"/>
<path d="M71.6284 109.372C71.4283 109.372 71.2676 109.528 71.2676 109.723C71.2676 109.917 71.4283 110.073 71.6284 110.073C71.8285 110.073 71.9892 109.917 71.9892 109.723C71.9892 109.528 71.8285 109.372 71.6284 109.372Z" fill="#6A1A1E"/>
<path d="M73.3139 109.372C73.1138 109.372 72.9531 109.528 72.9531 109.723C72.9531 109.917 73.1138 110.073 73.3139 110.073C73.514 110.073 73.6747 109.917 73.6747 109.723C73.6747 109.528 73.514 109.372 73.3139 109.372Z" fill="#6A1A1E"/>
<path d="M75.0346 109.372C74.8345 109.372 74.6738 109.528 74.6738 109.723C74.6738 109.917 74.8345 110.073 75.0346 110.073C75.2347 110.073 75.3954 109.917 75.3954 109.723C75.3954 109.528 75.2347 109.372 75.0346 109.372Z" fill="#6A1A1E"/>
<path d="M76.7397 109.372C76.5396 109.372 76.3789 109.528 76.3789 109.723C76.3789 109.917 76.5396 110.073 76.7397 110.073C76.9398 110.073 77.1005 109.917 77.1005 109.723C77.1005 109.528 76.9398 109.372 76.7397 109.372Z" fill="#6A1A1E"/>
<path d="M78.4624 109.372C78.2623 109.372 78.1016 109.528 78.1016 109.723C78.1016 109.917 78.2623 110.073 78.4624 110.073C78.6625 110.073 78.8232 109.917 78.8232 109.723C78.8232 109.528 78.6625 109.372 78.4624 109.372Z" fill="#6A1A1E"/>
<path d="M80.1577 109.372C79.9576 109.372 79.7969 109.528 79.7969 109.723C79.7969 109.917 79.9576 110.073 80.1577 110.073C80.3578 110.073 80.5185 109.917 80.5185 109.723C80.5185 109.528 80.3578 109.372 80.1577 109.372Z" fill="#6A1A1E"/>
<path d="M81.8647 109.372C81.6646 109.372 81.5039 109.528 81.5039 109.723C81.5039 109.917 81.6646 110.073 81.8647 110.073C82.0648 110.073 82.2255 109.917 82.2255 109.723C82.2255 109.528 82.0648 109.372 81.8647 109.372Z" fill="#6A1A1E"/>
<path d="M83.5717 109.372C83.3716 109.372 83.2109 109.528 83.2109 109.723C83.2109 109.917 83.3716 110.073 83.5717 110.073C83.7719 110.073 83.9326 109.917 83.9326 109.723C83.9326 109.528 83.7719 109.372 83.5717 109.372Z" fill="#6A1A1E"/>
<path d="M85.2788 109.372C85.0787 109.372 84.918 109.528 84.918 109.723C84.918 109.917 85.0787 110.073 85.2788 110.073C85.4789 110.073 85.6396 109.917 85.6396 109.723C85.6396 109.528 85.4789 109.372 85.2788 109.372Z" fill="#6A1A1E"/>
<path d="M86.9839 109.372C86.7837 109.372 86.623 109.528 86.623 109.723C86.623 109.917 86.7837 110.073 86.9839 110.073C87.184 110.073 87.3447 109.917 87.3447 109.723C87.3447 109.528 87.184 109.372 86.9839 109.372Z" fill="#6A1A1E"/>
<path d="M88.685 109.372C88.4849 109.372 88.3242 109.528 88.3242 109.723C88.3242 109.917 88.4849 110.073 88.685 110.073C88.8851 110.073 89.0458 109.917 89.0458 109.723C89.0458 109.528 88.8851 109.372 88.685 109.372Z" fill="#6A1A1E"/>
<path d="M90.3999 109.372C90.1998 109.372 90.0391 109.528 90.0391 109.723C90.0391 109.917 90.1998 110.073 90.3999 110.073C90.6 110.073 90.7607 109.917 90.7607 109.723C90.7607 109.528 90.6 109.372 90.3999 109.372Z" fill="#6A1A1E"/>
<path d="M92.1069 109.372C91.9068 109.372 91.7461 109.528 91.7461 109.723C91.7461 109.917 91.9068 110.073 92.1069 110.073C92.307 110.073 92.4677 109.917 92.4677 109.723C92.4677 109.528 92.307 109.372 92.1069 109.372Z" fill="#6A1A1E"/>
<path d="M93.8081 109.372C93.608 109.372 93.4473 109.528 93.4473 109.723C93.4473 109.917 93.608 110.073 93.8081 110.073C94.0082 110.073 94.1689 109.917 94.1689 109.723C94.1689 109.528 94.0082 109.372 93.8081 109.372Z" fill="#6A1A1E"/>
<path d="M95.519 109.372C95.3189 109.372 95.1582 109.528 95.1582 109.723C95.1582 109.917 95.3189 110.073 95.519 110.073C95.7191 110.073 95.8798 109.917 95.8798 109.723C95.8798 109.528 95.7191 109.372 95.519 109.372Z" fill="#6A1A1E"/>
<path d="M97.2221 109.372C97.022 109.372 96.8613 109.528 96.8613 109.723C96.8613 109.917 97.022 110.073 97.2221 110.073C97.4222 110.073 97.5829 109.917 97.5829 109.723C97.5829 109.528 97.4222 109.372 97.2221 109.372Z" fill="#6A1A1E"/>
<path d="M98.9253 109.372C98.7251 109.372 98.5645 109.528 98.5645 109.723C98.5645 109.917 98.7251 110.073 98.9253 110.073C99.1254 110.073 99.2861 109.917 99.2861 109.723C99.2861 109.528 99.1254 109.372 98.9253 109.372Z" fill="#6A1A1E"/>
<path d="M100.642 109.372C100.442 109.372 100.281 109.528 100.281 109.723C100.281 109.917 100.442 110.073 100.642 110.073C100.842 110.073 101.003 109.917 101.003 109.723C101.003 109.528 100.842 109.372 100.642 109.372Z" fill="#6A1A1E"/>
<path d="M102.333 109.372C102.133 109.372 101.973 109.528 101.973 109.723C101.973 109.917 102.133 110.073 102.333 110.073C102.534 110.073 102.694 109.917 102.694 109.723C102.694 109.528 102.534 109.372 102.333 109.372Z" fill="#6A1A1E"/>
<path d="M104.048 109.372C103.848 109.372 103.688 109.528 103.688 109.723C103.688 109.917 103.848 110.073 104.048 110.073C104.248 110.073 104.409 109.917 104.409 109.723C104.409 109.528 104.248 109.372 104.048 109.372Z" fill="#6A1A1E"/>
<path d="M105.746 109.372C105.545 109.372 105.385 109.528 105.385 109.723C105.385 109.917 105.545 110.073 105.746 110.073C105.946 110.073 106.106 109.917 106.106 109.723C106.106 109.528 105.946 109.372 105.746 109.372Z" fill="#6A1A1E"/>
<path d="M107.458 109.372C107.258 109.372 107.098 109.528 107.098 109.723C107.098 109.917 107.258 110.073 107.458 110.073C107.659 110.073 107.819 109.917 107.819 109.723C107.819 109.528 107.659 109.372 107.458 109.372Z" fill="#6A1A1E"/>
<path d="M109.16 109.372C108.96 109.372 108.799 109.528 108.799 109.723C108.799 109.917 108.96 110.073 109.16 110.073C109.36 110.073 109.52 109.917 109.52 109.723C109.52 109.528 109.36 109.372 109.16 109.372Z" fill="#6A1A1E"/>
<path d="M110.865 109.372C110.665 109.372 110.504 109.528 110.504 109.723C110.504 109.917 110.665 110.073 110.865 110.073C111.065 110.073 111.226 109.917 111.226 109.723C111.226 109.528 111.065 109.372 110.865 109.372Z" fill="#6A1A1E"/>
<path d="M112.572 109.372C112.372 109.372 112.211 109.528 112.211 109.723C112.211 109.917 112.372 110.073 112.572 110.073C112.772 110.073 112.933 109.917 112.933 109.723C112.933 109.528 112.772 109.372 112.572 109.372Z" fill="#6A1A1E"/>
<path d="M114.285 109.372C114.085 109.372 113.924 109.528 113.924 109.723C113.924 109.917 114.085 110.073 114.285 110.073C114.485 110.073 114.645 109.917 114.645 109.723C114.645 109.528 114.485 109.372 114.285 109.372Z" fill="#6A1A1E"/>
<path d="M115.99 109.372C115.79 109.372 115.629 109.528 115.629 109.723C115.629 109.917 115.79 110.073 115.99 110.073C116.19 110.073 116.351 109.917 116.351 109.723C116.351 109.528 116.19 109.372 115.99 109.372Z" fill="#6A1A1E"/>
<path d="M117.697 109.372C117.497 109.372 117.336 109.528 117.336 109.723C117.336 109.917 117.497 110.073 117.697 110.073C117.897 110.073 118.058 109.917 118.058 109.723C118.058 109.528 117.897 109.372 117.697 109.372Z" fill="#6A1A1E"/>
<path d="M119.458 109.136C119.258 109.136 119.098 109.292 119.098 109.486C119.098 109.681 119.258 109.837 119.458 109.837C119.659 109.837 119.819 109.681 119.819 109.486C119.819 109.292 119.659 109.136 119.458 109.136Z" fill="#6A1A1E"/>
<path d="M120.806 108.855C121.005 108.855 121.167 108.699 121.167 108.505C121.167 108.311 121.005 108.155 120.806 108.155C120.607 108.155 120.445 108.311 120.445 108.505C120.445 108.699 120.607 108.855 120.806 108.855Z" fill="#6A1A1E"/>
<path d="M121.925 106.922C121.725 106.922 121.564 107.078 121.564 107.273C121.564 107.467 121.725 107.623 121.925 107.623C122.125 107.623 122.286 107.467 122.286 107.273C122.286 107.078 122.125 106.922 121.925 106.922Z" fill="#6A1A1E"/>
<path d="M123.005 105.637C122.805 105.637 122.645 105.793 122.645 105.987C122.645 106.182 122.805 106.338 123.005 106.338C123.205 106.338 123.366 106.182 123.366 105.987C123.366 105.793 123.205 105.637 123.005 105.637Z" fill="#6A1A1E"/>
<path d="M124.035 104.33C123.835 104.33 123.674 104.486 123.674 104.681C123.674 104.875 123.835 105.031 124.035 105.031C124.235 105.031 124.395 104.875 124.395 104.681C124.395 104.486 124.235 104.33 124.035 104.33Z" fill="#6A1A1E"/>
<path d="M125.001 103.692C125.201 103.692 125.362 103.535 125.362 103.342C125.362 103.148 125.201 102.991 125.001 102.991C124.802 102.991 124.641 103.148 124.641 103.342C124.641 103.535 124.802 103.692 125.001 103.692Z" fill="#6A1A1E"/>
<path d="M125.929 101.604C125.729 101.604 125.568 101.76 125.568 101.954C125.568 102.149 125.729 102.305 125.929 102.305C126.129 102.305 126.29 102.149 126.29 101.954C126.29 101.76 126.129 101.604 125.929 101.604Z" fill="#6A1A1E"/>
<path d="M126.8 100.191C126.6 100.191 126.439 100.347 126.439 100.541C126.439 100.736 126.6 100.892 126.8 100.892C127 100.892 127.161 100.736 127.161 100.541C127.161 100.347 127 100.191 126.8 100.191Z" fill="#6A1A1E"/>
<path d="M127.619 98.7434C127.419 98.7434 127.258 98.8995 127.258 99.0939C127.258 99.2882 127.419 99.4443 127.619 99.4443C127.819 99.4443 127.979 99.2882 127.979 99.0939C127.979 98.8995 127.819 98.7434 127.619 98.7434Z" fill="#6A1A1E"/>
<path d="M128.396 97.9922C128.595 97.9922 128.757 97.8353 128.757 97.6417C128.757 97.4482 128.595 97.2913 128.396 97.2913C128.197 97.2913 128.035 97.4482 128.035 97.6417C128.035 97.8353 128.197 97.9922 128.396 97.9922Z" fill="#6A1A1E"/>
<path d="M129.091 95.7756C128.891 95.7756 128.73 95.9317 128.73 96.1261C128.73 96.3205 128.891 96.4766 129.091 96.4766C129.291 96.4766 129.452 96.3205 129.452 96.1261C129.452 95.9317 129.291 95.7756 129.091 95.7756Z" fill="#6A1A1E"/>
<path d="M129.749 94.26C129.549 94.26 129.389 94.4161 129.389 94.6105C129.389 94.8048 129.549 94.9609 129.749 94.9609C129.95 94.9609 130.11 94.8048 130.11 94.6105C130.11 94.4161 129.95 94.26 129.749 94.26Z" fill="#6A1A1E"/>
<path d="M130.322 93.4062C130.521 93.4062 130.683 93.2493 130.683 93.0558C130.683 92.8622 130.521 92.7053 130.322 92.7053C130.122 92.7053 129.961 92.8622 129.961 93.0558C129.961 93.2493 130.122 93.4062 130.322 93.4062Z" fill="#6A1A1E"/>
<path d="M130.876 91.135C130.676 91.135 130.516 91.2911 130.516 91.4855C130.516 91.6798 130.676 91.8359 130.876 91.8359C131.077 91.8359 131.237 91.6798 131.237 91.4855C131.237 91.2911 131.077 91.135 130.876 91.135Z" fill="#6A1A1E"/>
<path d="M131.343 90.2676C131.542 90.2676 131.704 90.1107 131.704 89.9171C131.704 89.7236 131.542 89.5667 131.343 89.5667C131.144 89.5667 130.982 89.7236 130.982 89.9171C130.982 90.1107 131.144 90.2676 131.343 90.2676Z" fill="#6A1A1E"/>
<path d="M131.757 87.968C131.557 87.968 131.396 88.1241 131.396 88.3185C131.396 88.5129 131.557 88.6689 131.757 88.6689C131.957 88.6689 132.118 88.5129 132.118 88.3185C132.118 88.1241 131.957 87.968 131.757 87.968Z" fill="#6A1A1E"/>
<path d="M132.103 86.3499C131.903 86.3499 131.742 86.5059 131.742 86.7003C131.742 86.8947 131.903 87.0508 132.103 87.0508C132.303 87.0508 132.464 86.8947 132.464 86.7003C132.464 86.5059 132.303 86.3499 132.103 86.3499Z" fill="#6A1A1E"/>
<path d="M132.415 85.4473C132.615 85.4473 132.776 85.2904 132.776 85.0968C132.776 84.9032 132.615 84.7463 132.415 84.7463C132.216 84.7463 132.055 84.9032 132.055 85.0968C132.055 85.2904 132.216 85.4473 132.415 85.4473Z" fill="#6A1A1E"/>
<path d="M132.638 83.093C132.438 83.093 132.277 83.2491 132.277 83.4435C132.277 83.6379 132.438 83.7939 132.638 83.7939C132.838 83.7939 132.999 83.6379 132.999 83.4435C132.999 83.2491 132.838 83.093 132.638 83.093Z" fill="#6A1A1E"/>
<path d="M132.806 81.4612C132.606 81.4612 132.445 81.6173 132.445 81.8116C132.445 82.006 132.606 82.1621 132.806 82.1621C133.006 82.1621 133.167 82.006 133.167 81.8116C133.167 81.6173 133.006 81.4612 132.806 81.4612Z" fill="#6A1A1E"/>
<path d="M132.929 79.8333C132.729 79.8333 132.568 79.9893 132.568 80.1837C132.568 80.3781 132.729 80.5342 132.929 80.5342C133.129 80.5342 133.29 80.3781 133.29 80.1837C133.29 79.9893 133.129 79.8333 132.929 79.8333Z" fill="#6A1A1E"/>
<path d="M132.958 78.1653C132.758 78.1653 132.598 78.3214 132.598 78.5157C132.598 78.7101 132.758 78.8662 132.958 78.8662C133.159 78.8662 133.319 78.7101 133.319 78.5157C133.319 78.3214 133.159 78.1653 132.958 78.1653Z" fill="#6A1A1E"/>
<path d="M132.51 75.2306C132.51 75.425 132.67 75.5811 132.871 75.5811C133.071 75.5811 133.231 75.425 133.231 75.2306C133.231 75.0362 133.071 74.8801 132.871 74.8801C132.67 74.8801 132.51 75.0362 132.51 75.2306Z" fill="#6A1A1E"/>
<path d="M132.939 76.5139C132.739 76.5139 132.578 76.67 132.578 76.8644C132.578 77.0588 132.739 77.2148 132.939 77.2148C133.139 77.2148 133.3 77.0588 133.3 76.8644C133.3 76.67 133.139 76.5139 132.939 76.5139Z" fill="#6A1A1E"/>
<path d="M132.387 73.588C132.387 73.7824 132.547 73.9385 132.748 73.9385C132.948 73.9385 133.108 73.7824 133.108 73.588C133.108 73.3936 132.948 73.2375 132.748 73.2375C132.547 73.2375 132.387 73.3936 132.387 73.588Z" fill="#6A1A1E"/>
<path d="M132.546 72.291C132.746 72.291 132.907 72.1341 132.907 71.9406C132.907 71.747 132.746 71.5901 132.546 71.5901C132.347 71.5901 132.186 71.747 132.186 71.9406C132.186 72.1341 132.347 72.291 132.546 72.291Z" fill="#6A1A1E"/>
<path d="M131.932 70.3175C131.932 70.5119 132.092 70.668 132.292 70.668C132.493 70.668 132.653 70.5119 132.653 70.3175C132.653 70.1231 132.493 69.967 132.292 69.967C132.092 69.967 131.932 70.1231 131.932 70.3175Z" fill="#6A1A1E"/>
<path d="M131.596 68.7091C131.596 68.9035 131.756 69.0596 131.957 69.0596C132.157 69.0596 132.317 68.9035 132.317 68.7091C132.317 68.5147 132.157 68.3586 131.957 68.3586C131.756 68.3586 131.596 68.5147 131.596 68.7091Z" fill="#6A1A1E"/>
<path d="M131.219 67.0861C131.219 67.2804 131.379 67.4365 131.58 67.4365C131.78 67.4365 131.94 67.2804 131.94 67.0861C131.94 66.8917 131.78 66.7356 131.58 66.7356C131.379 66.7356 131.219 66.8917 131.219 67.0861Z" fill="#6A1A1E"/>
<path d="M130.754 65.5118C130.754 65.7062 130.915 65.8623 131.115 65.8623C131.315 65.8623 131.476 65.7062 131.476 65.5118C131.476 65.3175 131.315 65.1614 131.115 65.1614C130.915 65.1614 130.754 65.3175 130.754 65.5118Z" fill="#6A1A1E"/>
<path d="M130.27 63.9376C130.27 64.132 130.43 64.2881 130.63 64.2881C130.83 64.2881 130.991 64.132 130.991 63.9376C130.991 63.7432 130.83 63.5872 130.63 63.5872C130.43 63.5872 130.27 63.7432 130.27 63.9376Z" fill="#6A1A1E"/>
<path d="M130.054 62.7031C130.253 62.7031 130.415 62.5462 130.415 62.3527C130.415 62.1591 130.253 62.0022 130.054 62.0022C129.855 62.0022 129.693 62.1591 129.693 62.3527C129.693 62.5462 129.855 62.7031 130.054 62.7031Z" fill="#6A1A1E"/>
<path d="M129.435 61.1738C129.634 61.1738 129.796 61.0169 129.796 60.8234C129.796 60.6298 129.634 60.4729 129.435 60.4729C129.236 60.4729 129.074 60.6298 129.074 60.8234C129.074 61.0169 129.236 61.1738 129.435 61.1738Z" fill="#6A1A1E"/>
<path d="M128.755 59.6631C128.955 59.6631 129.116 59.507 129.116 59.3126C129.116 59.1182 128.955 58.9622 128.755 58.9622C128.555 58.9622 128.395 59.1182 128.395 59.3126C128.395 59.507 128.555 59.6631 128.755 59.6631Z" fill="#6A1A1E"/>
<path d="M128.382 57.8409C128.382 57.6466 128.221 57.4905 128.021 57.4905C127.821 57.4905 127.66 57.6466 127.66 57.8409C127.66 58.0353 127.821 58.1914 128.021 58.1914C128.221 58.1914 128.382 58.0353 128.382 57.8409Z" fill="#6A1A1E"/>
<path d="M127.579 56.3595C127.579 56.1651 127.418 56.009 127.218 56.009C127.018 56.009 126.857 56.1651 126.857 56.3595C126.857 56.5539 127.018 56.71 127.218 56.71C127.418 56.71 127.579 56.5539 127.579 56.3595Z" fill="#6A1A1E"/>
<path d="M126.733 54.9415C126.733 54.7471 126.573 54.5911 126.373 54.5911C126.172 54.5911 126.012 54.7471 126.012 54.9415C126.012 55.1359 126.172 55.292 126.373 55.292C126.573 55.292 126.733 55.1359 126.733 54.9415Z" fill="#6A1A1E"/>
<path d="M125.852 53.5284C125.852 53.3341 125.692 53.178 125.492 53.178C125.292 53.178 125.131 53.3341 125.131 53.5284C125.131 53.7228 125.292 53.8789 125.492 53.8789C125.692 53.8789 125.852 53.7228 125.852 53.5284Z" fill="#6A1A1E"/>
<path d="M123.519 51.1758C123.718 51.1758 123.88 51.0189 123.88 50.8253C123.88 50.6318 123.718 50.4749 123.519 50.4749C123.32 50.4749 123.158 50.6318 123.158 50.8253C123.158 51.0189 123.32 51.1758 123.519 51.1758Z" fill="#6A1A1E"/>
<path d="M124.529 52.5303C124.728 52.5303 124.89 52.3734 124.89 52.1798C124.89 51.9863 124.728 51.8293 124.529 51.8293C124.33 51.8293 124.168 51.9863 124.168 52.1798C124.168 52.3734 124.33 52.5303 124.529 52.5303Z" fill="#6A1A1E"/>
<path d="M122.449 49.8809C122.648 49.8809 122.809 49.7239 122.809 49.5304C122.809 49.3368 122.648 49.1799 122.449 49.1799C122.249 49.1799 122.088 49.3368 122.088 49.5304C122.088 49.7239 122.249 49.8809 122.449 49.8809Z" fill="#6A1A1E"/>
<path d="M121.359 48.6436C121.558 48.6436 121.72 48.4866 121.72 48.2931C121.72 48.0995 121.558 47.9426 121.359 47.9426C121.16 47.9426 120.998 48.0995 120.998 48.2931C120.998 48.4866 121.16 48.6436 121.359 48.6436Z" fill="#6A1A1E"/>
<path d="M119.037 46.2334C119.236 46.2334 119.397 46.0765 119.397 45.8829C119.397 45.6894 119.236 45.5325 119.037 45.5325C118.837 45.5325 118.676 45.6894 118.676 45.8829C118.676 46.0765 118.837 46.2334 119.037 46.2334Z" fill="#6A1A1E"/>
<path d="M120.595 47.0753C120.595 46.8809 120.434 46.7249 120.234 46.7249C120.034 46.7249 119.873 46.8809 119.873 47.0753C119.873 47.2697 120.034 47.4258 120.234 47.4258C120.434 47.4258 120.595 47.2697 120.595 47.0753Z" fill="#6A1A1E"/>
<path d="M117.804 44.4026C117.604 44.4026 117.443 44.5587 117.443 44.7531C117.443 44.9474 117.604 45.1035 117.804 45.1035C118.004 45.1035 118.165 44.9474 118.165 44.7531C118.165 44.5587 118.004 44.4026 117.804 44.4026Z" fill="#6A1A1E"/>
<path d="M116.509 43.3167C116.309 43.3167 116.148 43.4727 116.148 43.6671C116.148 43.8615 116.309 44.0176 116.509 44.0176C116.709 44.0176 116.87 43.8615 116.87 43.6671C116.87 43.4727 116.709 43.3167 116.509 43.3167Z" fill="#6A1A1E"/>
<path d="M115.199 42.2815C114.999 42.2815 114.838 42.4376 114.838 42.632C114.838 42.8263 114.999 42.9824 115.199 42.9824C115.399 42.9824 115.56 42.8263 115.56 42.632C115.56 42.4376 115.399 42.2815 115.199 42.2815Z" fill="#6A1A1E"/>
<path d="M113.855 41.9893C114.054 41.9893 114.216 41.8323 114.216 41.6388C114.216 41.4452 114.054 41.2883 113.855 41.2883C113.656 41.2883 113.494 41.4452 113.494 41.6388C113.494 41.8323 113.656 41.9893 113.855 41.9893Z" fill="#6A1A1E"/>
<path d="M112.466 41.041C112.666 41.041 112.827 40.8849 112.827 40.6906C112.827 40.4962 112.666 40.3401 112.466 40.3401C112.266 40.3401 112.105 40.4962 112.105 40.6906C112.105 40.8849 112.266 41.041 112.466 41.041Z" fill="#6A1A1E"/>
<path d="M111.044 40.1514C111.244 40.1514 111.405 39.9945 111.405 39.8009C111.405 39.6073 111.244 39.4504 111.044 39.4504C110.845 39.4504 110.684 39.6073 110.684 39.8009C110.684 39.9945 110.845 40.1514 111.044 40.1514Z" fill="#6A1A1E"/>
<path d="M109.587 39.2959C109.787 39.2959 109.948 39.139 109.948 38.9454C109.948 38.7519 109.787 38.595 109.587 38.595C109.388 38.595 109.227 38.7519 109.227 38.9454C109.227 39.139 109.388 39.2959 109.587 39.2959Z" fill="#6A1A1E"/>
<path d="M108.109 37.803C107.909 37.803 107.748 37.9591 107.748 38.1534C107.748 38.3478 107.909 38.5039 108.109 38.5039C108.309 38.5039 108.47 38.3478 108.47 38.1534C108.47 37.9591 108.309 37.803 108.109 37.803Z" fill="#6A1A1E"/>
<path d="M106.585 37.0791C106.385 37.0791 106.225 37.2352 106.225 37.4296C106.225 37.6239 106.385 37.78 106.585 37.78C106.786 37.78 106.946 37.6239 106.946 37.4296C106.946 37.2352 106.786 37.0791 106.585 37.0791Z" fill="#6A1A1E"/>
<path d="M105.048 37.0957C105.248 37.0957 105.409 36.9388 105.409 36.7452C105.409 36.5517 105.248 36.3948 105.048 36.3948C104.849 36.3948 104.688 36.5517 104.688 36.7452C104.688 36.9388 104.849 37.0957 105.048 37.0957Z" fill="#6A1A1E"/>
<path d="M103.496 36.46C103.695 36.46 103.856 36.303 103.856 36.1095C103.856 35.9159 103.695 35.759 103.496 35.759C103.296 35.759 103.135 35.9159 103.135 36.1095C103.135 36.303 103.296 36.46 103.496 36.46Z" fill="#6A1A1E"/>
<path d="M102.265 35.5431C102.265 35.3487 102.104 35.1926 101.904 35.1926C101.704 35.1926 101.543 35.3487 101.543 35.5431C101.543 35.7375 101.704 35.8935 101.904 35.8935C102.104 35.8935 102.265 35.7375 102.265 35.5431Z" fill="#6A1A1E"/>
<path d="M100.3 35.3701C100.5 35.3701 100.661 35.2132 100.661 35.0196C100.661 34.8261 100.5 34.6692 100.3 34.6692C100.101 34.6692 99.9395 34.8261 99.9395 35.0196C99.9395 35.2132 100.101 35.3701 100.3 35.3701Z" fill="#6A1A1E"/>
<path d="M98.6713 34.9297C98.8706 34.9297 99.0322 34.7728 99.0322 34.5792C99.0322 34.3857 98.8706 34.2288 98.6713 34.2288C98.4721 34.2288 98.3105 34.3857 98.3105 34.5792C98.3105 34.7728 98.4721 34.9297 98.6713 34.9297Z" fill="#6A1A1E"/>
<path d="M97.0053 34.5137C97.2046 34.5137 97.3661 34.3568 97.3661 34.1632C97.3661 33.9697 97.2046 33.8127 97.0053 33.8127C96.8061 33.8127 96.6445 33.9697 96.6445 34.1632C96.6445 34.3568 96.8061 34.5137 97.0053 34.5137Z" fill="#6A1A1E"/>
<path d="M95.706 33.8409C95.706 33.6466 95.5453 33.4905 95.3452 33.4905C95.1451 33.4905 94.9844 33.6466 94.9844 33.8409C94.9844 34.0353 95.1451 34.1914 95.3452 34.1914C95.5453 34.1914 95.706 34.0353 95.706 33.8409Z" fill="#6A1A1E"/>
<path d="M94.038 33.5626C94.038 33.3682 93.8773 33.2122 93.6772 33.2122C93.4771 33.2122 93.3164 33.3682 93.3164 33.5626C93.3164 33.757 93.4771 33.9131 93.6772 33.9131C93.8773 33.9131 94.038 33.757 94.038 33.5626Z" fill="#6A1A1E"/>
<path d="M92.0014 33.6689C92.2015 33.6689 92.3622 33.5129 92.3622 33.3185C92.3622 33.1241 92.2015 32.968 92.0014 32.968C91.8013 32.968 91.6406 33.1241 91.6406 33.3185C91.6406 33.5129 91.8013 33.6689 92.0014 33.6689Z" fill="#6A1A1E"/>
<path d="M90.3061 33.5068C90.5062 33.5068 90.6669 33.3507 90.6669 33.1564C90.6669 32.962 90.5062 32.8059 90.3061 32.8059C90.106 32.8059 89.9453 32.962 89.9453 33.1564C89.9453 33.3507 90.106 33.5068 90.3061 33.5068Z" fill="#6A1A1E"/>
<path d="M88.6128 33.4141C88.8129 33.4141 88.9736 33.258 88.9736 33.0636C88.9736 32.8692 88.8129 32.7131 88.6128 32.7131C88.4126 32.7131 88.252 32.8692 88.252 33.0636C88.252 33.258 88.4126 33.4141 88.6128 33.4141Z" fill="#6A1A1E"/>
<path d="M86.9018 33.3555C87.1019 33.3555 87.2626 33.1994 87.2626 33.005C87.2626 32.8106 87.1019 32.6545 86.9018 32.6545C86.7017 32.6545 86.541 32.8106 86.541 33.005C86.541 33.1994 86.7017 33.3555 86.9018 33.3555Z" fill="#6A1A1E"/>
<path d="M85.2241 33.3848C85.4242 33.3848 85.5849 33.2287 85.5849 33.0343C85.5849 32.8399 85.4242 32.6838 85.2241 32.6838C85.024 32.6838 84.8633 32.8399 84.8633 33.0343C84.8633 33.2287 85.024 33.3848 85.2241 33.3848Z" fill="#6A1A1E"/>
<path d="M83.5249 33.458C83.7241 33.458 83.8857 33.3011 83.8857 33.1075C83.8857 32.914 83.7241 32.7571 83.5249 32.7571C83.3256 32.7571 83.1641 32.914 83.1641 33.1075C83.1641 33.3011 83.3256 33.458 83.5249 33.458Z" fill="#6A1A1E"/>
<path d="M81.8315 33.5947C82.0308 33.5947 82.1923 33.4378 82.1923 33.2443C82.1923 33.0507 82.0308 32.8938 81.8315 32.8938C81.6322 32.8938 81.4707 33.0507 81.4707 33.2443C81.4707 33.4378 81.6322 33.5947 81.8315 33.5947Z" fill="#6A1A1E"/>
<path d="M80.1518 33.791C80.3519 33.791 80.5126 33.6349 80.5126 33.4406C80.5126 33.2462 80.3519 33.0901 80.1518 33.0901C79.9517 33.0901 79.791 33.2462 79.791 33.4406C79.791 33.6349 79.9517 33.791 80.1518 33.791Z" fill="#6A1A1E"/>
<path d="M78.476 33.3586C78.2759 33.3586 78.1152 33.5147 78.1152 33.7091C78.1152 33.9035 78.2759 34.0596 78.476 34.0596C78.6762 34.0596 78.8369 33.9035 78.8369 33.7091C78.8369 33.5147 78.6762 33.3586 78.476 33.3586Z" fill="#6A1A1E"/>
<path d="M76.8139 34.3672C77.0132 34.3672 77.1747 34.2103 77.1747 34.0167C77.1747 33.8232 77.0132 33.6663 76.8139 33.6663C76.6147 33.6663 76.4531 33.8232 76.4531 34.0167C76.4531 34.2103 76.6147 34.3672 76.8139 34.3672Z" fill="#6A1A1E"/>
<path d="M75.1557 34.7344C75.355 34.7344 75.5165 34.5775 75.5165 34.3839C75.5165 34.1904 75.355 34.0334 75.1557 34.0334C74.9565 34.0334 74.7949 34.1904 74.7949 34.3839C74.7949 34.5775 74.9565 34.7344 75.1557 34.7344Z" fill="#6A1A1E"/>
<path d="M73.5327 34.4739C73.3326 34.4739 73.1719 34.63 73.1719 34.8243C73.1719 35.0187 73.3326 35.1748 73.5327 35.1748C73.7328 35.1748 73.8935 35.0187 73.8935 34.8243C73.8935 34.63 73.7328 34.4739 73.5327 34.4739Z" fill="#6A1A1E"/>
<path d="M71.8862 34.967C71.6861 34.967 71.5254 35.1231 71.5254 35.3175C71.5254 35.5119 71.6861 35.668 71.8862 35.668C72.0863 35.668 72.247 35.5119 72.247 35.3175C72.247 35.1231 72.0863 34.967 71.8862 34.967Z" fill="#6A1A1E"/>
<path d="M70.2768 36.2302C70.4761 36.2302 70.6376 36.0733 70.6376 35.8798C70.6376 35.6862 70.4761 35.5293 70.2768 35.5293C70.0776 35.5293 69.916 35.6862 69.916 35.8798C69.916 36.0733 70.0776 36.2302 70.2768 36.2302Z" fill="#6A1A1E"/>
<path d="M68.7241 36.135C68.524 36.135 68.3633 36.2911 68.3633 36.4855C68.3633 36.6798 68.524 36.8359 68.7241 36.8359C68.9242 36.8359 69.0849 36.6798 69.0849 36.4855C69.0849 36.2911 68.9242 36.135 68.7241 36.135Z" fill="#6A1A1E"/>
<path d="M67.1655 37.4971C67.3648 37.4971 67.5263 37.3402 67.5263 37.1466C67.5263 36.953 67.3648 36.7961 67.1655 36.7961C66.9662 36.7961 66.8047 36.953 66.8047 37.1466C66.8047 37.3402 66.9662 37.4971 67.1655 37.4971Z" fill="#6A1A1E"/>
<path d="M65.6147 37.509C65.4146 37.509 65.2539 37.6651 65.2539 37.8595C65.2539 38.0539 65.4146 38.21 65.6147 38.21C65.8148 38.21 65.9755 38.0539 65.9755 37.8595C65.9755 37.6651 65.8148 37.509 65.6147 37.509Z" fill="#6A1A1E"/>
<path d="M64.1147 38.2913C63.9146 38.2913 63.7539 38.4473 63.7539 38.6417C63.7539 38.8361 63.9146 38.9922 64.1147 38.9922C64.3148 38.9922 64.4755 38.8361 64.4755 38.6417C64.4755 38.4473 64.3148 38.2913 64.1147 38.2913Z" fill="#6A1A1E"/>
<path d="M63.0029 39.4874C63.0029 39.2931 62.8422 39.137 62.6421 39.137C62.4419 39.137 62.2812 39.2931 62.2812 39.4874C62.2812 39.6818 62.4419 39.8379 62.6421 39.8379C62.8422 39.8379 63.0029 39.6818 63.0029 39.4874Z" fill="#6A1A1E"/>
<path d="M61.5654 40.3585C61.5654 40.1641 61.4047 40.0081 61.2046 40.0081C61.0044 40.0081 60.8438 40.1641 60.8438 40.3585C60.8438 40.5529 61.0044 40.709 61.2046 40.709C61.4047 40.709 61.5654 40.5529 61.5654 40.3585Z" fill="#6A1A1E"/>
<path d="M59.7924 40.9221C59.5923 40.9221 59.4316 41.0782 59.4316 41.2726C59.4316 41.467 59.5923 41.623 59.7924 41.623C59.9926 41.623 60.1533 41.467 60.1533 41.2726C60.1533 41.0782 59.9926 40.9221 59.7924 40.9221Z" fill="#6A1A1E"/>
<path d="M58.4546 41.9094C58.2544 41.9094 58.0938 42.0655 58.0938 42.2599C58.0938 42.4543 58.2544 42.6103 58.4546 42.6103C58.6547 42.6103 58.8154 42.4543 58.8154 42.2599C58.8154 42.0655 58.6547 41.9094 58.4546 41.9094Z" fill="#6A1A1E"/>
<path d="M57.1089 42.9358C56.9087 42.9358 56.748 43.0919 56.748 43.2863C56.748 43.4806 56.9087 43.6367 57.1089 43.6367C57.309 43.6367 57.4697 43.4806 57.4697 43.2863C57.4697 43.0919 57.309 42.9358 57.1089 42.9358Z" fill="#6A1A1E"/>
<path d="M55.8139 44.7073C56.0132 44.7073 56.1747 44.5504 56.1747 44.3568C56.1747 44.1633 56.0132 44.0063 55.8139 44.0063C55.6147 44.0063 55.4531 44.1633 55.4531 44.3568C55.4531 44.5504 55.6147 44.7073 55.8139 44.7073Z" fill="#6A1A1E"/>
<path d="M54.5581 45.1216C54.358 45.1216 54.1973 45.2777 54.1973 45.472C54.1973 45.6664 54.358 45.8225 54.5581 45.8225C54.7582 45.8225 54.9189 45.6664 54.9189 45.472C54.9189 45.2777 54.7582 45.1216 54.5581 45.1216Z" fill="#6A1A1E"/>
<path d="M53.3745 46.2659C53.1744 46.2659 53.0137 46.422 53.0137 46.6163C53.0137 46.8107 53.1744 46.9668 53.3745 46.9668C53.5746 46.9668 53.7353 46.8107 53.7353 46.6163C53.7353 46.422 53.5746 46.2659 53.3745 46.2659Z" fill="#6A1A1E"/>
<path d="M52.187 47.468C51.9869 47.468 51.8262 47.6241 51.8262 47.8185C51.8262 48.0128 51.9869 48.1689 52.187 48.1689C52.3871 48.1689 52.5478 48.0128 52.5478 47.8185C52.5478 47.6241 52.3871 47.468 52.187 47.468Z" fill="#6A1A1E"/>
<path d="M51.0659 49.4304C51.2652 49.4304 51.4267 49.2735 51.4267 49.0799C51.4267 48.8864 51.2652 48.7295 51.0659 48.7295C50.8666 48.7295 50.7051 48.8864 50.7051 49.0799C50.7051 49.2735 50.8666 49.4304 51.0659 49.4304Z" fill="#6A1A1E"/>
<path d="M50.0131 49.9905C49.813 49.9905 49.6523 50.1466 49.6523 50.3409C49.6523 50.5353 49.813 50.6914 50.0131 50.6914C50.2133 50.6914 50.374 50.5353 50.374 50.3409C50.374 50.1466 50.2133 49.9905 50.0131 49.9905Z" fill="#6A1A1E"/>
<path d="M48.9741 51.3206C48.774 51.3206 48.6133 51.4766 48.6133 51.671C48.6133 51.8654 48.774 52.0215 48.9741 52.0215C49.1742 52.0215 49.3349 51.8654 49.3349 51.671C49.3349 51.4766 49.1742 51.3206 48.9741 51.3206Z" fill="#6A1A1E"/>
<path d="M48.0053 52.675C47.8052 52.675 47.6445 52.8311 47.6445 53.0255C47.6445 53.2199 47.8052 53.376 48.0053 53.376C48.2055 53.376 48.3661 53.2199 48.3661 53.0255C48.3661 52.8311 48.2055 52.675 48.0053 52.675Z" fill="#6A1A1E"/>
<path d="M47.0932 54.7441C47.2925 54.7441 47.454 54.5872 47.454 54.3937C47.454 54.2001 47.2925 54.0432 47.0932 54.0432C46.894 54.0432 46.7324 54.2001 46.7324 54.3937C46.7324 54.5872 46.894 54.7441 47.0932 54.7441Z" fill="#6A1A1E"/>
<path d="M46.2319 56.167C46.4312 56.167 46.5927 56.0101 46.5927 55.8165C46.5927 55.623 46.4312 55.4661 46.2319 55.4661C46.0326 55.4661 45.8711 55.623 45.8711 55.8165C45.8711 56.0101 46.0326 56.167 46.2319 56.167Z" fill="#6A1A1E"/>
<path d="M45.4233 57.585C45.6226 57.585 45.7841 57.4281 45.7841 57.2345C45.7841 57.0409 45.6226 56.884 45.4233 56.884C45.224 56.884 45.0625 57.0409 45.0625 57.2345C45.0625 57.4281 45.224 57.585 45.4233 57.585Z" fill="#6A1A1E"/>
<path d="M44.6674 59.1016C44.8676 59.1016 45.0283 58.9455 45.0283 58.7511C45.0283 58.5567 44.8676 58.4006 44.6674 58.4006C44.4673 58.4006 44.3066 58.5567 44.3066 58.7511C44.3066 58.9455 44.4673 59.1016 44.6674 59.1016Z" fill="#6A1A1E"/>
<path d="M43.976 60.5635C44.1762 60.5635 44.3368 60.4074 44.3368 60.213C44.3368 60.0186 44.1762 59.8625 43.976 59.8625C43.7759 59.8625 43.6152 60.0186 43.6152 60.213C43.6152 60.4074 43.7759 60.5635 43.976 60.5635Z" fill="#6A1A1E"/>
<path d="M43.312 62.0928C43.5121 62.0928 43.6728 61.9367 43.6728 61.7423C43.6728 61.5479 43.5121 61.3918 43.312 61.3918C43.1119 61.3918 42.9512 61.5479 42.9512 61.7423C42.9512 61.9367 43.1119 62.0928 43.312 62.0928Z" fill="#6A1A1E"/>
<path d="M42.7397 63.6426C42.939 63.6426 43.1005 63.4857 43.1005 63.2921C43.1005 63.0986 42.939 62.9417 42.7397 62.9417C42.5404 62.9417 42.3789 63.0986 42.3789 63.2921C42.3789 63.4857 42.5404 63.6426 42.7397 63.6426Z" fill="#6A1A1E"/>
<path d="M42.2026 65.2119C42.4019 65.2119 42.5634 65.055 42.5634 64.8614C42.5634 64.6679 42.4019 64.511 42.2026 64.511C42.0033 64.511 41.8418 64.6679 41.8418 64.8614C41.8418 65.055 42.0033 65.2119 42.2026 65.2119Z" fill="#6A1A1E"/>
<path d="M41.7456 66.7913C41.9457 66.7913 42.1064 66.6352 42.1064 66.4408C42.1064 66.2464 41.9457 66.0903 41.7456 66.0903C41.5455 66.0903 41.3848 66.2464 41.3848 66.4408C41.3848 66.6352 41.5455 66.7913 41.7456 66.7913Z" fill="#6A1A1E"/>
<path d="M41.3296 68.3994C41.5297 68.3994 41.6904 68.2433 41.6904 68.0489C41.6904 67.8546 41.5297 67.6985 41.3296 67.6985C41.1294 67.6985 40.9688 67.8546 40.9688 68.0489C40.9688 68.2433 41.1294 68.3994 41.3296 68.3994Z" fill="#6A1A1E"/>
<path d="M40.9819 70.0127C41.182 70.0127 41.3427 69.8566 41.3427 69.6622C41.3427 69.4679 41.182 69.3118 40.9819 69.3118C40.7818 69.3118 40.6211 69.4679 40.6211 69.6622C40.6211 69.8566 40.7818 70.0127 40.9819 70.0127Z" fill="#6A1A1E"/>
<path d="M40.7124 71.6406C40.9125 71.6406 41.0732 71.4845 41.0732 71.2902C41.0732 71.0958 40.9125 70.9397 40.7124 70.9397C40.5123 70.9397 40.3516 71.0958 40.3516 71.2902C40.3516 71.4845 40.5123 71.6406 40.7124 71.6406Z" fill="#6A1A1E"/>
<path d="M40.4819 73.2588C40.6812 73.2588 40.8427 73.1019 40.8427 72.9083C40.8427 72.7148 40.6812 72.5579 40.4819 72.5579C40.2826 72.5579 40.1211 72.7148 40.1211 72.9083C40.1211 73.1019 40.2826 73.2588 40.4819 73.2588Z" fill="#6A1A1E"/>
<path d="M40.3237 74.917C40.5238 74.917 40.6845 74.7609 40.6845 74.5665C40.6845 74.3722 40.5238 74.2161 40.3237 74.2161C40.1236 74.2161 39.9629 74.3722 39.9629 74.5665C39.9629 74.7609 40.1236 74.917 40.3237 74.917Z" fill="#6A1A1E"/>
<path d="M40.2124 76.5596C40.4125 76.5596 40.5732 76.4035 40.5732 76.2091C40.5732 76.0147 40.4125 75.8586 40.2124 75.8586C40.0123 75.8586 39.8516 76.0147 39.8516 76.2091C39.8516 76.4035 40.0123 76.5596 40.2124 76.5596Z" fill="#6A1A1E"/>
<path d="M40.1831 78.207C40.3823 78.207 40.5439 78.0501 40.5439 77.8566C40.5439 77.663 40.3823 77.5061 40.1831 77.5061C39.9838 77.5061 39.8223 77.663 39.8223 77.8566C39.8223 78.0501 39.9838 78.207 40.1831 78.207Z" fill="#6A1A1E"/>
<path d="M40.1928 79.8594C40.3929 79.8594 40.5536 79.7033 40.5536 79.5089C40.5536 79.3145 40.3929 79.1584 40.1928 79.1584C39.9927 79.1584 39.832 79.3145 39.832 79.5089C39.832 79.7033 39.9927 79.8594 40.1928 79.8594Z" fill="#6A1A1E"/>
<path d="M40.6435 81.1613C40.6435 80.9669 40.4828 80.8108 40.2827 80.8108C40.0826 80.8108 39.9219 80.9669 39.9219 81.1613C39.9219 81.3556 40.0826 81.5117 40.2827 81.5117C40.4828 81.5117 40.6435 81.3556 40.6435 81.1613Z" fill="#6A1A1E"/>
<path d="M40.4135 83.1299C40.6128 83.1299 40.7743 82.973 40.7743 82.7794C40.7743 82.5859 40.6128 82.429 40.4135 82.429C40.2143 82.429 40.0527 82.5859 40.0527 82.7794C40.0527 82.973 40.2143 83.1299 40.4135 83.1299Z" fill="#6A1A1E"/>
<path d="M40.6323 84.7822C40.8316 84.7822 40.9931 84.6253 40.9931 84.4318C40.9931 84.2382 40.8316 84.0813 40.6323 84.0813C40.433 84.0813 40.2715 84.2382 40.2715 84.4318C40.2715 84.6253 40.433 84.7822 40.6323 84.7822Z" fill="#6A1A1E"/>
<path d="M41.2587 86.0694C41.2587 85.8751 41.098 85.719 40.8979 85.719C40.6978 85.719 40.5371 85.8751 40.5371 86.0694C40.5371 86.2638 40.6978 86.4199 40.8979 86.4199C41.098 86.4199 41.2587 86.2638 41.2587 86.0694Z" fill="#6A1A1E"/>
<path d="M41.5908 87.6827C41.5908 87.4884 41.4301 87.3323 41.2299 87.3323C41.0298 87.3323 40.8691 87.4884 40.8691 87.6827C40.8691 87.8771 41.0298 88.0332 41.2299 88.0332C41.4301 88.0332 41.5908 87.8771 41.5908 87.6827Z" fill="#6A1A1E"/>
<path d="M41.9814 89.2911C41.9814 89.0968 41.8207 88.9407 41.6206 88.9407C41.4205 88.9407 41.2598 89.0968 41.2598 89.2911C41.2598 89.4855 41.4205 89.6416 41.6206 89.6416C41.8207 89.6416 41.9814 89.4855 41.9814 89.2911Z" fill="#6A1A1E"/>
<path d="M42.0835 91.2402C42.2827 91.2402 42.4443 91.0833 42.4443 90.8898C42.4443 90.6962 42.2827 90.5393 42.0835 90.5393C41.8842 90.5393 41.7227 90.6962 41.7227 90.8898C41.7227 91.0833 41.8842 91.2402 42.0835 91.2402Z" fill="#6A1A1E"/>
<path d="M42.9482 92.4493C42.9482 92.255 42.7875 92.0989 42.5874 92.0989C42.3873 92.0989 42.2266 92.255 42.2266 92.4493C42.2266 92.6437 42.3873 92.7998 42.5874 92.7998C42.7875 92.7998 42.9482 92.6437 42.9482 92.4493Z" fill="#6A1A1E"/>
<path d="M43.146 94.3643C43.3452 94.3643 43.5068 94.2073 43.5068 94.0138C43.5068 93.8202 43.3452 93.6633 43.146 93.6633C42.9467 93.6633 42.7852 93.8202 42.7852 94.0138C42.7852 94.2073 42.9467 94.3643 43.146 94.3643Z" fill="#6A1A1E"/>
<path d="M43.7807 95.8894C43.98 95.8894 44.1415 95.7325 44.1415 95.5389C44.1415 95.3454 43.98 95.1885 43.7807 95.1885C43.5815 95.1885 43.4199 95.3454 43.4199 95.5389C43.4199 95.7325 43.5815 95.8894 43.7807 95.8894Z" fill="#6A1A1E"/>
<path d="M44.4741 96.6995C44.274 96.6995 44.1133 96.8556 44.1133 97.0499C44.1133 97.2443 44.274 97.4004 44.4741 97.4004C44.6742 97.4004 44.8349 97.2443 44.8349 97.0499C44.8349 96.8556 44.6742 96.6995 44.4741 96.6995Z" fill="#6A1A1E"/>
<path d="M45.2163 98.1956C45.0162 98.1956 44.8555 98.3516 44.8555 98.546C44.8555 98.7404 45.0162 98.8965 45.2163 98.8965C45.4164 98.8965 45.5771 98.7404 45.5771 98.546C45.5771 98.3516 45.4164 98.1956 45.2163 98.1956Z" fill="#6A1A1E"/>
<path d="M46.0112 100.339C46.2105 100.339 46.372 100.182 46.372 99.9886C46.372 99.7951 46.2105 99.6382 46.0112 99.6382C45.8119 99.6382 45.6504 99.7951 45.6504 99.9886C45.6504 100.182 45.8119 100.339 46.0112 100.339Z" fill="#6A1A1E"/>
<path d="M46.8803 101.071C46.6802 101.071 46.5195 101.227 46.5195 101.421C46.5195 101.615 46.6802 101.771 46.8803 101.771C47.0805 101.771 47.2411 101.615 47.2411 101.421C47.2411 101.227 47.0805 101.071 46.8803 101.071Z" fill="#6A1A1E"/>
<path d="M47.7827 102.453C47.5826 102.453 47.4219 102.609 47.4219 102.804C47.4219 102.998 47.5826 103.154 47.7827 103.154C47.9828 103.154 48.1435 102.998 48.1435 102.804C48.1435 102.609 47.9828 102.453 47.7827 102.453Z" fill="#6A1A1E"/>
<path d="M48.7358 103.827C48.5357 103.827 48.375 103.983 48.375 104.178C48.375 104.372 48.5357 104.528 48.7358 104.528C48.9359 104.528 49.0966 104.372 49.0966 104.178C49.0966 103.983 48.9359 103.827 48.7358 103.827Z" fill="#6A1A1E"/>
<path d="M49.7631 105.156C49.563 105.156 49.4023 105.313 49.4023 105.507C49.4023 105.701 49.563 105.857 49.7631 105.857C49.9633 105.857 50.124 105.701 50.124 105.507C50.124 105.313 49.9633 105.156 49.7631 105.156Z" fill="#6A1A1E"/>
<path d="M50.812 106.433C50.6119 106.433 50.4512 106.589 50.4512 106.783C50.4512 106.978 50.6119 107.134 50.812 107.134C51.0121 107.134 51.1728 106.978 51.1728 106.783C51.1728 106.589 51.0121 106.433 50.812 106.433Z" fill="#6A1A1E"/>
<path d="M51.8921 108.386C52.0913 108.386 52.2529 108.229 52.2529 108.035C52.2529 107.842 52.0913 107.685 51.8921 107.685C51.6928 107.685 51.5312 107.842 51.5312 108.035C51.5312 108.229 51.6928 108.386 51.8921 108.386Z" fill="#6A1A1E"/>
<path d="M53.062 109.603C53.2612 109.603 53.4228 109.446 53.4228 109.252C53.4228 109.059 53.2612 108.902 53.062 108.902C52.8627 108.902 52.7012 109.059 52.7012 109.252C52.7012 109.446 52.8627 109.603 53.062 109.603Z" fill="#6A1A1E"/>
</g>
<path d="M117.608 105.993C124.6 98.6624 128.876 88.8514 128.876 78.0714C128.876 55.3745 109.933 36.9719 86.5628 36.9719C63.1928 36.9719 44.25 55.3716 44.25 78.0714C44.25 88.8514 48.5256 98.6624 55.5181 105.993H117.605H117.608Z" fill="#FFD0CB"/>
<g style="mix-blend-mode:multiply" opacity="0.5">
<path d="M108.085 53.2725C111.776 51.3315 115.114 53.2519 116.464 57.726H116.467C119.951 59.4549 121.446 63.7435 119.933 68.4797C121.446 73.2218 119.954 77.5103 116.467 79.2392C116.203 80.1111 115.863 80.8857 115.46 81.5543L116.603 82.6294V102.022H118.144V104.844H56.4746V102.022H58.015V73.0156H63.4005V66.9481H68.5525H76.8915H79.0384H81.1914H88.6934V73.0156H95.6951C95.5647 71.6077 95.7315 70.0702 96.2379 68.4797C94.7248 63.7464 96.2228 59.4579 99.7069 57.726C101.062 53.2519 104.401 51.3315 108.085 53.2725Z" fill="#FAA2A6"/>
</g>
<path d="M106.253 79.6475L105.428 90.1386H109.552L108.166 71.9074L111.49 67.8724L111.453 67.8429L108.096 70.9148L107.59 63.9875H107.387L107.25 65.8843L105.616 64.073L105.592 64.0877L107.208 66.491L106.405 77.5564L101.329 71.3654L101.262 71.4096L102.933 74.1576L100.455 74.0604L100.449 74.0869L103.175 74.5728L106.253 79.6475Z" fill="#6A1A1E"/>
<path d="M99.5054 72.4299H57.4629V101.435H99.5054V72.4299Z" fill="#6A1A1E"/>
<path d="M97.7365 97.3206H59.2266V98.7166H97.7365V97.3206Z" fill="#D8F4FC"/>
<path d="M116.037 82.052H89.1387V101.444H116.037V82.052Z" fill="#F3444C"/>
<path d="M101.526 87.2346H91.3496V93.8586H101.526V87.2346Z" fill="#CDE8F0"/>
<path d="M113.945 87.2346H103.771V93.8586H113.945V87.2346Z" fill="#CDE8F0"/>
<path d="M89.1387 75.7502V82.0615H95.8636L89.1387 75.7502Z" fill="#F3444C"/>
<path d="M95.8711 75.7502V82.0615H102.596L95.8711 75.7502Z" fill="#F3444C"/>
<path d="M102.596 75.7502V82.0615H109.321L102.596 75.7502Z" fill="#F3444C"/>
<path d="M109.326 75.7502V82.0615H116.048L109.326 75.7502Z" fill="#F3444C"/>
<path d="M88.1364 66.3782H62.8477V73.2465H88.1364V66.3782Z" fill="#ED1C25"/>
<path d="M70.388 67.7766H64.3301V70.9249H70.388V67.7766Z" fill="white"/>
<path d="M78.5208 67.7766H72.4629V70.9249H78.5208V67.7766Z" fill="white"/>
<path d="M86.6732 67.7766H80.6152V70.9249H86.6732V67.7766Z" fill="white"/>
<path d="M79.6162 93.43L78.6914 91.6864C80.9595 90.5525 82.3635 88.314 82.3635 85.8429C82.3635 84.5882 81.9966 83.3659 81.3022 82.3086L83.0033 81.2542C83.9038 82.6267 84.3799 84.2112 84.3799 85.84C84.3799 89.0474 82.5545 91.9544 79.6132 93.4271L79.6162 93.43Z" fill="white"/>
<path d="M75.6133 93.3785C77.1081 92.3536 78.8909 90.7957 79.8732 89.385L79.6064 92.3477L81.3529 94.7892C79.7762 94.0353 77.4355 93.5464 75.6133 93.3785Z" fill="white"/>
<path d="M69.4921 81.1586L67.791 80.1042C69.4163 77.6331 72.1847 76.1604 75.1958 76.1604C76.7574 76.1604 78.2887 76.5639 79.6289 77.3267L78.6071 79.0173C77.5791 78.4312 76.3965 78.119 75.1958 78.119C72.8761 78.119 70.7444 79.2559 69.4921 81.1586Z" fill="white"/>
<path d="M81.7471 80.6264C80.0462 79.9549 77.7419 79.3335 75.9863 79.2893L78.7 77.914L79.8794 75.1721C80.0765 76.8655 80.9103 79.0449 81.7471 80.6293V80.6264Z" fill="white"/>
<path d="M74.5325 93.9608C69.69 93.9608 65.748 90.1319 65.748 85.4282C65.748 85.1632 65.7602 84.904 65.7875 84.6418L67.7948 84.8215C67.7766 85.0218 67.7645 85.225 67.7645 85.4282C67.7645 89.051 70.7998 91.9992 74.5295 91.9992V93.9578L74.5325 93.9608Z" fill="white"/>
<path d="M67.9906 81.3813C68.0846 83.1602 68.4848 85.4514 69.1882 87.0152L66.7535 85.2129L63.6973 85.3395C65.192 84.4501 66.8718 82.7891 67.9906 81.3813Z" fill="white"/>
<path opacity="0.5" d="M101.529 92.8656V87.2346H95.7285L101.529 92.8656Z" fill="white"/>
<path opacity="0.5" d="M113.945 92.8656V87.2346H108.145L113.945 92.8656Z" fill="white"/>
<path d="M117.591 101.442H55.9219V104.263H117.591V101.442Z" fill="white"/>
<g style="mix-blend-mode:multiply" opacity="0.5">
<path d="M124.643 98.5709L127.569 114.407C127.796 114.993 128.375 115.397 129.042 115.397H137.881C138.548 115.397 139.127 114.993 139.354 114.407L142.28 98.5709V97.8464H124.643V98.5709Z" fill="#808080"/>
<path d="M142.356 93.8012C142.256 93.1974 141.671 92.791 141.052 92.8882L136.822 93.5538L136.595 92.1872C136.534 91.8338 136.192 91.5923 135.825 91.6512L129.536 92.6437C129.172 92.6997 128.924 93.0354 128.981 93.3918L129.209 94.7584L124.982 95.4269C124.363 95.5241 123.942 96.0925 124.042 96.6933L124.175 97.4944L142.487 94.6052L142.353 93.8041L142.356 93.8012ZM135.764 93.7216L130.27 94.5875L130.103 93.5891C130.085 93.4831 130.161 93.383 130.27 93.3653L135.367 92.5612C135.476 92.5436 135.579 92.6172 135.597 92.7232L135.764 93.7216Z" fill="#808080"/>
</g>
<path d="M124.121 97.2664V97.9909L127.047 113.827C127.275 114.413 127.854 114.817 128.521 114.817H137.359C138.026 114.817 138.606 114.413 138.833 113.827L141.759 97.9909V97.2664H124.121Z" fill="#6A1A1E"/>
<path d="M128.527 114.729C127.923 114.729 127.374 114.36 127.162 113.813L124.242 97.997V97.408H141.647V98.0176L138.724 113.833C138.517 114.36 137.969 114.729 137.365 114.729H128.527Z" fill="#6A1A1E"/>
<path d="M140.545 92.3081L136.319 92.9737L136.091 91.6071C136.031 91.2537 135.688 91.0122 135.321 91.0711L129.032 92.0636C128.669 92.1196 128.42 92.4553 128.477 92.8117L128.705 94.1783L124.478 94.8468C123.86 94.944 123.438 95.5124 123.538 96.1133L123.672 96.9143L141.983 94.0251L141.849 93.224C141.749 92.6203 141.164 92.2138 140.545 92.311V92.3081ZM129.596 93.009C129.578 92.903 129.654 92.8029 129.763 92.7852L134.86 91.9812C134.969 91.9635 135.072 92.0371 135.091 92.1432L135.257 93.1416L129.763 94.0075L129.596 93.009Z" fill="#6A1A1E"/>
<path d="M123.64 96.082C123.597 95.8199 123.661 95.5578 123.819 95.3457C123.976 95.1307 124.213 94.9893 124.483 94.9481L128.825 94.2619L128.579 92.7834C128.531 92.4918 128.734 92.215 129.037 92.1678L135.326 91.1753C135.356 91.1724 135.386 91.1694 135.414 91.1694C135.686 91.1694 135.914 91.3579 135.959 91.62L136.205 93.0985L140.55 92.4123C140.605 92.4035 140.659 92.4005 140.717 92.4005C141.217 92.4005 141.642 92.751 141.72 93.234L141.836 93.9232L123.755 96.7741L123.64 96.0849V96.082ZM134.88 91.8557C134.862 91.8557 134.847 91.8557 134.828 91.8586L129.731 92.6626C129.559 92.6892 129.44 92.8482 129.468 93.0161L129.653 94.1264L135.377 93.2252L135.192 92.1148C135.168 91.9646 135.035 91.8557 134.88 91.8557Z" fill="#6A1A1E"/>
<path d="M133.415 98.8259H132.496C132.302 98.8259 132.145 98.9789 132.145 99.1676V113.508C132.145 113.697 132.302 113.85 132.496 113.85H133.415C133.609 113.85 133.767 113.697 133.767 113.508V99.1676C133.767 98.9789 133.609 98.8259 133.415 98.8259Z" fill="white"/>
<path d="M137.248 113.596C137.229 113.785 137.057 113.923 136.863 113.906L135.953 113.817C135.859 113.809 135.774 113.764 135.713 113.694C135.653 113.623 135.625 113.532 135.635 113.443L137.081 99.1733C137.099 98.9848 137.272 98.8464 137.466 98.867L138.376 98.9524C138.47 98.9613 138.555 99.0055 138.615 99.0761C138.676 99.1468 138.703 99.2381 138.694 99.3265L137.248 113.596Z" fill="white"/>
<path d="M128.669 113.596C128.687 113.785 128.86 113.923 129.054 113.906L129.964 113.817C130.058 113.809 130.142 113.764 130.203 113.694C130.264 113.623 130.291 113.532 130.282 113.443L128.836 99.1733C128.817 98.9848 128.645 98.8464 128.45 98.867L127.541 98.9524C127.447 98.9613 127.362 99.0055 127.301 99.0761C127.241 99.1468 127.213 99.2381 127.222 99.3265L128.669 113.596Z" fill="white"/>
<g style="mix-blend-mode:multiply" opacity="0.5">
<path d="M51.9015 93.2881C52.0895 93.2881 52.2441 93.1379 52.2441 92.9553V92.8846C52.2441 92.699 52.0895 92.5518 51.9015 92.5518H33.5692C33.3812 92.5518 33.2266 92.702 33.2266 92.8846V92.9553C33.2266 93.1408 33.3812 93.2881 33.5692 93.2881H33.9876V98.5717L34.2999 99.2668L33.9876 99.9618L34.2999 100.657L33.9876 101.352L34.2999 102.044L33.9876 102.739L34.2999 103.434L33.9876 104.129L34.2999 104.824L33.9876 105.519L34.2999 106.212L33.9876 106.907L34.2999 107.602L33.9876 108.297L34.2999 108.992L33.9876 109.687V114.971H33.5692C33.3812 114.971 33.2266 115.121 33.2266 115.303V115.374C33.2266 115.56 33.3812 115.707 33.5692 115.707H51.9015C52.0895 115.707 52.2441 115.557 52.2441 115.374V115.303C52.2441 115.118 52.0895 114.971 51.9015 114.971H51.4861V109.687L51.1738 108.992L51.4861 108.297L51.1738 107.602L51.4861 106.907L51.1738 106.212L51.4861 105.519L51.1738 104.824L51.4861 104.129L51.1738 103.434L51.4861 102.739L51.1738 102.044L51.4861 101.352L51.1738 100.657L51.4861 99.9618L51.1738 99.2668L51.4861 98.5717V93.2881H51.9015Z" fill="#6C6C6C"/>
</g>
<path d="M50.9809 92.7129H33.4824V97.9966H50.9809V92.7129Z" fill="#6A1A1E"/>
<path d="M33.0633 91.9746H51.3956C51.5836 91.9746 51.7382 92.1248 51.7382 92.3074V92.3781C51.7382 92.5607 51.5836 92.7109 51.3956 92.7109H33.0633C32.8753 92.7109 32.7207 92.5607 32.7207 92.3781V92.3074C32.7207 92.1248 32.8753 91.9746 33.0633 91.9746Z" fill="#F3444C"/>
<path d="M35.7872 92.7126H34.5684V97.9961H35.7872V92.7126Z" fill="white"/>
<path d="M50.6186 92.7129H47.7109V97.9963H50.6186V92.7129Z" fill="white"/>
<path d="M50.9809 109.101H33.4824V114.384H50.9809V109.101Z" fill="#6A1A1E"/>
<path d="M33.0633 114.376H51.3956C51.5836 114.376 51.7382 114.526 51.7382 114.709V114.779C51.7382 114.962 51.5836 115.112 51.3956 115.112H33.0633C32.8753 115.112 32.7207 114.962 32.7207 114.779V114.709C32.7207 114.526 32.8753 114.376 33.0633 114.376Z" fill="#F3444C"/>
<path d="M35.7872 109.101H34.5684V114.384H35.7872V109.101Z" fill="white"/>
<path d="M50.6186 109.101H47.7109V114.384H50.6186V109.101Z" fill="white"/>
<path d="M50.6686 101.466H33.7947L33.4824 100.771H50.9809L50.6686 101.466Z" fill="#F3444C"/>
<path d="M50.6686 101.46H33.7947L33.4824 102.152H50.9809L50.6686 101.46Z" fill="#FAA2A6"/>
<path d="M33.7947 102.853H50.6686L50.9809 102.158H33.4824L33.7947 102.853Z" fill="#F3444C"/>
<path d="M33.7947 102.853H50.6686L50.9809 103.545H33.4824L33.7947 102.853Z" fill="#FAA2A6"/>
<path d="M50.6686 98.6902H33.7947L33.4824 97.998H50.9809L50.6686 98.6902Z" fill="#F3444C"/>
<path d="M50.6686 98.6875H33.7947L33.4824 99.3826H50.9809L50.6686 98.6875Z" fill="#FAA2A6"/>
<path d="M33.7947 100.091H50.6686L50.9809 99.3955H33.4824L33.7947 100.091Z" fill="#F3444C"/>
<path d="M33.7947 100.065H50.6686L50.9809 100.758H33.4824L33.7947 100.065Z" fill="#FAA2A6"/>
<path d="M50.6686 104.242H33.7947L33.4824 103.547H50.9809L50.6686 104.242Z" fill="#F3444C"/>
<path d="M50.6686 104.246H33.7947L33.4824 104.941H50.9809L50.6686 104.246Z" fill="#FAA2A6"/>
<path d="M33.7947 105.612H50.6686L50.9809 104.92H33.4824L33.7947 105.612Z" fill="#F3444C"/>
<path d="M33.7947 105.62H50.6686L50.9809 106.312H33.4824L33.7947 105.62Z" fill="#FAA2A6"/>
<path d="M50.6686 107.014H33.7947L33.4824 106.319H50.9809L50.6686 107.014Z" fill="#F3444C"/>
<path d="M50.6686 107.022H33.7947L33.4824 107.718H50.9809L50.6686 107.022Z" fill="#FAA2A6"/>
<path d="M33.7947 108.394H50.6686L50.9809 107.702H33.4824L33.7947 108.394Z" fill="#F3444C"/>
<path d="M50.6186 98.6875H47.7109V99.3825H50.6186V98.6875Z" fill="white"/>
<path d="M50.6186 100.065H47.7109V100.76H50.6186V100.065Z" fill="white"/>
<path d="M50.6186 101.46H47.7109V102.155H50.6186V101.46Z" fill="white"/>
<path d="M50.6186 102.853H47.7109V103.548H50.6186V102.853Z" fill="white"/>
<path d="M50.6186 104.246H47.7109V104.941H50.6186V104.246Z" fill="white"/>
<path d="M50.6186 105.62H47.7109V106.315H50.6186V105.62Z" fill="white"/>
<path d="M50.6186 107.022H47.7109V107.717H50.6186V107.022Z" fill="white"/>
<path d="M33.7947 108.402H50.6686L50.9809 109.097H33.4824L33.7947 108.402Z" fill="#6A1A1E"/>
<path d="M50.6186 108.402H47.7109V109.097H50.6186V108.402Z" fill="white"/>
<path d="M35.7872 98.6875H34.5684V99.3825H35.7872V98.6875Z" fill="white"/>
<path d="M35.7872 100.065H34.5684V100.76H35.7872V100.065Z" fill="white"/>
<path d="M35.7872 101.46H34.5684V102.155H35.7872V101.46Z" fill="white"/>
<path d="M35.7872 102.853H34.5684V103.548H35.7872V102.853Z" fill="white"/>
<path d="M35.7872 104.246H34.5684V104.941H35.7872V104.246Z" fill="white"/>
<path d="M35.7872 105.62H34.5684V106.315H35.7872V105.62Z" fill="white"/>
<path d="M35.7872 107.022H34.5684V107.717H35.7872V107.022Z" fill="white"/>
<path d="M35.7872 108.402H34.5684V109.097H35.7872V108.402Z" fill="white"/>
<g style="mix-blend-mode:multiply" opacity="0.5">
<path d="M132.216 45.3504L132.195 44.2812C133.672 45.4004 138.114 45.2797 138.906 40.9236C136.604 39.8398 133.429 40.6144 132.171 42.9588L132.132 40.9531C132.132 40.8529 132.077 40.7616 131.989 40.7086C131.901 40.6556 131.795 40.6497 131.701 40.691L131.007 41.009C130.831 41.0856 130.706 41.3006 130.813 41.4567C131.562 42.5347 131.549 43.489 131.54 45.3533C125.964 45.53 121.482 49.9862 121.482 55.4438C121.482 60.9014 126.146 65.5431 131.88 65.5431C137.614 65.5431 142.277 61.0133 142.277 55.4438C142.277 49.8743 137.796 45.5271 132.216 45.3533V45.3504Z" fill="#808080"/>
</g>
<path d="M131.285 43.2614C132.143 40.2338 135.815 39.1324 138.383 40.3428C137.501 45.2139 132.052 44.7898 131.285 43.2614Z" fill="#FAA2A6"/>
<path d="M131.57 43.0596C131.57 43.0596 138.232 40.412 138.213 40.5033C137.504 44.1228 133.735 44.8384 131.619 43.5809L131.57 43.0625V43.0596Z" fill="#6A1A1E"/>
<path d="M131.352 64.9618C125.619 64.9618 120.955 60.4321 120.955 54.8627C120.955 49.2934 125.619 44.7637 131.352 44.7637C137.086 44.7637 141.749 49.2934 141.749 54.8627C141.749 60.4321 137.086 64.9618 131.352 64.9618Z" fill="#00699E"/>
<path d="M141.616 54.8679C141.616 60.3754 137.019 64.8403 131.349 64.8403C125.679 64.8403 121.082 60.3754 121.082 54.8679C121.082 49.3604 125.679 44.8955 131.349 44.8955C137.019 44.8955 141.616 49.3604 141.616 54.8679Z" fill="#FAA2A6"/>
<path d="M141.616 54.8679C141.616 60.3754 137.02 64.8403 131.35 64.8403V44.8955C137.02 44.8955 141.616 49.3604 141.616 54.8679Z" fill="#6A1A1E"/>
<path d="M130.477 40.4252C130.302 40.5018 130.177 40.7168 130.283 40.8728C131.05 41.9743 131.02 42.9403 131.008 44.884C131.178 44.8929 131.178 44.8899 131.348 44.8899C131.517 44.8899 131.52 44.8929 131.69 44.884L131.602 40.3692C131.602 40.2691 131.548 40.1778 131.46 40.1248C131.372 40.0718 131.266 40.0659 131.172 40.1071L130.477 40.4252Z" fill="#896336"/>
<path d="M131.338 64.8335C131.211 64.8335 131.08 64.8335 130.953 64.8246V59.8915H130.817C129.27 59.9415 127.742 60.183 126.278 60.613L126.141 60.6543L126.19 60.7839C126.669 62.0326 127.296 63.2166 128.054 64.3122C127.636 64.1767 127.227 64.0118 126.835 63.8262C126.296 62.9397 125.835 61.9914 125.459 61.0136L125.413 60.8928L125.289 60.937C124.731 61.1373 124.225 61.3464 123.743 61.5702C123.564 61.3788 123.391 61.1815 123.23 60.9812C123.815 60.6984 124.425 60.4422 125.047 60.2213L125.165 60.1801L125.128 60.0623C124.646 58.5396 124.379 56.9581 124.331 55.3559V55.2292H121.074C121.068 55.1055 121.068 54.9818 121.068 54.8552C121.068 54.7286 121.068 54.6049 121.074 54.4812H124.328V54.3545C124.376 52.7553 124.646 51.1708 125.128 49.6481L125.165 49.5332L125.047 49.492C124.425 49.2711 123.815 49.0149 123.23 48.7322C123.391 48.5348 123.561 48.3375 123.743 48.1431C124.225 48.3699 124.731 48.5761 125.289 48.7793L125.413 48.8235L125.459 48.7027C125.832 47.7249 126.296 46.7795 126.835 45.8901C127.227 45.7045 127.636 45.5425 128.054 45.4041C127.296 46.4997 126.669 47.6837 126.19 48.9324L126.141 49.062L126.278 49.1032C127.742 49.5332 129.27 49.7748 130.817 49.8219H130.953V44.8916C131.08 44.8857 131.208 44.8857 131.338 44.8857C131.469 44.8857 131.596 44.8857 131.723 44.8916V49.8248H131.86C133.406 49.7748 134.934 49.5332 136.399 49.1032L136.535 49.062L136.487 48.9324C136.008 47.6837 135.38 46.4997 134.622 45.4041C135.04 45.5396 135.45 45.7045 135.841 45.8901C136.381 46.7766 136.842 47.7249 137.218 48.7027L137.263 48.8235L137.387 48.7793C137.948 48.579 138.455 48.3699 138.934 48.1431C139.113 48.3346 139.285 48.5319 139.446 48.7322C138.861 49.0149 138.251 49.2711 137.63 49.492L137.512 49.5332L137.548 49.6511C138.03 51.1737 138.297 52.7553 138.345 54.3575V54.4841H141.602C141.605 54.6078 141.608 54.7315 141.608 54.8581C141.608 54.9848 141.608 55.1085 141.602 55.2322H138.348V55.3588C138.297 56.961 138.03 58.5426 137.548 60.0652L137.512 60.183L137.63 60.2243C138.251 60.4452 138.861 60.7014 139.446 60.9841C139.285 61.1844 139.116 61.3817 138.934 61.5732C138.452 61.3464 137.945 61.1402 137.387 60.94L137.263 60.8958L137.218 61.0165C136.845 61.9973 136.381 62.9427 135.841 63.8292C135.447 64.0147 135.04 64.1797 134.622 64.3151C135.38 63.2195 136.008 62.0326 136.487 60.7868L136.535 60.6572L136.399 60.616C134.934 60.186 133.406 59.9445 131.86 59.8974H131.723V64.8276C131.596 64.8335 131.469 64.8364 131.338 64.8364V64.8335ZM131.723 59.1463H131.851C133.497 59.1935 135.11 59.4497 136.654 59.9062L136.781 59.9445L136.82 59.8208C137.275 58.3776 137.53 56.8785 137.575 55.3647V55.2322H131.723V59.1463ZM125.101 55.3647C125.147 56.8785 125.401 58.3776 125.856 59.8208L125.896 59.9445L126.023 59.9062C127.566 59.4497 129.182 59.1935 130.826 59.1493H130.956V55.2322H125.098V55.3647H125.101ZM136.657 49.813C135.113 50.2695 133.5 50.5258 131.854 50.57H131.726V54.487H137.584V54.3545C137.533 52.8407 137.281 51.3416 136.826 49.8984L136.787 49.7748L136.66 49.813H136.657ZM125.856 49.8984C125.401 51.3416 125.147 52.8407 125.101 54.3545V54.487H130.953V50.5729H130.823C129.179 50.5258 127.563 50.2695 126.02 49.813L125.892 49.7748L125.853 49.8984H125.856Z" fill="white"/>
<g style="mix-blend-mode:multiply" opacity="0.5">
<path d="M57.1723 54.2344L55.7259 48.17H48.9337L48.961 59.0587H32.4445L48.0908 57.5979L46.7263 44.2705L28.6724 45.9199L27.1108 50.6058L27.3776 54.2255L24.6577 51.9753L24.0938 52.8678L28.9787 59.3798V62.1748H30.7131C30.6494 62.4075 30.613 62.6519 30.613 62.9052C30.613 64.4751 31.929 65.7445 33.5482 65.7445C35.1674 65.7445 36.4864 64.4721 36.4864 62.9052C36.4864 62.6519 36.4501 62.4075 36.3864 62.1748H37.569C37.5053 62.4075 37.4689 62.6519 37.4689 62.9052C37.4689 64.4751 38.7849 65.7445 40.4071 65.7445C42.0293 65.7445 43.3453 64.4721 43.3453 62.9052C43.3453 62.6519 43.3089 62.4075 43.2453 62.1748H51.4626C51.3989 62.4075 51.3625 62.6519 51.3625 62.9052C51.3625 64.4751 52.6755 65.7445 54.2977 65.7445C55.92 65.7445 57.236 64.4721 57.236 62.9052C57.236 62.6519 57.1996 62.4075 57.1359 62.1748H59.8679V55.1827L57.1844 54.2373L57.1723 54.2344Z" fill="#808080"/>
</g>
<path d="M48.4102 47.5742L48.4405 59.4114H59.3323V54.587L56.6488 53.6386L55.2024 47.5742H48.4102Z" fill="#737373"/>
<path d="M46.2067 43.6777L47.5712 57.0051L28.4591 58.7899L23.5742 52.275L24.1382 51.3826L26.8551 53.6327L26.5913 50.013L28.1529 45.3271L46.2067 43.6777Z" fill="#6A1A1E"/>
<path d="M31.4335 51.7534C31.7186 54.5956 34.3324 56.6779 37.2706 56.404C40.2119 56.1301 42.3618 53.603 42.0767 50.7578C41.7917 47.9156 39.1779 45.8333 36.2397 46.1072C33.3014 46.3811 31.1485 48.9111 31.4335 51.7534Z" fill="white"/>
<path d="M33.1177 51.9649L34.5518 52.3801L34.2759 53.0516L36.1224 52.8778L36.089 52.5333C36.089 52.5333 36.0618 52.0591 36.468 52.2682C36.8743 52.4803 37.981 53.0575 37.981 53.0575C37.981 53.0575 38.2903 53.1547 38.3054 53.3167C38.3206 53.4816 38.0386 53.6318 38.0386 53.6318C38.0386 53.6318 37.0653 54.4063 36.7106 54.6891C36.3559 54.9718 36.2861 54.5006 36.2861 54.5006L36.2437 54.0706L34.1425 54.265C32.1778 54.3032 33.1207 51.959 33.1207 51.959L33.1177 51.9649Z" fill="#DE3129"/>
<path d="M38.0954 48.4224L36.919 49.3177L36.5097 48.711L35.591 50.269L35.9003 50.4398C35.9003 50.4398 36.3157 50.6931 35.9033 50.8933C35.491 51.0936 34.3631 51.6325 34.3631 51.6325C34.3631 51.6325 34.1023 51.821 33.9568 51.7385C33.8082 51.659 33.8446 51.3439 33.8446 51.3439C33.8446 51.3439 33.7506 50.1305 33.7203 49.6858C33.6899 49.2411 34.1235 49.4591 34.1235 49.4591L34.5116 49.6741L35.5577 47.9011C36.6583 46.3255 38.0954 48.4224 38.0954 48.4224Z" fill="#DE3129"/>
<path d="M39.1551 54.0928L38.8094 52.6851L39.5492 52.579L38.4698 51.1183L38.1818 51.3186C38.1818 51.3186 37.7694 51.5777 37.7543 51.1301C37.7391 50.6854 37.7058 49.4691 37.7058 49.4691C37.7058 49.4691 37.6391 49.1628 37.7755 49.0656C37.915 48.9714 38.1909 49.1333 38.1909 49.1333C38.1909 49.1333 39.3703 49.5604 39.8009 49.7194C40.2314 49.8755 39.8463 50.17 39.8463 50.17L39.4825 50.4203L40.7074 52.0813C41.7262 53.7099 39.1551 54.0928 39.1551 54.0928Z" fill="#DE3129"/>
<path d="M55.3534 53.6753H49.541V48.5273H54.3589L55.3534 53.6753Z" fill="#CDE8F0"/>
<path d="M59.3263 58.4619H28.4492V61.578H59.3263V58.4619Z" fill="#6A1A1E"/>
<path d="M50.8262 62.3068C50.8262 63.8765 52.139 65.1459 53.7611 65.1459C55.3833 65.1459 56.6992 63.8736 56.6992 62.3068C56.6992 60.7401 55.3863 59.4648 53.7611 59.4648C52.136 59.4648 50.8262 60.7371 50.8262 62.3068Z" fill="#6A1A1E"/>
<path d="M51.8516 62.3104C51.8516 63.3264 52.7036 64.154 53.7587 64.154C54.8138 64.154 55.6658 63.3294 55.6658 62.3104C55.6658 61.2914 54.8138 60.4668 53.7587 60.4668C52.7036 60.4668 51.8516 61.2914 51.8516 62.3104Z" fill="#D9D9D9"/>
<path d="M30.082 62.3066C30.082 63.8763 31.3979 65.1456 33.017 65.1456C34.6361 65.1456 35.955 63.8733 35.955 62.3066C35.955 60.7398 34.6422 59.4646 33.017 59.4646C31.3919 59.4646 30.082 60.7369 30.082 62.3066Z" fill="#6A1A1E"/>
<path d="M31.123 62.3104C31.123 63.3264 31.9781 64.154 33.0302 64.154C34.0823 64.154 34.9373 63.3294 34.9373 62.3104C34.9373 61.2914 34.0853 60.4668 33.0302 60.4668C31.975 60.4668 31.123 61.2914 31.123 62.3104Z" fill="#D9D9D9"/>
<path d="M36.9512 62.3068C36.9512 63.8765 38.2671 65.1459 39.8892 65.1459C41.5113 65.1459 42.8272 63.8736 42.8272 62.3068C42.8272 60.7401 41.5113 59.4648 39.8892 59.4648C38.2671 59.4648 36.9512 60.7371 36.9512 62.3068Z" fill="#6A1A1E"/>
<path d="M37.9844 62.3104C37.9844 63.3264 38.8364 64.154 39.8915 64.154C40.9466 64.154 41.7986 63.3294 41.7986 62.3104C41.7986 61.2914 40.9466 60.4668 39.8915 60.4668C38.8364 60.4668 37.9844 61.2914 37.9844 62.3104Z" fill="#D9D9D9"/>
<path opacity="0.5" d="M55.0246 51.9563L54.3636 48.5371H51.2285L55.0246 51.9563Z" fill="white"/>
<g style="mix-blend-mode:color-burn" opacity="0.45">
<path d="M39.7671 72.2979H27.9141V73.096H28.5175L30.1155 85.0775H37.5627L39.1607 73.096H39.7641V72.2979H39.7671ZM33.5813 75.0841V75.7762H32.4655L32.4352 75.0841H33.5813ZM32.3927 74.1004L32.3624 73.4082H33.5813V74.1004H32.3927ZM33.5813 76.757V77.4492H32.5382L32.5079 76.757H33.5813ZM33.5813 78.43V79.1221H32.611L32.5807 78.43H33.5813ZM33.5813 80.1058V80.798H32.6808L32.6504 80.1058H33.5783H33.5813ZM33.5813 81.7788V82.4709H32.7535L32.7232 81.7788H33.5813ZM34.0999 81.7788H34.958L34.9277 82.4709H34.0999V81.7788ZM34.0999 80.798V80.1058H35.0308L35.0004 80.798H34.0999ZM34.0999 79.1221V78.43H35.1005L35.0702 79.1221H34.0999ZM34.0999 77.4492V76.757H35.1733L35.143 77.4492H34.0999ZM34.0999 75.7762V75.0841H35.246L35.2157 75.7762H34.0999ZM34.0999 74.1004V73.4082H35.3188L35.2885 74.1004H34.0999ZM31.8469 73.4082L31.8772 74.1004H30.6795L30.6188 73.4082H31.8469ZM31.9166 75.0841L31.947 75.7762H30.822L30.7613 75.0841H31.9166ZM31.9894 76.757L32.0197 77.4492H30.9706L30.9099 76.757H31.9894ZM32.0622 78.43L32.0925 79.1221H31.1161L31.0555 78.43H32.0622ZM32.135 80.1058L32.1653 80.798H31.2617L31.201 80.1058H32.135ZM32.2047 81.7788L32.235 82.4709H31.4072L31.3466 81.7788H32.2047ZM32.2775 83.4517L32.3078 84.1438H31.5528L31.4921 83.4517H32.2775ZM32.796 83.4517H33.5813V84.1438H32.8263L32.796 83.4517ZM34.0999 83.4517H34.8852L34.8549 84.1438H34.0999V83.4517ZM35.4037 83.4517H36.1891L36.1284 84.1438H35.3734L35.4037 83.4517ZM35.4462 82.4709L35.4765 81.7788H36.3346L36.274 82.4709H35.4462ZM35.519 80.798L35.5493 80.1058H36.4832L36.4226 80.798H35.519ZM35.5917 79.1221L35.622 78.43H36.6288L36.5681 79.1221H35.5917ZM35.6615 77.4492L35.6918 76.757H36.7713L36.7106 77.4492H35.6615ZM35.7342 75.7762L35.7646 75.0841H36.9199L36.8592 75.7762H35.7342ZM35.807 74.1004L35.8373 73.4082H37.0654L37.0048 74.1004H35.807ZM29.0815 73.4082H30.0973L30.1579 74.1004H29.1573L29.0784 73.4082H29.0815ZM29.3089 75.0841H30.2459L30.3065 75.7762H29.3847L29.3119 75.0841H29.3089ZM29.5363 76.757H30.3914L30.4521 77.4492H29.6061L29.5363 76.757ZM29.7607 78.43H30.5339L30.5946 79.1221H29.8274L29.7607 78.43ZM30.0518 80.798L29.9881 80.1058H30.6795L30.7401 80.798H30.0488H30.0518ZM30.2155 81.7788H30.8281L30.8887 82.4709H30.2762L30.2155 81.7788ZM30.443 83.4517H30.9736L31.0343 84.1438H30.4975L30.443 83.4517ZM37.1837 84.1438H36.647L36.7076 83.4517H37.2382L37.1837 84.1438ZM37.408 82.4709H36.7955L36.8562 81.7788H37.4687L37.408 82.4709ZM37.6294 80.798H36.938L36.9987 80.1058H37.69L37.6264 80.798H37.6294ZM37.8538 79.1221H37.0866L37.1473 78.43H37.9205L37.8538 79.1221ZM38.0782 77.4492H37.2322L37.2928 76.757H38.1479L38.0782 77.4492ZM38.2995 75.7762H37.3777L37.4384 75.0841H38.3753L38.3026 75.7762H38.2995ZM38.5239 74.1004H37.5233L37.5839 73.4082H38.5997L38.5209 74.1004H38.5239Z" fill="#808080"/>
</g>
<g style="mix-blend-mode:color-burn" opacity="0.45">
<path d="M139.919 73.4024L138.603 71.1877C138.57 71.2319 138.539 71.279 138.509 71.3262L136.447 74.7601L138.43 75.8733L139.919 73.4024Z" fill="#FAA2A6"/>
<path d="M143.799 76.5238L144.242 73.4462L143.529 73.8467L142.044 71.3228C141.68 70.7103 140.998 70.3274 140.27 70.3274C139.821 70.3274 139.394 70.4717 139.045 70.725L140.343 72.9073L141.546 74.957L140.834 75.3575L143.799 76.5267V76.5238Z" fill="#FAA2A6"/>
<path d="M136.255 80.7854L134.939 83.0001C134.997 83.006 135.052 83.0089 135.109 83.0089L139.202 83.0266V80.8031L136.255 80.7854Z" fill="#FAA2A6"/>
<path d="M137.091 75.9497L134.126 77.1189L134.838 77.5194L133.331 80.0316C132.968 80.6441 132.968 81.4069 133.331 82.0224C133.556 82.3994 133.898 82.688 134.299 82.8559L135.596 80.6736L136.821 78.6356L137.534 79.0361L137.091 75.9585V75.9497Z" fill="#FAA2A6"/>
<path d="M144.681 80.1548H147.316C147.292 80.1047 147.267 80.0546 147.237 80.0075L145.206 76.5559L143.223 77.6691L144.681 80.1577V80.1548Z" fill="#FAA2A6"/>
<path d="M139.918 81.8813L142.444 83.7926V82.9945L145.436 83.0063C146.167 83.0063 146.846 82.6264 147.21 82.0109C147.434 81.6339 147.519 81.201 147.468 80.7828H144.875L142.444 80.771V79.9729L139.918 81.8842V81.8813Z" fill="#FAA2A6"/>
</g>
<defs>
<linearGradient id="paint0_linear_3_22705" x1="100.378" y1="82.6924" x2="100.378" y2="6.99994" gradientUnits="userSpaceOnUse">
<stop stop-color="white"/>
<stop offset="1" stop-color="#FFDDDE"/>
</linearGradient>
</defs>
</svg>
