<svg width="27" height="36" viewBox="0 0 27 36" fill="none" xmlns="http://www.w3.org/2000/svg">
<path d="M1.95789 35.0423C1.25908 34.7642 0.999443 34.2357 1.00197 33.4487C1.02136 28.7533 1.01209 24.058 1.01209 19.3626C1.01209 19.2631 1.00113 19.1609 1.01714 19.0641C1.06351 18.7861 1.23379 18.6315 1.49679 18.636C1.74378 18.6404 1.90732 18.7932 1.95199 19.0552C1.97054 19.1627 1.95789 19.2764 1.95789 19.3866C1.95789 24.0819 1.95789 28.7773 1.95789 33.4727C1.95789 33.9826 2.01522 34.0438 2.49571 34.0438C9.83119 34.0438 17.1675 34.0438 24.503 34.0438C24.9818 34.0438 25.0433 33.9781 25.0433 33.4727C25.0433 28.7773 25.0433 24.0819 25.0433 19.3866C25.0433 19.2871 25.0358 19.1858 25.0467 19.0881C25.0779 18.8039 25.2448 18.6555 25.5044 18.6333C25.7514 18.612 25.9639 18.8234 25.9875 19.0952C25.9959 19.1938 25.99 19.2942 25.99 19.3937C25.99 24.0784 25.9799 28.7622 26.0001 33.4469C26.0035 34.2339 25.7413 34.7616 25.0442 35.0405H1.95789V35.0423Z" fill="#A3362B" stroke="#A3362B" stroke-width="0.5"/>
<path d="M13.5046 1.01338C17.2145 1.01338 20.9244 1.01338 24.6351 1.01338C25.4941 1.01338 25.9889 1.5268 25.9889 2.4204C25.9889 7.18239 25.9889 11.9444 25.9889 16.7064C25.9889 17.1541 25.7445 17.4223 25.4183 17.3299C25.1805 17.2624 25.0431 17.0999 25.0431 16.8281C25.0431 16.4408 25.0431 16.0526 25.0431 15.6653C25.0431 11.3022 25.0431 6.939 25.0431 2.57584C25.0431 2.07308 24.9833 2.01002 24.4986 2.01002C17.1622 2.01002 9.82675 2.01002 2.49042 2.01002C2.01246 2.01002 1.95767 2.06864 1.95767 2.5865C1.95767 7.29342 1.95767 11.9995 1.95767 16.7064C1.95767 17.1532 1.71321 17.4223 1.38782 17.3308C1.15011 17.2633 1.01186 17.1008 1.0127 16.829C1.0127 16.5856 1.0127 16.3413 1.0127 16.0979C1.0127 11.5571 1.02703 7.01717 1.00006 2.47636C0.993314 1.63872 1.57665 0.992952 2.40613 1.00006C6.10506 1.03115 9.80484 1.01338 13.5046 1.01338Z" fill="#A3362B" stroke="#A3362B" stroke-width="0.5"/>
<path d="M13.4608 12.8415C10.6647 12.8415 7.86856 12.8415 5.07328 12.8415C4.93841 12.8415 4.80101 12.861 4.67119 12.7908C4.45876 12.6762 4.36182 12.4993 4.39807 12.2504C4.43263 12.0149 4.56498 11.8735 4.79089 11.8433C4.89458 11.8291 5.00079 11.8291 5.10532 11.8291C10.6976 11.8291 16.2889 11.8291 21.8812 11.8291C21.9756 11.8291 22.0708 11.8291 22.1644 11.838C22.4367 11.8664 22.5834 12.0362 22.5943 12.3162C22.6053 12.6015 22.4468 12.7695 22.1948 12.8308C22.0944 12.8557 21.9857 12.8415 21.8803 12.8415C19.0741 12.8415 16.2679 12.8415 13.4608 12.8415Z" fill="#A3362B" stroke="#A3362B" stroke-width="0.5"/>
<path d="M16.4015 15.768C14.5318 15.768 12.6612 15.768 10.7915 15.768C10.3877 15.768 10.1391 15.5245 10.1981 15.1867C10.2377 14.96 10.3591 14.8027 10.5875 14.7725C10.7013 14.7574 10.8177 14.7556 10.9331 14.7556C14.579 14.7556 18.224 14.7556 21.8698 14.7556C22.3933 14.7556 22.6049 14.8978 22.6099 15.2525C22.615 15.6089 22.3815 15.7689 21.8538 15.7689C20.0363 15.7689 18.2189 15.7689 16.4015 15.7689V15.768Z" fill="#A3362B" stroke="#A3362B" stroke-width="0.5"/>
<path d="M16.3962 22.0737C14.5265 22.0737 12.6559 22.0746 10.7862 22.0737C10.3858 22.0737 10.138 21.823 10.2012 21.4844C10.2434 21.2568 10.3673 21.1031 10.5966 21.0764C10.7112 21.0631 10.8267 21.0613 10.9422 21.0613C14.588 21.0613 18.233 21.0613 21.8788 21.0613C22.3972 21.0613 22.6114 21.2097 22.6122 21.5652C22.6122 21.9137 22.3812 22.0746 21.8797 22.0746C20.0513 22.0746 18.2237 22.0746 16.3953 22.0746L16.3962 22.0737Z" fill="#A3362B" stroke="#A3362B" stroke-width="0.5"/>
<path d="M16.4114 27.3753C18.2288 27.3753 20.0463 27.3753 21.8637 27.3753C21.9792 27.3753 22.0955 27.3744 22.2093 27.3895C22.4344 27.4197 22.5676 27.561 22.6013 27.7966C22.6367 28.0454 22.5406 28.2232 22.3273 28.337C22.2287 28.3894 22.125 28.3885 22.0205 28.3885C18.2803 28.3885 14.5409 28.3885 10.8006 28.3867C10.7079 28.3867 10.6101 28.3814 10.5233 28.3512C10.2974 28.2721 10.176 28.0872 10.1954 27.8454C10.2148 27.5921 10.3522 27.4135 10.6135 27.3868C10.718 27.3761 10.8234 27.3753 10.9279 27.3753C12.7563 27.3753 14.5839 27.3753 16.4122 27.3753H16.4114Z" fill="#A3362B" stroke="#A3362B" stroke-width="0.5"/>
<path d="M17.0329 10.0577C16.0956 10.0524 15.2147 9.38884 14.8868 8.39753C14.5563 7.40001 14.8446 6.33143 15.6286 5.6448C16.3754 4.99103 17.4704 4.90043 18.3075 5.42273C18.6927 5.66345 18.7686 6.05784 18.4744 6.31277C18.2628 6.49576 18.0521 6.43624 17.8321 6.31277C16.9073 5.79314 15.9059 6.30034 15.723 7.37691C15.6269 7.94363 15.9371 8.58407 16.4496 8.87542C16.9798 9.17654 17.4865 9.1117 17.9223 8.688C18.1583 8.45793 18.4238 8.4375 18.6245 8.63292C18.8445 8.84699 18.8478 9.12769 18.6118 9.39506C18.2038 9.85784 17.693 10.0764 17.0329 10.0595V10.0577Z" fill="#A3362B" stroke="#A3362B" stroke-width="0.5"/>
<path d="M19.5556 7.58517C19.5556 6.9545 19.5531 6.32383 19.5564 5.69316C19.5581 5.30499 19.7233 5.12734 20.0917 5.12289C20.5747 5.11756 21.0578 5.11756 21.5408 5.12289C21.8813 5.12645 22.0811 5.32009 22.0769 5.62565C22.0727 5.92855 21.8679 6.11864 21.529 6.12397C21.2457 6.12841 20.9617 6.13196 20.6784 6.12219C20.5419 6.11775 20.5056 6.16216 20.4989 6.30784C20.4593 7.07264 20.4542 7.07175 21.169 7.07175C21.2744 7.07175 21.3806 7.06198 21.4835 7.0753C21.7498 7.11083 21.9378 7.24407 21.9555 7.55319C21.9724 7.84454 21.8097 8.05684 21.5104 8.08704C21.25 8.11368 20.9853 8.11013 20.7239 8.09592C20.541 8.08615 20.5006 8.15455 20.4989 8.33753C20.4913 9.05081 20.4854 9.05081 21.1522 9.05081C21.3098 9.05081 21.4674 9.04281 21.6251 9.05347C21.8923 9.07212 22.0752 9.2782 22.0778 9.54735C22.0803 9.81738 21.899 10.0394 21.6344 10.0448C21.0881 10.0563 20.5419 10.0572 19.9965 10.0448C19.7191 10.0386 19.5598 9.83337 19.5581 9.51004C19.5539 8.86782 19.5564 8.22649 19.5564 7.58428L19.5556 7.58517Z" fill="#A3362B" stroke="#A3362B" stroke-width="0.5"/>
<path d="M13.5297 30.8491C12.594 30.8491 11.6583 30.8536 10.7226 30.8465C10.3989 30.8438 10.1755 30.6145 10.1797 30.3265C10.184 30.0474 10.3913 29.8474 10.7058 29.8243C10.7892 29.8181 10.8735 29.8225 10.9578 29.8225C12.6395 29.8225 14.3212 29.8225 16.0038 29.8225C16.1092 29.8225 16.2145 29.8181 16.3191 29.8234C16.6596 29.8394 16.8712 30.0323 16.8763 30.3265C16.8813 30.6287 16.6537 30.8465 16.3047 30.8483C15.38 30.8536 14.4544 30.85 13.5297 30.85V30.8491Z" fill="#A3362B" stroke="#A3362B" stroke-width="0.5"/>
<path d="M13.5024 24.5278C12.5777 24.5278 11.6521 24.5322 10.7273 24.5251C10.4028 24.5224 10.1803 24.2958 10.1836 24.0069C10.187 23.7278 10.3935 23.5269 10.7088 23.5029C10.7923 23.4967 10.8765 23.5012 10.9608 23.5012C12.4639 23.5012 13.9677 23.5012 15.4707 23.5012C15.7438 23.5012 16.0178 23.4958 16.2909 23.502C16.6559 23.51 16.8751 23.7011 16.8802 24.0033C16.8861 24.3153 16.6517 24.5251 16.2783 24.5269C15.3535 24.5304 14.428 24.5278 13.5032 24.5278H13.5024Z" fill="#A3362B" stroke="#A3362B" stroke-width="0.5"/>
<path d="M13.5341 18.2156C12.6093 18.2156 11.6838 18.2201 10.759 18.2138C10.3173 18.2103 10.0585 17.8361 10.2364 17.4726C10.3544 17.2317 10.5668 17.1935 10.7995 17.1944C11.7031 17.197 12.6076 17.1952 13.5113 17.1952C14.4259 17.1952 15.3405 17.1952 16.2552 17.1952C16.4474 17.1952 16.637 17.2041 16.7685 17.3837C16.8882 17.5472 16.9127 17.7321 16.8284 17.9143C16.7255 18.1356 16.5376 18.2165 16.3091 18.2165C15.3844 18.2147 14.4588 18.2165 13.5341 18.2165V18.2156Z" fill="#A3362B" stroke="#A3362B" stroke-width="0.5"/>
<path d="M13.8082 7.5655C13.8082 8.18462 13.8108 8.80374 13.8074 9.42375C13.8049 9.83857 13.6337 10.0571 13.3227 10.0589C13.0083 10.0606 12.8346 9.84745 12.8329 9.42997C12.8296 8.19172 12.8287 6.95259 12.8329 5.71435C12.8346 5.32529 13.0428 5.07302 13.3328 5.08279C13.6169 5.09256 13.804 5.33151 13.8074 5.70813C13.8125 6.32725 13.8091 6.94638 13.8091 7.56639L13.8082 7.5655Z" fill="#A3362B" stroke="#A3362B" stroke-width="0.5"/>
<path d="M8.34267 16.483C8.34267 16.0958 8.34267 15.7085 8.34267 15.3212C8.34267 15.299 8.34267 15.2768 8.34267 15.2546C8.32834 14.7411 8.05269 14.4054 7.57388 14.3938C6.77644 14.3734 5.97815 14.3761 5.17986 14.3929C4.7255 14.4027 4.41782 14.7101 4.40686 15.1808C4.38578 16.0433 4.38494 16.9067 4.40602 17.7684C4.41782 18.2631 4.73393 18.5536 5.20346 18.5563C5.98068 18.5616 6.75705 18.5607 7.53426 18.5563C8.02908 18.5536 8.33171 18.2365 8.34182 17.7106C8.34941 17.3011 8.34351 16.8916 8.34351 16.483H8.34267ZM7.39264 17.3322C7.39854 17.4939 7.3682 17.5667 7.19117 17.5623C6.64662 17.5498 6.10206 17.5534 5.55751 17.5605C5.41252 17.5623 5.35604 17.5259 5.35857 17.3606C5.367 16.7762 5.36868 16.1908 5.35857 15.6063C5.3552 15.4313 5.42348 15.4073 5.56256 15.4118C5.83484 15.4207 6.10712 15.4145 6.43672 15.4145C6.70984 15.442 7.15155 15.2652 7.33785 15.482C7.50139 15.6721 7.3859 16.1313 7.39011 16.4715C7.39349 16.7584 7.38337 17.0453 7.39349 17.3322H7.39264Z" fill="#A3362B" stroke="#A3362B" stroke-width="0.5"/>
<path d="M8.34066 22.7799C8.34066 22.3926 8.34066 22.0053 8.34066 21.618C8.34066 21.5958 8.34066 21.5736 8.34066 21.5514C8.3238 21.0442 8.03888 20.7155 7.55586 20.7058C6.76853 20.6898 5.98035 20.6916 5.19387 20.7049C4.73698 20.7129 4.42002 21.0122 4.40738 21.4777C4.38546 22.3508 4.38462 23.2258 4.40738 24.099C4.41918 24.5768 4.73614 24.8673 5.18628 24.8709C5.97361 24.8771 6.76094 24.8771 7.54911 24.8709C8.02539 24.8673 8.32801 24.5484 8.33897 24.0412C8.34825 23.6211 8.34066 23.2 8.34066 22.7799ZM7.38811 22.8198C7.38811 23.0961 7.38052 23.3715 7.39064 23.6477C7.39654 23.8103 7.36535 23.8813 7.18832 23.8778C6.64377 23.8653 6.09921 23.8689 5.55466 23.876C5.40882 23.8778 5.35319 23.8405 5.35572 23.6761C5.36415 23.0917 5.36583 22.5063 5.35572 21.9218C5.35235 21.7459 5.42231 21.7264 5.55971 21.7282C6.10427 21.7344 6.64883 21.7353 7.19338 21.7282C7.33922 21.7264 7.39822 21.7601 7.39148 21.928C7.37884 22.2256 7.38811 22.5241 7.38811 22.8216V22.8198Z" fill="#A3362B"/>
<path d="M8.33982 22.7799H8.34066M8.34066 22.7799C8.34066 22.3926 8.34066 22.0053 8.34066 21.618C8.34066 21.5958 8.34066 21.5736 8.34066 21.5514C8.3238 21.0442 8.03888 20.7155 7.55586 20.7058C6.76853 20.6898 5.98035 20.6916 5.19387 20.7049C4.73698 20.7129 4.42002 21.0122 4.40738 21.4777C4.38546 22.3508 4.38462 23.2258 4.40738 24.099C4.41918 24.5768 4.73614 24.8673 5.18628 24.8709C5.97361 24.8771 6.76094 24.8771 7.54911 24.8709C8.02539 24.8673 8.32801 24.5484 8.33897 24.0412C8.34825 23.6211 8.34066 23.2 8.34066 22.7799ZM7.38811 22.8198C7.38811 23.0961 7.38052 23.3715 7.39064 23.6477C7.39654 23.8103 7.36535 23.8813 7.18832 23.8778C6.64377 23.8653 6.09921 23.8689 5.55466 23.876C5.40882 23.8778 5.35319 23.8405 5.35572 23.6761C5.36415 23.0917 5.36583 22.5063 5.35572 21.9218C5.35235 21.7459 5.42231 21.7264 5.55971 21.7282C6.10427 21.7344 6.64883 21.7353 7.19338 21.7282C7.33922 21.7264 7.39822 21.7601 7.39148 21.928C7.37884 22.2256 7.38811 22.5241 7.38811 22.8216V22.8198Z" stroke="#A3362B" stroke-width="0.5"/>
<path d="M8.34234 29.1213C8.34234 28.7118 8.3474 28.3023 8.34066 27.8928C8.33223 27.3652 8.04225 27.0294 7.54911 27.0196C6.76178 27.0045 5.97361 27.0045 5.18628 27.0196C4.73361 27.0285 4.41834 27.3341 4.40654 27.8013C4.38546 28.6745 4.38462 29.5494 4.40822 30.4226C4.42087 30.8978 4.73951 31.1847 5.19302 31.1883C5.98035 31.1945 6.76853 31.1945 7.55586 31.1883C8.01527 31.1847 8.32464 30.8658 8.33644 30.3826C8.3474 29.9625 8.33897 29.5414 8.33897 29.1213H8.34066H8.34234ZM7.39317 29.9891C7.39569 30.1472 7.35186 30.2005 7.19928 30.1943C6.91689 30.1827 6.63281 30.1907 6.34957 30.1907C6.09753 30.1907 5.84464 30.1747 5.59512 30.1961C5.38944 30.2129 5.35403 30.1277 5.35825 29.934C5.37005 29.3815 5.3692 28.829 5.35825 28.2765C5.35403 28.0882 5.40714 28.034 5.58585 28.0376C6.11017 28.05 6.6345 28.0482 7.15882 28.0376C7.32404 28.0349 7.39991 28.0624 7.39485 28.265C7.38136 28.8397 7.38558 29.4144 7.39317 29.9891Z" fill="#A3362B" stroke="#A3362B" stroke-width="0.5"/>
<path d="M11.643 9.14175C11.3631 8.79799 11.0756 8.46134 10.7646 8.09005C10.8295 8.05984 10.8674 8.04297 10.9054 8.0252C11.5654 7.69921 11.8832 7.12805 11.8048 6.40767C11.734 5.75213 11.2518 5.23516 10.5614 5.10103C10.1669 5.02464 9.76483 5.07349 9.36695 5.07349C9.00953 5.07349 8.83672 5.27069 8.83588 5.65531C8.83335 6.92819 8.83335 8.20108 8.83588 9.47396C8.83588 9.84082 9.00785 10.046 9.30288 10.0487C9.59877 10.0513 9.77747 9.84348 9.78085 9.48462C9.78422 9.16129 9.78085 8.83797 9.78085 8.44535C10.1939 8.941 10.5513 9.37448 10.9146 9.80262C11.1566 10.0878 11.4373 10.1322 11.6556 9.9332C11.8739 9.73423 11.8739 9.42689 11.6421 9.14175H11.643ZM10.1408 7.13338C9.90476 7.13457 9.78618 6.9501 9.78506 6.57999C9.84323 6.40678 9.60804 6.04792 10.0868 6.08079C10.596 6.11543 10.8523 6.25755 10.8582 6.60309C10.8641 6.95484 10.6255 7.13161 10.1399 7.13338H10.1408Z" fill="#A3362B" stroke="#A3362B" stroke-width="0.5"/>
<path d="M6.84688 5.13529C6.56701 5.05978 6.28462 5.08199 6.00222 5.07666C5.98115 5.07666 5.96008 5.07666 5.939 5.07666C4.9443 5.07666 4.92828 5.09354 4.92828 6.15501C4.92828 7.27245 4.9266 8.38989 4.92913 9.50644C4.92997 9.84576 5.10699 10.0483 5.38939 10.0545C5.6878 10.0616 5.86735 9.85642 5.87409 9.49934C5.87662 9.34478 5.87409 9.18933 5.87409 9.03477C5.87409 8.57702 6.09354 8.34045 6.53245 8.32505C7.28437 8.2984 7.93262 7.66329 8.01017 6.8754C8.08856 6.08662 7.57857 5.33159 6.84519 5.1344L6.84688 5.13529ZM6.97922 6.99443C6.89071 7.16941 6.73813 7.27068 6.55858 7.31509C5.98789 7.45632 5.87915 7.35862 5.87662 6.71373C5.87662 6.66932 5.86903 6.62313 5.87746 6.58138C5.91203 6.42238 5.77378 6.20742 5.96345 6.10616C6.19189 5.98447 6.75415 6.12837 6.90673 6.31757C7.07363 6.52453 7.09977 6.75548 6.97838 6.99443H6.97922Z" fill="#A3362B" stroke="#A3362B" stroke-width="0.5"/>
</svg>
