<svg width="176" height="176" viewBox="0 0 176 176" fill="none" xmlns="http://www.w3.org/2000/svg">
<rect x="0.5" y="0.5" width="175" height="175" rx="9.5" fill="#FFCFCF" fill-opacity="0.24" stroke="#A3362B"/>
<path d="M61.4556 139.608C62.6085 139.608 63.4499 139.845 63.9795 140.317C64.5091 140.79 64.7739 141.452 64.7739 142.303C64.7739 142.69 64.7128 143.059 64.5906 143.41C64.4725 143.756 64.2769 144.063 64.0039 144.332C63.731 144.597 63.3704 144.807 62.9223 144.962C62.4782 145.117 61.9302 145.194 61.2783 145.194H60.325V148.543H58.8583V139.608H61.4556ZM61.3578 140.825H60.325V143.972H61.1256C61.5859 143.972 61.9771 143.919 62.2989 143.813C62.6208 143.703 62.8652 143.53 63.0323 143.293C63.1993 143.057 63.2828 142.745 63.2828 142.358C63.2828 141.841 63.126 141.456 62.8123 141.203C62.5026 140.951 62.0178 140.825 61.3578 140.825ZM69.0701 139.608C69.8401 139.608 70.4757 139.702 70.9768 139.89C71.482 140.077 71.8568 140.362 72.1013 140.745C72.3498 141.128 72.4741 141.615 72.4741 142.206C72.4741 142.646 72.3926 143.02 72.2296 143.33C72.0667 143.64 71.8528 143.896 71.5879 144.1C71.3231 144.304 71.04 144.467 70.7385 144.589L73.2746 148.543H71.6185L69.4612 144.962H68.0251V148.543H66.5584V139.608H69.0701ZM68.9723 140.831H68.0251V143.752H69.0396C69.72 143.752 70.2129 143.625 70.5185 143.373C70.8281 143.12 70.9829 142.748 70.9829 142.255C70.9829 141.737 70.8179 141.37 70.4879 141.155C70.162 140.939 69.6568 140.831 68.9723 140.831ZM74.5519 148.543V139.608H76.0186V148.543H74.5519ZM85.6315 143.99C85.6315 144.996 85.4441 145.838 85.0693 146.514C84.6944 147.186 84.1505 147.694 83.4376 148.036C82.7246 148.374 81.865 148.543 80.8586 148.543H78.3775V139.608H81.1275C82.0524 139.608 82.8509 139.775 83.5231 140.11C84.1954 140.44 84.7148 140.93 85.0815 141.582C85.4482 142.23 85.6315 143.033 85.6315 143.99ZM84.1037 144.033C84.1037 143.3 83.9876 142.697 83.7554 142.224C83.5272 141.751 83.189 141.401 82.7409 141.173C82.2968 140.941 81.7488 140.825 81.097 140.825H79.8442V147.315H80.8831C81.9627 147.315 82.7694 147.04 83.3031 146.49C83.8368 145.94 84.1037 145.121 84.1037 144.033ZM92.6166 148.543H87.5565V139.608H92.6166V140.843H89.0232V143.269H92.3905V144.497H89.0232V147.302H92.6166V148.543ZM97.7989 148.543V139.608H99.2656V147.296H103.061V148.543H97.7989ZM107.112 141.65C107.968 141.65 108.614 141.839 109.05 142.218C109.49 142.597 109.71 143.188 109.71 143.99V148.543H108.689L108.414 147.584H108.365C108.174 147.828 107.976 148.03 107.772 148.189C107.569 148.347 107.332 148.466 107.063 148.543C106.799 148.624 106.475 148.665 106.092 148.665C105.688 148.665 105.328 148.592 105.01 148.445C104.692 148.294 104.442 148.066 104.258 147.761C104.075 147.455 103.983 147.068 103.983 146.6C103.983 145.903 104.242 145.379 104.76 145.029C105.281 144.679 106.067 144.485 107.118 144.448L108.292 144.406V144.051C108.292 143.583 108.182 143.249 107.962 143.049C107.746 142.849 107.44 142.75 107.045 142.75C106.707 142.75 106.379 142.798 106.061 142.896C105.743 142.994 105.434 143.114 105.132 143.257L104.668 142.242C104.998 142.067 105.373 141.925 105.792 141.815C106.216 141.705 106.656 141.65 107.112 141.65ZM108.286 145.31L107.412 145.341C106.695 145.365 106.192 145.487 105.902 145.707C105.613 145.927 105.468 146.229 105.468 146.612C105.468 146.946 105.568 147.19 105.768 147.345C105.968 147.496 106.23 147.571 106.556 147.571C107.053 147.571 107.465 147.431 107.791 147.15C108.121 146.864 108.286 146.447 108.286 145.897V145.31ZM113.156 139.034V141.326C113.156 141.59 113.148 141.851 113.132 142.108C113.12 142.36 113.107 142.558 113.095 142.701H113.156C113.34 142.407 113.594 142.161 113.92 141.961C114.25 141.757 114.672 141.656 115.185 141.656C115.988 141.656 116.634 141.951 117.123 142.542C117.611 143.128 117.856 143.998 117.856 145.151C117.856 145.917 117.744 146.561 117.52 147.082C117.296 147.604 116.98 147.999 116.573 148.268C116.169 148.533 115.695 148.665 115.149 148.665C114.635 148.665 114.22 148.571 113.902 148.384C113.588 148.193 113.342 147.971 113.162 147.718H113.059L112.796 148.543H111.72V139.034H113.156ZM114.806 142.823C114.399 142.823 114.075 142.904 113.835 143.067C113.598 143.23 113.427 143.475 113.321 143.801C113.215 144.123 113.16 144.532 113.156 145.029V145.157C113.156 145.911 113.275 146.488 113.511 146.887C113.751 147.286 114.187 147.486 114.819 147.486C115.32 147.486 115.705 147.284 115.974 146.881C116.243 146.473 116.377 145.891 116.377 145.133C116.377 144.367 116.243 143.79 115.974 143.403C115.709 143.016 115.32 142.823 114.806 142.823Z" fill="black"/>
<path d="M142.68 72.3686C142.68 78.5897 137.637 83.6328 131.416 83.6328L66.591 83.6328C64.863 83.6328 63.4621 82.2319 63.4621 80.5039L63.4621 12.2574C63.4621 8.80128 66.2638 5.99954 69.72 5.99954L139.551 5.99954C141.279 5.99954 142.68 7.40041 142.68 9.12848L142.68 72.3686Z" fill="url(#paint0_linear_3_23020)"/>
<path d="M83.0241 120.089C117.585 120.089 145.603 118.454 145.603 116.436C145.603 114.418 117.585 112.782 83.0241 112.782C48.4628 112.782 20.4453 114.418 20.4453 116.436C20.4453 118.454 48.4628 120.089 83.0241 120.089Z" fill="#FFE0E1"/>
<path d="M53.332 71.9193H83.6025V68.8887H53.332C52.4961 68.8887 51.8184 69.5664 51.8184 70.4024C51.8184 71.2383 52.4961 71.916 53.332 71.916V71.9193Z" fill="#6A1A1E"/>
<path d="M65.0329 115.961H66.9629V71.8705H65.0329V115.961Z" fill="#6A1A1E"/>
<path opacity="0.7" d="M65.0329 115.961H66.9629V71.8705H65.0329V115.961Z" fill="white"/>
<path d="M55.4547 115.961H57.3848L57.3848 71.8705H55.4547L55.4547 115.961Z" fill="#6A1A1E"/>
<path opacity="0.7" d="M55.4547 115.961H57.3848L57.3848 71.8705H55.4547L55.4547 115.961Z" fill="white"/>
<path d="M53.3262 71.4395C53.8698 71.4395 54.3105 70.9987 54.3105 70.4551C54.3105 69.9114 53.8698 69.4707 53.3262 69.4707C52.7825 69.4707 52.3418 69.9114 52.3418 70.4551C52.3418 70.9987 52.7825 71.4395 53.3262 71.4395Z" fill="#407BFF"/>
<path d="M56.6816 70.4551C56.6816 70.9973 57.1206 71.4395 57.666 71.4395C58.2115 71.4395 58.6504 71.0005 58.6504 70.4551C58.6504 69.9096 58.2115 69.4707 57.666 69.4707C57.1206 69.4707 56.6816 69.9096 56.6816 70.4551Z" fill="#FAA2A6"/>
<path d="M61.9863 71.4395C62.53 71.4395 62.9707 70.9987 62.9707 70.4551C62.9707 69.9114 62.53 69.4707 61.9863 69.4707C61.4427 69.4707 61.002 69.9114 61.002 70.4551C61.002 70.9987 61.4427 71.4395 61.9863 71.4395Z" fill="#FAA2A6"/>
<path d="M66.2891 71.4395C66.8327 71.4395 67.2734 70.9987 67.2734 70.4551C67.2734 69.9114 66.8327 69.4707 66.2891 69.4707C65.7454 69.4707 65.3047 69.9114 65.3047 70.4551C65.3047 70.9987 65.7454 71.4395 66.2891 71.4395Z" fill="#FAA2A6"/>
<path d="M70.625 71.4395C71.1687 71.4395 71.6094 70.9987 71.6094 70.4551C71.6094 69.9114 71.1687 69.4707 70.625 69.4707C70.0813 69.4707 69.6406 69.9114 69.6406 70.4551C69.6406 70.9987 70.0813 71.4395 70.625 71.4395Z" fill="#FAA2A6"/>
<path d="M74.959 71.4395C75.5026 71.4395 75.9434 70.9987 75.9434 70.4551C75.9434 69.9114 75.5026 69.4707 74.959 69.4707C74.4153 69.4707 73.9746 69.9114 73.9746 70.4551C73.9746 70.9987 74.4153 71.4395 74.959 71.4395Z" fill="#407BFF"/>
<path d="M79.2754 71.4395C79.819 71.4395 80.2598 70.9987 80.2598 70.4551C80.2598 69.9114 79.819 69.4707 79.2754 69.4707C78.7317 69.4707 78.291 69.9114 78.291 70.4551C78.291 70.9987 78.7317 71.4395 79.2754 71.4395Z" fill="#407BFF"/>
<path d="M83.6055 69.4739V71.4395C83.0633 71.4395 82.6211 71.0005 82.6211 70.4551C82.6211 69.9096 83.06 69.4707 83.6055 69.4707V69.4739Z" fill="#407BFF"/>
<path d="M98.4242 35.2041H96.4199V35.5268H98.4242V35.2041Z" fill="#F3444C"/>
<path d="M94.5624 35.2041H88.1074V35.5268H94.5624V35.2041Z" fill="#F3444C"/>
<path d="M75.7084 36.2949H106.761C108.223 36.2949 109.41 37.4827 109.41 38.9447V115.96H73.0586V38.9447C73.0586 37.4827 74.2463 36.2949 75.7084 36.2949Z" fill="#6A1A1E"/>
<path opacity="0.2" d="M83.1154 59.6683H73.0586V59.3713H82.8185V36.2949H83.1154V59.6683Z" fill="white"/>
<path opacity="0.4" d="M101.08 36.2949H106.754C108.216 36.2949 109.404 37.4827 109.404 38.9447V115.96H98.4336V38.9447C98.4336 37.4827 99.6213 36.2949 101.083 36.2949H101.08Z" fill="#263238"/>
<path d="M101.923 49.5732H105.909C106.619 49.5732 107.194 50.151 107.194 50.8578V75.1154H100.639V50.8578C100.639 50.1477 101.216 49.5732 101.923 49.5732Z" fill="#F3444C"/>
<path d="M101.924 49.5732H105.378C106.088 49.5732 106.662 50.151 106.662 50.8578V75.1154H100.637V50.8578C100.637 50.1477 101.214 49.5732 101.921 49.5732H101.924Z" fill="#181818"/>
<path opacity="0.2" d="M98.4326 111.655H87.1816V75.2783H98.4326V75.5753H87.4786V111.358H98.4326V111.655Z" fill="white"/>
<path opacity="0.2" d="M82.8699 111.637C81.8307 111.637 80.9883 110.792 80.9883 109.756C80.9883 108.72 81.8339 107.874 82.8699 107.874C83.9059 107.874 84.7515 108.72 84.7515 109.756C84.7515 110.792 83.9059 111.637 82.8699 111.637ZM82.8699 108.171C81.9953 108.171 81.2852 108.881 81.2852 109.756C81.2852 110.63 81.9953 111.34 82.8699 111.34C83.7445 111.34 84.4546 110.63 84.4546 109.756C84.4546 108.881 83.7445 108.171 82.8699 108.171Z" fill="white"/>
<path opacity="0.2" d="M77.8289 111.637C76.7896 111.637 75.9473 110.792 75.9473 109.756C75.9473 108.72 76.7929 107.874 77.8289 107.874C78.8649 107.874 79.7105 108.72 79.7105 109.756C79.7105 110.792 78.8649 111.637 77.8289 111.637ZM77.8289 108.171C76.9542 108.171 76.2442 108.881 76.2442 109.756C76.2442 110.63 76.9542 111.34 77.8289 111.34C78.7035 111.34 79.4136 110.63 79.4136 109.756C79.4136 108.881 78.7035 108.171 77.8289 108.171Z" fill="white"/>
<path d="M140.485 71.8558H110.215V68.8252H140.485C141.321 68.8252 141.999 69.503 141.999 70.3389C141.999 71.1748 141.321 71.8526 140.485 71.8526V71.8558Z" fill="#6A1A1E"/>
<path d="M130.909 71.8558H100.639V68.8252H130.909C131.745 68.8252 132.423 69.503 132.423 70.3389C132.423 71.1748 131.745 71.8526 130.909 71.8526V71.8558Z" fill="#6A1A1E"/>
<path d="M128.782 71.8613H126.852V115.952H128.782V71.8613Z" fill="#6A1A1E"/>
<path opacity="0.7" d="M128.782 71.8613H126.852V115.952H128.782V71.8613Z" fill="white"/>
<path d="M138.35 71.8613H136.42V115.952H138.35V71.8613Z" fill="#6A1A1E"/>
<path opacity="0.7" d="M138.35 71.8613H136.42V115.952H138.35V71.8613Z" fill="white"/>
<path d="M130.908 71.4102C131.452 71.4102 131.893 70.9694 131.893 70.4258C131.893 69.8821 131.452 69.4414 130.908 69.4414C130.365 69.4414 129.924 69.8821 129.924 70.4258C129.924 70.9694 130.365 71.4102 130.908 71.4102Z" fill="#FAA2A6"/>
<path d="M126.594 71.4102C127.137 71.4102 127.578 70.9694 127.578 70.4258C127.578 69.8821 127.137 69.4414 126.594 69.4414C126.05 69.4414 125.609 69.8821 125.609 70.4258C125.609 70.9694 126.05 71.4102 126.594 71.4102Z" fill="#FAA2A6"/>
<path d="M122.27 71.4102C122.813 71.4102 123.254 70.9694 123.254 70.4258C123.254 69.8821 122.813 69.4414 122.27 69.4414C121.726 69.4414 121.285 69.8821 121.285 70.4258C121.285 70.9694 121.726 71.4102 122.27 71.4102Z" fill="#FAA2A6"/>
<path d="M117.932 71.4102C118.475 71.4102 118.916 70.9694 118.916 70.4258C118.916 69.8821 118.475 69.4414 117.932 69.4414C117.388 69.4414 116.947 69.8821 116.947 70.4258C116.947 70.9694 117.388 71.4102 117.932 71.4102Z" fill="#FAA2A6"/>
<path d="M113.609 71.4102C114.153 71.4102 114.594 70.9694 114.594 70.4258C114.594 69.8821 114.153 69.4414 113.609 69.4414C113.066 69.4414 112.625 69.8821 112.625 70.4258C112.625 70.9694 113.066 71.4102 113.609 71.4102Z" fill="#FAA2A6"/>
<path d="M109.297 71.4102C109.841 71.4102 110.281 70.9694 110.281 70.4258C110.281 69.8821 109.841 69.4414 109.297 69.4414C108.753 69.4414 108.312 69.8821 108.312 70.4258C108.312 70.9694 108.753 71.4102 109.297 71.4102Z" fill="#FAA2A6"/>
<path d="M104.955 71.4102C105.499 71.4102 105.939 70.9694 105.939 70.4258C105.939 69.8821 105.499 69.4414 104.955 69.4414C104.411 69.4414 103.971 69.8821 103.971 70.4258C103.971 70.9694 104.411 71.4102 104.955 71.4102Z" fill="#FAA2A6"/>
<path d="M100.637 69.43V71.3955C101.179 71.3955 101.621 70.9566 101.621 70.4111C101.621 69.8657 101.182 69.4268 100.637 69.4268V69.43Z" fill="#FAA2A6"/>
<path d="M94.2451 44.3027H77.2331C76.6093 44.3027 76.1035 44.8085 76.1035 45.4323V79.0787C76.1035 79.7026 76.6093 80.2083 77.2331 80.2083H94.2451C94.869 80.2083 95.3747 79.7026 95.3747 79.0787V45.4323C95.3747 44.8085 94.869 44.3027 94.2451 44.3027Z" fill="white"/>
<path opacity="0.3" d="M92.0917 48.1453H79.3464C78.6816 48.1453 78.1426 48.6842 78.1426 49.3491V57.6469C78.1426 58.3118 78.6816 58.8508 79.3464 58.8508H92.0917C92.7566 58.8508 93.2955 58.3118 93.2955 57.6469V49.3491C93.2955 48.6842 92.7566 48.1453 92.0917 48.1453Z" fill="#FAA2A6"/>
<path opacity="0.3" d="M79.3339 60.3867H92.2051C92.8344 60.3867 93.3476 60.8999 93.3476 61.5292V66.619C93.3476 67.2483 92.8344 67.7615 92.2051 67.7615H79.3339C78.7046 67.7615 78.1914 67.2483 78.1914 66.619V61.5292C78.1914 60.8999 78.7046 60.3867 79.3339 60.3867Z" fill="#FAA2A6"/>
<path d="M82.7706 64.056L80.2402 63.1361C80.6275 62.0743 81.641 61.3643 82.7706 61.3643C84.0712 61.3643 85.1944 62.3067 85.4203 63.588L82.7706 64.056Z" fill="#6A1A1E"/>
<path d="M82.7718 64.0985L85.4215 63.6306C85.4474 63.7855 85.4635 63.9404 85.4635 64.0985C85.4635 65.5767 84.2467 66.7902 82.7718 66.7902C81.2968 66.7902 80.0801 65.5735 80.0801 64.0985C80.0801 63.7855 80.1349 63.4724 80.2415 63.1787L82.7718 64.0985Z" fill="white"/>
<path d="M90.1039 63.7656H89.084V66.8059H90.1039V63.7656Z" fill="white"/>
<path d="M88.3812 65.3496H87.3613V66.7729H88.3812V65.3496Z" fill="white"/>
<path d="M88.3812 64.4541H87.3613V65.3223H88.3812V64.4541Z" fill="#6A1A1E"/>
<path d="M90.1039 61.8584H89.084V63.711H90.1039V61.8584Z" fill="#6A1A1E"/>
<path d="M91.85 64.2002H90.8301V66.6854H91.85V64.2002Z" fill="white"/>
<path d="M91.85 63.1152H90.8301V64.2545H91.85V63.1152Z" fill="#6A1A1E"/>
<path d="M80.3745 55.7497H91.0832C91.3995 55.7497 91.6125 55.4205 91.477 55.1333C91.2027 54.5588 90.8444 53.5873 90.7282 52.2576C90.5281 49.9919 88.9983 49.4497 88.3464 52.2576C87.6944 55.0655 85.0931 53.6164 84.028 52.2834C83.0404 51.0441 81.4266 52.4157 79.9937 55.1139C79.842 55.4012 80.0517 55.7497 80.3777 55.7497H80.3745Z" fill="#ED1C25"/>
<path d="M79.9338 70.2162C80.7568 70.2162 81.4281 70.8875 81.4281 71.7105C81.4281 72.5335 80.7568 73.2048 79.9338 73.2048C79.1108 73.2048 78.4395 72.5335 78.4395 71.7105C78.4395 70.8875 79.1108 70.2162 79.9338 70.2162ZM79.9338 69.916C78.943 69.916 78.1426 70.7197 78.1426 71.7073C78.1426 72.6949 78.9462 73.4985 79.9338 73.4985C80.9214 73.4985 81.7251 72.6949 81.7251 71.7073C81.7251 70.7197 80.9214 69.916 79.9338 69.916Z" fill="#263238"/>
<path d="M84.8147 70.2162C85.6377 70.2162 86.309 70.8875 86.309 71.7105C86.309 72.5335 85.6377 73.2048 84.8147 73.2048C83.9917 73.2048 83.3204 72.5335 83.3204 71.7105C83.3204 70.8875 83.9917 70.2162 84.8147 70.2162ZM84.8147 69.916C83.8239 69.916 83.0234 70.7197 83.0234 71.7073C83.0234 72.6949 83.8271 73.4985 84.8147 73.4985C85.8023 73.4985 86.6059 72.6949 86.6059 71.7073C86.6059 70.7197 85.8023 69.916 84.8147 69.916Z" fill="#820D01"/>
<path d="M93.3148 76.4601C93.3148 76.8862 92.9695 77.2347 92.5402 77.2347C92.111 77.2347 91.7656 76.8894 91.7656 76.4601C91.7656 76.0309 92.111 75.6855 92.5402 75.6855C92.9695 75.6855 93.3148 76.0309 93.3148 76.4601Z" fill="#F3444C"/>
<path opacity="0.3" d="M89.9066 76.4601C89.9066 76.8862 89.5613 77.2347 89.132 77.2347C88.7028 77.2347 88.3574 76.8894 88.3574 76.4601C88.3574 76.0309 88.7028 75.6855 89.132 75.6855C89.5613 75.6855 89.9066 76.0309 89.9066 76.4601Z" fill="#ED1C25"/>
<path d="M86.514 76.4601C86.514 76.8862 86.1687 77.2347 85.7394 77.2347C85.3102 77.2347 84.9648 76.8894 84.9648 76.4601C84.9648 76.0309 85.3102 75.6855 85.7394 75.6855C86.1687 75.6855 86.514 76.0309 86.514 76.4601Z" fill="#F3444C"/>
<path d="M83.1058 76.4601C83.1058 76.8862 82.7605 77.2347 82.3312 77.2347C81.902 77.2347 81.5566 76.8894 81.5566 76.4601C81.5566 76.0309 81.902 75.6855 82.3312 75.6855C82.7605 75.6855 83.1058 76.0309 83.1058 76.4601Z" fill="#F3444C"/>
<path d="M79.6918 76.4601C79.6918 76.8862 79.3464 77.2347 78.9172 77.2347C78.4879 77.2347 78.1426 76.8894 78.1426 76.4601C78.1426 76.0309 78.4879 75.6855 78.9172 75.6855C79.3464 75.6855 79.6918 76.0309 79.6918 76.4601Z" fill="#F3444C"/>
<path d="M130.929 57.0869H113.904V68.8317H130.929V57.0869Z" fill="#ED1C25"/>
<path opacity="0.7" d="M121.303 57.0869H118.26V61.402H121.303V57.0869Z" fill="white"/>
<path opacity="0.2" d="M130.926 57.0869H125.617V68.8317H130.926V57.0869Z" fill="black"/>
<path opacity="0.7" d="M129.114 57.0869H127.416V61.402H129.114V57.0869Z" fill="white"/>
<path d="M117.178 65.5381V67.4553H115.261V65.5381H117.178ZM117.475 65.2412H114.961V67.7554H117.475V65.2412Z" fill="white"/>
<path opacity="0.4" d="M121.053 65.2412H118.539V67.7554H121.053V65.2412Z" fill="#263238"/>
<path d="M67.8084 59.043H62.8123C62.6733 59.043 62.5605 59.1557 62.5605 59.2947V68.593C62.5605 68.7321 62.6733 68.8448 62.8123 68.8448H67.8084C67.9474 68.8448 68.0602 68.7321 68.0602 68.593V59.2947C68.0602 59.1557 67.9474 59.043 67.8084 59.043Z" fill="#263238"/>
<path d="M67.5291 59.043H62.533C62.394 59.043 62.2812 59.1557 62.2812 59.2947V68.593C62.2812 68.7321 62.394 68.8448 62.533 68.8448H67.5291C67.6682 68.8448 67.7809 68.7321 67.7809 68.593V59.2947C67.7809 59.1557 67.6682 59.043 67.5291 59.043Z" fill="#6A1A1E"/>
<path d="M67.4746 68.3142V59.5742C67.4746 59.4458 67.3706 59.3418 67.2422 59.3418H62.8045C62.6761 59.3418 62.5721 59.4458 62.5721 59.5742V68.3142C62.5721 68.4425 62.6761 68.5465 62.8045 68.5465H67.2422C67.3706 68.5465 67.4746 68.4425 67.4746 68.3142Z" fill="white"/>
<path opacity="0.2" d="M64.9314 59.3406H63.9179L63.1562 68.5421H64.1729L64.9314 59.3406Z" fill="#6A1A1E"/>
<path opacity="0.2" d="M65.9468 59.3408H65.2917L64.5332 68.5423H65.1884L65.9468 59.3408Z" fill="#6A1A1E"/>
<path d="M62.9519 49.8727H54.7929C54.6186 49.8727 54.5024 49.7307 54.5347 49.5564L56.6519 38.2538C56.6842 38.0795 56.852 37.9375 57.0263 37.9375H65.1853C65.3596 37.9375 65.4758 38.0795 65.4435 38.2538L63.3263 49.5564C63.294 49.7307 63.1262 49.8727 62.9519 49.8727Z" fill="#6A1A1E"/>
<path d="M62.6626 49.3676H54.9812C54.8166 49.3676 54.7101 49.2353 54.7391 49.0707L56.7337 38.4297C56.766 38.2651 56.9241 38.1328 57.0855 38.1328H64.7669C64.9315 38.1328 65.038 38.2651 65.0089 38.4297L63.0144 49.0707C62.9821 49.2353 62.824 49.3676 62.6626 49.3676Z" fill="white"/>
<path d="M44.8008 38.7545L44.7298 38.9061L44.6459 39.0998L44.4748 39.5097C44.3651 39.7905 44.2586 40.0777 44.165 40.3714C43.9746 40.9556 43.8003 41.5559 43.6583 42.1659C43.3613 43.3826 43.1806 44.6381 43.0709 45.9033L43.0321 46.3551C43.0225 46.4165 43.0321 46.4326 43.0031 46.381C42.9837 46.3358 42.8869 46.2131 42.7998 46.1744C42.7126 46.1292 42.6868 46.1486 42.7255 46.1615C42.8062 46.1938 43.0547 46.1905 43.3065 46.155C43.5679 46.1163 43.8519 46.0518 44.1424 45.9646C45.3075 45.6225 46.5436 45.0932 47.7217 44.5607L48.5027 45.7774C47.3989 46.6585 46.2693 47.4299 44.9267 48.0528C44.5878 48.2045 44.2328 48.3433 43.839 48.4595C43.4388 48.5692 43.0128 48.666 42.4254 48.6241C42.1317 48.595 41.7734 48.5208 41.4055 48.2916C41.0343 48.0657 40.7245 47.6687 40.5922 47.3072C40.4469 46.9425 40.4147 46.6198 40.4082 46.3455V45.7903C40.4179 44.3767 40.5438 42.9534 40.831 41.5462C40.9698 40.8426 41.1505 40.1455 41.3764 39.4516C41.4894 39.1062 41.6153 38.7609 41.7508 38.4188C41.8218 38.2477 41.8896 38.0735 41.9735 37.8992L42.0994 37.6377C42.1446 37.5442 42.1833 37.4731 42.2543 37.3408L44.804 38.7545H44.8008Z" fill="#B55B52"/>
<path d="M46.7178 27.2207C47.0503 28.9119 47.7958 32.6041 46.6113 33.7337C46.6113 33.7337 47.0729 35.4508 50.2196 35.4508C53.6763 35.4508 51.8721 33.7337 51.8721 33.7337C49.984 33.2819 50.0324 31.8844 50.3616 30.5676L46.7178 27.2207Z" fill="#B55B52"/>
<path d="M45.9127 34.3394C45.9127 34.3394 45.6093 33.3808 45.4964 32.8063C45.3834 32.2319 49.6243 32.4255 51.0282 32.7837C52.4322 33.142 52.8808 34.788 52.8808 34.788L45.9127 34.3394Z" fill="#263238"/>
<path d="M54.2693 26.8887C54.2693 26.8887 54.4501 27.9376 54.776 28.4927C54.421 28.709 53.9434 28.4766 53.9434 28.4766L54.2726 26.8887H54.2693Z" fill="#A02724"/>
<path d="M53.7701 25.1315C53.7507 25.125 53.7313 25.1153 53.7184 25.0992C53.6668 25.0475 53.6668 24.9604 53.7184 24.9088C54.2509 24.3827 54.8609 24.5086 54.8868 24.515C54.961 24.5311 55.0062 24.6021 54.99 24.6764C54.9739 24.7506 54.9029 24.7958 54.8287 24.7797C54.8093 24.7764 54.3316 24.6828 53.9056 25.1024C53.8669 25.1411 53.8152 25.1508 53.7668 25.1347L53.7701 25.1315Z" fill="#263238"/>
<path d="M54.159 26.4373C54.1138 26.6632 54.1945 26.8698 54.3398 26.8989C54.4882 26.9279 54.6431 26.7698 54.6916 26.5471C54.7367 26.3211 54.6561 26.1146 54.5108 26.0855C54.3624 26.0565 54.2074 26.2114 54.159 26.4373Z" fill="#263238"/>
<path d="M54.4355 26.0823L55.01 26.0371C55.01 26.0371 54.6453 26.4018 54.4355 26.0823Z" fill="#263238"/>
<path d="M32.1914 115.894H35.0445L35.9546 109.291H33.1016L32.1914 115.894Z" fill="#B55B52"/>
<path d="M35.5296 113.985H32.3248C32.2086 113.985 32.115 114.066 32.0956 114.179L31.7309 116.713C31.6922 116.974 31.9181 117.226 32.1892 117.219C33.3059 117.2 33.8449 117.135 35.2521 117.135C36.1203 117.135 37.3854 117.226 38.5828 117.226C39.7802 117.226 39.8448 116.041 39.3445 115.935C37.1111 115.454 36.7561 114.792 36.0041 114.16C35.8685 114.047 35.6975 113.985 35.5264 113.985H35.5296Z" fill="#263238"/>
<path opacity="0.2" d="M33.1099 109.291H35.963L35.4918 112.696H32.6387L33.1099 109.291Z" fill="black"/>
<path d="M43.0178 34.4792C41.8623 34.8472 40.9941 39.2075 40.9941 39.2075L44.6573 42.4446C44.6573 42.4446 47.0553 38.2037 46.3582 36.7901C45.6288 35.3184 44.383 34.0435 43.0178 34.4792Z" fill="#263238"/>
<path d="M57.0297 36.6956C57.0394 38.5288 57.0975 41.9306 55.9033 48.0047C55.6871 49.1052 56.1163 49.5958 55.9227 50.719C55.7968 51.4548 55.3837 51.3451 55.3256 51.7034H43.7422C43.7551 51.358 43.2355 51.1741 43.1193 50.4317C42.8514 48.7276 43.8358 48.5856 43.8067 47.5109C43.726 44.7998 43.3291 41.7531 42.1446 36.3987C41.8993 35.2949 42.6416 34.2105 43.7616 34.0459C44.5942 33.9265 45.598 33.8103 46.6114 33.7586C48.5608 33.665 50.1584 33.6037 51.8722 33.7586C52.8985 33.8522 53.9862 34.0104 54.8705 34.1588C56.1131 34.3654 57.0232 35.4337 57.0329 36.6924L57.0297 36.6956Z" fill="#6A1A1E"/>
<path opacity="0.4" d="M56.6026 41.9912C56.5283 42.8045 56.58 43.7211 56.4509 44.7571C54.5338 43.7727 54.2723 41.3134 54.8597 40.0547C55.5246 40.5485 56.1378 41.3102 56.6026 41.9912Z" fill="black"/>
<path d="M57.4586 37.4922C57.7782 38.7444 58.1299 40.0354 58.4979 41.2909C58.869 42.5496 59.2596 43.8019 59.7211 44.9896C59.9502 45.5867 60.1988 46.1547 60.4666 46.6905C60.4666 46.7066 60.3666 46.5646 60.1826 46.5001C59.9954 46.4323 59.8728 46.4775 59.8825 46.4871C59.8986 46.5162 60.1407 46.4226 60.3537 46.2935C60.8087 46.0224 61.2993 45.6125 61.7738 45.1929C62.2482 44.7701 62.7355 44.3086 63.1939 43.86L64.3686 44.6991C64.0362 45.3382 63.6747 45.9288 63.2584 46.513C62.8356 47.0939 62.387 47.6555 61.7641 48.1945C61.6059 48.33 61.4317 48.4624 61.2283 48.5882C61.0218 48.7141 60.7862 48.84 60.4602 48.9336C60.1439 49.0207 59.6695 49.0756 59.1692 48.8755C58.6722 48.6786 58.3333 48.2719 58.1751 47.9976C57.7975 47.3521 57.4586 46.7098 57.1746 46.0611C56.5904 44.7669 56.1289 43.463 55.7061 42.1494C55.4963 41.491 55.2995 40.8326 55.1219 40.171C54.9412 39.5061 54.7669 38.851 54.6152 38.1603L57.4554 37.4986L57.4586 37.4922Z" fill="#B55B52"/>
<path d="M56.554 35.1312C58.0516 36.8159 58.6841 39.8852 58.6841 39.8852L54.3722 42.6996C54.3722 42.6996 52.2357 37.8616 52.7553 36.3705C53.446 34.3889 55.1081 33.5078 56.554 35.1312Z" fill="#263238"/>
<path d="M64.5607 44.0116C64.7479 43.4339 64.1767 43.4371 64.3703 42.2591C64.4381 41.8427 64.0766 41.6652 64.0379 41.8847C63.8539 42.9982 61.6592 44.6829 62.8308 45.2187C63.5409 45.5414 64.5575 44.0116 64.5575 44.0116H64.5607Z" fill="#B55B52"/>
<path d="M65.4456 43.4531C65.423 42.7914 64.9227 41.9878 64.4289 43.0109L64.1707 43.211C64.1707 43.211 63.4703 43.3143 62.5957 44.5117L63.5317 45.3508L63.8415 45.2992C64.3514 45.2153 64.8323 45.0055 65.239 44.686L65.3068 44.6343C65.452 44.502 65.5262 44.3051 65.5101 44.1083L65.4488 43.4531H65.4456Z" fill="#B55B52"/>
<path d="M46.7376 24.1004C46.3342 26.9018 46.105 28.0798 47.2088 29.7872C48.8678 32.3595 52.3986 32.24 53.6283 29.6129C54.7353 27.2504 55.2097 23.0643 52.7278 21.4054C50.2846 19.7691 47.1378 21.2957 46.7376 24.1004Z" fill="#B55B52"/>
<path d="M52.3416 26.2068C53.4712 25.4709 54.6686 24.422 54.5686 22.9987C54.4685 21.5753 52.6644 20.2295 50.1921 20.2295C46.884 20.2295 47.0195 22.3822 47.0195 22.3822C46.374 22.4629 39.9449 28.1497 47.9071 30.3573C55.8692 32.5617 52.3448 26.21 52.3448 26.21L52.3416 26.2068Z" fill="#263238"/>
<path d="M45.7338 22.5696C45.7338 22.5696 45.4176 23.2797 45.5176 23.6024C46.5924 23.88 50.3524 24.0414 52.2501 23.6896C52.4018 23.3055 53.0763 22.6665 53.0763 22.6665L45.7338 22.5664V22.5696Z" fill="white"/>
<path d="M45.4299 22.9443C45.601 23.5221 52.1398 23.2154 54.2441 22.9605C54.9897 22.8701 55.7223 22.6119 55.7223 22.6119V22.3892H54.8251C54.8251 22.3892 54.2441 18.4582 50.2485 18.4646C46.8177 18.4711 44.8038 20.8336 45.4299 22.9443Z" fill="#6A1A1E"/>
<path d="M51.1644 18.2574C51.1644 18.2574 49.9347 18.1638 49.2279 18.2574C48.6018 18.4575 48.037 18.5479 47.2656 19.7421L48.9923 19.7969C48.9923 19.7969 50.1155 18.5479 51.2354 18.5414C51.2257 18.3736 51.1644 18.2574 51.1644 18.2574Z" fill="#6A1A1E"/>
<path opacity="0.2" d="M48.447 22.444C48.447 22.444 48.4341 22.444 48.4276 22.444C48.3598 22.4343 48.3179 22.373 48.3276 22.3052C48.7762 19.4231 50.8643 18.4484 50.9515 18.4064C51.0128 18.3806 51.0838 18.4064 51.1129 18.4678C51.1419 18.5291 51.1129 18.6001 51.0515 18.6291C51.0322 18.6388 48.9924 19.5941 48.5664 22.3439C48.5567 22.4053 48.5051 22.4472 48.447 22.4472V22.444Z" fill="white"/>
<path d="M53.4394 25.868C53.6266 26.478 53.5459 27.1364 53.3329 27.6206C53.0134 28.3467 52.3324 28.1854 51.9871 27.5431C51.674 26.9654 51.4642 25.8906 51.9935 25.371C52.5164 24.8611 53.2232 25.1709 53.4362 25.868H53.4394Z" fill="#B55B52"/>
<path d="M52.2659 51.6799C52.2659 51.6799 47.2439 71.2545 43.6291 82.286C40.7083 91.1971 36.0317 112.024 36.0317 112.024H32.1426C32.1426 112.024 34.234 91.82 36.4545 83.0058C42.0735 60.7039 38.4136 58.8901 43.7421 51.6799H52.2659Z" fill="#263238"/>
<path opacity="0.4" d="M47.0202 57.8398C45.3387 63.9785 45.4678 70.6626 46.1875 73.9417C47.2268 70.3721 48.266 66.6444 49.1826 63.2846C48.8663 61.4707 47.9013 59.3568 47.0202 57.8398Z" fill="black"/>
<path d="M36.6065 112.148H31.6523L31.7847 110.408L37.0648 110.23L36.6065 112.148Z" fill="#263238"/>
<path d="M51.3868 115.886H54.2398L54.0171 109.282H51.1641L51.3868 115.886Z" fill="#B55B52"/>
<path d="M54.4593 113.985H51.2544C51.1383 113.985 51.0447 114.066 51.0253 114.179L50.6606 116.713C50.6219 116.974 50.8478 117.226 51.1189 117.219C52.2356 117.2 52.7746 117.135 54.1818 117.135C55.05 117.135 56.3151 117.226 57.5125 117.226C58.7099 117.226 58.7744 116.041 58.2742 115.935C56.0408 115.454 55.6858 114.792 54.9338 114.16C54.7982 114.047 54.6271 113.985 54.4561 113.985H54.4593Z" fill="#263238"/>
<path opacity="0.2" d="M51.1641 109.282H54.0171L54.1301 112.687H51.277L51.1641 109.282Z" fill="black"/>
<path d="M55.3213 51.6797C55.3213 51.6797 55.331 71.2543 54.5499 82.2858C53.9206 91.1968 54.5983 112.024 54.5983 112.024H50.7092C50.7092 112.024 47.6076 91.8197 47.5625 83.0055C47.4495 60.7037 43.3216 58.8899 46.7975 51.6797H55.3213Z" fill="#263238"/>
<path d="M55.1375 112.148H50.1833L49.9219 110.408L55.1665 110.23L55.1375 112.148Z" fill="#263238"/>
<path d="M43.5855 50.9944L43.0626 52.0304C43.0207 52.1111 43.1175 52.1918 43.2498 52.1918H55.398C55.5013 52.1918 55.5884 52.1401 55.5949 52.0756L55.6982 51.0396C55.7046 50.9685 55.6143 50.9072 55.5013 50.9072H43.7727C43.6855 50.9072 43.6113 50.9427 43.5855 50.9944Z" fill="white"/>
<path d="M45.1639 52.3228H44.8508C44.7895 52.3228 44.7411 52.2905 44.7443 52.2518L44.8928 50.906C44.896 50.8672 44.9509 50.835 45.0154 50.835H45.3285C45.3898 50.835 45.4382 50.8672 45.435 50.906L45.2865 52.2518C45.2833 52.2905 45.2284 52.3228 45.1639 52.3228Z" fill="#263238"/>
<path d="M52.7693 52.3228H52.4563C52.3949 52.3228 52.3465 52.2905 52.3498 52.2518L52.4982 50.906C52.5015 50.8672 52.5563 50.835 52.6209 50.835H52.9339C52.9953 50.835 53.0437 50.8672 53.0404 50.906L52.892 52.2518C52.8888 52.2905 52.8339 52.3228 52.7693 52.3228Z" fill="#263238"/>
<defs>
<linearGradient id="paint0_linear_3_23020" x1="103.071" y1="83.6328" x2="103.071" y2="5.99954" gradientUnits="userSpaceOnUse">
<stop stop-color="white"/>
<stop offset="1" stop-color="#FFDDDE"/>
</linearGradient>
</defs>
</svg>
