<svg width="47" height="48" viewBox="0 0 47 48" fill="none" xmlns="http://www.w3.org/2000/svg">
<path d="M47 24C47 36.9787 36.4787 47.5 23.5 47.5C10.5213 47.5 0 36.9787 0 24C0 11.0213 10.5213 0.5 23.5 0.5C36.4787 0.5 47 11.0213 47 24Z" fill="#FFE8E9"/>
<path fill-rule="evenodd" clip-rule="evenodd" d="M26.1772 12.9404H21.2095C20.4707 12.9404 19.8748 12.9404 19.3921 12.9821C18.8951 13.0252 18.4587 13.1165 18.0547 13.335C17.4122 13.6831 16.8907 14.2366 16.565 14.9163C16.359 15.345 16.2735 15.8086 16.2329 16.3358C16.1934 16.8483 16.1934 17.4811 16.1934 18.2656V31.9722C16.1934 32.7218 16.1934 33.3349 16.2339 33.8078C16.2735 34.2743 16.3607 34.7548 16.6447 35.1293C16.8375 35.3846 17.0829 35.5903 17.3623 35.7308C17.6416 35.8713 17.9477 35.943 18.2572 35.9404C18.7103 35.936 19.1156 35.7032 19.4811 35.4405C19.8513 35.1738 20.2979 34.7857 20.8447 34.3106L22.7432 32.6604C22.9969 32.4397 23.1592 32.2992 23.2911 32.2011C23.4159 32.1076 23.4745 32.0832 23.5086 32.0731C23.6293 32.0372 23.7575 32.0372 23.8781 32.0731C23.9122 32.0832 23.9709 32.108 24.0956 32.2011C24.2276 32.2992 24.3895 32.4397 24.6435 32.6604L26.5423 34.3106C27.0888 34.7857 27.5354 35.1738 27.906 35.4405C28.2711 35.7032 28.6764 35.936 29.1295 35.94C29.439 35.9427 29.745 35.8711 30.0244 35.7306C30.3038 35.5901 30.5492 35.3845 30.742 35.1293C31.026 34.7548 31.1132 34.2743 31.1531 33.8078C31.1934 33.3349 31.1934 32.7218 31.1934 31.9722V18.2656C31.1934 17.4811 31.1934 16.8483 31.1538 16.3358C31.1132 15.8086 31.0277 15.345 30.8218 14.9163C30.496 14.2366 29.9745 13.6831 29.332 13.335C28.928 13.1165 28.4917 13.0252 27.9946 12.9821C27.5122 12.9404 26.916 12.9404 26.1772 12.9404ZM27.607 19.8925C27.6685 19.8229 27.7162 19.7411 27.7475 19.6519C27.7788 19.5627 27.7929 19.4678 27.7892 19.3728C27.7854 19.2778 27.7638 19.1845 27.7256 19.0983C27.6873 19.0121 27.6333 18.9348 27.5665 18.8709C27.4997 18.8069 27.4216 18.7575 27.3366 18.7256C27.2516 18.6938 27.1614 18.68 27.0713 18.6851C26.9812 18.6902 26.893 18.7141 26.8117 18.7554C26.7305 18.7967 26.6578 18.8547 26.5979 18.9258L22.7637 23.372L20.7888 21.082C20.7289 21.0109 20.6563 20.953 20.575 20.9117C20.4937 20.8703 20.4055 20.8464 20.3154 20.8413C20.2253 20.8362 20.1351 20.85 20.0501 20.8819C19.9651 20.9138 19.887 20.9631 19.8202 21.0271C19.7534 21.0911 19.6994 21.1684 19.6612 21.2545C19.6229 21.3407 19.6013 21.434 19.5975 21.529C19.5938 21.6241 19.6079 21.7189 19.6392 21.8081C19.6705 21.8974 19.7182 21.9791 19.7797 22.0488L21.7546 24.3391C21.8824 24.4873 22.0382 24.6057 22.212 24.6868C22.3858 24.7678 22.5737 24.8097 22.7637 24.8097C22.9537 24.8097 23.1416 24.7678 23.3154 24.6868C23.4892 24.6057 23.645 24.4873 23.7728 24.3391L27.607 19.8925Z" fill="#A3362B"/>
</svg>
