<svg width="50" height="39" viewBox="0 0 50 39" fill="none" xmlns="http://www.w3.org/2000/svg">
<path d="M49.6685 27.3844C49.6685 32.8331 45.2513 37.2502 39.8026 37.2502L14.5897 37.2502C13.0762 37.2502 11.8492 36.0233 11.8492 34.5097L11.8492 6.00826C11.8492 2.98116 14.3032 0.527215 17.3303 0.527215L46.9279 0.527218C48.4415 0.527218 49.6685 1.75419 49.6685 3.26774L49.6685 27.3844Z" fill="url(#paint0_linear_9_13380)"/>
<path d="M49.3294 33.9275H0V33.9522H49.3294V33.9275Z" fill="#EBEBEB"/>
<path d="M44.3867 35.5205H41.1191V35.5452H44.3867V35.5205Z" fill="#EBEBEB"/>
<path d="M32.6767 35.7947H31.8193V35.8193H32.6767V35.7947Z" fill="#EBEBEB"/>
<path d="M41.0183 34.6082H39.125V34.6328H41.0183V34.6082Z" fill="#EBEBEB"/>
<path d="M9.43735 34.7664H5.17627V34.791H9.43735V34.7664Z" fill="#EBEBEB"/>
<path d="M10.9395 34.7664H10.3149V34.791H10.9395V34.7664Z" fill="#EBEBEB"/>
<path d="M22.2165 35.178H12.9741V35.2026H22.2165V35.178Z" fill="#EBEBEB"/>
<path d="M23.3824 29.5292H4.33141C4.02063 29.5292 3.76807 29.2766 3.76807 28.9659V2.18688C3.76807 1.8761 4.02063 1.62354 4.33141 1.62354H23.3824C23.6932 1.62354 23.9458 1.8761 23.9458 2.18688V28.9659C23.9458 29.2766 23.6932 29.5292 23.3824 29.5292ZM4.33141 1.6482C4.03445 1.6482 3.79273 1.88991 3.79273 2.18688V28.9659C3.79273 29.2628 4.03445 29.5045 4.33141 29.5045H23.3824C23.6794 29.5045 23.9211 29.2628 23.9211 28.9659V2.18688C23.9211 1.88991 23.6794 1.6482 23.3824 1.6482H4.33141Z" fill="#EBEBEB"/>
<path d="M44.7242 29.5292H25.6732C25.3624 29.5292 25.1099 29.2766 25.1099 28.9659V2.18688C25.1099 1.8761 25.3624 1.62354 25.6732 1.62354H44.7242C45.035 1.62354 45.2876 1.8761 45.2876 2.18688V28.9659C45.2876 29.2766 45.035 29.5292 44.7242 29.5292ZM25.6732 1.6482C25.3762 1.6482 25.1345 1.88991 25.1345 2.18688V28.9659C25.1345 29.2628 25.3762 29.5045 25.6732 29.5045H44.7242C45.0212 29.5045 45.2629 29.2628 45.2629 28.9659V2.18688C45.2629 1.88991 45.0212 1.6482 44.7242 1.6482H25.6732Z" fill="#EBEBEB"/>
<g opacity="0.5">
<path d="M43.8265 3.55371H27.6021V17.95H43.8265V3.55371Z" fill="#E6E6E6"/>
<path d="M43.3976 3.9519H28.0068V17.5668H43.3976V3.9519Z" fill="#F0F0F0"/>
<path d="M31.6197 3.9519L28.0068 17.5372V11.153L29.9139 3.9519H31.6197Z" fill="white"/>
<path d="M32.8989 3.9519L29.2554 17.5668H28.6733L32.3178 3.9519H32.8989Z" fill="white"/>
<path d="M43.3967 12.533V14.7084L42.6597 17.5567H42.0786L43.3967 12.533Z" fill="white"/>
<path d="M33.3752 3.69482H33.1157V17.8583H33.3752V3.69482Z" fill="#E6E6E6"/>
<path d="M38.3986 3.69482H38.1392V17.8583H38.3986V3.69482Z" fill="#E6E6E6"/>
<path d="M14.1163 25.8977H5.1709V33.9197H14.1163V25.8977Z" fill="#F5F5F5"/>
<path d="M8.28457 25.8977H5.1709V33.9197H8.28457V25.8977Z" fill="#EBEBEB"/>
<path d="M15.8976 18.0232H6.95215V26.0451H15.8976V18.0232Z" fill="#EBEBEB"/>
<path d="M10.0658 18.0232H6.95215V26.0451H10.0658V18.0232Z" fill="#E0E0E0"/>
<path d="M14.1163 10.0459H5.1709V18.0679H14.1163V10.0459Z" fill="#F5F5F5"/>
<path d="M8.28457 10.0459H5.1709V18.0679H8.28457V10.0459Z" fill="#EBEBEB"/>
<path d="M23.8521 25.9014H14.9067V33.9233H23.8521V25.9014Z" fill="#EBEBEB"/>
<path d="M18.0204 25.9014H14.9067V33.9233H18.0204V25.9014Z" fill="#E0E0E0"/>
<path d="M24.8448 21.0496H15.8994V26.0743H24.8448V21.0496Z" fill="#F5F5F5"/>
<path d="M19.0131 21.0496H15.8994V26.0743H19.0131V21.0496Z" fill="#E6E6E6"/>
<path d="M20.9826 13.1125H15.2031V21.1345H20.9826V13.1125Z" fill="#EBEBEB"/>
<path d="M17.2148 13.1125H15.2031V21.1345H17.2148V13.1125Z" fill="#E0E0E0"/>
<path d="M34.1811 33.9265H43.1265V25.9046H34.1811V33.9265Z" fill="#F5F5F5"/>
<path d="M40.0128 33.9265H43.1265V25.9046H40.0128V33.9265Z" fill="#E6E6E6"/>
<path d="M32.4037 26.0732H41.3491V19.543H32.4037V26.0732Z" fill="#EBEBEB"/>
<path d="M38.2354 26.0732H41.3491V19.543H38.2354V26.0732Z" fill="#E0E0E0"/>
<path d="M34.5017 19.5261H43.1284V16.3296H34.5017V19.5261Z" fill="#F5F5F5"/>
<path d="M40.1296 19.5261H43.1318V16.3296H40.1296V19.5261Z" fill="#E6E6E6"/>
</g>
<path d="M24.6671 38.3743C35.2317 38.3743 43.796 37.8742 43.796 37.2574C43.796 36.6406 35.2317 36.1406 24.6671 36.1406C14.1024 36.1406 5.53809 36.6406 5.53809 37.2574C5.53809 37.8742 14.1024 38.3743 24.6671 38.3743Z" fill="#F5F5F5"/>
<path d="M35.3098 7.05713H32.5641C32.3173 7.05713 32.1172 7.25722 32.1172 7.50405V9.9942C32.1172 10.241 32.3173 10.4411 32.5641 10.4411H35.3098C35.5566 10.4411 35.7567 10.241 35.7567 9.9942V7.50405C35.7567 7.25722 35.5566 7.05713 35.3098 7.05713Z" fill="#D66765"/>
<path d="M33.582 10.0164C33.582 10.0164 33.8119 11.1273 35.3786 11.7449C35.3786 11.7449 34.4206 11.1332 34.4808 10.0164H33.583H33.582Z" fill="#D66765"/>
<path d="M33.1509 8.65748L33.6708 9.37967L34.7265 8.12769" fill="#D66765"/>
<path d="M33.1509 8.65748L33.6708 9.37967L34.7265 8.12769" stroke="white" stroke-width="1.64431" stroke-linecap="round" stroke-linejoin="round"/>
<path d="M38.7243 10.9546C39.2068 11.3019 39.6428 11.8928 39.3173 13.5513C38.9917 15.2088 38.9088 15.6034 38.9088 15.6034L35.7527 15.2482C35.7527 15.2482 35.6047 13.7812 35.8563 12.4009C36.1819 10.6182 37.3115 9.94037 38.7243 10.9546Z" fill="#263238"/>
<path d="M35.5643 20.1121C35.5643 20.1121 34.4948 25.8106 34.2097 28.1508C33.8368 31.2033 32.3125 35.6686 32.3125 35.6686L32.9222 35.8264C32.9222 35.8264 35.071 32.032 35.4903 28.6174C37.1971 25.1279 37.3352 20.8313 37.3352 20.8313L35.5653 20.113L35.5643 20.1121Z" fill="#EEC1BB"/>
<path d="M31.1753 37.0501C31.274 37.0047 31.3805 36.9781 31.488 36.9702C31.488 36.9702 31.8629 36.7492 32.2339 35.8928L32.6512 35.8909C32.7963 35.8928 32.9235 35.9846 32.9719 36.1207C32.9788 36.1395 32.9827 36.1592 32.9837 36.179C32.9798 36.2796 32.9689 36.3802 32.9512 36.4799C32.9137 36.7926 32.7075 37.4625 32.7075 37.4625L32.6364 37.4447L32.7647 36.8212C32.8071 36.6091 32.5851 36.8143 32.4815 37.0274C32.3779 37.2405 32.2201 37.4556 31.7584 37.35C31.2207 37.2247 31.0046 37.1468 31.1723 37.0501H31.1753Z" fill="#263238"/>
<path d="M32.9884 36.1352C33.0674 35.9329 33.168 35.5709 33.168 35.5709L32.2732 35.4456C32.2732 35.4456 32.2732 35.8856 32.1074 36.1737C32.5751 36.1707 32.9884 36.1342 32.9884 36.1342V36.1352Z" fill="#263238"/>
<path d="M36.6753 20.0264C36.6753 20.0264 36.8085 25.8236 37.0127 28.1716C37.2791 31.235 36.7118 35.9193 36.7118 35.9193L37.3403 35.947C37.3403 35.947 38.6573 31.7895 38.3614 28.363C39.3095 24.5962 38.5557 20.3638 38.5557 20.3638L36.6753 20.0264Z" fill="#EEC1BB"/>
<path d="M35.734 37.2422C35.8268 37.186 35.9294 37.1485 36.0369 37.1297C36.0369 37.1297 36.3852 36.8703 36.6624 35.9784L37.0778 35.931C37.2218 35.9172 37.3589 35.9942 37.4211 36.1244C37.43 36.1422 37.4359 36.1609 37.4389 36.1806C37.4458 36.2813 37.4458 36.3829 37.4389 36.4835C37.4349 36.7982 37.3027 37.4869 37.3027 37.4869L37.2307 37.477L37.2909 36.8436C37.3106 36.6286 37.1113 36.8555 37.0324 37.0794C36.9525 37.3024 36.8183 37.5333 36.3487 37.479C35.8011 37.4119 35.5772 37.3586 35.734 37.2442V37.2422Z" fill="#263238"/>
<path d="M37.4317 36.1304C37.4879 35.9203 37.5491 35.5503 37.5491 35.5503L36.6464 35.5227C36.6464 35.5227 36.6937 35.9607 36.5605 36.2646C37.0252 36.2104 37.4317 36.1304 37.4317 36.1304Z" fill="#263238"/>
<path d="M35.3366 19.1707L34.1636 27.2824C34.1636 27.2824 37.9846 27.8753 39.5138 27.5281C39.5138 27.5281 39.8888 22.8437 38.2924 19.438L35.3366 19.1697V19.1707Z" fill="#263238"/>
<path d="M31.8045 16.2995L30.7844 15.2912C30.7844 15.2912 30.7489 15.0209 30.6502 14.9459C30.5515 14.8709 29.8511 14.6164 29.7652 14.6726C29.6794 14.7288 29.56 15.2951 29.6804 15.3987C29.7998 15.5023 30.4371 15.6345 30.5022 15.6237L31.6062 16.9339L31.8045 16.2995Z" fill="#EEC1BB"/>
<path d="M35.4629 14.4673C35.0229 14.7011 33.4601 16.8844 33.2303 16.993C33.0004 17.1015 31.2413 15.6749 31.2413 15.6749L30.9443 16.181C30.9443 16.181 32.3877 18.2203 33.2036 18.1216C34.0195 18.023 35.5813 16.2964 35.5813 16.2964L35.4629 14.4683V14.4673Z" fill="#820D01"/>
<path opacity="0.1" d="M35.4629 14.4673C35.0229 14.7011 33.4601 16.8844 33.2303 16.993C33.0004 17.1015 31.2413 15.6749 31.2413 15.6749L30.9443 16.181C30.9443 16.181 32.3877 18.2203 33.2036 18.1216C34.0195 18.023 35.5813 16.2964 35.5813 16.2964L35.4629 14.4683V14.4673Z" fill="white"/>
<path d="M31.3356 15.7131L31.2132 15.5986L30.8926 16.1413L31.008 16.3632L31.3356 15.7131Z" fill="#FAA2A6"/>
<path opacity="0.2" d="M34.9507 16.9283C35.3157 16.58 35.5781 16.2909 35.5781 16.2909L35.5505 15.8568L35.4134 15.4355C35.4134 15.4355 34.7978 16.0028 34.9507 16.9283Z" fill="black"/>
<path d="M35.3105 19.072C35.1872 16.8996 35.2424 15.7058 35.2987 15.1089C35.3608 14.4726 35.4585 14.4489 35.4585 14.4489C35.4585 14.4489 36.1481 14.3818 36.748 14.3867C37.2127 14.4025 37.6754 14.4509 38.1322 14.5327C38.5653 14.6048 38.9925 14.7084 39.4118 14.8416C39.3417 15.0418 39.2786 15.2313 39.2194 15.4098C39.1405 15.6456 39.0704 15.8637 39.0073 16.0679C38.8889 16.4487 38.7961 16.7792 38.7221 17.0742C38.4913 17.9878 38.4429 18.5728 38.3946 19.3384C38.3946 19.3384 39.1533 21.3215 39.3013 22.7767L36.7855 23.048L36.4402 21.5928L36.0949 23.0973L34.689 22.604L35.3105 19.072Z" fill="#820D01"/>
<path opacity="0.1" d="M35.3105 19.072C35.1872 16.8996 35.2424 15.7058 35.2987 15.1089C35.3608 14.4726 35.4585 14.4489 35.4585 14.4489C35.4585 14.4489 36.1481 14.3818 36.748 14.3867C37.2127 14.4025 37.6754 14.4509 38.1322 14.5327C38.5653 14.6048 38.9925 14.7084 39.4118 14.8416C39.3417 15.0418 39.2786 15.2313 39.2194 15.4098C39.1405 15.6456 39.0704 15.8637 39.0073 16.0679C38.8889 16.4487 38.7961 16.7792 38.7221 17.0742C38.4913 17.9878 38.4429 18.5728 38.3946 19.3384C38.3946 19.3384 39.1533 21.3215 39.3013 22.7767L36.7855 23.048L36.4402 21.5928L36.0949 23.0973L34.689 22.604L35.3105 19.072Z" fill="white"/>
<path opacity="0.2" d="M38.6023 17.6201C38.6358 17.4543 38.6753 17.2777 38.7236 17.0883C38.7542 16.968 38.7877 16.8417 38.8252 16.7075C38.7295 16.3711 38.6309 16.6345 38.6309 16.6345C38.6309 16.6345 38.5322 17.041 38.6023 17.6201Z" fill="black"/>
<path d="M36.7844 14.5311C36.812 14.5163 36.8436 14.5035 36.8781 14.4907C36.9491 14.4344 37.036 14.2993 37.031 13.9698C37.03 13.8622 37.0192 13.7359 36.9955 13.585L37.9101 13.4143C37.9101 13.4143 37.5983 14.0299 37.8588 14.4867C37.9486 14.5262 38.0018 14.5824 37.992 14.6574C37.9239 15.1862 36.7873 15.6973 36.7873 15.6973C36.7873 15.6973 36.2329 14.834 36.7844 14.5311Z" fill="#EEC1BB"/>
<path opacity="0.2" d="M36.9917 13.585C37.0154 13.7359 37.0262 13.8632 37.0272 13.9698C37.6448 13.9698 37.9063 13.4143 37.9063 13.4143L36.9917 13.585Z" fill="black"/>
<path d="M37.4953 11.0156C36.7001 10.9722 36.4209 11.3836 36.3173 12.2005C36.1881 13.2206 36.3755 13.9605 37.3819 13.7968C38.7483 13.5738 38.8154 11.0886 37.4953 11.0166V11.0156Z" fill="#EEC1BB"/>
<path d="M36.836 12.1865C36.836 12.1865 36.7147 12.3878 36.5864 12.5032C36.5864 12.5032 36.6486 12.6147 36.7907 12.6048L36.835 12.1865H36.836Z" fill="#D4827D"/>
<path d="M37.3296 12.1353C37.3247 12.2004 37.3553 12.2566 37.3987 12.2596C37.4421 12.2626 37.4816 12.2132 37.4865 12.1481C37.4914 12.083 37.4608 12.0268 37.4174 12.0238C37.374 12.0208 37.3346 12.0702 37.3296 12.1353Z" fill="#263238"/>
<path d="M37.436 12.0305L37.2988 11.9634C37.2988 11.9634 37.36 12.0887 37.436 12.0305Z" fill="#263238"/>
<path d="M36.5152 12.0625C36.5102 12.1277 36.5408 12.1839 36.5842 12.1868C36.6276 12.1898 36.6671 12.1405 36.672 12.0754C36.677 12.0102 36.6464 11.954 36.603 11.9511C36.5596 11.9481 36.5201 11.9974 36.5152 12.0625Z" fill="#263238"/>
<path d="M36.6215 11.9577L36.4844 11.8906C36.4844 11.8906 36.5455 12.0159 36.6215 11.9577Z" fill="#263238"/>
<path d="M37.3623 11.5872C37.3623 11.5872 37.5872 11.5704 37.7007 11.7263" stroke="#263238" stroke-width="0.378192" stroke-linecap="round" stroke-linejoin="round"/>
<path d="M36.7884 11.5215C36.7884 11.5215 36.6513 11.4613 36.4678 11.5699" stroke="#263238" stroke-width="0.378192" stroke-linecap="round" stroke-linejoin="round"/>
<path d="M38.296 12.4005C38.296 12.4005 37.9596 11.7267 38.0445 11.2255C38.0445 11.2255 36.5044 10.4954 36.3386 12.0907C36.3386 12.0907 36.2627 10.6621 37.6311 10.7056C38.9975 10.749 38.884 12.7488 38.1461 13.3052C38.1461 13.3052 38.5042 12.8218 38.297 12.4005H38.296Z" fill="#263238"/>
<path d="M38.1517 12.5618C38.1635 12.4346 38.3075 12.2244 38.5443 12.2639C38.789 12.3043 38.8788 12.8164 38.2592 12.9042C38.1704 12.917 38.125 12.8282 38.1507 12.5618H38.1517Z" fill="#EEC1BB"/>
<path d="M37.4114 12.7769C37.4114 12.7769 37.2259 12.9742 36.9556 12.9623" stroke="#263238" stroke-width="0.378192" stroke-linecap="round" stroke-linejoin="round"/>
<path d="M38.0404 11.2236C38.0404 11.2236 36.3208 10.7767 36.1777 12.3888" stroke="#263238" stroke-width="0.378192" stroke-linecap="round" stroke-linejoin="round"/>
<path d="M36.5081 14.9182C36.5081 14.9182 36.3768 16.2245 36.5909 17.4133C36.5909 17.4133 37.098 15.5773 37.8104 14.9527L36.9915 15.0701L36.5081 14.9192V14.9182Z" fill="#FFC1C4"/>
<path opacity="0.5" d="M36.5081 14.9182C36.5081 14.9182 36.3768 16.2245 36.5909 17.4133C36.5909 17.4133 37.098 15.5773 37.8104 14.9527L36.9915 15.0701L36.5081 14.9192V14.9182Z" fill="white"/>
<path d="M37.8263 14.3368L36.9956 14.9515V14.2974C36.9956 14.2974 36.3237 14.541 36.371 15.283L36.9225 15.0294V15.283L37.0518 15.0393L37.4879 15.5365C37.4879 15.5365 38.0216 14.914 38.0778 14.7265C38.1331 14.5391 37.8263 14.3358 37.8263 14.3358V14.3368Z" fill="#E4897B"/>
<path opacity="0.7" d="M37.8263 14.3368L36.9956 14.9515V14.2974C36.9956 14.2974 36.3237 14.541 36.371 15.283L36.9225 15.0294V15.283L37.0518 15.0393L37.4879 15.5365C37.4879 15.5365 38.0216 14.914 38.0778 14.7265C38.1331 14.5391 37.8263 14.3358 37.8263 14.3358V14.3368Z" fill="white"/>
<path d="M38.6975 20.1011L37.9339 16.4577C37.9171 16.3787 37.8481 16.3225 37.7681 16.3225H35.4141C35.3411 16.3225 35.2849 16.3886 35.2977 16.4606L35.9341 20.0291C35.9479 20.1081 36.016 20.1663 36.0959 20.1692L38.5791 20.2422C38.6551 20.2442 38.7133 20.1751 38.6975 20.1002V20.1011Z" fill="#263238"/>
<path opacity="0.1" d="M38.6975 20.1011L37.9339 16.4577C37.9171 16.3787 37.8481 16.3225 37.7681 16.3225H35.4141C35.3411 16.3225 35.2849 16.3886 35.2977 16.4606L35.9341 20.0291C35.9479 20.1081 36.016 20.1663 36.0959 20.1692L38.5791 20.2422C38.6551 20.2442 38.7133 20.1751 38.6975 20.1002V20.1011Z" fill="white"/>
<path d="M39.7095 18.9241L38.496 18.1595C38.496 18.1595 38.4032 17.903 38.2908 17.8507C38.1783 17.7984 37.4393 17.7008 37.3683 17.7748C37.2973 17.8488 37.3022 18.4269 37.4413 18.5019C37.5804 18.5769 38.2306 18.57 38.2917 18.5443L39.6523 19.5861L39.7095 18.9232V18.9241Z" fill="#EEC1BB"/>
<path d="M39.4119 14.8665C39.4119 14.8665 38.6187 16.0188 38.7341 17.0054L39.7868 18.7487L39.0794 18.3866L38.7588 18.9904C38.7588 18.9904 39.5727 20.2443 40.6087 19.9484C41.6446 19.6524 39.4119 14.8665 39.4119 14.8665Z" fill="#820D01"/>
<path opacity="0.1" d="M39.4119 14.8665C39.4119 14.8665 38.6187 16.0188 38.7341 17.0054L39.7868 18.7487L39.0794 18.3866L38.7588 18.9904C38.7588 18.9904 39.5727 20.2443 40.6087 19.9484C41.6446 19.6524 39.4119 14.8665 39.4119 14.8665Z" fill="white"/>
<path d="M39.1554 18.336L38.7529 19.0848L38.6621 18.8707L38.9828 18.262L39.1554 18.336Z" fill="#FAA2A6"/>
<path d="M37.6926 16.3225C37.5998 16.3225 37.5998 18.7495 37.5998 18.7495L35.4787 18.6884C35.4787 18.6884 35.2399 16.6362 35.4787 16.3225H37.6926Z" fill="white"/>
<path opacity="0.1" d="M37.6926 16.3225C37.5998 16.3225 37.5998 18.7495 37.5998 18.7495L35.4787 18.6884C35.4787 18.6884 35.2399 16.6362 35.4787 16.3225H37.6926Z" fill="black"/>
<path d="M28.9233 14.3939L30.9291 15.2374C30.9754 15.2571 30.9962 15.3094 30.9764 15.3558C30.9567 15.4002 30.9054 15.4209 30.86 15.4022L28.8414 14.5468C28.8345 14.5438 28.8286 14.5409 28.8237 14.536L28.5879 14.3613L28.8967 14.388C28.9056 14.388 28.9154 14.3909 28.9233 14.3949V14.3939Z" fill="#263238"/>
<path d="M22.2721 18.5337L20.3206 18.7074L19.5393 18.2663C19.5393 18.2663 17.0333 16.8703 16.3812 16.4293C16.1829 16.2942 15.9994 16.0002 15.8405 15.6548C15.7064 15.3648 15.59 15.0392 15.4972 14.7442C15.4528 14.6051 15.4134 14.4719 15.3798 14.3535C15.3048 14.0901 15.2585 13.8928 15.2456 13.8395C15.2456 13.8316 15.2437 13.8277 15.2427 13.8257L15.2476 13.8228L15.8652 13.6264L16.3812 13.4626C16.3812 13.4626 16.4049 13.585 16.4453 13.7714C16.4562 13.8218 16.468 13.877 16.4808 13.9362C16.4917 13.9836 16.5025 14.0339 16.5144 14.0862C16.6446 14.6604 16.8449 15.4437 16.9899 15.572C17.2237 15.7782 20.1638 17.7819 20.2684 17.8342C20.372 17.8865 21.3092 17.8342 21.3092 17.8342L22.2721 18.5337Z" fill="#E4897B"/>
<path d="M15.2371 11.0659C16.1339 11.0531 16.7061 13.8343 16.7061 13.8343L15.5232 14.4282C15.5232 14.4282 14.9895 13.5817 15.0161 12.5123C15.0418 11.4428 15.2381 11.0649 15.2381 11.0649L15.2371 11.0659Z" fill="#6A1A1E"/>
<path opacity="0.5" d="M15.2371 11.0659C16.1339 11.0531 16.7061 13.8343 16.7061 13.8343L15.5232 14.4282C15.5232 14.4282 14.9895 13.5817 15.0161 12.5123C15.0418 11.4428 15.2381 11.0649 15.2381 11.0649L15.2371 11.0659Z" fill="white"/>
<path d="M16.8344 13.8731L16.5147 14.0803L16.0974 14.3506L15.4975 14.7384L15.39 14.8084L15.2598 14.4128L15.3801 14.3477L15.4591 14.3043L16.0076 14.0053L16.4456 13.7656L16.6647 13.6462L16.7031 13.6255L16.8344 13.8731Z" fill="#1D2238"/>
<path opacity="0.2" d="M16.1513 14.8116C16.1582 15.1481 16.024 15.4283 15.8415 15.6522C15.7073 15.3621 15.5909 15.0366 15.4982 14.7416L15.3906 14.8116L15.2604 14.416L15.3808 14.3509C15.3058 14.0875 15.2594 13.8902 15.2466 13.8369L15.2476 13.8329V13.8201L15.3906 12.7349C15.3906 12.7349 15.6511 13.1088 15.8662 13.6238C15.9175 13.7451 15.9658 13.8744 16.0082 14.0085C16.023 14.0549 16.0368 14.1023 16.0497 14.1506C16.0684 14.2177 16.0842 14.2858 16.098 14.3539C16.1286 14.5048 16.1483 14.6587 16.1513 14.8116Z" fill="black"/>
<path d="M15.1016 36.5723L15.9273 36.6591L16.0822 34.8793L15.2565 34.7915L15.1016 36.5723Z" fill="#E4897B"/>
<path d="M10.9814 36.5201H11.7806L11.8467 34.6672H11.0466L10.9814 36.5201Z" fill="#E4897B"/>
<path d="M11.8937 36.4185H10.9219C10.8894 36.4185 10.8608 36.4412 10.8539 36.4737L10.696 37.186C10.6822 37.2502 10.7236 37.3123 10.7868 37.3261C10.7957 37.3281 10.8036 37.3291 10.8124 37.3291C11.1272 37.3241 11.356 37.3044 11.7507 37.3044C11.9944 37.3044 12.7274 37.3301 13.0638 37.3301C13.4003 37.3301 13.4437 36.9986 13.3055 36.968C12.6889 36.8338 12.2252 36.6473 12.0279 36.4707C11.9914 36.4372 11.9431 36.4185 11.8937 36.4194V36.4185Z" fill="#263238"/>
<path d="M11.9481 36.5255C11.9402 36.5235 11.9353 36.5166 11.9343 36.5087C11.9333 36.5008 11.9362 36.4939 11.9431 36.49C11.9718 36.4712 12.2302 36.3134 12.319 36.3587C12.3398 36.3686 12.3526 36.3893 12.3516 36.412C12.3565 36.4505 12.3417 36.489 12.3121 36.5136C12.2667 36.5442 12.2125 36.559 12.1582 36.5541C12.0872 36.5521 12.0171 36.5423 11.9491 36.5245L11.9481 36.5255ZM12.0023 36.4998C12.0961 36.5314 12.1977 36.5265 12.2875 36.486C12.3062 36.4692 12.3161 36.4436 12.3131 36.4179C12.3121 36.4031 12.3062 36.3952 12.3013 36.3952C12.2934 36.3913 12.2855 36.3893 12.2766 36.3903C12.1789 36.4091 12.0862 36.4466 12.0033 36.4998H12.0023Z" fill="#1D2238"/>
<path d="M11.941 36.5431C11.9351 36.5392 11.9321 36.5333 11.9321 36.5254C11.9331 36.5145 11.9528 36.2847 12.0446 36.2087C12.0663 36.189 12.0959 36.1801 12.1245 36.184C12.1541 36.184 12.1798 36.2047 12.1857 36.2343C12.2015 36.3192 12.0426 36.4948 11.9598 36.5392H11.9509C11.9509 36.5392 11.944 36.5422 11.941 36.5422V36.5431ZM12.0693 36.2314C12.013 36.3034 11.9805 36.3902 11.9746 36.482C12.0574 36.4198 12.159 36.2866 12.1482 36.2343C12.1472 36.2294 12.1452 36.2146 12.1206 36.2146H12.1117C12.0959 36.2146 12.0811 36.2205 12.0693 36.2314Z" fill="#1D2238"/>
<path d="M16.0139 36.3931H15.0421C15.0095 36.3931 14.9809 36.4158 14.974 36.4483L14.8161 37.1606C14.8023 37.2248 14.8438 37.2869 14.9069 37.3007C14.9158 37.3027 14.9237 37.3037 14.9326 37.3037C15.2473 37.2988 15.4762 37.279 15.8708 37.279C16.1145 37.279 16.8475 37.3047 17.1839 37.3047C17.5204 37.3047 17.5638 36.9732 17.4257 36.9426C16.809 36.8084 16.3453 36.622 16.148 36.4454C16.1115 36.4118 16.0632 36.3931 16.0139 36.3941V36.3931Z" fill="#263238"/>
<path d="M16.0721 36.503C16.0642 36.501 16.0593 36.4941 16.0583 36.4872C16.0573 36.4793 16.0603 36.4724 16.0672 36.4685C16.0958 36.4497 16.3543 36.2919 16.4431 36.3373C16.4638 36.3471 16.4766 36.3678 16.4756 36.3905C16.4806 36.429 16.4658 36.4675 16.4362 36.4922C16.3908 36.5227 16.3365 36.5375 16.2822 36.5326C16.2112 36.5306 16.1412 36.5208 16.0731 36.503H16.0721ZM16.1264 36.4764C16.2201 36.5079 16.3217 36.503 16.4115 36.4626C16.4302 36.4458 16.4401 36.4201 16.4371 36.3945C16.4362 36.3797 16.4302 36.3718 16.4253 36.3718C16.4174 36.3678 16.4095 36.3659 16.4006 36.3669C16.303 36.3856 16.2102 36.4231 16.1274 36.4764H16.1264Z" fill="#1D2238"/>
<path d="M16.067 36.5177C16.0611 36.5138 16.0581 36.5079 16.0581 36.5C16.0591 36.4891 16.0788 36.2593 16.1706 36.1833C16.1923 36.1636 16.2219 36.1547 16.2505 36.1586C16.2801 36.1586 16.3057 36.1794 16.3117 36.2089C16.3274 36.2938 16.1686 36.4694 16.0857 36.5138H16.0769C16.0769 36.5138 16.0699 36.5168 16.067 36.5168V36.5177ZM16.1952 36.206C16.139 36.278 16.1064 36.3648 16.1005 36.4566C16.1834 36.3944 16.285 36.2612 16.2742 36.2089C16.2732 36.204 16.2712 36.1892 16.2465 36.1892H16.2377C16.2219 36.1892 16.2071 36.1951 16.1952 36.206Z" fill="#1D2238"/>
<path opacity="0.2" d="M15.2538 34.7915L16.0795 34.8793L15.9986 35.7968L15.1729 35.71L15.2538 34.7915Z" fill="black"/>
<path opacity="0.2" d="M11.0462 34.6672H11.8464L11.8118 35.6223H11.0117L11.0462 34.6672Z" fill="black"/>
<path d="M11.3749 18.4216H15.6211C16.0247 20.6257 17.2885 28.4266 16.3818 35.3781L14.9443 35.1996C14.9443 35.1996 15.0775 25.972 13.8088 22.5614C13.6628 24.3865 13.4891 26.3291 13.3392 27.3631C12.9702 29.9075 12.1789 35.4669 12.1789 35.4669H10.7158C10.7158 35.4669 11.0148 30.1453 11.1539 27.6453C11.3048 24.9311 11.3709 18.98 11.3758 18.4226L11.3749 18.4216Z" fill="#1D2238"/>
<path opacity="0.2" d="M13.8076 22.5354C13.9951 23.0385 14.1509 23.666 14.2822 24.3724C14.4006 22.7475 13.926 21.0249 13.926 21.0249L13.8076 22.5354Z" fill="black"/>
<path d="M16.5528 35.7118L14.7729 35.4474L14.8282 34.9541L16.6781 35.1978L16.5528 35.7118Z" fill="#1D2238"/>
<path opacity="0.6" d="M16.5528 35.7118L14.7729 35.4474L14.8282 34.9541L16.6781 35.1978L16.5528 35.7118Z" fill="white"/>
<path d="M12.3579 35.4733H10.6323V34.9583L12.423 34.9248L12.3579 35.4733Z" fill="#1D2238"/>
<path opacity="0.6" d="M12.3579 35.4733H10.6323V34.9583L12.423 34.9248L12.3579 35.4733Z" fill="white"/>
<path d="M11.3697 19.1359L11.3657 18.5213L15.6929 18.2539L15.7235 18.8488L11.3697 19.1359Z" fill="#263238"/>
<path d="M12.461 18.366H12.2656V19.2667H12.461V18.366Z" fill="#1D2238"/>
<path d="M15.4526 18.0817L15.2578 18.0959L15.3233 18.9943L15.5181 18.9801L15.4526 18.0817Z" fill="#1D2238"/>
<path d="M15.6873 18.2687L11.3601 18.5913C11.3651 18.2125 11.3503 17.7902 11.3216 17.3443C11.2684 16.5205 11.1668 15.6187 11.0533 14.7732C10.8126 12.9766 10.5176 11.4346 10.5176 11.4346C12.5302 10.9265 15.2305 11.0587 15.2305 11.0587C15.932 13.684 15.6873 18.2687 15.6873 18.2687Z" fill="#820D01"/>
<path d="M12.0566 11.151C12.4463 11.5052 13.4014 11.374 13.4014 11.374C13.4014 11.374 13.9973 11.2112 13.872 11.0247C13.5207 10.9665 13.351 10.8028 13.281 10.5936C13.2405 10.4713 13.2346 10.3341 13.2455 10.193C13.2504 10.119 13.2613 10.0431 13.2751 9.96909L12.0951 9.09497C12.25 9.67213 12.4394 10.7337 12.0576 11.152L12.0566 11.151Z" fill="#E4897B"/>
<path opacity="0.2" d="M12.3672 9.65137C12.4136 10.3597 12.9956 10.5551 13.2808 10.5945C13.2403 10.4722 13.2344 10.3351 13.2453 10.194L12.3672 9.65137Z" fill="black"/>
<path d="M14.4047 7.41721C14.6918 7.68951 14.5724 8.51923 13.9874 8.94346C13.4023 9.36769 13.4023 7.31559 13.4023 7.31559C13.4023 7.31559 14.2222 7.24357 14.4047 7.41721Z" fill="#263238"/>
<path d="M12.2898 9.80859C12.5739 10.217 13.0366 10.3236 13.4382 10.1963C13.6967 10.1144 13.9295 9.93586 14.0745 9.67836C14.0943 9.64481 14.111 9.60929 14.1278 9.57279C14.4159 8.89895 14.5076 7.72096 13.7953 7.27897C13.2892 6.9603 12.6203 7.11224 12.3016 7.61836C12.2099 7.76141 12.1546 7.92519 12.1388 8.09587C12.051 8.88317 11.9632 9.34292 12.2908 9.80859H12.2898Z" fill="#E4897B"/>
<path d="M13.2876 8.5264C13.2728 8.58855 13.3014 8.64676 13.3439 8.65367C13.3863 8.66057 13.4277 8.6142 13.4386 8.55106C13.4494 8.48792 13.4238 8.4307 13.3823 8.42379C13.3409 8.41688 13.2985 8.46227 13.2876 8.5264Z" fill="#263238"/>
<path d="M14.0068 8.64573C13.992 8.70789 14.0216 8.7661 14.063 8.773C14.1045 8.77991 14.1469 8.73354 14.1577 8.6704C14.1686 8.60726 14.1429 8.55003 14.1015 8.54313C14.0601 8.53622 14.0167 8.58555 14.0068 8.64573Z" fill="#263238"/>
<path d="M13.7725 8.63672C13.815 8.8439 13.886 9.04517 13.9837 9.23262C13.884 9.28096 13.7686 9.28293 13.668 9.23755L13.7725 8.63672Z" fill="#DE5753"/>
<path d="M13.1041 8.2547C13.1179 8.25865 13.1327 8.25569 13.1425 8.24681C13.2116 8.17972 13.3073 8.14815 13.403 8.16295C13.4227 8.16788 13.4435 8.15604 13.4484 8.13532C13.4533 8.11559 13.4415 8.09487 13.4208 8.08994C13.3004 8.06823 13.1781 8.10671 13.0912 8.19156C13.0755 8.20537 13.0745 8.22905 13.0883 8.24483C13.0932 8.24878 13.0981 8.25273 13.1041 8.2547Z" fill="#263238"/>
<path d="M13.5076 9.5443C13.3182 9.54035 13.1426 9.44465 13.036 9.28778C13.0301 9.27792 13.034 9.26608 13.0429 9.26016C13.0518 9.25424 13.0636 9.2572 13.0696 9.26608C13.0696 9.26608 13.0696 9.26608 13.0696 9.26707C13.1702 9.41012 13.333 9.49793 13.5086 9.50286C13.5194 9.50286 13.5283 9.51174 13.5283 9.52161C13.5283 9.52161 13.5283 9.52259 13.5283 9.52358C13.5283 9.53443 13.5194 9.54331 13.5096 9.54331C13.5096 9.54331 13.5086 9.54331 13.5076 9.54331V9.5443Z" fill="#263238"/>
<path d="M14.355 8.45141C14.3619 8.45536 14.3688 8.45733 14.3767 8.45634C14.3964 8.45042 14.4082 8.4297 14.4033 8.40997C14.3717 8.29158 14.2849 8.19687 14.1705 8.15445C14.1507 8.14853 14.13 8.15938 14.1231 8.17911C14.1172 8.19884 14.129 8.21956 14.1488 8.22647C14.2385 8.26198 14.3056 8.33894 14.3303 8.43168C14.3352 8.44154 14.3451 8.44944 14.3559 8.45141H14.355Z" fill="#263238"/>
<path d="M12.8756 7.23292V7.58513C12.7543 7.6315 12.6704 7.75187 12.7059 7.89492C12.7819 8.19978 12.5619 8.6319 12.3162 8.78482C12.3162 8.78482 12.3251 8.65755 12.2146 8.67433C12.1041 8.6911 12.0538 9.3531 12.2235 9.6915C12.2235 9.6915 11.9433 9.36889 11.8506 8.65657C11.7647 7.99753 11.8091 7.4628 11.9699 7.23193H12.8766L12.8756 7.23292Z" fill="#263238"/>
<path d="M11.6879 8.67835C11.7442 8.86975 11.8744 9.03155 12.05 9.12725C12.2828 9.25255 12.4565 9.0572 12.4407 8.8076C12.4249 8.58561 12.2868 8.24524 12.0283 8.2265C11.7698 8.20676 11.6208 8.44354 11.6879 8.67934V8.67835Z" fill="#E4897B"/>
<path d="M11.8174 7.81688C11.8174 7.81688 11.5737 7.23183 12.2091 6.80266C12.8435 6.3735 14.3618 6.8737 14.4684 7.22196C14.5739 7.57023 13.4334 8.20658 11.8184 7.81688H11.8174Z" fill="#263238"/>
<path d="M12.2066 10.791L13.1725 11.3198L13.3047 10.5977L13.9815 11.0377V11.9591L13.2652 11.532L12.7621 12.2867L11.7686 11.1955L12.2066 10.791Z" fill="#1D2238"/>
<path d="M14.3982 18.2789L13.6377 18.3211C13.5746 18.3246 13.5263 18.3786 13.5298 18.4417L13.5582 18.9559C13.5617 19.019 13.6157 19.0673 13.6788 19.0638L14.4393 19.0217C14.5024 19.0182 14.5508 18.9642 14.5473 18.9011L14.5188 18.3869C14.5153 18.3238 14.4613 18.2755 14.3982 18.2789Z" fill="white"/>
<path opacity="0.5" d="M12.2066 10.791L13.1725 11.3198L13.3047 10.5977L13.9815 11.0377V11.9591L13.2652 11.532L12.7621 12.2867L11.7686 11.1955L12.2066 10.791Z" fill="#FAA2A6"/>
<path opacity="0.2" d="M12.8779 17.1397C12.5908 17.5718 11.6723 17.5688 11.3269 17.3311C11.2737 16.5073 11.1721 15.6055 11.0586 14.76L12.8779 17.1397Z" fill="black"/>
<path d="M11.3626 13.8308C11.3626 13.8308 11.5668 15.1597 11.7671 15.4202C11.9674 15.6807 16.1042 17.9439 16.1042 17.9439L17.5357 17.8403L18.1948 18.595C18.1948 18.595 16.2877 18.891 16.0795 18.8338C15.8713 18.7766 15.7125 18.6907 15.7125 18.6907C15.7125 18.6907 11.3705 16.981 11.0065 16.5913C10.6424 16.2006 10.2261 14.1949 10.2261 14.1949L11.3656 13.8308H11.3626Z" fill="#E4897B"/>
<path d="M10.5232 11.4352C11.2809 11.2773 11.6716 14.4216 11.6716 14.4216L10.1217 14.8172C10.1217 14.8172 9.58993 11.6296 10.5223 11.4352H10.5232Z" fill="#6A1A1E"/>
<path opacity="0.5" d="M10.5232 11.4352C11.2809 11.2773 11.6716 14.4216 11.6716 14.4216L10.1217 14.8172C10.1217 14.8172 9.58993 11.6296 10.5223 11.4352H10.5232Z" fill="white"/>
<path d="M10.0303 14.7357L11.7686 14.3193V14.6193L10.1082 15.1007L10.0303 14.7357Z" fill="#1D2238"/>
<path d="M15.9817 34.3827V20.8555C15.9817 20.2705 15.8021 19.6993 15.4677 19.2188L14.9951 18.542H23.391L23.8636 19.2188C24.198 19.6993 24.3776 20.2705 24.3776 20.8555V34.2514" stroke="#263238" stroke-width="3.28863" stroke-linecap="round" stroke-linejoin="round"/>
<path d="M33.8252 37.3443C34.3053 37.3443 34.6944 36.9552 34.6944 36.4751C34.6944 35.9951 34.3053 35.606 33.8252 35.606C33.3452 35.606 32.9561 35.9951 32.9561 36.4751C32.9561 36.9552 33.3452 37.3443 33.8252 37.3443Z" fill="#263238"/>
<path opacity="0.4" d="M34.2632 36.4722C34.2632 36.2324 34.0689 36.0381 33.8291 36.0381C33.5894 36.0381 33.395 36.2324 33.395 36.4722C33.395 36.7119 33.5894 36.9063 33.8291 36.9063C34.0689 36.9063 34.2632 36.7119 34.2632 36.4722Z" fill="white"/>
<path d="M33.7174 36.6566C33.5782 36.6566 33.4549 36.5698 33.4066 36.4396L32.8936 35.0366H34.0469V36.3261C34.0469 36.5086 33.8989 36.6566 33.7164 36.6566H33.7174Z" fill="#263238"/>
<path opacity="0.2" d="M33.7174 36.6566C33.5782 36.6566 33.4549 36.5698 33.4066 36.4396L32.8936 35.0366H34.0469V36.3261C34.0469 36.5086 33.8989 36.6566 33.7164 36.6566H33.7174Z" fill="white"/>
<path d="M24.1529 37.3443C24.6329 37.3443 25.0221 36.9552 25.0221 36.4751C25.0221 35.9951 24.6329 35.606 24.1529 35.606C23.6728 35.606 23.2837 35.9951 23.2837 36.4751C23.2837 36.9552 23.6728 37.3443 24.1529 37.3443Z" fill="#263238"/>
<path opacity="0.4" d="M24.5909 36.4722C24.5909 36.2324 24.3965 36.0381 24.1568 36.0381C23.917 36.0381 23.7227 36.2324 23.7227 36.4722C23.7227 36.7119 23.917 36.9063 24.1568 36.9063C24.3965 36.9063 24.5909 36.7119 24.5909 36.4722Z" fill="white"/>
<path d="M24.0504 36.6566C23.9113 36.6566 23.7879 36.5698 23.7396 36.4396L23.2266 35.0366H24.3799V36.3261C24.3799 36.5086 24.2319 36.6566 24.0494 36.6566H24.0504Z" fill="#263238"/>
<path opacity="0.2" d="M24.0504 36.6566C23.9113 36.6566 23.7879 36.5698 23.7396 36.4396L23.2266 35.0366H24.3799V36.3261C24.3799 36.5086 24.2319 36.6566 24.0494 36.6566H24.0504Z" fill="white"/>
<path d="M35.312 34.0298V34.8506C35.312 35.0035 35.1877 35.1279 35.0347 35.1279H15.6058C15.4529 35.1279 15.3286 35.0035 15.3286 34.8506V34.0298H35.312Z" fill="#263238"/>
<path opacity="0.4" d="M35.312 34.0298V34.8506C35.312 35.0035 35.1877 35.1279 35.0347 35.1279H15.6058C15.4529 35.1279 15.3286 35.0035 15.3286 34.8506V34.0298H35.312Z" fill="white"/>
<path opacity="0.2" d="M28.4059 34.0298V34.8506C28.4059 35.0035 28.2815 35.1279 28.1286 35.1279H15.6058C15.4529 35.1279 15.3286 35.0035 15.3286 34.8506V34.0298H28.4059Z" fill="white"/>
<path d="M26.813 37.3443C27.2931 37.3443 27.6822 36.9552 27.6822 36.4751C27.6822 35.9951 27.2931 35.606 26.813 35.606C26.333 35.606 25.9438 35.9951 25.9438 36.4751C25.9438 36.9552 26.333 37.3443 26.813 37.3443Z" fill="#263238"/>
<path opacity="0.6" d="M27.251 36.4722C27.251 36.2324 27.0567 36.0381 26.8169 36.0381C26.5772 36.0381 26.3828 36.2324 26.3828 36.4722C26.3828 36.7119 26.5772 36.9063 26.8169 36.9063C27.0567 36.9063 27.251 36.7119 27.251 36.4722Z" fill="white"/>
<path d="M26.7081 36.6566C26.569 36.6566 26.4456 36.5698 26.3973 36.4396L25.8843 35.0366H27.0376V36.3261C27.0376 36.5086 26.8896 36.6566 26.7071 36.6566H26.7081Z" fill="#263238"/>
<path opacity="0.4" d="M26.7081 36.6566C26.569 36.6566 26.4456 36.5698 26.3973 36.4396L25.8843 35.0366H27.0376V36.3261C27.0376 36.5086 26.8896 36.6566 26.7071 36.6566H26.7081Z" fill="white"/>
<path d="M17.1504 37.3443C17.6305 37.3443 18.0196 36.9552 18.0196 36.4751C18.0196 35.9951 17.6305 35.606 17.1504 35.606C16.6704 35.606 16.2812 35.9951 16.2812 36.4751C16.2812 36.9552 16.6704 37.3443 17.1504 37.3443Z" fill="#263238"/>
<path opacity="0.6" d="M17.5884 36.4722C17.5884 36.2324 17.3941 36.0381 17.1543 36.0381C16.9146 36.0381 16.7202 36.2324 16.7202 36.4722C16.7202 36.7119 16.9146 36.9063 17.1543 36.9063C17.3941 36.9063 17.5884 36.7119 17.5884 36.4722Z" fill="white"/>
<path d="M17.045 36.6566C16.9059 36.6566 16.7826 36.5698 16.7342 36.4396L16.2212 35.0366H17.3745V36.3261C17.3745 36.5086 17.2265 36.6566 17.044 36.6566H17.045Z" fill="#263238"/>
<path opacity="0.4" d="M17.045 36.6566C16.9059 36.6566 16.7826 36.5698 16.7342 36.4396L16.2212 35.0366H17.3745V36.3261C17.3745 36.5086 17.2265 36.6566 17.044 36.6566H17.045Z" fill="white"/>
<path d="M26.9387 27.6501H17.7388V34.0186H26.9387V27.6501Z" fill="#ED1C25"/>
<path opacity="0.4" d="M26.9387 27.6501H17.7388V34.0186H26.9387V27.6501Z" fill="white"/>
<path opacity="0.2" d="M22.0077 27.6501H17.7388V34.0186H22.0077V27.6501Z" fill="white"/>
<path opacity="0.2" d="M21.6079 32.6731H21.0742C21.024 32.6731 20.9834 32.7137 20.9834 32.7639V33.493C20.9834 33.5431 21.024 33.5837 21.0742 33.5837H21.6079C21.658 33.5837 21.6987 33.5431 21.6987 33.493V32.7639C21.6987 32.7137 21.658 32.6731 21.6079 32.6731Z" fill="black"/>
<path opacity="0.2" d="M20.6436 32.6731H20.1098C20.0597 32.6731 20.019 32.7137 20.019 32.7639V33.493C20.019 33.5431 20.0597 33.5837 20.1098 33.5837H20.6436C20.6937 33.5837 20.7343 33.5431 20.7343 33.493V32.7639C20.7343 32.7137 20.6937 32.6731 20.6436 32.6731Z" fill="black"/>
<path opacity="0.4" d="M24.9623 27.6501H24.4424V28.3141H24.9623V27.6501Z" fill="black"/>
<path opacity="0.2" d="M26.3855 30.3645H22.8042V31.1972H26.3855V30.3645Z" fill="black"/>
<path opacity="0.2" d="M19.2419 27.9844H18.0176V29.2087H19.2419V27.9844Z" fill="black"/>
<path d="M27.8752 21.2954H18.6753V27.6638H27.8752V21.2954Z" fill="#ED1C25"/>
<path opacity="0.4" d="M27.8752 21.2954H18.6753V27.6638H27.8752V21.2954Z" fill="black"/>
<path opacity="0.2" d="M22.9443 21.2954H18.6753V27.6638H22.9443V21.2954Z" fill="white"/>
<path opacity="0.2" d="M22.5444 26.3184H22.0107C21.9606 26.3184 21.9199 26.359 21.9199 26.4091V27.1382C21.9199 27.1883 21.9606 27.229 22.0107 27.229H22.5444C22.5946 27.229 22.6352 27.1883 22.6352 27.1382V26.4091C22.6352 26.359 22.5946 26.3184 22.5444 26.3184Z" fill="black"/>
<path opacity="0.2" d="M21.582 26.3184H21.0483C20.9982 26.3184 20.9575 26.359 20.9575 26.4091V27.1382C20.9575 27.1883 20.9982 27.229 21.0483 27.229H21.582C21.6322 27.229 21.6728 27.1883 21.6728 27.1382V26.4091C21.6728 26.359 21.6322 26.3184 21.582 26.3184Z" fill="black"/>
<path opacity="0.4" d="M25.8988 21.2954H25.3789V21.9594H25.8988V21.2954Z" fill="black"/>
<path opacity="0.2" d="M27.322 24.0098H23.7407V24.8424H27.322V24.0098Z" fill="black"/>
<path opacity="0.2" d="M20.1804 21.6296H18.9561V22.854H20.1804V21.6296Z" fill="black"/>
<path d="M33.51 21.2954H24.3101V27.6638H33.51V21.2954Z" fill="#ED1C25"/>
<path opacity="0.4" d="M33.51 21.2954H24.3101V27.6638H33.51V21.2954Z" fill="white"/>
<path opacity="0.2" d="M28.579 21.2954H24.3101V27.6638H28.579V21.2954Z" fill="white"/>
<path opacity="0.2" d="M28.1792 26.3184H27.6455C27.5953 26.3184 27.5547 26.359 27.5547 26.4091V27.1382C27.5547 27.1883 27.5953 27.229 27.6455 27.229H28.1792C28.2293 27.229 28.27 27.1883 28.27 27.1382V26.4091C28.27 26.359 28.2293 26.3184 28.1792 26.3184Z" fill="black"/>
<path opacity="0.2" d="M27.2168 26.3184H26.683C26.6329 26.3184 26.5923 26.359 26.5923 26.4091V27.1382C26.5923 27.1883 26.6329 27.229 26.683 27.229H27.2168C27.2669 27.229 27.3076 27.1883 27.3076 27.1382V26.4091C27.3076 26.359 27.2669 26.3184 27.2168 26.3184Z" fill="black"/>
<path opacity="0.4" d="M31.5336 21.2954H31.0137V21.9594H31.5336V21.2954Z" fill="black"/>
<path opacity="0.2" d="M32.9568 24.0098H29.3755V24.8424H32.9568V24.0098Z" fill="black"/>
<path opacity="0.2" d="M25.8152 21.6296H24.5908V22.854H25.8152V21.6296Z" fill="black"/>
<path d="M30.3274 14.9241H21.1274V21.2925H30.3274V14.9241Z" fill="#F3444C"/>
<path opacity="0.2" d="M25.3964 14.9241H21.1274V21.2925H25.3964V14.9241Z" fill="white"/>
<path opacity="0.2" d="M24.9966 19.947H24.4628C24.4127 19.947 24.3721 19.9877 24.3721 20.0378V20.7669C24.3721 20.817 24.4127 20.8576 24.4628 20.8576H24.9966C25.0467 20.8576 25.0873 20.817 25.0873 20.7669V20.0378C25.0873 19.9877 25.0467 19.947 24.9966 19.947Z" fill="black"/>
<path opacity="0.2" d="M24.0322 19.947H23.4985C23.4484 19.947 23.4077 19.9877 23.4077 20.0378V20.7669C23.4077 20.817 23.4484 20.8576 23.4985 20.8576H24.0322C24.0824 20.8576 24.123 20.817 24.123 20.7669V20.0378C24.123 19.9877 24.0824 19.947 24.0322 19.947Z" fill="black"/>
<path opacity="0.4" d="M28.351 14.9241H27.8311V15.588H28.351V14.9241Z" fill="black"/>
<path opacity="0.2" d="M29.7742 17.6384H26.1929V18.4711H29.7742V17.6384Z" fill="black"/>
<path opacity="0.2" d="M22.6306 15.2583H21.4062V16.4827H22.6306V15.2583Z" fill="black"/>
<path d="M32.7883 27.6501H23.5884V34.0186H32.7883V27.6501Z" fill="#820D01"/>
<path opacity="0.2" d="M32.7883 27.6501H23.5884V34.0186H32.7883V27.6501Z" fill="white"/>
<path opacity="0.2" d="M27.8574 27.6501H23.5884V34.0186H27.8574V27.6501Z" fill="white"/>
<path opacity="0.2" d="M27.4575 32.6731H26.9238C26.8736 32.6731 26.833 32.7137 26.833 32.7639V33.493C26.833 33.5431 26.8736 33.5837 26.9238 33.5837H27.4575C27.5076 33.5837 27.5483 33.5431 27.5483 33.493V32.7639C27.5483 32.7137 27.5076 32.6731 27.4575 32.6731Z" fill="black"/>
<path opacity="0.2" d="M26.4932 32.6731H25.9594C25.9093 32.6731 25.8687 32.7137 25.8687 32.7639V33.493C25.8687 33.5431 25.9093 33.5837 25.9594 33.5837H26.4932C26.5433 33.5837 26.5839 33.5431 26.5839 33.493V32.7639C26.5839 32.7137 26.5433 32.6731 26.4932 32.6731Z" fill="black"/>
<path opacity="0.4" d="M30.8119 27.6501H30.292V28.3141H30.8119V27.6501Z" fill="black"/>
<path opacity="0.2" d="M32.2351 30.3645H28.6538V31.1972H32.2351V30.3645Z" fill="black"/>
<path opacity="0.2" d="M25.0915 27.9844H23.8672V29.2087H25.0915V27.9844Z" fill="black"/>
<defs>
<linearGradient id="paint0_linear_9_13380" x1="30.7588" y1="37.2502" x2="30.7588" y2="0.527216" gradientUnits="userSpaceOnUse">
<stop stop-color="white"/>
<stop offset="1" stop-color="#FFDDDE"/>
</linearGradient>
</defs>
</svg>
