<svg width="326" height="250" viewBox="0 0 326 250" fill="none" xmlns="http://www.w3.org/2000/svg">
<path d="M229.471 38.6878V180.764C229.471 181.877 229.211 182.932 228.749 183.863C227.6 186.168 225.225 187.756 222.482 187.756H152.192C148.342 187.756 145.203 184.623 145.203 180.766V38.6898C145.203 34.8328 148.342 31.7 152.192 31.7H222.482C226.338 31.7 229.471 34.8328 229.471 38.6898V38.6878Z" fill="#083A5A"/>
<path d="M152.209 35.2527H222.498C224.393 35.2527 225.934 36.791 225.934 38.6884V180.767C225.934 182.662 224.395 184.203 222.498 184.203H152.209C150.313 184.203 148.773 182.662 148.773 180.767V38.6904C148.773 36.7951 150.311 35.2547 152.209 35.2547V35.2527Z" fill="url(#paint0_linear_35_1180)"/>
<g style="mix-blend-mode:screen" opacity="0.15">
<path d="M229.476 38.6868V180.763C229.476 181.876 229.215 182.931 228.754 183.862C227.605 186.167 225.23 187.755 222.486 187.755H200.556C200.568 187.619 200.574 187.476 200.574 187.334V187.216C200.574 186.114 200.259 185.077 199.722 184.201C198.715 182.554 196.902 181.457 194.828 181.457H192.108C188.939 181.457 186.362 178.886 186.362 175.711V175.599C186.362 172.424 188.939 169.84 192.108 169.84H194.828C198.003 169.84 200.574 167.269 200.574 164.094V163.982C200.574 160.795 198.003 158.223 194.828 158.223H184.591C181.416 158.223 178.832 155.652 178.832 152.477V152.365C178.832 149.178 181.416 146.607 184.591 146.607H186.344C189.519 146.607 192.09 144.035 192.09 140.854V140.748C192.09 137.579 189.549 135.02 186.392 134.99H177.707C174.532 134.99 171.961 132.418 171.961 129.243V129.125C171.961 125.956 174.532 123.373 177.707 123.373H194.876C198.033 123.343 200.574 120.777 200.574 117.626V117.508C200.574 114.339 198.003 111.756 194.828 111.756H184.442C181.261 111.756 178.69 109.185 178.69 106.01V105.891C178.69 102.71 181.261 100.139 184.442 100.139H194.828C198.003 100.139 200.574 97.5676 200.574 94.3926V94.2743C200.574 91.0933 198.003 88.522 194.828 88.522H168.441C165.254 88.522 162.683 85.9447 162.683 82.7757V82.6573C162.683 79.4763 165.254 76.905 168.441 76.905H182.571C185.746 76.905 188.323 74.3278 188.323 71.1467V71.0284C188.323 67.8594 185.746 65.2821 182.571 65.2821H172.049C168.874 65.2821 166.291 62.7108 166.291 59.5298V59.4115C166.291 56.2365 168.874 53.6652 172.049 53.6652H192.914C196.089 53.6652 198.661 51.0939 198.661 47.9129V47.7946C198.661 44.6196 196.089 42.0483 192.914 42.0483L175.349 42.0182C172.174 42.0182 169.602 39.4469 169.602 36.2719V36.1596C169.602 35.8507 169.626 35.5499 169.672 35.253C169.897 33.825 170.643 32.5755 171.716 31.699H222.486C226.343 31.699 229.476 34.8319 229.476 38.6888V38.6868Z" fill="white"/>
</g>
<g style="mix-blend-mode:screen" opacity="0.2">
<path d="M229.491 38.687V92.2002C228.857 90.6417 227.547 89.4282 225.936 88.9067C225.379 88.7222 224.787 88.6279 224.171 88.6279H212.512C209.337 88.6279 206.766 86.0506 206.766 82.8815V82.7632C206.766 79.5821 209.337 77.0107 212.512 77.0107H218.431C221.606 77.0107 224.177 74.4333 224.177 71.2642V71.1459C224.177 67.9648 221.606 65.3874 218.431 65.3874H206.114C202.945 65.3874 200.361 62.8161 200.361 59.635V59.5287C200.361 56.3476 202.945 53.7702 206.114 53.7702L222.258 53.7521C223.656 53.7521 224.942 53.2487 225.936 52.4143C227.198 51.3593 228.004 49.7727 228.004 47.9997V47.8813C228.004 46.1043 227.198 44.5157 225.936 43.4627C224.942 42.6283 223.656 42.1229 222.258 42.1229H208.579C205.41 42.1229 202.826 39.5515 202.826 36.3764V36.2641C202.826 35.9211 202.856 35.5821 202.915 35.2512C203.169 33.8111 203.964 32.5555 205.083 31.697H222.501C226.358 31.697 229.491 34.83 229.491 38.687Z" fill="white"/>
<path d="M229.498 96.6816V115.443C228.865 113.885 227.555 112.665 225.944 112.144C225.387 111.959 224.795 111.865 224.179 111.865H221.465C218.284 111.865 215.713 109.294 215.713 106.119V106C215.713 102.831 218.284 100.248 221.465 100.248H224.179C224.795 100.248 225.389 100.154 225.944 99.9691C227.555 99.4536 228.865 98.2401 229.498 96.6816Z" fill="white"/>
<path d="M229.494 119.909V161.899C228.854 160.346 227.55 159.133 225.94 158.617C225.394 158.439 224.82 158.345 224.221 158.339C216.482 158.339 210.766 158.327 210.766 158.327C207.591 158.327 205.014 155.755 205.014 152.58V152.468C205.014 149.281 207.591 146.709 210.766 146.709H215.736C218.887 146.679 221.441 144.126 221.441 140.963V140.851C221.441 137.676 218.857 135.104 215.688 135.104H213.929C210.754 135.104 208.183 132.521 208.183 129.346V129.227C208.183 126.058 210.754 123.487 213.929 123.487H224.173C224.788 123.487 225.382 123.393 225.938 123.208C227.548 122.687 228.858 121.467 229.492 119.909H229.494Z" fill="white"/>
<path d="M229.493 166.379V180.762C229.493 181.875 229.232 182.93 228.771 183.861C228.03 182.878 226.981 182.142 225.778 181.793C225.269 181.639 224.729 181.562 224.173 181.562H206.643C203.468 181.562 200.885 178.991 200.885 175.816V175.704C200.885 172.529 203.468 169.945 206.643 169.945H224.173C224.789 169.945 225.383 169.851 225.938 169.666C227.549 169.151 228.859 167.935 229.493 166.379Z" fill="white"/>
</g>
<path d="M222.482 31.6985H152.193C148.342 31.6985 145.203 34.8314 145.203 38.6883V180.765C145.203 184.622 148.342 187.755 152.193 187.755H222.482C225.226 187.755 227.601 186.166 228.75 183.862C229.211 182.931 229.472 181.878 229.472 180.763V38.6863C229.472 34.8294 226.339 31.6965 222.482 31.6965V31.6985ZM225.918 180.765C225.918 182.66 224.377 184.201 222.482 184.201H152.193C150.298 184.201 148.757 182.66 148.757 180.765V38.6883C148.757 36.793 150.298 35.2526 152.193 35.2526H222.482C224.377 35.2526 225.918 36.793 225.918 38.6883V180.765Z" fill="#6A1A1E"/>
<path d="M152.958 117.512L164.874 129.428C166.09 130.644 168.17 129.783 168.17 128.062V117.512H152.958Z" fill="#A3362B"/>
<path d="M106.487 8.86719H178.247C181.708 8.86719 184.514 11.6731 184.514 15.1344V113.417C184.514 116.878 181.708 119.684 178.247 119.684H106.487C103.026 119.684 100.22 116.878 100.22 113.417V15.1344C100.22 11.6731 103.026 8.86719 106.487 8.86719Z" fill="white" stroke="#6A1A1E"/>
<path d="M168.968 78.7921H115.748C112.366 78.7921 109.626 76.0523 109.626 72.6706C109.626 69.2889 112.366 66.5491 115.748 66.5491H168.968C172.35 66.5491 175.09 69.2889 175.09 72.6706C175.09 76.0523 172.35 78.7921 168.968 78.7921Z" fill="white"/>
<g filter="url(#filter0_di_35_1180)">
<path d="M161.766 39.6713C161.766 45.0507 159.568 49.9146 156.019 53.4206C154.567 54.8487 152.886 56.0562 151.037 56.9688C150.588 57.1934 150.124 57.402 149.651 57.5906C147.72 58.3668 145.634 58.8401 143.453 58.9524C143.359 58.9585 143.269 58.9585 143.175 58.9645C142.938 58.9705 142.695 58.9765 142.459 58.9765C142.222 58.9765 141.979 58.9705 141.743 58.9645C141.648 58.9585 141.558 58.9585 141.464 58.9524C139.283 58.8401 137.198 58.3668 135.268 57.5906C134.795 57.402 134.331 57.1934 133.882 56.9688C132.033 56.0562 130.352 54.8487 128.9 53.4206C125.352 49.9126 123.153 45.0487 123.153 39.6713C123.153 29.0067 131.796 20.364 142.461 20.364C153.125 20.364 161.768 29.0067 161.768 39.6713H161.766Z" fill="url(#paint1_linear_35_1180)"/>
</g>
<path d="M168.968 95.3817H115.748C112.366 95.3817 109.626 92.6419 109.626 89.2602C109.626 85.8785 112.366 83.1387 115.748 83.1387H168.968C172.35 83.1387 175.09 85.8785 175.09 89.2602C175.09 92.6419 172.35 95.3817 168.968 95.3817Z" fill="white"/>
<path d="M120.361 75.8853C120.2 75.8853 120.05 75.8211 119.937 75.7068C119.825 75.5904 119.767 75.438 119.771 75.2775L119.825 73.6428L118.397 74.4913C118.307 74.5454 118.203 74.5755 118.096 74.5755C117.888 74.5755 117.693 74.4632 117.589 74.2847C117.501 74.1363 117.48 73.9738 117.523 73.8194C117.565 73.6649 117.665 73.5365 117.803 73.4603L119.256 72.654L117.809 71.8858C117.667 71.8096 117.565 71.6832 117.521 71.5308C117.476 71.3764 117.494 71.2139 117.575 71.0755C117.691 70.8729 117.888 70.7586 118.1 70.7586C118.211 70.7586 118.317 70.7907 118.411 70.8489L119.797 71.7193L119.761 70.0626C119.757 69.9042 119.817 69.7517 119.929 69.6394C120.042 69.5251 120.19 69.4629 120.351 69.4629C120.537 69.4629 120.688 69.5251 120.8 69.6394C120.912 69.7537 120.97 69.9042 120.968 70.0646L120.932 71.7033L122.326 70.8649C122.419 70.8087 122.523 70.7807 122.629 70.7807C122.84 70.7807 123.034 70.893 123.139 71.0735C123.221 71.2139 123.241 71.3764 123.195 71.5328C123.151 71.6893 123.046 71.8156 122.902 71.8918L121.442 72.658L122.926 73.4724C123.066 73.5486 123.167 73.6769 123.211 73.8294C123.253 73.9818 123.235 74.1443 123.155 74.2827C123.032 74.4953 122.836 74.6076 122.625 74.6076C122.519 74.6076 122.413 74.5775 122.32 74.5214L120.902 73.6589L120.954 75.2815C120.96 75.442 120.9 75.5944 120.79 75.7108C120.678 75.8271 120.527 75.8893 120.367 75.8893H120.363L120.361 75.8853Z" fill="#A3362B"/>
<path d="M131.355 75.8853C131.194 75.8853 131.044 75.8211 130.932 75.7068C130.819 75.5904 130.761 75.438 130.765 75.2775L130.819 73.6428L129.391 74.4913C129.301 74.5454 129.197 74.5755 129.092 74.5755C128.88 74.5755 128.691 74.4672 128.583 74.2847C128.495 74.1363 128.473 73.9758 128.517 73.8214C128.559 73.6669 128.659 73.5386 128.799 73.4623L130.252 72.654L128.805 71.8878C128.663 71.8116 128.561 71.6853 128.517 71.5308C128.473 71.3764 128.491 71.2139 128.571 71.0755C128.687 70.8729 128.884 70.7586 129.096 70.7586C129.207 70.7586 129.315 70.7907 129.409 70.8489L130.795 71.7193L130.759 70.0626C130.755 69.9042 130.815 69.7517 130.928 69.6394C131.04 69.5251 131.188 69.4629 131.349 69.4629C131.535 69.4629 131.686 69.5251 131.798 69.6394C131.91 69.7537 131.969 69.9042 131.967 70.0646L131.93 71.7033L133.324 70.8649C133.417 70.8087 133.521 70.7807 133.627 70.7807C133.838 70.7807 134.032 70.893 134.137 71.0735C134.219 71.2139 134.239 71.3764 134.193 71.5328C134.149 71.6893 134.044 71.8156 133.9 71.8918L132.44 72.658L133.924 73.4724C134.065 73.5486 134.165 73.6769 134.207 73.8294C134.249 73.9838 134.231 74.1443 134.151 74.2827C134.028 74.4953 133.832 74.6076 133.621 74.6076C133.515 74.6076 133.409 74.5775 133.316 74.5214L131.898 73.6609L131.95 75.2815C131.956 75.442 131.896 75.5944 131.786 75.7108C131.674 75.8271 131.523 75.8893 131.363 75.8893H131.359L131.355 75.8853Z" fill="#A3362B"/>
<path d="M142.361 75.8834C142.2 75.8834 142.05 75.8192 141.937 75.7049C141.825 75.5885 141.767 75.4361 141.771 75.2756L141.825 73.6409L140.397 74.4914C140.305 74.5455 140.203 74.5756 140.096 74.5756C139.886 74.5756 139.695 74.4673 139.587 74.2848C139.498 74.1364 139.476 73.9739 139.521 73.8195C139.563 73.665 139.663 73.5387 139.803 73.4604L141.256 72.6521L139.809 71.8859C139.667 71.8097 139.565 71.6834 139.521 71.5289C139.476 71.3745 139.494 71.212 139.575 71.0736C139.691 70.871 139.888 70.7567 140.1 70.7567C140.211 70.7567 140.319 70.7888 140.413 70.847L141.797 71.7174L141.761 70.0607C141.757 69.9002 141.817 69.7498 141.927 69.6355C142.04 69.5212 142.188 69.459 142.349 69.459C142.535 69.459 142.686 69.5212 142.798 69.6355C142.91 69.7498 142.968 69.9002 142.966 70.0607L142.93 71.6994L144.324 70.861C144.417 70.8048 144.521 70.7768 144.627 70.7768C144.838 70.7768 145.032 70.8891 145.137 71.0696C145.219 71.21 145.239 71.3725 145.193 71.5289C145.149 71.6854 145.044 71.8117 144.9 71.8879L143.44 72.6541L144.924 73.4685C145.064 73.5447 145.165 73.673 145.207 73.8255C145.249 73.9799 145.231 74.1404 145.151 74.2788C145.028 74.4914 144.832 74.6037 144.621 74.6037C144.515 74.6037 144.409 74.5736 144.316 74.5175L142.898 73.655L142.952 75.2776C142.958 75.4381 142.898 75.5905 142.786 75.7069C142.674 75.8232 142.523 75.8854 142.363 75.8854H142.357L142.361 75.8834Z" fill="#A3362B"/>
<path d="M153.355 75.8834C153.194 75.8834 153.044 75.8192 152.932 75.7049C152.819 75.5885 152.761 75.4361 152.765 75.2756L152.819 73.6409L151.393 74.4894C151.301 74.5435 151.199 74.5736 151.092 74.5736C150.882 74.5736 150.691 74.4653 150.583 74.2828C150.495 74.1344 150.475 73.9739 150.517 73.8195C150.559 73.665 150.659 73.5367 150.799 73.4604L152.252 72.6521L150.805 71.8859C150.663 71.8097 150.561 71.6834 150.517 71.5289C150.473 71.3745 150.491 71.212 150.571 71.0736C150.687 70.871 150.884 70.7567 151.096 70.7567C151.207 70.7567 151.315 70.7888 151.409 70.847L152.793 71.7174L152.757 70.0607C152.753 69.9002 152.813 69.7498 152.926 69.6355C153.038 69.5212 153.186 69.459 153.347 69.459C153.533 69.459 153.684 69.5212 153.796 69.6355C153.908 69.7498 153.967 69.9002 153.965 70.0607L153.928 71.6994L155.322 70.861C155.415 70.8048 155.519 70.7768 155.625 70.7768C155.834 70.7768 156.03 70.8891 156.135 71.0696C156.217 71.21 156.237 71.3725 156.191 71.5289C156.147 71.6854 156.042 71.8117 155.898 71.8879L154.438 72.6541L155.922 73.4685C156.063 73.5447 156.163 73.673 156.205 73.8255C156.247 73.9799 156.229 74.1404 156.149 74.2788C156.026 74.4914 155.83 74.6037 155.619 74.6037C155.513 74.6037 155.407 74.5736 155.314 74.5175L153.896 73.655L153.95 75.2776C153.956 75.4381 153.896 75.5905 153.784 75.7069C153.672 75.8232 153.521 75.8854 153.361 75.8854H153.357L153.355 75.8834Z" fill="#A3362B"/>
<path d="M164.362 75.8834C164.202 75.8834 164.051 75.8192 163.939 75.7049C163.827 75.5885 163.768 75.4361 163.772 75.2756L163.827 73.6409L162.4 74.4894C162.308 74.5435 162.206 74.5736 162.1 74.5736C161.889 74.5736 161.698 74.4653 161.59 74.2828C161.502 74.1344 161.482 73.9739 161.524 73.8195C161.566 73.665 161.666 73.5367 161.807 73.4604L163.259 72.6521L161.813 71.8859C161.67 71.8097 161.568 71.6834 161.524 71.5289C161.48 71.3745 161.498 71.212 161.578 71.0736C161.692 70.869 161.889 70.7567 162.102 70.7567C162.212 70.7567 162.32 70.7888 162.415 70.847L163.798 71.7174L163.762 70.0607C163.758 69.9002 163.819 69.7498 163.931 69.6355C164.043 69.5212 164.192 69.459 164.352 69.459C164.539 69.459 164.689 69.5212 164.801 69.6355C164.914 69.7498 164.972 69.9002 164.97 70.0607L164.934 71.6994L166.328 70.861C166.42 70.8048 166.524 70.7768 166.631 70.7768C166.839 70.7768 167.036 70.8891 167.14 71.0696C167.222 71.21 167.242 71.3725 167.196 71.5289C167.152 71.6854 167.048 71.8117 166.903 71.8879L165.443 72.6541L166.927 73.4685C167.068 73.5447 167.168 73.673 167.21 73.8255C167.252 73.9799 167.234 74.1404 167.154 74.2788C167.032 74.4914 166.835 74.6037 166.625 74.6037C166.518 74.6037 166.412 74.5736 166.32 74.5175L164.902 73.655L164.956 75.2776C164.962 75.4381 164.902 75.5905 164.789 75.7069C164.677 75.8232 164.527 75.8854 164.366 75.8854H164.362V75.8834Z" fill="#A3362B"/>
<path d="M120.361 92.4762C120.2 92.4762 120.05 92.4121 119.937 92.2977C119.825 92.1814 119.767 92.029 119.771 91.8685L119.825 90.2338L118.397 91.0823C118.307 91.1364 118.203 91.1645 118.098 91.1645C117.89 91.1645 117.695 91.0542 117.589 90.8737C117.501 90.7252 117.48 90.5628 117.521 90.4083C117.563 90.2539 117.663 90.1255 117.803 90.0473L119.256 89.241L117.809 88.4728C117.667 88.3986 117.565 88.2722 117.521 88.1178C117.476 87.9633 117.494 87.8029 117.575 87.6625C117.691 87.4599 117.886 87.3456 118.098 87.3456C118.209 87.3456 118.317 87.3777 118.409 87.4358L119.795 88.3063L119.759 86.6496C119.755 86.4891 119.815 86.3387 119.927 86.2243C120.04 86.11 120.188 86.0479 120.349 86.0479C120.535 86.0479 120.686 86.11 120.798 86.2243C120.91 86.3387 120.968 86.4891 120.966 86.6496L120.93 88.2903L122.324 87.4499C122.417 87.3937 122.521 87.3656 122.627 87.3656C122.836 87.3656 123.032 87.4779 123.137 87.6585C123.219 87.7989 123.239 87.9613 123.193 88.1178C123.149 88.2742 123.044 88.4006 122.9 88.4768L121.44 89.243L122.924 90.0573C123.064 90.1335 123.165 90.2619 123.209 90.4143C123.251 90.5668 123.233 90.7292 123.153 90.8676C123.03 91.0802 122.834 91.1926 122.623 91.1926C122.517 91.1926 122.411 91.1625 122.318 91.1063L120.9 90.2439L120.952 91.8645C120.958 92.025 120.898 92.1794 120.788 92.2937C120.676 92.41 120.525 92.4722 120.365 92.4722H120.361V92.4762Z" fill="#A3362B"/>
<path d="M131.355 92.4743C131.194 92.4743 131.044 92.4101 130.932 92.2957C130.819 92.1794 130.761 92.027 130.765 91.8665L130.819 90.2318L129.391 91.0803C129.301 91.1344 129.197 91.1625 129.092 91.1625C128.884 91.1625 128.689 91.0502 128.583 90.8717C128.495 90.7232 128.473 90.5628 128.517 90.4083C128.559 90.2539 128.659 90.1255 128.799 90.0473L130.252 89.241L128.805 88.4728C128.663 88.3986 128.561 88.2702 128.517 88.1178C128.473 87.9633 128.491 87.8009 128.571 87.6625C128.687 87.4599 128.882 87.3456 129.094 87.3456C129.205 87.3456 129.313 87.3777 129.407 87.4358L130.793 88.3063L130.757 86.6496C130.753 86.4891 130.813 86.3387 130.926 86.2244C131.038 86.11 131.186 86.0479 131.347 86.0479C131.533 86.0479 131.684 86.11 131.796 86.2244C131.908 86.3387 131.967 86.4891 131.965 86.6496L131.928 88.2903L133.322 87.4499C133.415 87.3937 133.519 87.3656 133.625 87.3656C133.834 87.3656 134.03 87.4779 134.135 87.6585C134.217 87.7989 134.237 87.9613 134.191 88.1178C134.147 88.2742 134.042 88.4006 133.898 88.4768L132.438 89.243L133.922 90.0573C134.063 90.1336 134.163 90.2619 134.205 90.4144C134.247 90.5688 134.229 90.7293 134.149 90.8677C134.026 91.0803 133.83 91.1926 133.619 91.1926C133.513 91.1926 133.407 91.1625 133.314 91.1063L131.896 90.2439L131.948 91.8645C131.954 92.025 131.894 92.1794 131.784 92.2937C131.672 92.4101 131.521 92.4722 131.361 92.4722H131.357L131.355 92.4743Z" fill="#A3362B"/>
<path d="M142.359 92.4741C142.198 92.4741 142.048 92.41 141.935 92.2956C141.823 92.1793 141.765 92.0269 141.769 91.8664L141.823 90.2317L140.395 91.0822C140.305 91.1363 140.201 91.1644 140.096 91.1644C139.884 91.1644 139.695 91.0561 139.587 90.8736C139.498 90.7251 139.476 90.5647 139.521 90.4102C139.563 90.2558 139.663 90.1274 139.803 90.0512L141.256 89.2449L139.809 88.4767C139.667 88.4025 139.565 88.2741 139.521 88.1217C139.476 87.9672 139.494 87.8048 139.575 87.6664C139.691 87.4638 139.888 87.3495 140.098 87.3495C140.209 87.3495 140.317 87.3816 140.411 87.4397L141.795 88.3102L141.759 86.6535C141.755 86.493 141.815 86.3426 141.925 86.2283C142.038 86.1139 142.186 86.0518 142.347 86.0518C142.533 86.0518 142.684 86.1139 142.796 86.2283C142.908 86.3426 142.966 86.493 142.964 86.6535L142.928 88.2942L144.322 87.4538C144.415 87.3976 144.519 87.3695 144.625 87.3695C144.834 87.3695 145.03 87.4819 145.135 87.6624C145.217 87.8028 145.237 87.9652 145.191 88.1217C145.147 88.2781 145.042 88.4045 144.898 88.4807L143.438 89.2469L144.922 90.0612C145.062 90.1374 145.163 90.2658 145.205 90.4183C145.247 90.5727 145.229 90.7332 145.149 90.8716C145.026 91.0842 144.83 91.1965 144.619 91.1965C144.513 91.1965 144.407 91.1664 144.314 91.1102L142.896 90.2478L142.95 91.8704C142.956 92.0309 142.896 92.1833 142.784 92.2996C142.672 92.416 142.521 92.4781 142.361 92.4781H142.355L142.359 92.4741Z" fill="#A3362B"/>
<path d="M153.361 92.4743C153.2 92.4743 153.05 92.4101 152.937 92.2957C152.825 92.1794 152.767 92.027 152.771 91.8665L152.825 90.2318L151.399 91.0803C151.309 91.1344 151.204 91.1625 151.1 91.1625C150.888 91.1625 150.699 91.0542 150.591 90.8717C150.502 90.7232 150.482 90.5628 150.524 90.4083C150.567 90.2539 150.667 90.1255 150.807 90.0473L152.259 89.241L150.813 88.4728C150.671 88.3986 150.569 88.2702 150.524 88.1178C150.48 87.9633 150.498 87.8009 150.579 87.6625C150.695 87.4599 150.892 87.3456 151.102 87.3456C151.212 87.3456 151.321 87.3777 151.415 87.4358L152.799 88.3063L152.763 86.6496C152.759 86.4891 152.819 86.3387 152.931 86.2244C153.044 86.11 153.192 86.0479 153.353 86.0479C153.539 86.0479 153.69 86.11 153.802 86.2244C153.914 86.3387 153.972 86.4891 153.97 86.6496L153.934 88.2903L155.328 87.4499C155.42 87.3937 155.525 87.3656 155.631 87.3656C155.84 87.3656 156.036 87.4779 156.141 87.6585C156.223 87.7989 156.243 87.9613 156.197 88.1178C156.153 88.2742 156.048 88.4006 155.904 88.4768L154.444 89.243L155.928 90.0573C156.068 90.1336 156.169 90.2619 156.211 90.4144C156.253 90.5688 156.235 90.7293 156.155 90.8677C156.032 91.0803 155.836 91.1926 155.625 91.1926C155.519 91.1926 155.412 91.1625 155.32 91.1063L153.902 90.2439L153.956 91.8665C153.962 92.027 153.902 92.1794 153.79 92.2957C153.677 92.4121 153.527 92.4743 153.367 92.4743H153.363H153.361Z" fill="#A3362B"/>
<path d="M164.36 92.4762C164.2 92.4762 164.049 92.4121 163.937 92.2977C163.825 92.1814 163.766 92.029 163.77 91.8685L163.825 90.2338L162.398 91.0823C162.308 91.1364 162.204 91.1645 162.1 91.1645C161.887 91.1645 161.698 91.0562 161.59 90.8737C161.502 90.7252 161.482 90.5648 161.524 90.4103C161.566 90.2559 161.666 90.1275 161.807 90.0493L163.259 89.243L161.813 88.4748C161.67 88.4006 161.568 88.2722 161.524 88.1198C161.48 87.9653 161.498 87.8049 161.578 87.6645C161.692 87.4599 161.889 87.3456 162.102 87.3456C162.212 87.3456 162.32 87.3777 162.415 87.4358L163.798 88.3063L163.762 86.6496C163.758 86.4891 163.819 86.3387 163.931 86.2243C164.043 86.11 164.192 86.0479 164.352 86.0479C164.539 86.0479 164.689 86.11 164.801 86.2243C164.914 86.3387 164.972 86.4891 164.97 86.6496L164.934 88.2903L166.328 87.4499C166.42 87.3937 166.524 87.3656 166.631 87.3656C166.839 87.3656 167.036 87.4779 167.14 87.6585C167.222 87.7989 167.242 87.9613 167.196 88.1178C167.152 88.2742 167.048 88.4006 166.903 88.4768L165.443 89.243L166.927 90.0573C167.068 90.1335 167.168 90.2619 167.21 90.4143C167.252 90.5688 167.234 90.7292 167.154 90.8676C167.032 91.0802 166.835 91.1926 166.625 91.1926C166.518 91.1926 166.412 91.1625 166.32 91.1063L164.902 90.2439L164.956 91.8665C164.962 92.027 164.902 92.1794 164.789 92.2957C164.677 92.4121 164.527 92.4742 164.366 92.4742H164.362L164.36 92.4762Z" fill="#A3362B"/>
<path d="M156.026 53.4217C154.574 54.8498 152.893 56.0573 151.044 56.9699L150.753 55.7083C150.683 55.3713 150.202 55.3653 150.119 55.7022L149.658 57.5917C147.727 58.3679 145.641 58.8412 143.46 58.9535C143.366 58.9596 143.276 58.9596 143.182 58.9656C142.945 58.9716 142.702 58.9776 142.466 58.9776C142.229 58.9776 141.986 58.9716 141.749 58.9656C141.655 58.9596 141.565 58.9596 141.471 58.9535C139.29 58.8412 137.204 58.3679 135.275 57.5917L134.814 55.7022C134.731 55.3653 134.25 55.3713 134.174 55.7083L133.889 56.9699C132.04 56.0573 130.359 54.8498 128.907 53.4217C129.025 48.5698 132.07 43.748 135.915 43.5996C137.622 45.2223 139.926 46.2231 142.468 46.2231C145.009 46.2231 147.313 45.2223 149.02 43.5996C152.865 43.748 155.91 48.5698 156.028 53.4217H156.026Z" fill="#F9FBFC"/>
<path d="M142.455 44.2469C146.104 44.2469 149.062 40.875 149.062 36.7154C149.062 32.5558 146.104 29.1838 142.455 29.1838C138.806 29.1838 135.848 32.5558 135.848 36.7154C135.848 40.875 138.806 44.2469 142.455 44.2469Z" fill="#F9FBFC"/>
<g style="mix-blend-mode:multiply" opacity="0.35">
<path d="M215.349 42.2327V45.5341C215.349 57.0952 203.8 69.3683 194.329 71.5546C194.281 71.5405 194.24 71.5345 194.194 71.5205C202.941 66.9193 213.915 54.4376 215.349 42.2327Z" fill="#F77B01"/>
</g>
<path style="mix-blend-mode:screen" opacity="0.6" d="M204.066 23.1883C194.392 23.1883 185.048 24.0668 176.654 25.2983C175.536 25.4608 174.712 26.4155 174.712 27.5448L173.535 48.3623C173.386 47.4156 173.312 46.4749 173.312 45.5342V26.0705C173.312 25.1499 173.988 24.3717 174.895 24.2373C183.704 22.9376 193.783 22.4582 204.066 23.1883Z" fill="url(#paint2_radial_35_1180)"/>
<path d="M167.785 143.178C167.326 142.608 166.811 142.075 166.259 141.571C165.922 141.258 165.561 140.964 165.186 140.683C164.989 140.536 164.793 140.388 164.59 140.253C163.782 139.702 162.948 139.235 162.095 138.855C159.201 137.568 156.13 137.267 153.23 137.788C147.405 138.831 142.297 143.208 140.856 149.566L102.118 149.897C100.332 151.706 99.3336 152.717 97.5444 154.526L97.5685 158.389V158.401C97.8132 158.646 98.0459 158.873 98.2665 159.087C98.4932 159.314 98.7198 159.535 98.9404 159.755C99.0748 159.884 99.2112 160.018 99.3516 160.16C99.4439 160.241 99.5301 160.327 99.6204 160.423C99.7066 160.515 99.7989 160.602 99.8831 160.688C99.9694 160.774 100.056 160.86 100.146 160.951C100.76 161.564 101.403 162.196 102.194 162.974L105.377 162.956L105.934 160.963L109.013 160.927L109.749 160.921L110.026 161.853L110.333 162.902L116.611 162.846L117.052 160.86L120.32 160.824L121.116 160.818L121.337 161.757L121.581 162.806L125.677 162.782L126.112 160.788L131.09 160.764L131.887 160.758L132.107 161.685L132.352 162.74L136.913 162.686L137.471 160.692L142.124 160.65L142.503 160.644C143.049 161.589 143.692 162.489 144.453 163.317C145.243 164.2 146.158 165.004 147.186 165.708C148.376 166.525 149.646 167.142 150.945 167.584C155.396 169.092 160.29 168.466 164.201 165.965C165.894 164.88 167.402 163.446 168.61 161.679C172.571 155.884 172.038 148.337 167.775 143.18L167.785 143.178ZM159.785 148.561C160.575 149.261 161.14 150.132 161.459 151.08C162.035 152.779 161.838 154.711 160.753 156.299C159.418 158.249 157.111 159.144 154.917 158.782C154.1 158.648 153.298 158.335 152.574 157.838C152.058 157.489 151.617 157.066 151.256 156.598C151.146 156.458 151.042 156.309 150.949 156.163C150.38 155.274 150.061 154.256 150.017 153.215C149.962 151.995 150.293 150.743 151.036 149.658C151.679 148.72 152.544 148.028 153.513 147.598H153.519C153.775 147.482 154.046 147.39 154.315 147.316C155.302 147.033 156.357 147.015 157.368 147.286C158.011 147.444 158.637 147.727 159.213 148.12C159.305 148.182 159.397 148.248 159.49 148.317C159.594 148.397 159.692 148.475 159.785 148.561Z" fill="#F77B01"/>
<path d="M167.577 143.235C167.178 142.654 166.736 142.094 166.259 141.569C165.976 141.262 165.683 140.961 165.377 140.68C164.813 140.147 164.205 139.655 163.549 139.208C163.132 138.925 162.715 138.662 162.286 138.43C159.331 136.781 156.112 136.241 153.051 136.614C146.872 137.363 141.328 141.845 139.813 148.523H101.075C99.2894 150.332 98.2906 151.674 96.5015 153.483L96.5255 157.358C96.9066 157.731 97.2496 158.07 97.5685 158.389C97.8132 158.627 98.0399 158.86 98.2665 159.087C98.4932 159.313 98.7198 159.534 98.9404 159.755C99.0748 159.883 99.2112 160.017 99.3516 160.16C99.4439 160.24 99.5301 160.326 99.6204 160.423C99.7066 160.503 99.7929 160.589 99.8831 160.687C99.9694 160.774 100.056 160.86 100.146 160.95C100.459 161.245 100.79 161.576 101.151 161.931L104.334 161.913L104.891 159.919L108.704 159.877L109.011 160.926L109.288 161.859L110.024 161.853L115.568 161.805L116.009 159.819L120.075 159.777L120.32 160.826L120.54 161.764L121.337 161.758L124.636 161.74L125.071 159.747L130.848 159.717L131.092 160.766L131.313 161.698L132.109 161.686L135.874 161.644L136.432 159.65L141.466 159.602C141.669 159.957 141.889 160.308 142.128 160.651C142.784 161.614 143.562 162.515 144.459 163.319C144.986 163.81 145.55 164.258 146.152 164.669C147.574 165.638 149.106 166.344 150.677 166.779C156.409 168.397 162.725 166.564 166.668 161.837C166.987 161.456 167.294 161.058 167.575 160.641C171.259 155.246 171.051 148.336 167.575 143.245L167.577 143.235ZM150.759 156.16C149.912 155.344 149.355 154.309 149.11 153.212C148.767 151.68 149.036 150.011 149.993 148.613C151.79 145.983 155.358 145.265 158.02 146.976C158.076 147.006 158.124 147.038 158.172 147.074C158.687 147.423 159.129 147.847 159.49 148.314C159.564 148.406 159.63 148.498 159.686 148.591C160.208 149.339 160.539 150.191 160.667 151.08C160.882 152.49 160.575 153.986 159.71 155.256C158.679 156.758 157.087 157.635 155.4 157.789C154.082 157.917 152.708 157.599 151.531 156.796C151.439 156.734 151.346 156.668 151.254 156.6C151.082 156.459 150.911 156.317 150.757 156.164L150.759 156.16Z" fill="#FFC319"/>
<g style="mix-blend-mode:screen" opacity="0.25">
<path d="M139.517 153.398H102.146L103.63 152.018H139.445C139.445 152.477 139.469 152.938 139.519 153.398H139.517Z" fill="white"/>
</g>
<g style="mix-blend-mode:screen" opacity="0.25">
<path d="M140.077 156.31H102.146L103.63 154.93H139.74C139.826 155.389 139.942 155.851 140.077 156.31Z" fill="white"/>
</g>
<path d="M141.968 160.424C141.193 159.232 140.596 157.973 140.188 156.675C140.395 157.949 140.77 159.208 141.31 160.424H141.968Z" fill="#F77B01"/>
<g style="mix-blend-mode:screen" opacity="0.25">
<path d="M148.647 156.158C146.728 156.158 146.704 153.209 148.647 153.209H150.015C150.057 154.252 150.376 155.269 150.948 156.158H148.649H148.647Z" fill="white"/>
<path d="M154.3 147.314C154.031 147.388 153.76 147.48 153.503 147.597C153.712 147.436 153.975 147.332 154.3 147.314Z" fill="white"/>
<path d="M168.607 161.674C164.616 167.511 157.325 169.743 150.943 167.579C150.814 167.37 150.704 167.107 150.666 166.771C150.654 166.684 150.648 166.586 150.648 166.488C150.648 165.677 151.298 165.022 152.102 165.022H156.565C158.484 165.022 158.52 162.073 156.565 162.073H151.262C149.348 162.073 149.33 159.111 151.262 159.111H153.941C154.347 159.111 154.671 158.982 154.904 158.78C155.193 158.523 155.351 158.16 155.39 157.787C157.076 157.634 158.669 156.756 159.7 155.254C161.178 153.089 161.012 150.275 159.479 148.312C159.387 148.244 159.295 148.177 159.202 148.115C158.627 147.722 158.001 147.441 157.357 147.281C157.62 147.233 157.835 147.128 158.007 146.974C158.902 146.214 158.603 144.362 157.068 144.344H152.702C150.776 144.344 150.776 141.396 152.702 141.396H154.908C156.84 141.384 156.822 138.447 154.902 138.447H154.455C153.859 138.447 153.45 138.171 153.215 137.786C153.013 137.443 152.953 137.013 153.037 136.614C156.539 136.185 160.247 136.957 163.535 139.208C164.552 139.9 165.454 140.698 166.245 141.568C171.861 146.651 173.002 155.242 168.605 161.674H168.607Z" fill="white"/>
</g>
<g style="mix-blend-mode:screen" opacity="0.2">
<path d="M161.999 139.386C161.999 139.184 162.023 139.005 162.073 138.853C162.115 138.686 162.184 138.546 162.264 138.43C162.693 138.662 163.11 138.927 163.527 139.208C164.183 139.655 164.791 140.147 165.355 140.68H163.283C162.571 140.68 162.001 140.098 162.001 139.386H161.999Z" fill="white"/>
<path d="M168.614 161.676C167.407 163.441 165.898 164.877 164.206 165.962C163.875 165.196 164.26 164.093 165.371 164.093H165.77C167.082 164.093 167.383 162.534 166.665 161.83C166.45 161.627 166.155 161.493 165.776 161.493H163.832C162.128 161.493 162.128 158.894 163.832 158.894H167.677C169.376 158.876 169.358 156.288 167.665 156.288H165.335C163.606 156.288 163.648 153.683 165.335 153.683H167.665C169.382 153.683 169.358 151.083 167.665 151.083H160.663C160.535 150.195 160.204 149.342 159.683 148.594C159.713 148.588 159.745 148.57 159.781 148.564C159.915 148.516 160.076 148.484 160.246 148.484H164.918C166.628 148.484 166.622 145.89 164.918 145.89H162.557C160.858 145.89 160.87 143.285 162.557 143.285H167.228C167.351 143.285 167.467 143.273 167.571 143.243C167.645 143.231 167.712 143.207 167.78 143.181C172.042 148.337 172.576 155.885 168.614 161.68V161.676Z" fill="white"/>
</g>
<path d="M211.662 19.6395C211.662 30.4762 202.87 39.2684 192.023 39.2684C181.186 39.2684 172.394 30.4762 172.394 19.6395C172.394 8.79222 181.186 0 192.023 0C202.87 0 211.662 8.79222 211.662 19.6395Z" fill="#A3362B"/>
<path d="M205.947 19.1652C205.947 25.694 200.622 31.0082 194.073 31.0082C191.656 31.0082 189.33 30.2794 187.341 28.9432C186.79 28.5485 186.637 27.8197 187.035 27.2427C187.432 26.6961 188.167 26.5443 188.748 26.939C190.309 28.0019 192.176 28.5788 194.073 28.5788C199.276 28.5788 203.499 24.3579 203.499 19.1652C203.499 13.9725 199.276 9.75159 194.073 9.75159C188.993 9.75159 184.831 13.7903 184.648 18.8312L187.494 15.9767C187.983 15.4909 188.748 15.4909 189.238 15.9767C189.728 16.4626 189.728 17.2218 189.238 17.7076L184.556 22.3537C184.311 22.5966 184.005 22.7181 183.699 22.7181C183.362 22.7181 183.056 22.5966 182.842 22.3537L178.16 17.6773C177.67 17.1914 177.67 16.4322 178.16 15.9464C178.649 15.4605 179.414 15.4605 179.904 15.9464L182.23 18.2846C182.658 12.1809 187.8 7.32227 194.073 7.32227C200.622 7.32227 205.947 12.6364 205.947 19.1652ZM194.012 12.272C193.339 12.272 192.788 12.8186 192.788 13.4867V19.1652C192.788 19.4992 192.941 19.8029 193.186 20.0155L195.818 22.627C196.063 22.8699 196.369 22.9914 196.705 22.9914C197.011 22.9914 197.348 22.8699 197.562 22.627C198.052 22.1411 198.021 21.382 197.532 20.8961L195.236 18.649V13.4867C195.236 12.8186 194.685 12.272 194.012 12.272Z" fill="white"/>
<path d="M47.9084 215.756V214.665C47.9084 214.343 47.969 214.004 48.0902 213.648C48.2114 213.292 48.38 212.951 48.5959 212.625C48.8118 212.3 49.0656 212.021 49.3572 211.79L50.1982 212.392C49.9671 212.73 49.7701 213.082 49.6072 213.449C49.4444 213.817 49.3629 214.216 49.3629 214.648V215.756H47.9084ZM50.9041 212.12H52.8984L55.9382 217.41H56.0632L59.103 212.12H61.0973L56.8757 219.188V223.756H55.1257V219.188L50.9041 212.12ZM64.8572 223.932C64.0391 223.932 63.325 223.745 62.7152 223.37C62.1054 222.995 61.6319 222.47 61.2947 221.796C60.9576 221.122 60.7891 220.334 60.7891 219.432C60.7891 218.527 60.9576 217.735 61.2947 217.057C61.6319 216.379 62.1054 215.853 62.7152 215.478C63.325 215.103 64.0391 214.915 64.8572 214.915C65.6754 214.915 66.3894 215.103 66.9993 215.478C67.6091 215.853 68.0826 216.379 68.4197 217.057C68.7569 217.735 68.9254 218.527 68.9254 219.432C68.9254 220.334 68.7569 221.122 68.4197 221.796C68.0826 222.47 67.6091 222.995 66.9993 223.37C66.3894 223.745 65.6754 223.932 64.8572 223.932ZM64.8629 222.506C65.3932 222.506 65.8326 222.366 66.1811 222.086C66.5296 221.805 66.7872 221.432 66.9538 220.966C67.1243 220.5 67.2095 219.987 67.2095 219.427C67.2095 218.87 67.1243 218.358 66.9538 217.892C66.7872 217.423 66.5296 217.046 66.1811 216.762C65.8326 216.478 65.3932 216.336 64.8629 216.336C64.3288 216.336 63.8857 216.478 63.5334 216.762C63.1849 217.046 62.9254 217.423 62.755 217.892C62.5883 218.358 62.505 218.87 62.505 219.427C62.505 219.987 62.5883 220.5 62.755 220.966C62.9254 221.432 63.1849 221.805 63.5334 222.086C63.8857 222.366 64.3288 222.506 64.8629 222.506ZM76.3501 220.137V215.029H78.0547V223.756H76.3842V222.245H76.2933C76.0926 222.711 75.7706 223.099 75.3274 223.41C74.888 223.716 74.3407 223.87 73.6854 223.87C73.1248 223.87 72.6286 223.747 72.1967 223.5C71.7687 223.25 71.4316 222.881 71.1854 222.392C70.9429 221.904 70.8217 221.3 70.8217 220.58V215.029H72.5206V220.375C72.5206 220.97 72.6854 221.444 73.0149 221.796C73.3445 222.148 73.7725 222.324 74.299 222.324C74.6172 222.324 74.9335 222.245 75.2479 222.086C75.5661 221.927 75.8293 221.686 76.0376 221.364C76.2498 221.042 76.3539 220.633 76.3501 220.137ZM80.3374 223.756V215.029H81.9794V216.415H82.0703C82.2294 215.945 82.5097 215.576 82.9112 215.307C83.3165 215.035 83.7749 214.898 84.2862 214.898C84.3923 214.898 84.5173 214.902 84.6612 214.91C84.8089 214.917 84.9245 214.927 85.0078 214.938V216.563C84.9396 216.544 84.8184 216.523 84.6442 216.5C84.4699 216.474 84.2957 216.461 84.1214 216.461C83.7199 216.461 83.362 216.546 83.0476 216.716C82.737 216.883 82.4908 217.116 82.3089 217.415C82.1271 217.711 82.0362 218.048 82.0362 218.427V223.756H80.3374ZM90.8487 223.756V212.12H94.9964C95.9018 212.12 96.6518 212.285 97.2464 212.614C97.8411 212.944 98.2862 213.394 98.5817 213.966C98.8771 214.535 99.0249 215.175 99.0249 215.887C99.0249 216.603 98.8752 217.247 98.576 217.819C98.2805 218.387 97.8336 218.838 97.2351 219.171C96.6404 219.5 95.8923 219.665 94.9908 219.665H92.1385V218.177H94.8317C95.4036 218.177 95.8677 218.078 96.2237 217.881C96.5798 217.68 96.8411 217.408 97.0078 217.063C97.1745 216.718 97.2578 216.326 97.2578 215.887C97.2578 215.447 97.1745 215.057 97.0078 214.716C96.8411 214.375 96.5779 214.108 96.218 213.915C95.862 213.722 95.3923 213.625 94.8089 213.625H92.6044V223.756H90.8487ZM100.947 223.756V215.029H102.589V216.415H102.68C102.839 215.945 103.119 215.576 103.521 215.307C103.926 215.035 104.384 214.898 104.896 214.898C105.002 214.898 105.127 214.902 105.271 214.91C105.418 214.917 105.534 214.927 105.617 214.938V216.563C105.549 216.544 105.428 216.523 105.254 216.5C105.079 216.474 104.905 216.461 104.731 216.461C104.329 216.461 103.971 216.546 103.657 216.716C103.346 216.883 103.1 217.116 102.918 217.415C102.737 217.711 102.646 218.048 102.646 218.427V223.756H100.947ZM110.451 223.932C109.633 223.932 108.919 223.745 108.309 223.37C107.699 222.995 107.226 222.47 106.888 221.796C106.551 221.122 106.383 220.334 106.383 219.432C106.383 218.527 106.551 217.735 106.888 217.057C107.226 216.379 107.699 215.853 108.309 215.478C108.919 215.103 109.633 214.915 110.451 214.915C111.269 214.915 111.983 215.103 112.593 215.478C113.203 215.853 113.676 216.379 114.013 217.057C114.351 217.735 114.519 218.527 114.519 219.432C114.519 220.334 114.351 221.122 114.013 221.796C113.676 222.47 113.203 222.995 112.593 223.37C111.983 223.745 111.269 223.932 110.451 223.932ZM110.457 222.506C110.987 222.506 111.426 222.366 111.775 222.086C112.123 221.805 112.381 221.432 112.548 220.966C112.718 220.5 112.803 219.987 112.803 219.427C112.803 218.87 112.718 218.358 112.548 217.892C112.381 217.423 112.123 217.046 111.775 216.762C111.426 216.478 110.987 216.336 110.457 216.336C109.923 216.336 109.479 216.478 109.127 216.762C108.779 217.046 108.519 217.423 108.349 217.892C108.182 218.358 108.099 218.87 108.099 219.427C108.099 219.987 108.182 220.5 108.349 220.966C108.519 221.432 108.779 221.805 109.127 222.086C109.479 222.366 109.923 222.506 110.457 222.506ZM120.569 215.029V216.392H115.637V215.029H120.569ZM116.989 223.756V214.017C116.989 213.472 117.109 213.019 117.347 212.66C117.586 212.296 117.902 212.025 118.296 211.847C118.69 211.665 119.118 211.574 119.58 211.574C119.921 211.574 120.213 211.603 120.455 211.66C120.698 211.713 120.878 211.762 120.995 211.807L120.597 213.182C120.518 213.16 120.415 213.133 120.29 213.103C120.165 213.069 120.014 213.052 119.836 213.052C119.423 213.052 119.128 213.154 118.95 213.358C118.775 213.563 118.688 213.858 118.688 214.245V223.756H116.989ZM122.322 223.756V215.029H124.021V223.756H122.322ZM123.18 213.682C122.884 213.682 122.63 213.584 122.418 213.387C122.21 213.186 122.106 212.947 122.106 212.671C122.106 212.391 122.21 212.152 122.418 211.955C122.63 211.754 122.884 211.654 123.18 211.654C123.475 211.654 123.727 211.754 123.935 211.955C124.147 212.152 124.254 212.391 124.254 212.671C124.254 212.947 124.147 213.186 123.935 213.387C123.727 213.584 123.475 213.682 123.18 213.682ZM128.005 212.12V223.756H126.306V212.12H128.005ZM134.052 223.932C133.192 223.932 132.451 223.749 131.83 223.381C131.213 223.01 130.736 222.489 130.398 221.819C130.065 221.144 129.898 220.355 129.898 219.449C129.898 218.555 130.065 217.767 130.398 217.086C130.736 216.404 131.205 215.872 131.808 215.489C132.414 215.106 133.122 214.915 133.933 214.915C134.425 214.915 134.902 214.997 135.364 215.16C135.826 215.322 136.241 215.578 136.609 215.927C136.976 216.275 137.266 216.728 137.478 217.285C137.69 217.838 137.796 218.51 137.796 219.302V219.904H130.859V218.631H136.131C136.131 218.184 136.04 217.788 135.859 217.444C135.677 217.095 135.421 216.82 135.092 216.62C134.766 216.419 134.383 216.319 133.944 216.319C133.467 216.319 133.05 216.436 132.694 216.671C132.342 216.902 132.069 217.205 131.876 217.58C131.686 217.951 131.592 218.355 131.592 218.79V219.785C131.592 220.368 131.694 220.864 131.898 221.273C132.107 221.682 132.397 221.995 132.768 222.211C133.139 222.423 133.573 222.529 134.069 222.529C134.391 222.529 134.684 222.483 134.95 222.392C135.215 222.298 135.444 222.158 135.637 221.972C135.83 221.786 135.978 221.557 136.08 221.285L137.688 221.574C137.559 222.048 137.328 222.463 136.995 222.819C136.665 223.171 136.251 223.445 135.751 223.642C135.254 223.836 134.688 223.932 134.052 223.932ZM143.915 223.756V215.029H145.614V223.756H143.915ZM144.773 213.682C144.478 213.682 144.224 213.584 144.012 213.387C143.804 213.186 143.7 212.947 143.7 212.671C143.7 212.391 143.804 212.152 144.012 211.955C144.224 211.754 144.478 211.654 144.773 211.654C145.069 211.654 145.321 211.754 145.529 211.955C145.741 212.152 145.847 212.391 145.847 212.671C145.847 212.947 145.741 213.186 145.529 213.387C145.321 213.584 145.069 213.682 144.773 213.682ZM154.44 217.16L152.9 217.432C152.835 217.235 152.733 217.048 152.593 216.87C152.457 216.692 152.271 216.546 152.036 216.432C151.801 216.319 151.508 216.262 151.156 216.262C150.674 216.262 150.273 216.37 149.951 216.586C149.629 216.798 149.468 217.072 149.468 217.41C149.468 217.701 149.576 217.936 149.792 218.114C150.008 218.292 150.356 218.438 150.837 218.552L152.224 218.87C153.027 219.055 153.625 219.341 154.019 219.728C154.413 220.114 154.61 220.616 154.61 221.233C154.61 221.756 154.459 222.222 154.156 222.631C153.856 223.036 153.438 223.355 152.9 223.586C152.366 223.817 151.746 223.932 151.042 223.932C150.065 223.932 149.267 223.724 148.65 223.307C148.032 222.887 147.654 222.29 147.513 221.517L149.156 221.267C149.258 221.695 149.468 222.019 149.786 222.239C150.104 222.455 150.519 222.563 151.031 222.563C151.587 222.563 152.032 222.447 152.366 222.216C152.699 221.981 152.866 221.695 152.866 221.358C152.866 221.086 152.763 220.856 152.559 220.671C152.358 220.485 152.049 220.345 151.633 220.25L150.156 219.927C149.341 219.741 148.739 219.445 148.349 219.04C147.962 218.635 147.769 218.122 147.769 217.5C147.769 216.985 147.913 216.535 148.201 216.148C148.489 215.762 148.887 215.461 149.394 215.245C149.902 215.025 150.483 214.915 151.138 214.915C152.082 214.915 152.824 215.12 153.366 215.529C153.907 215.934 154.265 216.478 154.44 217.16ZM166.241 220.137V215.029H167.945V223.756H166.275V222.245H166.184C165.983 222.711 165.661 223.099 165.218 223.41C164.779 223.716 164.231 223.87 163.576 223.87C163.015 223.87 162.519 223.747 162.087 223.5C161.659 223.25 161.322 222.881 161.076 222.392C160.834 221.904 160.712 221.3 160.712 220.58V215.029H162.411V220.375C162.411 220.97 162.576 221.444 162.906 221.796C163.235 222.148 163.663 222.324 164.19 222.324C164.508 222.324 164.824 222.245 165.138 222.086C165.457 221.927 165.72 221.686 165.928 221.364C166.14 221.042 166.245 220.633 166.241 220.137ZM171.927 218.574V223.756H170.228V215.029H171.859V216.449H171.967C172.167 215.987 172.482 215.616 172.91 215.336C173.342 215.055 173.885 214.915 174.54 214.915C175.135 214.915 175.656 215.04 176.103 215.29C176.55 215.536 176.897 215.904 177.143 216.392C177.389 216.881 177.512 217.485 177.512 218.205V223.756H175.813V218.41C175.813 217.777 175.648 217.283 175.319 216.927C174.989 216.567 174.537 216.387 173.961 216.387C173.567 216.387 173.217 216.472 172.91 216.642C172.607 216.813 172.366 217.063 172.188 217.392C172.014 217.718 171.927 218.112 171.927 218.574ZM183.058 223.927C182.353 223.927 181.724 223.747 181.171 223.387C180.622 223.023 180.19 222.506 179.876 221.836C179.565 221.161 179.41 220.353 179.41 219.41C179.41 218.466 179.567 217.66 179.881 216.989C180.2 216.319 180.635 215.805 181.188 215.449C181.741 215.093 182.368 214.915 183.069 214.915C183.611 214.915 184.046 215.006 184.376 215.188C184.709 215.366 184.967 215.574 185.148 215.813C185.334 216.052 185.478 216.262 185.58 216.444H185.683V212.12H187.381V223.756H185.722V222.398H185.58C185.478 222.584 185.33 222.796 185.137 223.035C184.948 223.273 184.686 223.481 184.353 223.66C184.02 223.838 183.588 223.927 183.058 223.927ZM183.433 222.478C183.921 222.478 184.334 222.349 184.671 222.091C185.012 221.83 185.27 221.468 185.444 221.006C185.622 220.544 185.711 220.006 185.711 219.392C185.711 218.786 185.624 218.256 185.45 217.802C185.275 217.347 185.02 216.993 184.683 216.739C184.345 216.485 183.929 216.358 183.433 216.358C182.921 216.358 182.495 216.491 182.154 216.756C181.813 217.021 181.556 217.383 181.381 217.841C181.211 218.3 181.126 218.817 181.126 219.392C181.126 219.976 181.213 220.5 181.387 220.966C181.561 221.432 181.819 221.802 182.16 222.074C182.504 222.343 182.929 222.478 183.433 222.478ZM193.567 223.932C192.708 223.932 191.967 223.749 191.346 223.381C190.728 223.01 190.251 222.489 189.914 221.819C189.581 221.144 189.414 220.355 189.414 219.449C189.414 218.555 189.581 217.767 189.914 217.086C190.251 216.404 190.721 215.872 191.323 215.489C191.929 215.106 192.638 214.915 193.448 214.915C193.941 214.915 194.418 214.997 194.88 215.16C195.342 215.322 195.757 215.578 196.124 215.927C196.492 216.275 196.781 216.728 196.994 217.285C197.206 217.838 197.312 218.51 197.312 219.302V219.904H190.374V218.631H195.647C195.647 218.184 195.556 217.788 195.374 217.444C195.192 217.095 194.937 216.82 194.607 216.62C194.281 216.419 193.899 216.319 193.46 216.319C192.982 216.319 192.566 216.436 192.21 216.671C191.857 216.902 191.585 217.205 191.391 217.58C191.202 217.951 191.107 218.355 191.107 218.79V219.785C191.107 220.368 191.21 220.864 191.414 221.273C191.622 221.682 191.912 221.995 192.283 222.211C192.655 222.423 193.088 222.529 193.585 222.529C193.906 222.529 194.2 222.483 194.465 222.392C194.73 222.298 194.96 222.158 195.153 221.972C195.346 221.786 195.494 221.557 195.596 221.285L197.204 221.574C197.075 222.048 196.844 222.463 196.511 222.819C196.181 223.171 195.766 223.445 195.266 223.642C194.77 223.836 194.204 223.932 193.567 223.932ZM199.197 223.756V215.029H200.839V216.415H200.93C201.089 215.945 201.369 215.576 201.771 215.307C202.176 215.035 202.634 214.898 203.146 214.898C203.252 214.898 203.377 214.902 203.521 214.91C203.668 214.917 203.784 214.927 203.867 214.938V216.563C203.799 216.544 203.678 216.523 203.504 216.5C203.329 216.474 203.155 216.461 202.981 216.461C202.579 216.461 202.221 216.546 201.907 216.716C201.596 216.883 201.35 217.116 201.168 217.415C200.987 217.711 200.896 218.048 200.896 218.427V223.756H199.197ZM212.112 223.949C211.558 223.949 211.058 223.847 210.612 223.642C210.165 223.434 209.81 223.133 209.549 222.739C209.291 222.345 209.163 221.862 209.163 221.29C209.163 220.798 209.257 220.392 209.447 220.074C209.636 219.756 209.892 219.504 210.214 219.319C210.536 219.133 210.896 218.993 211.293 218.898C211.691 218.803 212.096 218.731 212.509 218.682C213.032 218.622 213.456 218.572 213.782 218.535C214.108 218.493 214.344 218.427 214.492 218.336C214.64 218.245 214.714 218.097 214.714 217.892V217.853C214.714 217.356 214.574 216.972 214.293 216.699C214.017 216.427 213.604 216.29 213.055 216.29C212.483 216.29 212.032 216.417 211.702 216.671C211.377 216.921 211.151 217.199 211.026 217.506L209.43 217.142C209.619 216.612 209.896 216.184 210.259 215.858C210.627 215.529 211.049 215.29 211.526 215.142C212.004 214.991 212.505 214.915 213.032 214.915C213.38 214.915 213.75 214.957 214.14 215.04C214.534 215.12 214.901 215.267 215.242 215.483C215.587 215.699 215.869 216.008 216.089 216.41C216.308 216.807 216.418 217.324 216.418 217.961V223.756H214.759V222.563H214.691C214.581 222.783 214.416 222.999 214.197 223.211C213.977 223.423 213.695 223.599 213.35 223.739C213.005 223.879 212.593 223.949 212.112 223.949ZM212.481 222.586C212.951 222.586 213.352 222.493 213.685 222.307C214.022 222.122 214.278 221.879 214.452 221.58C214.63 221.277 214.719 220.953 214.719 220.608V219.483C214.659 219.544 214.541 219.601 214.367 219.654C214.197 219.703 214.002 219.747 213.782 219.785C213.562 219.819 213.348 219.851 213.14 219.881C212.932 219.908 212.757 219.93 212.617 219.949C212.288 219.991 211.987 220.061 211.714 220.16C211.445 220.258 211.229 220.4 211.066 220.586C210.907 220.767 210.827 221.01 210.827 221.313C210.827 221.733 210.983 222.052 211.293 222.267C211.604 222.48 212 222.586 212.481 222.586ZM218.681 227.029V215.029H220.34V216.444H220.482C220.581 216.262 220.723 216.052 220.908 215.813C221.094 215.574 221.352 215.366 221.681 215.188C222.011 215.006 222.446 214.915 222.988 214.915C223.692 214.915 224.321 215.093 224.874 215.449C225.427 215.805 225.861 216.319 226.175 216.989C226.494 217.66 226.653 218.466 226.653 219.41C226.653 220.353 226.496 221.161 226.181 221.836C225.867 222.506 225.435 223.023 224.886 223.387C224.336 223.747 223.71 223.927 223.005 223.927C222.475 223.927 222.041 223.838 221.704 223.66C221.371 223.481 221.109 223.273 220.92 223.035C220.73 222.796 220.585 222.584 220.482 222.398H220.38V227.029H218.681ZM220.346 219.392C220.346 220.006 220.435 220.544 220.613 221.006C220.791 221.468 221.049 221.83 221.386 222.091C221.723 222.349 222.136 222.478 222.624 222.478C223.132 222.478 223.556 222.343 223.897 222.074C224.238 221.802 224.496 221.432 224.67 220.966C224.848 220.5 224.937 219.976 224.937 219.392C224.937 218.817 224.85 218.3 224.675 217.841C224.505 217.383 224.247 217.021 223.903 216.756C223.562 216.491 223.136 216.358 222.624 216.358C222.132 216.358 221.715 216.485 221.374 216.739C221.037 216.993 220.781 217.347 220.607 217.802C220.433 218.256 220.346 218.786 220.346 219.392ZM228.556 227.029V215.029H230.215V216.444H230.357C230.456 216.262 230.598 216.052 230.783 215.813C230.969 215.574 231.227 215.366 231.556 215.188C231.886 215.006 232.321 214.915 232.863 214.915C233.567 214.915 234.196 215.093 234.749 215.449C235.302 215.805 235.736 216.319 236.05 216.989C236.369 217.66 236.528 218.466 236.528 219.41C236.528 220.353 236.371 221.161 236.056 221.836C235.742 222.506 235.31 223.023 234.761 223.387C234.211 223.747 233.585 223.927 232.88 223.927C232.35 223.927 231.916 223.838 231.579 223.66C231.246 223.481 230.984 223.273 230.795 223.035C230.605 222.796 230.46 222.584 230.357 222.398H230.255V227.029H228.556ZM230.221 219.392C230.221 220.006 230.31 220.544 230.488 221.006C230.666 221.468 230.924 221.83 231.261 222.091C231.598 222.349 232.011 222.478 232.499 222.478C233.007 222.478 233.431 222.343 233.772 222.074C234.113 221.802 234.371 221.432 234.545 220.966C234.723 220.5 234.812 219.976 234.812 219.392C234.812 218.817 234.725 218.3 234.55 217.841C234.38 217.383 234.122 217.021 233.778 216.756C233.437 216.491 233.011 216.358 232.499 216.358C232.007 216.358 231.59 216.485 231.249 216.739C230.912 216.993 230.656 217.347 230.482 217.802C230.308 218.256 230.221 218.786 230.221 219.392ZM238.431 223.756V215.029H240.073V216.415H240.164C240.323 215.945 240.603 215.576 241.005 215.307C241.41 215.035 241.869 214.898 242.38 214.898C242.486 214.898 242.611 214.902 242.755 214.91C242.903 214.917 243.018 214.927 243.102 214.938V216.563C243.033 216.544 242.912 216.523 242.738 216.5C242.564 216.474 242.389 216.461 242.215 216.461C241.814 216.461 241.456 216.546 241.141 216.716C240.831 216.883 240.585 217.116 240.403 217.415C240.221 217.711 240.13 218.048 240.13 218.427V223.756H238.431ZM247.935 223.932C247.117 223.932 246.403 223.745 245.793 223.37C245.183 222.995 244.71 222.47 244.373 221.796C244.036 221.122 243.867 220.334 243.867 219.432C243.867 218.527 244.036 217.735 244.373 217.057C244.71 216.379 245.183 215.853 245.793 215.478C246.403 215.103 247.117 214.915 247.935 214.915C248.754 214.915 249.468 215.103 250.077 215.478C250.687 215.853 251.161 216.379 251.498 217.057C251.835 217.735 252.004 218.527 252.004 219.432C252.004 220.334 251.835 221.122 251.498 221.796C251.161 222.47 250.687 222.995 250.077 223.37C249.468 223.745 248.754 223.932 247.935 223.932ZM247.941 222.506C248.471 222.506 248.911 222.366 249.259 222.086C249.608 221.805 249.865 221.432 250.032 220.966C250.202 220.5 250.288 219.987 250.288 219.427C250.288 218.87 250.202 218.358 250.032 217.892C249.865 217.423 249.608 217.046 249.259 216.762C248.911 216.478 248.471 216.336 247.941 216.336C247.407 216.336 246.964 216.478 246.612 216.762C246.263 217.046 246.004 217.423 245.833 217.892C245.666 218.358 245.583 218.87 245.583 219.427C245.583 219.987 245.666 220.5 245.833 220.966C246.004 221.432 246.263 221.805 246.612 222.086C246.964 222.366 247.407 222.506 247.941 222.506ZM261.069 215.029L257.904 223.756H256.086L252.915 215.029H254.739L256.95 221.745H257.04L259.245 215.029H261.069ZM264.955 223.949C264.402 223.949 263.902 223.847 263.455 223.642C263.008 223.434 262.654 223.133 262.393 222.739C262.135 222.345 262.006 221.862 262.006 221.29C262.006 220.798 262.101 220.392 262.29 220.074C262.48 219.756 262.736 219.504 263.058 219.319C263.379 219.133 263.739 218.993 264.137 218.898C264.535 218.803 264.94 218.731 265.353 218.682C265.876 218.622 266.3 218.572 266.626 218.535C266.951 218.493 267.188 218.427 267.336 218.336C267.484 218.245 267.558 218.097 267.558 217.892V217.853C267.558 217.356 267.417 216.972 267.137 216.699C266.861 216.427 266.448 216.29 265.898 216.29C265.326 216.29 264.876 216.417 264.546 216.671C264.22 216.921 263.995 217.199 263.87 217.506L262.273 217.142C262.463 216.612 262.739 216.184 263.103 215.858C263.47 215.529 263.893 215.29 264.37 215.142C264.847 214.991 265.349 214.915 265.876 214.915C266.224 214.915 266.594 214.957 266.984 215.04C267.378 215.12 267.745 215.267 268.086 215.483C268.431 215.699 268.713 216.008 268.933 216.41C269.152 216.807 269.262 217.324 269.262 217.961V223.756H267.603V222.563H267.535C267.425 222.783 267.26 222.999 267.04 223.211C266.821 223.423 266.539 223.599 266.194 223.739C265.849 223.879 265.436 223.949 264.955 223.949ZM265.325 222.586C265.794 222.586 266.196 222.493 266.529 222.307C266.866 222.122 267.122 221.879 267.296 221.58C267.474 221.277 267.563 220.953 267.563 220.608V219.483C267.503 219.544 267.385 219.601 267.211 219.654C267.04 219.703 266.845 219.747 266.626 219.785C266.406 219.819 266.192 219.851 265.984 219.881C265.775 219.908 265.601 219.93 265.461 219.949C265.131 219.991 264.83 220.061 264.558 220.16C264.289 220.258 264.073 220.4 263.91 220.586C263.751 220.767 263.671 221.01 263.671 221.313C263.671 221.733 263.826 222.052 264.137 222.267C264.448 222.48 264.844 222.586 265.325 222.586ZM273.224 212.12V223.756H271.525V212.12H273.224ZM276.629 223.864C276.318 223.864 276.051 223.754 275.827 223.535C275.604 223.311 275.492 223.042 275.492 222.728C275.492 222.417 275.604 222.152 275.827 221.932C276.051 221.709 276.318 221.597 276.629 221.597C276.939 221.597 277.206 221.709 277.43 221.932C277.653 222.152 277.765 222.417 277.765 222.728C277.765 222.936 277.712 223.127 277.606 223.302C277.504 223.472 277.367 223.608 277.197 223.711C277.026 223.813 276.837 223.864 276.629 223.864ZM71.1662 244.756L67.9389 233.12H69.7855L72.0526 242.131H72.1605L74.5185 233.12H76.348L78.706 242.137H78.8139L81.0753 233.12H82.9276L79.6946 244.756H77.9276L75.4787 236.04H75.3878L72.9389 244.756H71.1662ZM87.294 244.932C86.4342 244.932 85.6937 244.749 85.0724 244.381C84.455 244.01 83.9777 243.489 83.6406 242.819C83.3073 242.144 83.1406 241.355 83.1406 240.449C83.1406 239.555 83.3073 238.767 83.6406 238.086C83.9777 237.404 84.4474 236.872 85.0497 236.489C85.6558 236.106 86.3641 235.915 87.1747 235.915C87.6671 235.915 88.1444 235.997 88.6065 236.16C89.0687 236.322 89.4834 236.578 89.8509 236.927C90.2183 237.275 90.508 237.728 90.7202 238.285C90.9323 238.838 91.0384 239.51 91.0384 240.302V240.904H84.1009V239.631H89.3736C89.3736 239.184 89.2827 238.788 89.1009 238.444C88.919 238.095 88.6634 237.82 88.3338 237.62C88.008 237.419 87.6255 237.319 87.1861 237.319C86.7088 237.319 86.2921 237.436 85.9361 237.671C85.5838 237.902 85.3111 238.205 85.1179 238.58C84.9285 238.951 84.8338 239.355 84.8338 239.79V240.785C84.8338 241.368 84.9361 241.864 85.1406 242.273C85.349 242.682 85.6387 242.995 86.0099 243.211C86.3812 243.423 86.8149 243.529 87.3111 243.529C87.633 243.529 87.9266 243.483 88.1918 243.392C88.4569 243.298 88.6861 243.158 88.8793 242.972C89.0724 242.786 89.2202 242.557 89.3224 242.285L90.9304 242.574C90.8016 243.048 90.5705 243.463 90.2372 243.819C89.9077 244.171 89.4929 244.445 88.9929 244.642C88.4967 244.836 87.9304 244.932 87.294 244.932ZM99.0497 244.756L96.4815 236.029H98.2372L99.9474 242.438H100.033L101.749 236.029H103.504L105.209 242.41H105.294L106.993 236.029H108.749L106.186 244.756H104.453L102.68 238.455H102.55L100.777 244.756H99.0497ZM110.361 244.756V236.029H112.06V244.756H110.361ZM111.219 234.682C110.923 234.682 110.67 234.584 110.457 234.387C110.249 234.186 110.145 233.947 110.145 233.671C110.145 233.391 110.249 233.152 110.457 232.955C110.67 232.754 110.923 232.654 111.219 232.654C111.514 232.654 111.766 232.754 111.974 232.955C112.187 233.152 112.293 233.391 112.293 233.671C112.293 233.947 112.187 234.186 111.974 234.387C111.766 234.584 111.514 234.682 111.219 234.682ZM116.044 233.12V244.756H114.345V233.12H116.044ZM120.028 233.12V244.756H118.33V233.12H120.028ZM128.247 239.574V244.756H126.548V236.029H128.179V237.449H128.287C128.488 236.987 128.802 236.616 129.23 236.336C129.662 236.055 130.205 235.915 130.861 235.915C131.455 235.915 131.976 236.04 132.423 236.29C132.87 236.536 133.217 236.904 133.463 237.392C133.709 237.881 133.832 238.485 133.832 239.205V244.756H132.134V239.41C132.134 238.777 131.969 238.283 131.639 237.927C131.31 237.567 130.857 237.387 130.281 237.387C129.887 237.387 129.537 237.472 129.23 237.642C128.927 237.813 128.687 238.063 128.509 238.392C128.334 238.718 128.247 239.112 128.247 239.574ZM139.787 244.932C138.969 244.932 138.255 244.745 137.645 244.37C137.035 243.995 136.562 243.47 136.224 242.796C135.887 242.122 135.719 241.334 135.719 240.432C135.719 239.527 135.887 238.735 136.224 238.057C136.562 237.379 137.035 236.853 137.645 236.478C138.255 236.103 138.969 235.915 139.787 235.915C140.605 235.915 141.319 236.103 141.929 236.478C142.539 236.853 143.012 237.379 143.349 238.057C143.687 238.735 143.855 239.527 143.855 240.432C143.855 241.334 143.687 242.122 143.349 242.796C143.012 243.47 142.539 243.995 141.929 244.37C141.319 244.745 140.605 244.932 139.787 244.932ZM139.793 243.506C140.323 243.506 140.762 243.366 141.111 243.086C141.459 242.805 141.717 242.432 141.884 241.966C142.054 241.5 142.139 240.987 142.139 240.427C142.139 239.87 142.054 239.358 141.884 238.892C141.717 238.423 141.459 238.046 141.111 237.762C140.762 237.478 140.323 237.336 139.793 237.336C139.259 237.336 138.815 237.478 138.463 237.762C138.115 238.046 137.855 238.423 137.685 238.892C137.518 239.358 137.435 239.87 137.435 240.427C137.435 240.987 137.518 241.5 137.685 241.966C137.855 242.432 138.115 242.805 138.463 243.086C138.815 243.366 139.259 243.506 139.793 243.506ZM149.825 236.029V237.392H145.058V236.029H149.825ZM146.337 233.938H148.036V242.194C148.036 242.523 148.085 242.771 148.183 242.938C148.282 243.101 148.409 243.213 148.564 243.273C148.723 243.33 148.895 243.358 149.081 243.358C149.217 243.358 149.337 243.349 149.439 243.33C149.541 243.311 149.621 243.296 149.678 243.285L149.984 244.688C149.886 244.726 149.746 244.764 149.564 244.802C149.382 244.843 149.155 244.866 148.882 244.87C148.435 244.877 148.018 244.798 147.632 244.631C147.246 244.464 146.933 244.207 146.695 243.858C146.456 243.51 146.337 243.072 146.337 242.546V233.938ZM151.705 244.756V236.029H153.403V244.756H151.705ZM152.562 234.682C152.267 234.682 152.013 234.584 151.801 234.387C151.593 234.186 151.489 233.947 151.489 233.671C151.489 233.391 151.593 233.152 151.801 232.955C152.013 232.754 152.267 232.654 152.562 232.654C152.858 232.654 153.11 232.754 153.318 232.955C153.53 233.152 153.636 233.391 153.636 233.671C153.636 233.947 153.53 234.186 153.318 234.387C153.11 234.584 152.858 234.682 152.562 234.682ZM159.842 236.029V237.392H154.911V236.029H159.842ZM156.263 244.756V235.017C156.263 234.472 156.382 234.019 156.621 233.66C156.859 233.296 157.176 233.025 157.57 232.847C157.964 232.665 158.392 232.574 158.854 232.574C159.195 232.574 159.486 232.603 159.729 232.66C159.971 232.713 160.151 232.762 160.268 232.807L159.871 234.182C159.791 234.16 159.689 234.133 159.564 234.103C159.439 234.069 159.287 234.052 159.109 234.052C158.696 234.052 158.401 234.154 158.223 234.358C158.049 234.563 157.962 234.858 157.962 235.245V244.756H156.263ZM162.669 248.029C162.415 248.029 162.184 248.008 161.976 247.966C161.768 247.928 161.612 247.887 161.51 247.841L161.919 246.449C162.23 246.533 162.506 246.569 162.749 246.557C162.991 246.546 163.205 246.455 163.391 246.285C163.58 246.114 163.747 245.836 163.891 245.449L164.101 244.87L160.908 236.029H162.726L164.936 242.802H165.027L167.237 236.029H169.061L165.464 245.921C165.298 246.375 165.086 246.76 164.828 247.074C164.571 247.392 164.264 247.631 163.908 247.79C163.552 247.949 163.139 248.029 162.669 248.029ZM175.966 248.029C175.712 248.029 175.481 248.008 175.273 247.966C175.064 247.928 174.909 247.887 174.807 247.841L175.216 246.449C175.527 246.533 175.803 246.569 176.045 246.557C176.288 246.546 176.502 246.455 176.688 246.285C176.877 246.114 177.044 245.836 177.188 245.449L177.398 244.87L174.205 236.029H176.023L178.233 242.802H178.324L180.534 236.029H182.358L178.761 245.921C178.595 246.375 178.383 246.76 178.125 247.074C177.867 247.392 177.561 247.631 177.205 247.79C176.848 247.949 176.436 248.029 175.966 248.029ZM187.334 244.932C186.516 244.932 185.802 244.745 185.192 244.37C184.582 243.995 184.108 243.47 183.771 242.796C183.434 242.122 183.266 241.334 183.266 240.432C183.266 239.527 183.434 238.735 183.771 238.057C184.108 237.379 184.582 236.853 185.192 236.478C185.802 236.103 186.516 235.915 187.334 235.915C188.152 235.915 188.866 236.103 189.476 236.478C190.086 236.853 190.559 237.379 190.896 238.057C191.233 238.735 191.402 239.527 191.402 240.432C191.402 241.334 191.233 242.122 190.896 242.796C190.559 243.47 190.086 243.995 189.476 244.37C188.866 244.745 188.152 244.932 187.334 244.932ZM187.339 243.506C187.87 243.506 188.309 243.366 188.658 243.086C189.006 242.805 189.264 242.432 189.43 241.966C189.601 241.5 189.686 240.987 189.686 240.427C189.686 239.87 189.601 239.358 189.43 238.892C189.264 238.423 189.006 238.046 188.658 237.762C188.309 237.478 187.87 237.336 187.339 237.336C186.805 237.336 186.362 237.478 186.01 237.762C185.661 238.046 185.402 238.423 185.232 238.892C185.065 239.358 184.982 239.87 184.982 240.427C184.982 240.987 185.065 241.5 185.232 241.966C185.402 242.432 185.661 242.805 186.01 243.086C186.362 243.366 186.805 243.506 187.339 243.506ZM198.827 241.137V236.029H200.531V244.756H198.861V243.245H198.77C198.569 243.711 198.247 244.099 197.804 244.41C197.365 244.716 196.817 244.87 196.162 244.87C195.601 244.87 195.105 244.747 194.673 244.5C194.245 244.25 193.908 243.881 193.662 243.392C193.42 242.904 193.298 242.3 193.298 241.58V236.029H194.997V241.375C194.997 241.97 195.162 242.444 195.491 242.796C195.821 243.148 196.249 243.324 196.776 243.324C197.094 243.324 197.41 243.245 197.724 243.086C198.043 242.927 198.306 242.686 198.514 242.364C198.726 242.042 198.83 241.633 198.827 241.137ZM213.588 238.16L212.048 238.432C211.984 238.235 211.882 238.048 211.741 237.87C211.605 237.692 211.42 237.546 211.185 237.432C210.95 237.319 210.656 237.262 210.304 237.262C209.823 237.262 209.421 237.37 209.099 237.586C208.777 237.798 208.616 238.072 208.616 238.41C208.616 238.701 208.724 238.936 208.94 239.114C209.156 239.292 209.505 239.438 209.986 239.552L211.372 239.87C212.175 240.055 212.774 240.341 213.168 240.728C213.562 241.114 213.759 241.616 213.759 242.233C213.759 242.756 213.607 243.222 213.304 243.631C213.005 244.036 212.586 244.355 212.048 244.586C211.514 244.817 210.895 244.932 210.19 244.932C209.213 244.932 208.416 244.724 207.798 244.307C207.181 243.887 206.802 243.29 206.662 242.517L208.304 242.267C208.406 242.695 208.616 243.019 208.935 243.239C209.253 243.455 209.668 243.563 210.179 243.563C210.736 243.563 211.181 243.447 211.514 243.216C211.848 242.981 212.014 242.695 212.014 242.358C212.014 242.086 211.912 241.856 211.707 241.671C211.507 241.485 211.198 241.345 210.781 241.25L209.304 240.927C208.49 240.741 207.887 240.445 207.497 240.04C207.111 239.635 206.918 239.122 206.918 238.5C206.918 237.985 207.062 237.535 207.349 237.148C207.637 236.762 208.035 236.461 208.543 236.245C209.05 236.025 209.632 235.915 210.287 235.915C211.23 235.915 211.973 236.12 212.514 236.529C213.056 236.934 213.414 237.478 213.588 238.16ZM219.303 244.932C218.484 244.932 217.77 244.745 217.161 244.37C216.551 243.995 216.077 243.47 215.74 242.796C215.403 242.122 215.234 241.334 215.234 240.432C215.234 239.527 215.403 238.735 215.74 238.057C216.077 237.379 216.551 236.853 217.161 236.478C217.77 236.103 218.484 235.915 219.303 235.915C220.121 235.915 220.835 236.103 221.445 236.478C222.054 236.853 222.528 237.379 222.865 238.057C223.202 238.735 223.371 239.527 223.371 240.432C223.371 241.334 223.202 242.122 222.865 242.796C222.528 243.47 222.054 243.995 221.445 244.37C220.835 244.745 220.121 244.932 219.303 244.932ZM219.308 243.506C219.839 243.506 220.278 243.366 220.626 243.086C220.975 242.805 221.232 242.432 221.399 241.966C221.57 241.5 221.655 240.987 221.655 240.427C221.655 239.87 221.57 239.358 221.399 238.892C221.232 238.423 220.975 238.046 220.626 237.762C220.278 237.478 219.839 237.336 219.308 237.336C218.774 237.336 218.331 237.478 217.979 237.762C217.63 238.046 217.371 238.423 217.2 238.892C217.034 239.358 216.95 239.87 216.95 240.427C216.95 240.987 217.034 241.5 217.2 241.966C217.371 242.432 217.63 242.805 217.979 243.086C218.331 243.366 218.774 243.506 219.308 243.506ZM228.943 244.932C228.125 244.932 227.411 244.745 226.801 244.37C226.191 243.995 225.718 243.47 225.381 242.796C225.044 242.122 224.875 241.334 224.875 240.432C224.875 239.527 225.044 238.735 225.381 238.057C225.718 237.379 226.191 236.853 226.801 236.478C227.411 236.103 228.125 235.915 228.943 235.915C229.761 235.915 230.475 236.103 231.085 236.478C231.695 236.853 232.169 237.379 232.506 238.057C232.843 238.735 233.011 239.527 233.011 240.432C233.011 241.334 232.843 242.122 232.506 242.796C232.169 243.47 231.695 243.995 231.085 244.37C230.475 244.745 229.761 244.932 228.943 244.932ZM228.949 243.506C229.479 243.506 229.919 243.366 230.267 243.086C230.616 242.805 230.873 242.432 231.04 241.966C231.21 241.5 231.295 240.987 231.295 240.427C231.295 239.87 231.21 239.358 231.04 238.892C230.873 238.423 230.616 238.046 230.267 237.762C229.919 237.478 229.479 237.336 228.949 237.336C228.415 237.336 227.972 237.478 227.619 237.762C227.271 238.046 227.011 238.423 226.841 238.892C226.674 239.358 226.591 239.87 226.591 240.427C226.591 240.987 226.674 241.5 226.841 241.966C227.011 242.432 227.271 242.805 227.619 243.086C227.972 243.366 228.415 243.506 228.949 243.506ZM236.607 239.574V244.756H234.908V236.029H236.538V237.449H236.646C236.847 236.987 237.161 236.616 237.589 236.336C238.021 236.055 238.565 235.915 239.22 235.915C239.815 235.915 240.336 236.04 240.783 236.29C241.23 236.536 241.576 236.904 241.822 237.392C242.069 237.881 242.192 238.485 242.192 239.205V244.756H240.493V239.41C240.493 238.777 240.328 238.283 239.999 237.927C239.669 237.567 239.216 237.387 238.641 237.387C238.247 237.387 237.896 237.472 237.589 237.642C237.286 237.813 237.046 238.063 236.868 238.392C236.694 238.718 236.607 239.112 236.607 239.574ZM245.607 244.864C245.296 244.864 245.029 244.754 244.805 244.535C244.582 244.311 244.47 244.042 244.47 243.728C244.47 243.417 244.582 243.152 244.805 242.932C245.029 242.709 245.296 242.597 245.607 242.597C245.917 242.597 246.184 242.709 246.408 242.932C246.631 243.152 246.743 243.417 246.743 243.728C246.743 243.936 246.69 244.127 246.584 244.302C246.482 244.472 246.345 244.608 246.175 244.711C246.004 244.813 245.815 244.864 245.607 244.864ZM249.851 244.864C249.54 244.864 249.273 244.754 249.05 244.535C248.826 244.311 248.714 244.042 248.714 243.728C248.714 243.417 248.826 243.152 249.05 242.932C249.273 242.709 249.54 242.597 249.851 242.597C250.161 242.597 250.429 242.709 250.652 242.932C250.875 243.152 250.987 243.417 250.987 243.728C250.987 243.936 250.934 244.127 250.828 244.302C250.726 244.472 250.589 244.608 250.419 244.711C250.249 244.813 250.059 244.864 249.851 244.864ZM254.101 244.864C253.79 244.864 253.523 244.754 253.3 244.535C253.076 244.311 252.964 244.042 252.964 243.728C252.964 243.417 253.076 243.152 253.3 242.932C253.523 242.709 253.79 242.597 254.101 242.597C254.411 242.597 254.679 242.709 254.902 242.932C255.125 243.152 255.237 243.417 255.237 243.728C255.237 243.936 255.184 244.127 255.078 244.302C254.976 244.472 254.839 244.608 254.669 244.711C254.499 244.813 254.309 244.864 254.101 244.864ZM257.805 233.12V234.211C257.805 234.533 257.745 234.872 257.624 235.228C257.506 235.58 257.339 235.919 257.124 236.245C256.908 236.57 256.654 236.851 256.362 237.086L255.521 236.483C255.745 236.158 255.938 235.811 256.101 235.444C256.268 235.076 256.351 234.671 256.351 234.228V233.12H257.805Z" fill="#A3362B"/>
<defs>
<filter id="filter0_di_35_1180" x="119.153" y="19.364" width="46.6143" height="46.6125" filterUnits="userSpaceOnUse" color-interpolation-filters="sRGB">
<feFlood flood-opacity="0" result="BackgroundImageFix"/>
<feColorMatrix in="SourceAlpha" type="matrix" values="0 0 0 0 0 0 0 0 0 0 0 0 0 0 0 0 0 0 127 0" result="hardAlpha"/>
<feOffset dy="3"/>
<feGaussianBlur stdDeviation="2"/>
<feComposite in2="hardAlpha" operator="out"/>
<feColorMatrix type="matrix" values="0 0 0 0 0 0 0 0 0 0 0 0 0 0 0 0 0 0 0.25 0"/>
<feBlend mode="normal" in2="BackgroundImageFix" result="effect1_dropShadow_35_1180"/>
<feBlend mode="normal" in="SourceGraphic" in2="effect1_dropShadow_35_1180" result="shape"/>
<feColorMatrix in="SourceAlpha" type="matrix" values="0 0 0 0 0 0 0 0 0 0 0 0 0 0 0 0 0 0 127 0" result="hardAlpha"/>
<feOffset dy="4"/>
<feGaussianBlur stdDeviation="2"/>
<feComposite in2="hardAlpha" operator="arithmetic" k2="-1" k3="1"/>
<feColorMatrix type="matrix" values="0 0 0 0 0 0 0 0 0 0 0 0 0 0 0 0 0 0 0.25 0"/>
<feBlend mode="normal" in2="shape" result="effect2_innerShadow_35_1180"/>
</filter>
<linearGradient id="paint0_linear_35_1180" x1="170.645" y1="42.4599" x2="264.26" y2="102.931" gradientUnits="userSpaceOnUse">
<stop stop-color="#A3362B"/>
<stop offset="0.49" stop-color="#B74842"/>
<stop offset="1" stop-color="#D66765"/>
</linearGradient>
<linearGradient id="paint1_linear_35_1180" x1="134.099" y1="22.2324" x2="160.086" y2="54.638" gradientUnits="userSpaceOnUse">
<stop stop-color="#A3362B"/>
<stop offset="0.49" stop-color="#B74842"/>
<stop offset="1" stop-color="#D66765"/>
</linearGradient>
<radialGradient id="paint2_radial_35_1180" cx="0" cy="0" r="1" gradientUnits="userSpaceOnUse" gradientTransform="translate(174.596 25.3224) scale(14.9588 14.9588)">
<stop stop-color="white"/>
<stop offset="0.07" stop-color="#F6F6F6"/>
<stop offset="0.19" stop-color="#DFDFDF"/>
<stop offset="0.33" stop-color="#BABABA"/>
<stop offset="0.5" stop-color="#868686"/>
<stop offset="0.68" stop-color="#444444"/>
<stop offset="0.85"/>
</radialGradient>
</defs>
</svg>
